<mxfile host="Electron" agent="Mozilla/5.0 (Windows NT 10.0; Win64; x64) AppleWebKit/537.36 (KHTML, like Gecko) draw.io/26.1.1 Chrome/132.0.6834.210 Electron/34.3.3 Safari/537.36" version="26.1.1">
  <diagram name="Page-1" id="M-Ef8Z2-noRnOI7Krq5e">
    <mxGraphModel dx="1194" dy="657" grid="1" gridSize="10" guides="1" tooltips="1" connect="1" arrows="1" fold="1" page="1" pageScale="1" pageWidth="1200" pageHeight="1920" math="0" shadow="0">
      <root>
        <mxCell id="0" />
        <mxCell id="1" parent="0" />
        <mxCell id="3ur9gsYHsS7Vl2ftzdm_-1" value="&lt;h1 style=&quot;margin-top: 0px;&quot;&gt;High Level Architecture&lt;/h1&gt;" style="text;html=1;whiteSpace=wrap;overflow=hidden;rounded=0;" vertex="1" parent="1">
          <mxGeometry x="30" y="50" width="310" height="50" as="geometry" />
        </mxCell>
        <mxCell id="3ur9gsYHsS7Vl2ftzdm_-2" value="" style="rounded=0;whiteSpace=wrap;html=1;fillColor=none;dashed=1;strokeColor=light-dark(#605c5c, #ededed);" vertex="1" parent="1">
          <mxGeometry x="80" y="200" width="165" height="450" as="geometry" />
        </mxCell>
        <mxCell id="3ur9gsYHsS7Vl2ftzdm_-3" value="&lt;font style=&quot;font-size: 20px;&quot;&gt;Sources&lt;/font&gt;" style="rounded=0;whiteSpace=wrap;html=1;strokeColor=none;" vertex="1" parent="1">
          <mxGeometry x="115" y="180" width="95" height="30" as="geometry" />
        </mxCell>
        <mxCell id="3ur9gsYHsS7Vl2ftzdm_-4" value="" style="rounded=0;whiteSpace=wrap;html=1;fillColor=none;dashed=1;strokeColor=light-dark(#605c5c, #ededed);" vertex="1" parent="1">
          <mxGeometry x="280" y="200" width="580" height="450" as="geometry" />
        </mxCell>
        <mxCell id="3ur9gsYHsS7Vl2ftzdm_-9" value="&lt;font style=&quot;font-size: 20px;&quot;&gt;Data Warehouse&lt;/font&gt;" style="rounded=0;whiteSpace=wrap;html=1;strokeColor=none;" vertex="1" parent="1">
          <mxGeometry x="487.5" y="180" width="155" height="30" as="geometry" />
        </mxCell>
        <mxCell id="3ur9gsYHsS7Vl2ftzdm_-11" value="" style="rounded=0;whiteSpace=wrap;html=1;fillColor=none;dashed=1;strokeColor=light-dark(#605c5c, #ededed);" vertex="1" parent="1">
          <mxGeometry x="890" y="200" width="160" height="450" as="geometry" />
        </mxCell>
        <mxCell id="3ur9gsYHsS7Vl2ftzdm_-12" value="&lt;font style=&quot;font-size: 20px;&quot;&gt;Consume&lt;/font&gt;" style="rounded=0;whiteSpace=wrap;html=1;strokeColor=none;" vertex="1" parent="1">
          <mxGeometry x="917.5" y="180" width="95" height="30" as="geometry" />
        </mxCell>
        <mxCell id="3ur9gsYHsS7Vl2ftzdm_-13" value="&lt;font style=&quot;font-size: 16px;&quot;&gt;Silver Layer&lt;/font&gt;" style="rounded=0;whiteSpace=wrap;html=1;fillColor=#f5f5f5;strokeColor=#666666;fontColor=#333333;" vertex="1" parent="1">
          <mxGeometry x="480" y="240" width="170" height="20" as="geometry" />
        </mxCell>
        <mxCell id="3ur9gsYHsS7Vl2ftzdm_-14" value="" style="rounded=0;whiteSpace=wrap;html=1;fillColor=none;strokeColor=#d79b00;" vertex="1" parent="1">
          <mxGeometry x="310" y="270" width="140" height="360" as="geometry" />
        </mxCell>
        <mxCell id="3ur9gsYHsS7Vl2ftzdm_-15" value="&lt;font style=&quot;font-size: 16px;&quot;&gt;Bronze Layer&lt;/font&gt;" style="rounded=0;whiteSpace=wrap;html=1;fillColor=#ffe6cc;strokeColor=#d79b00;" vertex="1" parent="1">
          <mxGeometry x="310" y="240" width="140" height="20" as="geometry" />
        </mxCell>
        <mxCell id="3ur9gsYHsS7Vl2ftzdm_-16" value="" style="rounded=0;whiteSpace=wrap;html=1;fillColor=none;strokeColor=#666666;fontColor=#333333;" vertex="1" parent="1">
          <mxGeometry x="480" y="270" width="170" height="360" as="geometry" />
        </mxCell>
        <mxCell id="3ur9gsYHsS7Vl2ftzdm_-18" value="" style="rounded=0;whiteSpace=wrap;html=1;fillColor=none;strokeColor=#d6b656;" vertex="1" parent="1">
          <mxGeometry x="681.25" y="270" width="157.5" height="360" as="geometry" />
        </mxCell>
        <mxCell id="3ur9gsYHsS7Vl2ftzdm_-19" value="&lt;font style=&quot;font-size: 16px;&quot;&gt;Gold Layer&lt;/font&gt;" style="rounded=0;whiteSpace=wrap;html=1;fillColor=#fff2cc;strokeColor=#d6b656;" vertex="1" parent="1">
          <mxGeometry x="680" y="240" width="160" height="20" as="geometry" />
        </mxCell>
        <mxCell id="3ur9gsYHsS7Vl2ftzdm_-20" value="" style="image;aspect=fixed;html=1;points=[];align=center;fontSize=12;image=img/lib/azure2/general/Folder_Blank.svg;" vertex="1" parent="1">
          <mxGeometry x="130" y="270" width="49" height="39.77" as="geometry" />
        </mxCell>
        <mxCell id="3ur9gsYHsS7Vl2ftzdm_-23" value="" style="verticalLabelPosition=bottom;html=1;verticalAlign=top;align=center;strokeColor=none;fillColor=#00BEF2;shape=mxgraph.azure.file_2;pointerEvents=1;" vertex="1" parent="1">
          <mxGeometry x="162" y="290" width="28.75" height="30" as="geometry" />
        </mxCell>
        <mxCell id="3ur9gsYHsS7Vl2ftzdm_-27" value="CRM" style="text;html=1;align=center;verticalAlign=middle;whiteSpace=wrap;rounded=0;" vertex="1" parent="1">
          <mxGeometry x="120" y="302.65999999999997" width="50" height="30" as="geometry" />
        </mxCell>
        <mxCell id="3ur9gsYHsS7Vl2ftzdm_-30" value="" style="image;aspect=fixed;html=1;points=[];align=center;fontSize=12;image=img/lib/azure2/general/Folder_Blank.svg;" vertex="1" parent="1">
          <mxGeometry x="130" y="340" width="49" height="39.77" as="geometry" />
        </mxCell>
        <mxCell id="3ur9gsYHsS7Vl2ftzdm_-31" value="" style="verticalLabelPosition=bottom;html=1;verticalAlign=top;align=center;strokeColor=none;fillColor=#00BEF2;shape=mxgraph.azure.file_2;pointerEvents=1;" vertex="1" parent="1">
          <mxGeometry x="162" y="360" width="28.75" height="30" as="geometry" />
        </mxCell>
        <mxCell id="3ur9gsYHsS7Vl2ftzdm_-34" value="ERP" style="text;html=1;align=center;verticalAlign=middle;whiteSpace=wrap;rounded=0;" vertex="1" parent="1">
          <mxGeometry x="120" y="372.89" width="50" height="30" as="geometry" />
        </mxCell>
        <mxCell id="3ur9gsYHsS7Vl2ftzdm_-35" value="" style="endArrow=none;html=1;rounded=0;exitX=-0.012;exitY=0.531;exitDx=0;exitDy=0;exitPerimeter=0;" edge="1" parent="1">
          <mxGeometry width="50" height="50" relative="1" as="geometry">
            <mxPoint x="93.74999999999999" y="438.95000000000005" as="sourcePoint" />
            <mxPoint x="224.41" y="439.05" as="targetPoint" />
          </mxGeometry>
        </mxCell>
        <mxCell id="3ur9gsYHsS7Vl2ftzdm_-37" value="&lt;b&gt;Object Type : &lt;/b&gt;CSV Files&lt;div&gt;&lt;br&gt;&lt;div&gt;&lt;b&gt;Interface :&lt;/b&gt; Files in Folders&lt;/div&gt;&lt;/div&gt;" style="text;html=1;align=left;verticalAlign=middle;whiteSpace=wrap;rounded=0;" vertex="1" parent="1">
          <mxGeometry x="93.75" y="460" width="137.5" height="90" as="geometry" />
        </mxCell>
        <mxCell id="3ur9gsYHsS7Vl2ftzdm_-39" value="" style="html=1;verticalLabelPosition=bottom;align=center;labelBackgroundColor=#ffffff;verticalAlign=top;strokeWidth=2;strokeColor=#d79b00;shadow=0;dashed=0;shape=mxgraph.ios7.icons.data;fillColor=#ffe6cc;" vertex="1" parent="1">
          <mxGeometry x="360" y="275.77" width="40" height="54" as="geometry" />
        </mxCell>
        <mxCell id="3ur9gsYHsS7Vl2ftzdm_-40" value="" style="html=1;verticalLabelPosition=bottom;align=center;labelBackgroundColor=#ffffff;verticalAlign=top;strokeWidth=2;strokeColor=#666666;shadow=0;dashed=0;shape=mxgraph.ios7.icons.data;fillColor=#f5f5f5;fontColor=#333333;" vertex="1" parent="1">
          <mxGeometry x="550" y="275.77" width="40" height="54" as="geometry" />
        </mxCell>
        <mxCell id="3ur9gsYHsS7Vl2ftzdm_-41" value="" style="html=1;verticalLabelPosition=bottom;align=center;labelBackgroundColor=#ffffff;verticalAlign=top;strokeWidth=2;strokeColor=#d6b656;shadow=0;dashed=0;shape=mxgraph.ios7.icons.data;fillColor=#fff2cc;" vertex="1" parent="1">
          <mxGeometry x="740" y="275.77" width="40" height="54.23" as="geometry" />
        </mxCell>
        <mxCell id="3ur9gsYHsS7Vl2ftzdm_-48" value="&lt;b&gt;Object Type : &lt;/b&gt;Tables&lt;div&gt;&lt;br&gt;&lt;div&gt;&lt;b style=&quot;background-color: transparent; color: light-dark(rgb(0, 0, 0), rgb(255, 255, 255));&quot;&gt;Load :&lt;/b&gt;&lt;span style=&quot;background-color: transparent; color: light-dark(rgb(0, 0, 0), rgb(255, 255, 255));&quot;&gt;&amp;nbsp;&lt;/span&gt;&lt;div&gt;&lt;div&gt;&lt;ul&gt;&lt;li&gt;Batch Processing&lt;/li&gt;&lt;li&gt;Full Load&lt;/li&gt;&lt;li&gt;Truncate &amp;amp; Insert&lt;/li&gt;&lt;/ul&gt;&lt;span style=&quot;background-color: transparent; color: light-dark(rgb(0, 0, 0), rgb(255, 255, 255));&quot;&gt;No &lt;b&gt;Transformations&lt;/b&gt;&lt;/span&gt;&lt;/div&gt;&lt;/div&gt;&lt;div&gt;&lt;span style=&quot;background-color: transparent; color: light-dark(rgb(0, 0, 0), rgb(255, 255, 255));&quot;&gt;&lt;b&gt;&lt;br&gt;&lt;/b&gt;&lt;/span&gt;&lt;/div&gt;&lt;div&gt;&lt;span style=&quot;background-color: transparent; color: light-dark(rgb(0, 0, 0), rgb(255, 255, 255));&quot;&gt;&lt;b&gt;Data Model:&lt;/b&gt; None (as-is)&lt;/span&gt;&lt;/div&gt;&lt;/div&gt;&lt;/div&gt;" style="text;html=1;align=left;verticalAlign=middle;whiteSpace=wrap;rounded=0;" vertex="1" parent="1">
          <mxGeometry x="320" y="400" width="120" height="170" as="geometry" />
        </mxCell>
        <mxCell id="3ur9gsYHsS7Vl2ftzdm_-51" value="&lt;b&gt;Object Type : &lt;/b&gt;Tables&lt;div&gt;&lt;br&gt;&lt;div&gt;&lt;b style=&quot;background-color: transparent; color: light-dark(rgb(0, 0, 0), rgb(255, 255, 255));&quot;&gt;Load :&lt;/b&gt;&lt;span style=&quot;background-color: transparent; color: light-dark(rgb(0, 0, 0), rgb(255, 255, 255));&quot;&gt;&amp;nbsp;&lt;/span&gt;&lt;div&gt;&lt;ul&gt;&lt;li&gt;Batch Processing&lt;/li&gt;&lt;li&gt;Full Load&lt;/li&gt;&lt;li&gt;Truncate &amp;amp; Insert&lt;/li&gt;&lt;/ul&gt;&lt;span style=&quot;background-color: transparent; color: light-dark(rgb(0, 0, 0), rgb(255, 255, 255));&quot;&gt;&lt;b&gt;Transformations :&lt;/b&gt;&lt;/span&gt;&lt;/div&gt;&lt;/div&gt;&lt;div&gt;&lt;ul&gt;&lt;li&gt;&lt;span style=&quot;background-color: transparent; color: light-dark(rgb(0, 0, 0), rgb(255, 255, 255));&quot;&gt;Data Cleaning&lt;/span&gt;&lt;/li&gt;&lt;li&gt;&lt;span style=&quot;background-color: transparent; color: light-dark(rgb(0, 0, 0), rgb(255, 255, 255));&quot;&gt;Data Standradization&lt;/span&gt;&lt;/li&gt;&lt;li&gt;&lt;span style=&quot;background-color: transparent; color: light-dark(rgb(0, 0, 0), rgb(255, 255, 255));&quot;&gt;Data Normalization&lt;/span&gt;&lt;/li&gt;&lt;li&gt;&lt;span style=&quot;background-color: transparent; color: light-dark(rgb(0, 0, 0), rgb(255, 255, 255));&quot;&gt;Derived Columns&lt;/span&gt;&lt;/li&gt;&lt;li&gt;&lt;span style=&quot;background-color: transparent; color: light-dark(rgb(0, 0, 0), rgb(255, 255, 255));&quot;&gt;Data Enrichment&lt;/span&gt;&lt;/li&gt;&lt;/ul&gt;&lt;/div&gt;&lt;div&gt;&lt;span style=&quot;background-color: transparent; color: light-dark(rgb(0, 0, 0), rgb(255, 255, 255));&quot;&gt;&lt;b&gt;Data Model:&lt;/b&gt; None (as-is)&lt;/span&gt;&lt;/div&gt;&lt;/div&gt;&lt;div&gt;&lt;span style=&quot;background-color: transparent; color: light-dark(rgb(0, 0, 0), rgb(255, 255, 255));&quot;&gt;&lt;br&gt;&lt;/span&gt;&lt;/div&gt;" style="text;html=1;align=left;verticalAlign=middle;whiteSpace=wrap;rounded=0;" vertex="1" parent="1">
          <mxGeometry x="490" y="380" width="160" height="260" as="geometry" />
        </mxCell>
        <mxCell id="3ur9gsYHsS7Vl2ftzdm_-52" value="&lt;b&gt;Object Type : &lt;/b&gt;Views&lt;div&gt;&lt;br&gt;&lt;div&gt;&lt;span style=&quot;background-color: transparent; color: light-dark(rgb(0, 0, 0), rgb(255, 255, 255));&quot;&gt;No&lt;/span&gt;&lt;b style=&quot;background-color: transparent; color: light-dark(rgb(0, 0, 0), rgb(255, 255, 255));&quot;&gt; Load &lt;/b&gt;&lt;span style=&quot;background-color: transparent; color: light-dark(rgb(0, 0, 0), rgb(255, 255, 255));&quot;&gt;&amp;nbsp;&lt;/span&gt;&lt;/div&gt;&lt;div&gt;&lt;br&gt;&lt;div&gt;&lt;span style=&quot;background-color: transparent; color: light-dark(rgb(0, 0, 0), rgb(255, 255, 255));&quot;&gt;&lt;b&gt;Transformations :&lt;/b&gt;&lt;/span&gt;&lt;/div&gt;&lt;/div&gt;&lt;div&gt;&lt;ul&gt;&lt;li&gt;&lt;span style=&quot;background-color: transparent; color: light-dark(rgb(0, 0, 0), rgb(255, 255, 255));&quot;&gt;Data Integrations&lt;/span&gt;&lt;/li&gt;&lt;li&gt;Aggregations&lt;/li&gt;&lt;li&gt;Business Logics&lt;/li&gt;&lt;/ul&gt;&lt;/div&gt;&lt;div&gt;&lt;span style=&quot;background-color: transparent; color: light-dark(rgb(0, 0, 0), rgb(255, 255, 255));&quot;&gt;&lt;b&gt;Data Model :&lt;/b&gt;&lt;/span&gt;&lt;/div&gt;&lt;div&gt;&lt;ul&gt;&lt;li&gt;&lt;span style=&quot;background-color: transparent; color: light-dark(rgb(0, 0, 0), rgb(255, 255, 255));&quot;&gt;Star Schema&lt;/span&gt;&lt;/li&gt;&lt;li&gt;&lt;span style=&quot;background-color: transparent; color: light-dark(rgb(0, 0, 0), rgb(255, 255, 255));&quot;&gt;Flat Tables&lt;/span&gt;&lt;/li&gt;&lt;li&gt;&lt;span style=&quot;background-color: transparent; color: light-dark(rgb(0, 0, 0), rgb(255, 255, 255));&quot;&gt;Aggregated Table&amp;nbsp;&lt;/span&gt;&lt;/li&gt;&lt;/ul&gt;&lt;/div&gt;&lt;/div&gt;" style="text;html=1;align=left;verticalAlign=middle;whiteSpace=wrap;rounded=0;" vertex="1" parent="1">
          <mxGeometry x="690" y="400" width="150" height="195" as="geometry" />
        </mxCell>
        <mxCell id="3ur9gsYHsS7Vl2ftzdm_-57" value="Raw Data" style="text;html=1;align=center;verticalAlign=middle;whiteSpace=wrap;rounded=0;" vertex="1" parent="1">
          <mxGeometry x="350" y="329.77000000000004" width="60" height="30" as="geometry" />
        </mxCell>
        <mxCell id="3ur9gsYHsS7Vl2ftzdm_-58" value="Cleaned, Strandized Data" style="text;html=1;align=center;verticalAlign=middle;whiteSpace=wrap;rounded=0;" vertex="1" parent="1">
          <mxGeometry x="505" y="332.66" width="130" height="30" as="geometry" />
        </mxCell>
        <mxCell id="3ur9gsYHsS7Vl2ftzdm_-59" value="Business -Ready Data" style="text;html=1;align=center;verticalAlign=middle;whiteSpace=wrap;rounded=0;" vertex="1" parent="1">
          <mxGeometry x="695" y="330" width="130" height="30" as="geometry" />
        </mxCell>
        <mxCell id="3ur9gsYHsS7Vl2ftzdm_-64" value="" style="endArrow=none;html=1;rounded=0;exitX=-0.012;exitY=0.531;exitDx=0;exitDy=0;exitPerimeter=0;fillColor=#ffe6cc;strokeColor=#d79b00;" edge="1" parent="1">
          <mxGeometry width="50" height="50" relative="1" as="geometry">
            <mxPoint x="330" y="379.77000000000004" as="sourcePoint" />
            <mxPoint x="430" y="380" as="targetPoint" />
          </mxGeometry>
        </mxCell>
        <mxCell id="3ur9gsYHsS7Vl2ftzdm_-75" value="" style="endArrow=none;html=1;rounded=0;entryX=0.813;entryY=0.077;entryDx=0;entryDy=0;entryPerimeter=0;fillColor=#f5f5f5;strokeColor=#666666;exitX=0.127;exitY=-0.021;exitDx=0;exitDy=0;exitPerimeter=0;" edge="1" parent="1">
          <mxGeometry width="50" height="50" relative="1" as="geometry">
            <mxPoint x="507.65999999999997" y="378.92999999999995" as="sourcePoint" />
            <mxPoint x="632.34" y="378.82" as="targetPoint" />
          </mxGeometry>
        </mxCell>
        <mxCell id="3ur9gsYHsS7Vl2ftzdm_-77" value="" style="endArrow=none;html=1;rounded=0;fillColor=#fff2cc;strokeColor=#d6b656;" edge="1" parent="1">
          <mxGeometry width="50" height="50" relative="1" as="geometry">
            <mxPoint x="813.13" y="379.77" as="sourcePoint" />
            <mxPoint x="706.88" y="379.77" as="targetPoint" />
          </mxGeometry>
        </mxCell>
        <mxCell id="3ur9gsYHsS7Vl2ftzdm_-81" value="" style="shape=image;verticalLabelPosition=bottom;labelBackgroundColor=default;verticalAlign=top;aspect=fixed;imageAspect=0;image=data:image/png,iVBORw0KGgoAAAANSUhEUgAAAgAAAAIACAYAAAD0eNT6AAAACXBIWXMAAA7DAAAOwwHHb6hkAAAAGXRFWHRTb2Z0d2FyZQB3d3cuaW5rc2NhcGUub3Jnm+48GgAAIABJREFUeJzs3WdgFVXaB/DnzG3pPYQkJIQkBELoSehNil0UdxNE14a9YcVdrMAqFhRUBBV7ByLYVwVUQgsloSdASCCkkpDeb5k57wd1X1nJ3JLbcuf/+2bmmXMeIdx57pxGBAAAAAAAAAAAAAAAAAAAAAAAAAAAAAAAAAAAAAAAAAAAAAAAAAAAAAAAAAAAAAAAAAAAAAAAAAAAAAAAAAAAAAAAAAAAAAAAAAAAAAAAAAAAAAAAAAAAAAAAAAAAAAAAAAAAAAAAAAAAAAAAAAAAAAAAAAAAAAAAAAAAAAAAAAAAAAAAAAAAAAAAAAAAAAAAAAAAAAAAAJ6DuToBAFCgjAwVnRTi1EyK51wIIuJGkdFZkng1BZwtoS1bTK5OEYBSb9eQqqmfmkvxXBL8iYgY580mjXiSvOtO9fTfUxQAAOAcYzO8VQaaJTHKZMSmEFFgF5GNnGizQPSDaNCtpUMftzkxS1C68TP9VQbvv0ucZzKiCUTk10VkC+c8W2BClmjQru+Jv6coAADAsRIv0QlBfvOIsUeIUy8r7z5LnC+TvPQracc3LQ7JD4CIaOj1voJWP58YzSNOwVbeXUdEyyQNX045WR2OSM8RUAAAgOOkz04XOP+YiAZ0ryF2WmLsWtq7Zqdd8gL4E3Vq5gUSY+8T8b7dbKpYIrqRctftsEtiDqZydQIA4JlUaZlzGdEGIoqwQ3NBjPiNLGpQJ68sQBEAdiOkZj7MGX1EZPW3/vMJYUQ3sKiUel6Zv9cO7TkUCgAAsDshPeN+IraKiNT2bJaIzWBRKUZemb/Nju2CQgnpmYuJ6FkiEuzZLBFdyqIGtbt7sYoCAADsSpWeMZs4e5scN8Q4jUWl1PaEb1jgvoT02XcTpxcc1wObJkQNPsgr8487ro/uwRwAALCfUbOTBInnUdczp+1FL3GeTnlZhx3cD3iikRmpgsB2EpHWwT21SEwcS3vX5zu4H5vY87UHACgck/ibZMXDX8uoNFSr2t9Lp87TCayYiLiFt+oExj6g1Ns1NiUKypWRoRIE9g5Z8fDXqelUrwC+PyyQ7depqcSK3vwZF161Okcnsef4HAAomGrk7Ms58QssCNVPC/Pd9VpyeNxAP11fIor940Jph7FqwfGzx9ZWNadxYv5m2hmposZrRaIPu5U4KIqqhK7nRMMtCG2bNZrtXfoPKalfBPX77UcSEREVVbOyBz9gxf/J46OIyEeuEUZsmio942LT3qwfu5m63WEIAADsQpWWuY3/tnFKl7SMle0YG2MYGeidIBd3usNYNXR7SWOrSUo20+0BKXfdCKuTBaViQlpmPhHJ/l75aKlo31Ku6x9JMXJxBeVUkvZPQdIbebyZfvdJuetSrU3W0VAAAED3/Tb2f4xkPlNUjKqLpsSzWC+NRZsBNYtSa/TPxVXtotRfLk7ifCLlZW23MmNQolEZYwWJyc7M16nZ6bK3xMBQfxZkSZM1TVQXeydrN4ryxYLE+Ajam3XAmnQdDXMAAKDbBM5nkpkvFF+MiK629OFPRBSgEvxyxsaqiMgo27fALrS0TVA2gbMrzYSIvy6W9JY+/ImIegVS6A+P82YyM39FIJppaZvOggIAALqNc5ood723lzpvZoTfUGvbHeyvi08P9MqR75vL9g3wB2bmd2VQH757dCIlWdvuBYMpJb4X7ZaL4ZwmWduuo2ESIAB0GyNKkbt+X2ywwda2n0gMDbgyr0KmbzaGpc1+y9b2lYfribE2kqRSiegwxVMOZWWJrs7KGTgx2d/Tf11FOlvbfngm0T3vdH2dEUuxdImLs2AOAAB0m5CW2UnU9YfnkYlxZcl+Otkx0q4YJK73/qlQQ3hj6Sh1xOg7SeLvePRcivEz/QW9V7NcSO37vDnYlwJsab6ygWpi7mCyQ1wSD9JS3mrZIS1nwj8oAOieKVPUJPPwJyKK9taE2tq8VmA6gVGDrfeDWaHE6UaBsW0sLfMbGp0xyNUJOYRB52smQm/rw5+IqHcghRGR/JsUQ6ujN8iyCgoAAOieLVtE+mOBdBdajWJ7N3rgEpdfaw32wYiuEES2X5WWOdfVudid3svccdJag0l+wqmcNj11kPz2+py0fq22tu8IKAAAoLs4kfw39APNhipbGy9pN1YSkbet94PVtJzoXSE98yXypGHiQx+3EZFcIcqOllOZrc0fLhPM3dvgTq//iVAAAIAdMEYn5K6vKq23+RX+yrKmIlvvhW7g9LCQmvm4q9Ows3K5i6//wGwuAFb8IJ2RDeC2FxeOggIAALqNc5I9me/H2o4h9Qap0dp2jZyMK0vq+9qeGXQLo0WqURmzXJ2G3TDaKnf5o63Uv9Mg+5bgvFo6qO2LHCY/d4IxtzvCGgUAAHQbY7RJ7jrnPHjGntICa9u94WDlDr3E42xODLpL4BJbTaOvs3lynDthnH6Ru24SKWrWi8zqY6Yvf47lSRLJrgBgnP9sbbuOhn0AAKDbxHb+k+DN6oioy9n+B1r042YfqNq6ZnjkJEsGlhcX1W1bV9VibvOUTmK0mCT5SYjwJ4yriVgkEU0ioiEW3BEmiMZ/SkQ9fjhA5Pw/AmPNRF3P9t94iCY/8B7b+spcbtHGPbe/Sdnbj9FkM2H1olEnWyS7gudM8AAAlxLSMp8losfMxcX7aHf/lN4nNt5HE3m+6zV6sf6q/RVHdjd0WPIB/KaUu+4ua3OF3428ZqIgSKuIaLCZyHZJr+5Dhz/r8csxhbTMZUT0oLm4oXG0/fsFPCkq+Pzf7Etr6cylS4STR8v5OAu6XSLlrnO7AgoFAADYR+qcMIGJJ4jIkn3U9fHemgOzowOMg/20PlqVihW0dLatrWxmR1sMwzgjS9ZL6yUmDqK96092M3NlGz/TX6X3+o6T/Fa1jNH14t51nzgrLYdJzYgVGDtKZo7x/V1bUjQ/eM1Ykgb1IR9OjB8pZe1rciR1cRUbTpatTmmWGB9Ae7PkJwm6AAoAALAbITXjLmJslZO6e1zKXbfESX15ttQ5YYIg5hPvehybE33Bc9dlODMtRxHSZj9AxJc7pzd2p5S71i23qsYkQACwGykv601O9K2j+2FEOZJfzYuO7kcx8j6vJU7Py4UwoqnOSsfRpNzk1zjxLY7uhzP6Scpdu9rR/dgKBQAA2BPnKs0/iMiR554XiiK/krZsMTmwD8WRRGEtyR9pG0Kpc8KclY9jLZS4XnM1ET/kqB4Y8VwuaDLJzDHBroQCAADsa/enzRJXzWAkv+baNuyYJJoupP1ZZ+3ftsLtX1NJRPWyMcxk85kObufwZw0So4uI6IgDWt8ncvUltPtT2cOHXA0FAADYX97ntWIHn0GMZA5ItQ4n/oPEpTG0f8Npe7UJf2Fmlr/Ks85k2Jt1RjLoxhDR53Zrk7MPJA2fQHmf19qtTQfBPgAA4Bj5WQaJ6DZVeuYmzullIupjY0vVjNM/pbysj8iNX6d6BM44MYX9ER/6uE0iulaVlvktJ3qWiPrZ2FIRI75AzFv3hT3TcyS8AQAAhxL3rlsn+fn0J053EaeDVtx6lDibJ6k0SWLeug8JD39wIDF33edSY0syMXYPI77bwts4I8phjN8h8aBBYm5Wj3n4E2EZIAA426jZSYIoTSMmDOfE+wmMQoiTKBHVMqJq4rRHEsRttHd9AeGh71RC6uxCYrx/V9clEkZS7pr9zszJZUZnDBJEli8XInGWSHlri52Vkr1hCAAAnGvP2kKJqPCP/xT/dAlPe3Abps4SYmb2+YmXSijPOek4AoYAAAAAFAgFAAAAgAKhAAAAAFAgFAAAAAAKhAIAAABAgVAAAAAAKBAKAAAAAAVCAQAAAKBAKAAAAAAUCAUAAACAAqEAAAAAUCAUAAAAAAqEAgAAAECBUAAAAAAoEAoAAAAABUIBAAAAoEAoAAAAABQIBQAAAIACoQAAAABQIBQAAAAACoQCAAAAQIFQAAAAACgQCgAAAAAFQgEAAACgQGqH9zD0el9SG0eqVNJALlESEcVyRsECcV9iTOfw/gEAnIVTp0S8jRGrJ0anGbHjIpOOkY/vftryQaer0wP4M8cUACPnDBWY9DfG+FRO+tFEpOGciNhvlxkRcWJE3CG9AwC4DPvjg44TceIkcEbU2t7J0zN3Ms5/kYi+oNys467NEsCeBUBqRqDA2FzidCMxcRgRnu8AAL/zYpymErGpAtEzLD1zF5f4RxJ1fkh537a7OjlQpu4XAKlzwgQm3kuM5hGn4D+KXwAAOD/OaQwxNkYg78WUlrlS0qtfpcOfNbg6L1CWbkwCXCio0jNuF5hYTERPE6dgu2UFAKAMYUT0tKAzFQnpGfcTLcTEbHAa237Z0q4ZIaQV5HHO3iKiAPumBACgOCHE2SuqtPxtlJYxwNXJgDJYXQCo0mbfIJC0g4iGOyAfAADF4sTGCcRyVemzr3N1LuD5LJ8DkHiJTgjyf58Tn+PAfAAAlM6Pc/6JkJY5QerH76WsLNHVCYFnsqwAGD/Tn+l1XxLRNBv7MQYH+B4bEBfdkDYwnvePidRGhgfpAvx9tF4ajcrGNgEA3EaH3mhqaWs31tQ3G44Ul+oPFpUK+SdKQ5vbO/oTkcaGJu9kp1hvPuWmOdhDABzBfAGQmhGo0tNmTizNyrbbk/tF7//XTVdpZ10wepCvt26IbSkCAPRcre2d7R99tyVvxdqfeGFpZSoRaS29lxFdJbS2/yiOzbiEcrI6HJgmKJD8HIApN3mpGPvamoe/IAh1110ycUvdL++ZjqxbNv4fl05K9/XW+XY7UwCAHsjPx8vn7syLxxxdv3xs5U+rWzKmj93CGGu29H5ONJkZ2VqaMsXxO7eCosgUAAsF1tL+GSeabGFbxovHDc9u3PKB10eL750S5O+L1QEAAH8SERIYuua5B6bUbHpHmjA8eSsRWTS+z4iuEFp7veXg9EBhuiwAhNT8RxmjWZY04qXVFu/6cEnJ968umIxv+wAA8kIC/YKy3144adOqp45p1eoyC2+bq0rPvM2hiYGinL8ASMscT4z925IGBsRF76zZ/E7v9EEJ/e2aGQCAh5uanpJStXF1YJ9eoXstieecXqWRc4Y6Oi9Qhr8WAGMzvAViH5EFEwSnpg/Ozl/38lh86wcAsE2Qv2/AyW9fHzl6cOI2C8K9BcH0MeYDgD38pQAQTOwxIh5v7saLxw3P3rTqycmMMez+DwDQDSpBUO1475kJlhUBbKjQ2us+x2cFnu7cAmBkRiJxmm/upqH947Z/98q/JjksKwAAhWGMse3vPjM+NjJstwXhiyj16kiHJwUe7ZwCQFCxJ4hIJ3eDn4/XsV0fPJOOb/4AAPYlCEw4tOblwV5abbGZUH+BqR91SlLgsf6/ABhzTRxxutZMfNuuD5Z467Qa2SIBAABs4+/j5bvpjSeNRGQwE3o7jcgId0ZO4Jn+WwAIovQgmdmucu7MC3KT+0X3dXhWAAAKNm5o0sArp6TvNBPmI6gZ5gKAzX4rAFIytMRJ9vQpnUZzatWC28Y5JSsAAIX7ePF96WpBOCMbxOlGooW2HesOiicQEal86TIiCpULfPyWqys0apUtB1oAAICVfL11vndnXlxoJixWnVpg6W6tAOcQiIi4JMyWC1KrhMpHb7xytHNSAgAAIqJn77kmTRBYvVyMxNg1zsoHPItARIyIT5ELumxiaiG+/QMAOJePl85nwvDkw/JR3NZj2kHhBErNGExEEXJBi+7IxMQ/AAAXWHiH2Zn+CTTianxGg9XUgiBMJM67DNCq1WVDEmP7OTEny0itTSQ2N5PU0kZc6vp/AACgpxECfEjl60uqoLCJw5MHCoydlTjvshBQqdUTRaLTzkwRej41cT5QLiAlMbaEiGKck05XJJHa9x+hlq0NpM8PJLGlDxEPJ6JA1+YFAOBQLYLgUxrfW91YVGXssgDgnMl+jgOcj5oTDZTb0m96+mDXfbs2VpZR3XsnqePIQCJpmMvyAABwDX+S2lNGJ9KWoqquP6k58QFOzAk8hJoRSyDq+hk/dmhSgBPz+Y2xqpRqlpaRoXw0ufztAwCAa00dTD6fyhwTxIgSMQ4K1lIT8SC5gJTEmDBnJUNcNFLtqh3Uum00EcU6rV8AADeWHEOyn9NELNg5mYAnURORn1xAsL+vr1MyMZ2tpMpH60hsm+KU/gAAeohQf2bmc5j7OycT8CQCEWnlAvx9vB1fAHQezqfye71IbBvi8L4AAHqYEB9u7nMYBQBYTW0uQKUSVA7NoG1XHtUsG0hEznnTAADQw6jVZj+rHfs5DR7JtYdIdObn09nlePgDAAA4mdk3AA5jOlNOVYsjicy+2gIAAAA7c80bAC4aqXJBAxEPcUn/AAAACueaAqDmtR2Y8AcAAOA6zi8ADBWnqT1njNP7BQAAgP9yfgFQ80IlEXk5vV8AAAD4L+cWAIbSU2Q8M9qpfQIAAMBfOLcAqHu7zOl9AgAAwF8472HMTQbSFw52Wn8AAADQJecVAK07DxLHsj8AAAB34LwCoC273Wl9AQAAgCznFQD6ol5O6wsAAABkOakA4Jykjr7O6QsAAADMcU4BYDpbRUQ+TukLAAAAzHJSAVDb6JR+AAAAwCLOKQDEVr1T+gEAAACLOKcAkDpNTukHAAAALOKsSYDO6QYAAAAsgm15AQAAFAgFAAAAgAKhAAAAAFAgFAAAAAAKhAIAAABAgdSuTqAnqm5ktduO8dO7T7DWPUWcqhpJ29pBWr2BtCbO8GcKAHbFJRKIaIBMiKBKz8ztdj+cx8pdF0i6mY3KiBNNdJj2pZwkWih1t09wHTysLCBJJG7YQwdW/cha9xZTZLue+hOxsN+uMtcmBwBARJxTqhO6uY9L7D5BIKK0grNEmZsZ4xvFTs3XdPizBif0D3aEAkDG8Upe+vCH7OSmg2ygSXLKPy4AgJ4inIjmcM7mCDqTntIzvxFEete0b91GwuYvPQIKgPPYf5qKblxBNfmlwigikn0lBgAApCNOGZJAGUJaxn5GtETMTdmAIQL3hkmAf9LQSk1TF7GtafNZv/xSNo5QIAEAWImN4MSyhLSCvTQqY6yrs4GuoQD43UvfsB29bhWM2fk0iYhUrs4HAKCHGylIbLuQmrmSUq/AcfBuSPEFQKeROqcuYlv/+QmNlyQe5up8AAA8iECM7haYTx6lZwx3dTJwLkUXAMVnqCLsJir7/Vs/AAA4BB8ocLZTlT77aldnAv9PsWPc+05R8dgFzNckUX9b7mfEWiPCg46n9OvTmp6SIESHBWsiQoO09s4TAMCV9AaTVFp9Vn+osNR4qKhUW1x+JtpgNPW1oSlvznmWkJoxX8rLWmb3RMFqiiwAth9jR6c8Tb05p2Br7hMEoWZK6qCj/7zpqtApqYMGqlUqLA0EAMU5VVFTuTLrx6L3vv4lpKm1Y7AVtwrE2MtCaoZWyst63mEJgkWYkJYpu17TsPtzUSUI3ZsU15K9l2pXpnerDTspqOCnhz2s8rVmvN9Hpy1aeEdGzf3XXjZKrVIpsmgCADifPfnFhTctXFl7vKRiDFk1rMwelHLXvuKwxLor9QofgXm3yYVI/biasrJEZ6Vkb4qaA1DVSDUjHxEESx/+giDULbozY3vzto8SHr5+5jg8/AEAzjUqJSGpIGvZuF0fLikODfA7aPmd/GVV2uwrHZcZmKOYAkCSSBo5nyqMIsVYEh8fHbHrzMbVwhO3/H0CYwz7/QIAyEgflNC/evM7Qx/6xxVbiajDglsETvxjGp0xyNG5wfkppgC47lXaWtPERlgQKt6beXH2ia9eGxMa6G/VHAEAACVjjLGl9/9jUs4HS8o0alWFBbf4CyJbS4mX6ByeHPyFIgqAbUfp6LocNtGC0M43F9yW++r8myc7PCkAAA81KiUh6dS3q7S+XrrjFoQPFoIDFjo6J/grjy8AJImkK59nnMzv7mf47Jl5+bddPX20M/ICAPBkkWFB4Se/fT3c10tXaDaY8/nYKMj5PL4AeHIN297UQebGmPjS+6/PnX3ReCzrAwCwk7CggJD8L5YHqgVVlZlQFeNsqVOSgv/y6FntBhMZX/qWEs3FXThm2NaH/nG53V/7c855cUV1RX5xeW1lTX0nExhFhgV7JcZEBCXH9YkVBOY2BdiJsqqy46er6qtrGztFSaTI8BCvxD69gwbGRcViEiQA2ComIjRi05tPHr3g9oWhRNTlZmmMaLpqZOZFpn3rfnJieorm0QXAM1m0yySS7Nh/gK93/jfL/znOXn3qDUb9e1//un/559/TyfLqJM55HyLq879xjFFLRFhw4R2zpnfcP+eyYYF+3v72ysESHXpDxztf/nzglc//I5yuOtufcx5D9NcVEoyxpujwkMJ7Mi8y3JN58XBfb52vM/MEgJ5v0ojk5FtnTct+58ufZb9ocYEWEBEKACfx2I2AOCfuex07rTdRnEyYaft7/y4eOyRpQHf7M4miaf4rn+xcte7HJJMk9bbmXsZY89VTR+9b/fjtqUH+vg4tBPQGo37+qx/veiNr4yCJ83Br7mWMNVx/2aRDrz96SxoKAQCwhihJYsgFNxe2tncmy8VJnKVS3tp9zsqrS9gIqOf64QA7ZObhTxOGJ++0x8N/d35RYfCUm069tuY/k6x9+BMRcc4D1v+8a0rE9Nta123Mcdgv/u4jRQVhU+eWrFz302RrH/5ERJzz4I++y54cesHNDd9szTvsiBwBwDOpBEGV9cLDJnNxAuP3OCMf8OACYNE61mQmxPjBoruTutvPsk++2znupsdj2zsNNh0q9GcmSYyc8/grI2546vUt3W3rfz333pc7xt38eP92vaHbBY9RFPvMevjFlAde+mCrPXIDAGW4cMzQIb3DgnPNhF2NfQGcwyMLAFEiMe+kNFQuZsTA+F39onpZ/W39z556Y+22+a9+PIaIvLrTzv9gn/6wbcqF9zyTba8G5y19L/uJN9aMIyKNvdokImHF2h8mzV6w3G55AoDnW/XPW8zNPQtSBfpNd0oyCueRBcC2Y3SMcxYkF7Pknjmy18354Ntf9zz73oZx5KA/w5/3HJ58z/PvdPvh+kbWxl0r1/00kYgcMpP/i827Ji9Y8elOR7QNAJ5n5uS0YTqNukQuhgvCZU5KR9E8sgD4aAudlbuu1ahPzxg9xJojLM9RXF5dceu/30wi85sLdcub6zdN2LT7kM1j7YWllWX3vvjuEHLw3/OLH32Ttju/yPxmHwCgeIwxdtmEtBLZIM4t2bkVuskjlwH+fJhkZ6iPSul/mjHW19b2p96xqJJzsnhVg0atqgzw9a4lxqTWts5AvdEYR5Z9I1dd+dCLvvUfP1PgpbJ+Lf7kW//dSedZ2tdlnipVWYCvdz1jjJrbOgINJlOchbdqL7z731Lth4uOaRiTXVUCAAqjUqnIx8eHfHz8ycsrkIho3pyLIzb8ukvurkE0NiOEcrLqnZOkMnlkAVDTyGTH9q+9ZHyXm1GY89Uve/aX19RZ8vA3jh82MGfFo3P7DEvqG09EUX9cKK2uPfPYis+Prdm4YyTnPECuEb3BGP/kghezlw4Is2qjos8qW3JrGlvSLAjtnDZqyO5XH7k5LrlfdF/6U8FQXF5dMf/Vj098vWVvOpF8UdXa3jlw+RMv7Xg0PmS8NXkCgKJ0kk53amxwcB0j3s6J+XQRJ5BelUJE25yZnNJ43BCA3kh6g/j/D9vzuWjMcIu/Ff+ve156TzIXoxZUVVvfWVy89Z1Fk35/+J8jNiKs9yfP3Dfl1LcrOwJ8vfPNtbfiVH1/kciqtabzCqrNzqLVatSluZ++ULFx5ROTf3/4nyOhT0T0hqWPTDm24ZV6Hy/tCXPtLTpRG8mJ8AYAALriRXp9svrMmQmBatVJuUCVipvdxRW6x+MKgONVVEHyY/NtfSPDZAuErpRUnq08c7ZB9khhQRDq8tcvE8cPGzDQXHsxEaER5T+8FefrpTsmF2fkPOqrMy0HLc3zaKv+dINRHCIXoxZUVUVfvaYbkRSXYK69/jGRMaXfv9FLp9GckovrlHj8lvr2o5bmCQDKNcBfJ/t6n3My+9kE3eNxBUBNI2uXu+6l1VTZurf9yqyfisjMn9l7T955MrFP779s/dsVX2+db+6nz/sSkV4u7uWTdbI7Uv3Z0pP1sg9qIqKvls0/G90rNMLSNoMD/AKz31lkIjNvIpaebJCdgAkAQETU10tt5m0qD3VOJsrlcQVAQys3yF330mo7bW37u615suvoQwP8Dl5/+WSrtzxOio2KmTgyebdczOFWo8V7Fvxa3+Etd71PROieS8aPkN0n4XzSByX0H5IYKztzZ29jR7C17QKA8vTWqs09f/yckoiCeVwB0NhGRrnrWq1atkCQU15dK7t97q2zpjfb2vZTt2bIVrvtotRPL3HZtwR/qNSbZN9APHjtZTbvXf3YzVfLbnrUYBTx2g4AzOrtpZKdhM5RADicxxUARlF+EpogCGYn8XWlw2CULQBmTR1l886CU1IHJRORXHGirjaYGixpyyTxMLnrV05Ot3kJ5GUTR8rObeBEvi1G0eLhCgBQJi2ZHYp16D4r4IEFgCNxzrtaskJERLG9w0JsbVsQmKBWCbVyMWc7Ta3m2umQeDsRya4AiO4VIlsgyPH11vkyRi1yMXUmydw5DAAA4GIoAKzAGJN9ALe0d3R0p31R4rJr7b1Ugtl9G9SMmY1pbe+UnSgpR5K4xDnJzjHQqQR7njkAAAAOgALAClqNSnbZysHjJTW2tl1d31THOQ+UiwnTqf3NtaNhpGVEsq/gDxeXVlqb3x8KS6vKSX4DKSlELchubgQAAK6HAsAKgb4+spP8Vq7bKPtqXM5b6zfJrp9njBojtCqLlsX4qIVSueuvr/nJ5kJlVdaPsksMNYwqdQLDUZ4AAG4OBYAVJqemyI5tb91XkHqmtlF2HP98REmSln74tewEwgidutjS9pJ9dbJr8b/K3jNLAD3OAAAgAElEQVSkqbXD6mLFYDQZ3v7y535yMXHemjJr2wUAAOdDAWCFuVdOlf0Gzon7Tb978XFr271ryept7XqD7LaXl4f7mp0A+Icbov1lx+AlSQq99P4l+y1t7w/XPPbKToPRFCsXkxkZYLK2XQAAcD4UAFaYmp6SrFYJsuPnR09VjL/qoaVbOOcW7Ym//NPvct79+tcJZsKkBQmh/S3Nc25M0AhGJDtcsetQ4aRbFr+RbWmbT76xZtvXW/aaO5BIf398SIqlbQIAgOugALCCWqVS33rVNLOH4ny7LXdKwlX37Skur67oKqa+qbVx2p2Ltz7yysdjyMx61/6+2p1x3hqLzy/wFpjX1DCffebiPvh2y+TBmQ/vLKuuq+4qprq+qW7MTY9vW/LelxPJzBHGw/11e0PVgs1LIQEAwHk88jhgR3p+3j/SVn+5uV6SuOyD7nTl2dFJs+bp46Mjds25aLxxSP9YX28vnepI0enWrE27+METp4dwzidZ0KXhy9Roqx+q7w+NTO77c3ErZ/K7aR09VT4u7vK725Nio3LmXDxeHJwQ66tSCexIUWnruk05LL+4bBgnPtGCLvWfDI+0+ZRFAABwLhQAVvL38fJd9uAN+Q+8/OEoC8J1Jyuqxzz73gab+7sg1HdHsq/2Amvvi9apI+6IDcx+s6zJ3Gt7IiKfwtLKsYtWZ9mQ4W9m9fbPSfbTTbG5AQAAcCoMAdjgvmsuHTWwX/QOR/cTpBaOfJ8WPdbW+1ek9J4YoVPl2jOn8+mlVe9bMzzS3DwGAABwIygAbLTrhmnGIDU77Kj2VYyq90+MC9MJTPbwHTkCI6FgUnySr8AK7Znbn2kYKzs4IS7Okh0IAQDAfaAAsJF/eZnq+OSE6ECNcMTebesEVpI3Pq4t1ktj8+FCfwhSCwHHJvcLckSePirhxJFJcayXToWJfwAAPQwKAFvV1weHaVUh5RckxA/297LbcEAvnTqv/IKEwCH+unh7tRnlpelVNTUxcYifbpu92uzjpc4rn5oQmeijlT16GAAA3BMKAFsZjX5ERD4qwefghL7jX0+J2KURWJfL/sxhjJ15uF/Iz+VTE4aFaFXB9kv0NzqBeR2YGDfx2aTQHQIjm7cCFhiVL+wf/kvJBQkjAtUCzusGAOihUADYSpLOObnvrtigMY0z+ofOjw/Z6qOyfMxdI7CKOVH+vzZOT9S9ODB8msrBKzP+lRA2vmlGf7974oKyvRizeHthrUo4fWtM0K8tFyYFPJkYMpXhdwcAoEfDxC1bce7zvz/yEpjX8wPCJz0/IJwKWvUl75Y3lW6v72QlHQb/Tol7SZwLWkb6SC9N87hgb9N1UQHhk0J8BjKiaGem7qMSfF5Ljpj8WnIE7WvuKPqwrLliR0OHqkxv8u+UuI5zxrwEro/20jaPDdKJ1/cJ7D02yHsAEfV1Zp4AAOA4KAAcZJCfLu7lgb3iXJ2HOSMDvBNHpnjLnkMAAACeB69xAQAAFAgFAAAAgAKhAAAAAFAgFAAAAAAKhAIAAABAgVAAAAAAKJDilgFW1zXGR150+75uN9TaZodsAACUqVUUw12dg9IprgDgnIfU1Dfh8BoAAFA0DAEAAAAoEAoAAAAABUIBAAAAoEAoAAAAABQIBQAAAIACoQAAAABQIMUtA/T10h1fcs+19a7OAwBAyb7csse4JS9/kqvzUDLFFQD+fj4t915z8VhX5wEAoGRG0ZSzJS/f1WkoGoYAAAAAFAgFAAAAgAKhAAAAAFAgFAAAAAAKhAIAAABAgVAAAAAAKBAKAAAAAAVCAQAAAKBAKAAAAAAUSHE7AQIAANiDcIotofRMbv+WeTsjoVgUpd20L6vI/u3/BgUAAACAbR4lBzz+iRhx4iQIjCg1s4AYfSVp+CrKyaqwZy8YAgAAAHBXjAYR0WOCkRUKaZnP0ujrAuzVNAoAAAAA9+dDRI8Jomk/pc0ebI8GUQAAAAD0GDxeIL5TlZZ5aXdbQgEAAADQs/hzovWUes3o7jSCAgAAAKDn8RKYtIFGXBNlawMoAAAAAHqmKKaSXrX1ZiwDBAAAsAXnC4iYfRcCMuZPxOOJaAYRhZkNJ/obT71mNOWt2W1tVygAAAAAbCDlpbxItFBySOOpt2sE1nAHEXueiHxlIhkTpEWc6GJru8AQAAAAgLvJW22UcrNelxifQIwa5EIZp2k0NiPE2i5QAAAAALirvVkHGNGNZqLUKqNwubVNowAAAABwY+Ledd9y4lvkYjjxada2iwIAAADAzTES1sheZ5RkbZsoAAAAANycxNhhuetcYqHWtokCAAAAwN1Jxnr5AO5jbZMoAAAAABQIBQAAAIACoQAAAABQIBQAAAAACoQCAAAAQIFQAAAAACgQCgAAAAAFQgEAAACgQCgAAAAAFAgFAAAAgAKhAAAAAFAgFAAAAAAKhAIAAABAgVAAAAAAKBAKAAAAAAVCAQAAAKBAalcnAOAqG37ZnXfPC++y2obmGEFgRpVK1alRq/Q+XroOb53OMKBvVGf6oHjV6CFJ/qkD+0X3DgsKd3XOAAD2ggIAFOn597/c/viqNePo97dgksjJJEqkNxiptb2TiIhOV9XQxl0H/nuPwNjZhJjeJ66anG669pIJ0UP7901wSfIAAHaAAgAUp6W9s/WJN9YOISuHwCTOw0+UVoUv/fgbWvrxNyQIQvWowYnHn7z178EXjRk6mDHGHJQyAIDdoQAAxflxx/7jnPPU7rYjSVLErkOFEZfNW0Iatbr08okjTy6+KzNuUL+YODukCQDgUJgECIpTVdegt3ebRpMp9stf90wZkvlIbP+r5u3auv9ogb37AACwJxQAAPYlnKyoHnPB7QsHRV50+74vf9m9z9UJAQCcD4YAwKkMRpPhSHFpaX5RWcOBwpKOoyWVvKq2UVXf3KJtbevwNkmS2mA0+RD/rTgNCfavef7uOdL1l09Od3Xu1qqpbxr5938uo96hQQd+fP2xkCGJfWNdnRMAwB9QAIDDdBqMnVvyCk5s+DmnfvvBQs3pyppenQZjHBElWtrGmbMNMTctWkV7CoqzVzw6d7LjsnWcM3WNw4fPedQwffSQnPUvPjLMz8fLx9U5AQCgAAC7kSQuZe8rOLp6w6azm3YfCm1obksioiH2aHtV1k9jH7nhiqq+vcMj7dGeHF8v3bFbrppWs+/YKSoqP+NTW98cbZLE7var3bz78NiwqXPLv3jp4cLLJ6QOt0uyAAA2QgEA3SJKkvjVr3sOvvDh1237j5cMkiQpxUFdaT/4Zkvx07dnOLwACPT3bVn+8I2T/vyzkxU1Fet/3lXy5a97xLyC4iSTJPW2pW2jKPa58sEXIzNnjN3yyTPzJqoEQWWfrAEArIMCAGyyv7Ck+JHlH5Vv3Xc0RZKkkc7os6KmTnRGP+cTH90rev4NM6Pn3zCTOOfS5j2HD7/88bd1P+89kixJUoSVzanWbcqZ8vPeI/vzPnkhKiYi1Nr7AQC6DQUAWMwkiqbXPv9hz5L3N/g3NLcNISKn7oTHuTN76xpjTJgxeuiQGaOHksFoMryRtXHXkvc2+Nc2tVj19qOusWVE/Mx7azetejJ/SuogR705AQA4LywDBLOa2zta737u7Wy/CdfXzH/143G/P/yBiLQatfb+ay8dU735nZQfX3/8cGiQ/35r7pckKWz6XYvj1vy4I9dROQIAnA8KAOhSe6e+/f6X3tsaOuXmjrc2bJ5sNIlRrs7Jnc0YPXRIzaZ3RqxZ8kCer5fumKX3cc59r3vytWHPvf9ltiPzAwD4MwwBwF+IkiQ+tuKzHcs+/S5Z4nyS+Tus1qnTaKoC/bwbe4cHt/fvE2lKjotWvfftr96VZ+u7vUWvq2XMGJs6a+oo07yl721/a/3mkURkybI/zROr1kyqb2rNXvrA9T1yuSMA9CwoAOAcX2/Zu/8fT77m295psNuDX6tWlyX1jSqdkpYsXjxuRPDUtMEDdFpNv/+N+zn38NbKs/X26tal1CqVetW/bpvwwLWXlU2c+9SJ2qaWYRbcxpZ9+t3EyPCgrQ9dd4UjCi8AgP9CAQBERFRT39Rw4b3Pnjh84vSo7rbFGGsYnBBTcHfGherMGeMGBfn7xhBRjB3S7HGSYqNiKjeujrr28Vezv9i8ayKZH3YT5r/yydjosJC82ReN7/FvQwDAfaEAAFr60Tc7Hlv5WbIkcZsf/iqVUD1mcNLxB669zH/m5NQhapVqvD1z7MlUgqBa+9yDkz8Y9+ueW//91kDOeYCZWzTXPbFiQHRE2NEJwwckOyVJAFAcFAAK1tjS1jzhlicPHz1VYfPD2s/H6+i/bryq/pEbZo7WqFV4bS3jpisuGDUksW/RuJsebze3kRAn7jftjoXBZT++Vd8rOCDEWTkCgHJgFYBCfbM190DEjFtbbXz4t48Y0G9LzgdLCpuyP0xeMHfWeI1ahWLSAqnJ8YlHvlhm1KrVJeZiTZLUO/W6R09y7i47IACAJ0EBoDCcc5r34vu7Zj28dLBJlKxd1qefNmrI1qqNb3fmfvL8lFEpCUkOSdLD9Y+JjCn86jVvjUpVZi628mxD2r0vvLvVGXkBgLKgAFCQtg59W/LfHsxZmfXjGLJu+Eca2K/P1sIvX63euPKJSXgl3X0xEaER+z5/kQuCUGsu9s31m8Zu3X/0qDPyAgDlQAGgEJVn62v6XHzH6RNlVWOtuS8iNDAv54MlxfnrXp6U0Kc3zrO3o0H9+sRuWb2wljHWZiZUe9m8JSqTKJqckhgAKAIKAAXYd+xkUfzMe43N7R2DLL2HMda08PaMLZU/rk4dlZLQ35H5Kdn4YQMGLn/oxkPm4to7DUnzl3+8wxk5AYAyoADwcNsPHD86+sbHQowmMdrSe3qHBecWf7Oi/cnb/j7FganB7+675pKxE4Ynmx3nX7Huh5EVNXXVzsgJADwfCgAP9mPOgUNTbn86WpK4RWP2jLHmxXfO3l7xw5tpfXuHRzo6P/h/m1Y9McbPx0t2nJ9z8p/54IsnnJUTAHg2FAAe6qddhw5dfv/zCRZsOkNERDqtuvjA50vPPn7L1RMcnZvb4yYiqaPFmV1qNWrtppVPCURklIs7UFgyft/xk8VOSgsAPBgKAA+Uc7jw+GXzno3lnPtaEh8VHrK38sfV4YMTYhIcnVuPwJuJTt/oTyVzqqj09n1U/cIWatuRR1xvbrJet4wanDDg0gkjzY3zs7mL3qhyZB4AoAzYvMXD7C8sKZ54y1PhnFOQBeH8ysmjfvnixYcuEASGYvB/cTGSxMZIas8jas8jIjKSEHCA/Cc1U+DMZFIFhdu7y3XPPzg6ePJNZUZR7PLshMMnSkcXl1dXJPSJsHheBwDA/8KHvgepqmusG3vDYzrOLRrzNy576IZdG156eBoe/hbTkNQ8nJq+m0Slt4dQ6W251PLLbiIu2asDb53W++nbM0rN5XHLv9/AMAAAdAs++D1Eh97QnvL3B6qMotjHgnDDGwtu3Xf/nMus2hMAzqEisSmNat8cTSXXllPd+9nEjR32aPjRm64c46XVFMnFbNt3NK2hubXJHv0BgDKhAPAQo25YkNvU2jHYglD920/cceD2q2eMdnhSSsHFWGr+YTKdvqGRGtbsIC6K3WlOJQiqlx64wdwOgT6vfPa92f0DAAC6ggLAA9z13NtbCk6WW3ISX/ua5x7In3vlVJuP/QUZXIykxg3jqfTGU9R+oFsP5zv+NiPd3FkBb27Y7N+dPgBA2VAA9HDfb99/cPWGzZYs3TN99sy8oxnTx450eFLWMpk6qaSkwNTc4hlb3UqGRKpeMoQqH9tGUkerLU0IAlNdd+nEk3IxtQ3NQ0sqz1baliQAKB1WAfRgjS1tTX+bvzSMLPh7fOT6K3bNvmi8e6zxLy8vpEOHqujUKRXV1fUikymeiAapmxrNHozTgzDSF02k03PLKGphGekGJFvbwHP3XTfkg2+3dBKRVxchwrPvrj/x9pN3WnuqIwAACoCebNzcJ/ONJnGcubiLxw3PfmHePyY7I6fzMho76Pjxo7RnTyuVliaSJCURkUKOEhZjqPJJPQVevJVC5loyTPNfvYIDQvpGhe8+XXm2y/kaX2fnBr79ZPezBADlQQHQQy3/9Pudx0sqzD7846Mjdn27/F8TnZHTOSRJpEOH9tGvv0rU0DCMiNxv6MF5dNT04yTSn8qmyMUTiSxfdnnn1TNMC17/rMvrdU0tg9o79R0+Xjpvu2QKAIqBOQA9UE1Dc/2jr31i9hu0r5eu8NDal4Y5dZ1/Y2MZffHFJlq8uIo2bEinhobR1PUrbGXpPD6Zyu7dQ9zYaektt189fQgR6WVCtBt3HjzW/eQAQGlQAPRA0+5cdFSSpDAzYZ2/vPW0ylundc43w/Ly47Rs2S5atiyaDh2aQZJkyX4EymM6O4bK7sknbpR7qP9XkL9vQFhwQIFczEc/bMV+AABgNRQAPczX2bkHCk6WjzcX9+B1l+1JG5Tg+L39KyuL6LXXttLq1f2psXEM4XfKPLExlcofOEAkWbRfwKThg2Qf8Nv3HQ22T2IAoCT4sO5BJIlLNzy1QmcuLjI8eN/S+6937Lh/be1pWr58F735ZgLV1k4i/C5Zx3R2NFU9Ze7gHyIiypg+Rna9f0NrW5fnBgAAdAUf2j3I02+t3dHa3im7nEwQhNq9Hz0fwxhjDklCFDtp/frN9NprEdTQMIaIHNOPEnQWTqLaN7LNhV08YfgAIuJdXZckHlLb2Fxv19wAwOOhAOghOg3Gzhc/+CbRXNziOzKPR4bZ/5Q6IiI6evQAPftsJR08OJ0wsc8+Wn6dSO17D8iFBPh4+6kF1Rm5mP2FJdgQCACsggKgh3jw5Q92mSQxUi7G39f72D9vusrs0kCrGQxttHLldvr88+G/b9oD9iNQzbIIkuS/wQcF+soWAHsOFzXaNy0A8HQoAHqAtg592ztf/WLuoB++Yel8URDs/Or/zJkiev75Sqqudo9dBD0RFyOp8vFCuZCE6F6yWwofPHHaM7ZRBgCnwUZAPcBjr3+WK0mS7E5+Q/rH7pianmLfh/TWrTto8+YRRORj13bdXGUdDVfPJid/o64eSDS7yz45p3S5uxuaWzEXAwCsggLAzYmSJK7esNnca/e2b5f/q7/dOjWZOmnVqn1UW2t2uaGH0nDOglydhDWaWtvxNg8ArIIPDTf31hcb9xpMJtllXlNSU/JiIkIj7NJhe3sjvfTScaqttf9cAnCYlrZOFPMAYBV8aLi5hW9/YW7dv2n1E3fYZ8Of+vpyWrHCQKI4zC7tgdO0dqAAAADr4A2AGztWUnmqrrFluFzMoPg+uxP6RER3u7PS0mP06qsaEkWPn+Uf4OvtcQ9Le8/9BADP53EfhJ7koWUflhJRP5kQ/vaTd4Z2u6OKihP0zjsRRKSILWUvHDO8HxEZiUjj6lzsZfroIe2uzsHejpdUltU0NMmufnA0rVajGpEUF6fVqLWuzAPAEVAAuClJ4tLmPYcGysVEhAbuGzO4f2q3OqqpOUWrVweSQh7+RERR4cHhl01Mzf5+W57syoqeQqtRly576CaPOW45t6C4aNpdi02t7Z2yv//Owhg1PnrDVbuX3DvH+cdqAzgQhgDc1Pc79h0WRUl2Yt9jN11t6FYnDQ2V9MYbWuK8V7fa6YG+fnn+pHnXXLKJMdaTt9AV+0VFbD/1zeuaQD9v2fMCeoqKmrrqsTc/EewuD38iIs4p6IUPv5r47Lsbtrs6FwB7whsAN/XCh183y11nxFpvmTVVdn6ArJaWs/Taa0YSxb42t9GDMcbY8odvmrH0getN5dX1FQaTUXJ1TtbqHRYcHODj7VEbNN353DtHJUma4uo8zmfx21nxj82dxR12zgaAk6EAcEOcc77nyIkkuZjBiTEHvXVa29bpi6KRXn+9gkTR9gLCQ6hVKnVcVHj3J1GCXeQdPRng6hy6YhKlqKrahpqo8BDFvTEDz4QhADe0J7+o0Nzr/wU3XWX7YTzvv59DHR2Kf/iD+zGZTG79paStU693dQ7gJFovc/Oi9EQLe9ybwz9DAeCG3vxiY5XcdUEQ6v42fYxta/W3bdtOpaWTbLoXAEAh1AYhxUxIT54/REQoANzSf3YekN2GdlhSXIFapbL+m1JJST5t2pRmc2IAAAohMcqUu86IZA/w6gnc+nWbEhlNorG2oVl2/D9z+hjrCzeTqZ0++siLiGwfOgBwMa2andaoeZuj2m/rpCTC5yKkzR5MxG+QC+FEvzorHUfBL7qb2XHweCERyb56ypg+Vm5zoPP75JO9ZDJ5xLp3UK537+S1107i3dv7QobmGqFWkniYo9qHHiD16kiB+Hoys1GYxPjXTsrIYTAE4Ga+/GV3rdx1jUpV1i+6V5RVjRYXH6GTJz1quRgAgL2p0jJmCqTeS0Syb2GJqIj2Zh1wRk6OhDcAbmbr/mMquevJ8TGniUj2dMBzmEx6+vRTbyKSbRcAwJ0w4n2F9IzbHd0P58yXiPoRsRmc+ECyYJcHxmiRo/NyBhQAbuZkxRnZvf1nXZBuXYPr1+eQyTSlGykBALgAG8o5veW8/rilYQfF3EGfOTYX58AQgBsxiaKptb1Tdnx/SlqK5Yf/tLbWUkEBZv0DANhHu8T5LT19/f8fUAC4kaKy6goyM0t/aGKs5bvWffZZAXHu1928AACAOCO6lfZl5bk6EXtBAeBGjhSXyk4AFBg7G+Tva9lWqdXVp6i8fJxdEgMAUDaROD0g5q773NWJ2BMKADdyqPC07JnuQf6+sjsEnuPTT6sJczwAALqrhTGaJeWte83VidgbCgA3UnCqXJS7Hts7TPaEwP+qqSmixsbRdkkKAECZJOL0qSSahoh7133r6mQcAd8Q3UhlbaPsApRB8X1MFjX09ddVRJRoj5wAABTmLBF9K5HwOuWt2e/qZBwJBYAbqW1s0spd7xUcYP6NTWdnE5WVjbRbUgAALsFOE9FPzumLtxPjJRJnudSP76KsLNm3sZ4CBYAbaWrtkF0BEBzoa74A+PHHA0TkkVv+rv9lV9jh4rJtrs7DmSLDgsUFN82KHDU4YYCrcwFwJk78EM9dd4fTO851eo8ugwLAjRiNRtk3ACH+fvJ/X5xLdOBAgl2TciNNrR0pe/OLXJ2G032TvVe64+rp2asW3OaRhR0AuAYmAboRk0mS3a43OMBMAVBYeJgkqY9dkwJ3ILy1YfOkjbsOHXF1IgDgOVAAuBFR4rKnTwUF+OpkG9i+vcmuCYE7YU+9ubbB1UkAgOdAAeBGOJd/A+Dn7dX1GwDOJSot7dHjxBrGLNyMW5kqaup9XJ0DAHgOFABuRGDMKHfdYDR1vf90YeEh4jzC7kk50aggLwvO4VIugTGP2H8cANwDCgA3olKrZJeedBiMXe8DsGOHZZsEubEFCaHDBUY1rs7DXWk1akUsTQIA50AB4EZUApPd6KejU9/1A6C83PJDgtxUkFoIyB7Tt17DWJmrc3FHOq0GbwAAwG6wDNCNeOm0+qbWji6vV56t7zzvhba2ejKZ4h2VlzONC/Ia2HRhf/36M625+a2dXf9heKDPKlu0pR3GLrdwDvTzwRsAALAbFABuJMjfT19d1/VE/rLquvO/ITh69AQRecze/zqB6a6N8k8j8nd1Kk61vb5ja2lH19NAeocF4g0AANgNhgDcSHiwv+wkwNIzded/ABQUnP/NAPQopZ0m2WWeUWEhmCQJAHaDAsCNxPQKk10GV1x25vxvbMrLQx2SEDhVnVEMlLseFxmGN3YAYDf4QHEjgxP6yP59lNXU+f7lh5xL1Nnpsdv/Kkm7KL+Mc0j/uABn5QL2YTCaDDc+/XrOV7/ujTeYTFFEJLvXh4O1hwT4Fa1acKspY/pYHBgGKADcyVAzH/DNre1/fUA0Np4hoihH5QTO0SbyNs55sFxMSnx0L2flA93HOef9r5p3sLymzl3OcPCpb24des2CV6SKmvqcB669bKyrEwLXwhCAG0lJ7BMmd91oEiObWtvPnSV45ky1Q5MCpzjU0lluJqQjKjwk3CnJgF28+9Uve8tr6tJdncd5CPNf/STJYDQZXJ0IuBYKADcSGxEWyRiT28+f5Rw+UXrOTyorWx2bFTjDtzVtshsg+fl4nWaMYRJgD/LBd1vcdnKuJEmh2w8cP+HqPMC1UAC4EcYYC/b3PS0Xs3n3wXMPhKmqwtpwD7Cxtl32enyfiDonpQJ20tTa7srxfrPO1je6bYECzoECwM0MiItqlLv+3dZ9554YWFcnf0Ig9AhHWzsj5a6PG5KEQg8A7AoFgJuZlj5Y9jVvcUV1Euf8//cDMBi0Dk8KHKpZlFo7Rd5PLuaiMcNklwgCAFgLBYCb+du0MbIz+iVJCt1bcLLovz8wmTQy4dAD/Hq2rYjkl4cZp48Z2t9Z+QCAMmAZoJsZkhgbLwhCnSRJXW7u8/H32VWjUhKSiIjIJL97HLi/t8qa5CZ+UqCfd6GPly7FWfmAc9wRE5j9TFL4cEe1n7j1ZFmTURrsqPah50MB4GYYY6xPREhRaVVtlwXAd9vyfFY8Ove3/5AkL2flBo6xpb4jTu56+uDEWielAk4UqFYJIVqVw4Z2VMRkJxQDYAjADWVOHys7O7esunZgh97w20l5kuTtlKTAIfKaOk/oJamvXMxtV07DDoAAYHcoANzQbVdPlz3al3Pyf/OLTft//0+3XmoE8l4+VVdpJqTtiklpg5ySDAAoCgoAN5TYp3eMl1ZbLBez7NPvfpv8x1iHU5ICh/ju7Hm2d/6T2N5hBTqtBvM8AMDuUAC4qUvGDy+Tu155tn5E5dn6GlKpUAD0UIda9CfbTNJAuZg7rp4he0Q0AICtUAC4qQU3z+pjJkT97LsbjpJKpXdKQmB39+ZXm9v/X3/n32dgFjcAOAQKADeVmhyf6KXVFMnFfPz91kjSaFAA9EDNotS6s75D9kjWvl6I5mIAABxZSURBVJHhB4P8fTEBEAAcAgWAG7v2kgmy3xDbOvVJG0pqUAD0QE8fr93HGfnJxTx28yxnpQMACoQCwI09e8+1Q4lI9gF//8EKbAXcw3Ai/lZZk+wQj8DY2RuvmDLCWTkBgPJgIyA31is4ICQhJiKnuKx6bFcxlXoxdXdjR+HoIO8kZ+YGtvu0ojlXL0my58RfMmFkgUatmmxNuxt3HTr8xhcb66pqG1y6NDQ82F+6+YqpAVdPHYUCBsCNoQBwc8sfutln5oPPy4Wwmw+dqS2Y1A8FQA8gcZLuzq8xN65vWv7QjRbv/c855+PnPrlt95ETk7qZnt38Z/t+6h8TmXMk6+V0tUqFzxkAN4QhADd32YQRwwL9vI/IxRxvM4zZVt9x1Fk5ge1ePFmb0yaKA+Rikvv12ZPQJ0L2UKg/e+rNtdvd6eH/hxNlVWNvXrhqu6vzAIDzQwHQAyy6Y3aLmRDhb/srMBnQzRkkblh0oj7WXNxbj9/e5TkQ57Ny3Y8htmflWFmbchJcnQMAnB8KgB7g7syLRum0atmdAesM4vAPy5v3OisnsN4DBdU5Bs5j5GKie4Xkjh82QPYNwf9qadeHdy8zxzGKYjTnnLs6DwD4KxQAPYBKEFTP3Xtttbm4u/KrQw0SNzgjJ7BOtUGsW13ePMRMGP/0mXk+NjTvzv+OBc4JBQCAG3LnDw74k/tmXzrGx0tbKBejl6T46w6e2emsnMByE3edLuScy76qj4vutXfiiGQc/AMAToECoIcQBCZ8uOi+NnNxG840T9hR337MGTmBZVacbsgpbjN2uZTzd8avXprvtq/yAcDzYHlOD3L11FEj+vQK3VteUye3hlx9yd5yoe7CJKOGkcZpycF51ejF+ocKahLNxU0bNWTnkMRYq9b9W+ricN/sSK2KOaJtvUT8s6pmh+QNAI6FAqCH+c+KBeFDZz9iIKIudwBsk3jS7AOVWzaMiJrivMzgfCbvLjsuEcl++xcEoW7tcw84bNOc5cnh8Um+OtnJh7ZqF6WOz6qaHdE0ADgYhgB6mJT4mLi/TRtjdpz/6zMtkz6rbMl1Rk5wfs8U120vbNObe/VPz95zzfHgAD8c+gMAToUCoAf65N/3jTN3UiARCTccqkw80W4sc0pScI5NtW1Hni6sld3ul4iod1hw7qM3XDnOGTkBAPwZCoAeSKtRa79a/mgnEYlycZxT0OidJc2dEu90UmpARKWdxjOX5pb3IiKdXBwj1pr99qJIJ6UFAHAOFAA91IxRQwdffcGYbebimoxSSvLWU4dEM8UC2EenxDuHbT9dJ3HqZS72mbuvOZTYJyLaGXkBAPwvFAA92OfPzZsQ5O+Tby6utMM4asbucuzJ7mAikThie8m+ZqOYYi62f2zkjn/dfBVe/QOAy6AA6MHUKpV614dLAhhjDeZis+vbJt91pDrbGXkpkcRJGrW9JKewzWD2oa7VqE/nvP+MuV0BAQAcCgVAD9c/JjJmzXMPnCQLXvGvLmucNO8oigB740R80u7S7Qda9BMsCO/45a2FRsz6BwBXQwHgAf4+bUzq7BnjzM4HICK2sqRx0j35KALs6cI95TtyGjosOo73xXnX7R87pL/ZjYEAAM7BVPKnhAqkodHXWfXFAgWAh/j02XmTB8XH5FgQyt4sbZx8y+EzKAK6SSQSJ+8q3fpLXZsl3/xp1tRRWx++fibG/QHAMomX6ITUzDtVaZnbBCL5L3mcegmi8QxLy8xSpc2+xJLmUQB4CMYYy/vk+dSw4ID9lsR/UN40eczO0m0mzk2Ozs0TtYm8LXHLybztFn7zT4qNysl6/qGJjs4LADwCU6XPvk4ICjhOjN7gRBOIyJLtvL0Z0d858f+o0jKzKS1jlFwwCgAPotWotQVZy+J8dFpzmwQREdHepo6J/bac3NcsStjL1QqlncbqqJ9PlJd2GGX/cf2hV0jgvgOfv5jKGHPIfvwA4EHGz/RnaZnrOOefEPG+tjbDiSYJxHYJ6ZnPEy0877MeBYCHCQ30Dz7+5WtBOo26xJL4yk7TqOifi84UtxsrHJyaR9jZ2Hms/68neavIB1gSH+Tvc6joqxUDdFpNl2c3AAAQEdGojH6C3iuXEf3dTi0y4vRPllrwBaVk/OUzCAWAB4oKDw4r+OIVjUalsmgb4HaRJw3ILvZdVdqEvQK6wIn4I0fP7pyYc7qviai3Jff4+3gdLf769Thfb52vo/MDgB5uREa4ILEfiCjJ3k0zRrOYN1tLU6accwAgCgAPFRcVHl38zQqtBWcGEBERJxZ0X/6ZCcO2n97RLkrtjs6vJznTaayN+6U4d3lJ/Tgi+r/27jw8qvLeA/j3PTOZ7BuBBAg7KEsAFRJ2gaK1esWqtcGttNVr6+N2i7YWvVal+lj3el1wbe9VAQWmoKCyiEsCgQBZWENYAkmQQEL2ZZLZzvveP7Cu5MxMMpmEme/nefyDvL/znl+EZ85vzjnv74305piEmOjio2tfSU2IjeZyPyIylpZp0UxiAwCv7ix2hACu0VqSn/nuz1gABLHU5KSUkjWvxEVFWA57e8z+Zvv0lM9LTn5Z1+qxw2AoeLuicefArGPihMPtcWOff0tJSig8vu61QUnxsbz4E5FHWqT2CIAJATjVAnPGvEv//QezUSSd+/r1Tkg+/slrUWnz/rinqrbhAm+OadXViEt3fCWnJ0ZuXps+4MIEsxZyF7LyNtepK/NPHCtucU6Dd2/fAgBGDUndsuu9ZzIsYeaILkyPiILFhBvHA/pCL6Nbh0WG7bsyOcYxMjos3CaVvq/J4VpXbUusc+nj4PmzSkiF15GWOQZFVqcZgDI6yOF0OaIiwqO8TI56oMS4mJiyjxanTb3lodzdh8o87k//NW1rfdvM5M+OVD09KmX/giEJU4UPF8JzVZtU9t/trdz+/qmmDADTfTl27oyJGz/8+/2X8W1/IvKWpukPwIsv4+kJETkfTEgd2T/cPPls4zl1rQevLjzpajhTCBgZbooQN+rAOxoAm1Fkc6u9zVNi1PNZwszm/CVPTfnPa+ZkAfB67b+ukPKn4qppCZuOHFxxsqmg6zLsXgpQr5bXb0/89HDN+6eaZgPw5cU923ML5ueueeHPP+PFn4i8lnHDQACZHqLkwyOScnZMHTyjf7i5T3tBM3pFjTo1Z/io8XERWz2dVgn8EYDQADQbBZadqq71NBmdG4QQ4s2Hbp/9wXP3H9A0zae/1xa3HH3TnlMTkz8v2b2uqmVvV+UYaG6l3M8eq9sav/HwkXsOnJ7iUhjgy/EWs7ls57tPnrz35rne3lkhIgIAaFLOg4dv/78eEL9l0Xm9veo2atFEWN60QZOTLeZCD6HjMDFzrCYEThpF7TlU6nGnOTq3/HxW+vija192ets18LtqnfqFVxVWjI//9PCBvx2t/dIplb0rcuxqNl3Z7iuu2hbz6ZGqBw5VT7dJ5fPSm9FDB2w79embSRNHDzuvK3IkouCmhLrEaDzKJA7/c2xfnzqImoUwb546MBmAwyhOE9olmoI4ZBS0aft+PgIIQoNSevc7teHNC3937SU5AJy+Ht+iqzEPH675SfSnRxrn7TqZdaDFUeb/LP3vi9rWojk7TmTHbzrifLGsYZpLqlRf5xACzU/efdPW/Sufn5YQGx3bFXkSUbBbpAkIw4v7wyN6V2vC99V650VZBoyLteQbxSioWWYoZbhEbOveYn7ABSlNE+L1//79jNuuuaTksrsedzS2tKX5OodUKmVVZXPKqspmxIWZiuanxtYsHJY0KjXcnNIVOXfErib70ceP1n21vqp5mFPB59/xu/r36ZWX/dZf+w9LTfbpBUEiou+ZeKgXgBiDCP22AQkd/ry6fVCi6e6iqnbHNYGBZiFQqFT7k1TVNqa1tDlaYiLDjRKlc1j6mOEjqj//X/3e59/OfnXlpxMVVIf+rptcetrisgYsLmtQ0Wbt4MWJkVW3DoiPvTI5ZkyEJgK2LK7S7qr5V2XLEWtlsyu/wZ5qV2o4gOGdmVMTovqZP/yqhM/6icgvlOxjtK7KJFDby6Ild3T6yQnhvQ1Pr5Bi1qXarAnhRvsvIkQs+Th7+x2Zl03paCLU85k0zfTS/bfOWvibq6t+ft+ze3cfKp2CjjeKEja3HLWh2jZqQ7UNANoSzNr+0bHhdXN6RYmf9o7uPSkhYli4JsI7m/dxu6tyV4O9cmeTvTmrrk3t/vaCb/iP3wfOSzLG5VifuS89PiaKF38i8g8h4s6swj87sxCGK/Q8SQoze1rJFGdGgbVRpM8rVEC7O5v97f8+MN2ReVlncqFzRGpyUkrB0qdSsgsPHJi38AV7TUOTP7pTRTa45djc+jbk1rfhiaNnFiBoAqejNVGbZAlrGhwZZk+ymFScWYiEME1EaEL0MmumOrfUq526bHBJ1eyWot4ltTq3HlZp1xNtuj4AZ/rye9Wb30dq+MCU7R8+f3+/MUMHzumC+QPm1fKGkuGRluNdMbdNSQnA8Dnm4pUbdggvW0jY7A7DR0fLc9FY2yI8LnPqKKWU4RrqN1ZtKh3SN/mEN3NV1TYYPj79vLZVvVxa32W/i01X/bpqbvIHvdWotYpTql6dmb3crjcAMPo3YDMDgFL4CKL9AuBkdd2E4tKK8tFDUzu8NSGdW2ZNGDOmatNbWJOdv+u2x14z1TW1jPf3OaRCcrOukpvbnChr8/k9xK6iBvXtk7f8qQUJk9NGBMU3/pfLG37Snedf8Pzbfvv/+EkB5nzSjd0oXlj2yUx/zVXQZJ9Z0HROLqIhf7CgAq72hxUQv7/FUTo2JnxoR6ZfU9V8GsDo9sYFcEIDABmmLYXRvQjAdPNfXvKq6qXgcvWs9IuqP//n+Kw3FxWPHT5oKwC9u3PqIq7hA1Nyv3jj0eLSj16ZNDlthN935CIi+kautQ5ApVHIEyW15R2d/t0TjYlG4wooPvOMd/vyMgFsNgrec7hs8o6iEq83laHgcvFFo0fvWf7s9D0rnjs+Oz0tWwhR1905+YNZM536xZzJ2aUfL649vPqlqbMmjBnT3TkRUYgQ2GI0bD3VfNFph+7zZ+3SE415dS7d8K6tgNr87UteSiz2MKf5P+5+wiGlkr4mQ8Fj7LCBQz9/7ZFZtpwlUc/+Yf62/n0S8wGjG1k9UuuIQX23v/3onXmtuUuTrU/fN2tQSu+ueI8gMJTROh6is9NMGttWdzOhxMdG4wqIvyCnrMytlNft28vtrqpb9ld6elyv60pf900BoBeMXgWIg0ZHNLS0jrvlr4sNKxYKDeGWsIj7fjV32lfrXk+v2vRW80O3/mLL18VAj2wcJYRoGj6w7/bnFvx6W9Pmd9WhVS9OmT93VoZJ00zdnVtnRUWGs103+ez8Qf0TujuHUKe3ydUAmoxiTjvdE4Z+ebSgUVeGcQCwu9lRNjq71CEVDJcPKmAjClaf+s4yr0VSAE96OsHSdVumrcnK2+0pjkJH74S4Xo/dcf3FX617Pb0lZwmWPn5P/uz0tOy4qMgD8GHjIT+zJ8XH7L3q4vSsNS8s3GPPXRZ1ePWLU+69+cpp0ZHhvmz00+Pd9LMZ7Xf7IDqLmKiI4gvOHzysu/MIeUXWFgjxqqewkw59cvKmEtsjh2u2NLv0Hy0PPG53VV5VeDJrYk5ZikOqQR6mU0rTHgV+sPZfzx+91JR+4C6jJYEAwq778/ODC5Y+fYz/gOiHIsMtkTdePiP9xsvP7F1ha3PYPtuxd//G3N2NuftKTMcqKpNaWu2D4Ntue4aEEE3x0VHHzxvcr37GhSPVZVMuTJw9ccxIS5jZ7ysXeqKXF946feOOPTvKT1afdZtQou8ymbSqLf94zNLdedAZ0m56Rotw3woP39rdSvZ74mhtvyeO1toTw0z7ki2mZrtUphqnTLDp+vnwfjn0cuxcng/8qPnPIqnLzDs1TewA0O6tUaVUYvr8B5z5S58queC8wSO8PCmFoOjI8OirZ2dcePXsjO/9vLKmoeZAaUVV0dHjTeWV1a6K03WysrZRtDmcWmNzq1lX3y42MJvMKi46Uo+ODJf9khJVap9EbfjAlPAxQwfGjx6W2jcpPjYBwNgA/2o9htlkMh/98OWMV60bc//x4Ze6zd52zj/WIP8zaZqaOm6k87kF8y/oFR/Tqc6Y5Ef73qsXGZn/pSCWe3lERL1LH1fv6tCCrFqp1AP//sOPu/8VWguQfv2LgLrPaBYpZUr6rx4wf/Lig/sumzLesHkGNHNHO8pRkOrbO6F3394JvedkdKo1P31NCKHdNe/yqXfNu7y7UyEiH+l51hVaxvWzoNQdXXgal6aQKQus3zQFO+uFWbbJBwWQ52k2KWXSFfc8cd4DLy0zXEIIEcPbTURERO2QQ+Q9Cmp1F02vhFB3uwtWfvndH579m3mR1alr6noI1HsxccSzS9bOHDz3zp2lFadPnjXCFBvpc7pEREShwmrV1VDMg8Jzfp7ZJoBMPc/65g8H2r81v9NaKoFrAHjVq/JEVe2kEdfcE5/55xey6ptaGr83GJaSDONOg0RERKHNatVlwcr7hcJvAbR0ej4ljkhNTNfzV64627Dxs/m8lZsFxA3wvv1r9Oovt8/uc+ltYs7tj2UXHjxWcuYs0XEQprPfHSAiIqJv6AUr35FhahQE3kHHGq3VAnhIxkaOx84Ve9oLam8L4G8TyV+xxpSeeYOCWArAq+1blVJx2YVFszLmP4iI8LBjsyemfXVFWrTjsjFNckQ/pGpah7eZJSIiCn651goJ/BYTMx/RIH4Doa4FxAVo/4t7mwJyNGC53qZWosjq8Q6CxwIAAPR867/MEzLrpCY+ABDnw68Au8M1bMO23cM2bAO+3vqwzWJCTZhZ2SIssJs04dfWwi12dGoLRSIioh6jwHpcAo8DeBzjbkqExZVm0rTBgDzTS0WJWh3aMTQ0HkDJeocviwO9KgAAwF1o/QIZ103TpGklBDqzYUqkU8dApy5gc3RiFiIiolCy7716ADk6kOOP6Xy7FZ+3qki6widBibf9cXIiIiLqHr4/i9+7xCYLVtyiSXWJp82DiIiIqGfq8Mt47kLrFzIm8iJA/QVAUOwNT0REFCo69zZ+1tt2mW99QobbhwBYCIBL/YiIiM4B/lmOt3Vts8xf+YwcqgZpEpdDYRn80cSAiIiIuoTXqwC8YrXqbmAjgI2YPdsMW99JmpRzlMAUAYwEMMTv5yQiIiKfdd3FOCvLDWCbBLYBX/cBTsu0IBqp0LVEaCrGDPh9kyAJzITCw/6el4iIKJgE9tt4kdUJoPTr/+DuglOYJl6fqAS3HSAiIjLClrxEREQhiAUAERFRCGIBQEREFIJYABAREYUgFgBEREQhiAUAERFRCGIBQEREFIJYABAREYUgFgBEREQhiAUAERFRCGIBQEREFIJYABAREYUgFgBEREQhiAUAERFRCGIBQEREFIJYABAREYUgFgBEREQhiAUAERFRCGIBQEREFIJYABAREYUgFgBEREQhiAUAERFRCAq+AkBIZTwOEaBMiIiIeqzgKwCkZjcadjvd5kClQkREZ9fY0qobjQuI1kDlEqqCrgDQTbLZaNzuclkClQsREZ1dbWOLNAwQyvCznDov6AoASM24AHA44wOVChERnd3xyhrjx7UKLAC6WPAVAJo8aTTs1mW/5la7LVDpEBHRjx049lWEYYCA4Wc5dV7wFQB51koAjQYRovDgsfJApUNERD9WUV3fx2hcAIcClUuoCr4CAIAADhuNr9i4tTpQuRAR0fdV1jTUOJyuoUYxuqYfDFQ+oSooCwAFFBqNf5yzKypQuRAR0fctW7/5MGC4JLsRkbWlgconVAVlASAgsozGK07XXlDT0FQXoHSIiOg7Fv/rU5PRuAKykZXlDlQ+oSooCwDd6fwCgNEbppZn31m7P1D5EBHRGTUNTfXlJ6svMooREF8GKp9QFpQFAPZ+cFpA7TQKeWXlxlQplfE6VCIi8qt7n39nLwCjfixKmtyfBCqfUBacBQAABbHEaNzudA5/Y9UmwyKBiIj8p6XV3vr+xq3jjGIEsB07Vh0JVE6hLGgLABmm3gfgNIq57+/v9HU4XY4ApUREFNJu/stLeUqpXkYxSinDL2/kP0FbACDXWgeIFUYhTrd7yG2Pv54bqJSIiELVvqPHyz7eUjDVQ1iDBN4LSEIUxAUAACnxJADD5/zvbciZ/tnOfXwhkIioi7jcumv2bYtaYPzsHwBeRIHVqJEb+VFQFwAoXFGsgNUeosKu+sNT8XWNLQ0ByYmIKMRcesfjuQ0ttrEewppkmHopIAkRgGAvAAAo3f0nAIbbSjrd7oEjrrm7wtbm4B4BRER+9Kf/eXdzzu7imR4DlfrrmUe3FChBXwBg1+pyCPW0p7DGlra0UdctONDmcLYFIi0iomD36Gsrc15Y9skML0L3y9hqfvsPMKNWjMFjxBXhWkJMASDSPIUmxkXvO7T6xQFJ8bGJgUiNiCgY/fqRl7OXrc+ZCc/XGbcU2izkLd8WiLzoW8F/BwAAStY7pKb9AvC8v3R9k21c6uW3t23auZcvBhIR+aipta1l9C8XbFu2PmcWvPmSqdTDvPh3D8N+zEGloqhW6z+2AsC1nkKlVLFL121JOFhWsWXuxRP7mk0mcwAyJCI6p63YuLVgxq0Pm07XN3l64Q8AoKDWq4K0u4Aso9bt1EVCpwAAoE4W7RGpaWYAnl9IAUxFx04MeW7J2orYqIjiSWnnpQohQuORCRGRDwqKj5XMvO2Rw/9c88UkXcp4Lw/brUyWuah42d6lyVG7QvGCJrSJ896AwO98OSg8LKz0jl/+9KuFt1w7NjkxzrCTFRFRsHPruvv99Tm7Hn3LKstPVk+CT9cTcUwKOR151souS5A8CsUCAMjMNGml2quA+n0HjnalJMXvvWLaRS03Xj4jKX30sEEJsdFxfs+RiKgHcbl118GyihNrs/MrrJ/liqJjJ0ZKKXt3YKpDUnf/DLtWl/s9SfJJaBYAX9My5j0GhYc7PY+mnY60hDVYLGZHmNns8kduRETdTSol7A5nhNPpjnG63X0BhHVmPgG1Q1fmuSh4v8ZPKVInhHQBAACm9Mz5CuJVADHdnQsRUdASeEfKtjtR8JFhYzYKnJAvAAAAE68bpQnTSgCG21QSEZHPbEKou/U869vdnQh9X0itAmjXqeIa1W/6P4TWVguIGfC8YQUREXmglPpYmfBzlWfN6u5c6Md4B+CHptwwRHPLvwGYBxZIREQdoPYKqT2kF674uLszofaxAGjPpOvP13Q8CKFuBBDe3ekQEfV0AmoHoD2p569YC4DNfXo4FgCejLspUbO4rxdCzVcQUxAq7ZOJiLxzHALvS+hLkLeqqLuTIe+xAPDFpGuTTMoySyn8REBOUBAjASR1d1pERAHiAHAYEAcgsFlK9xcoWHWwu5OijmEB0FmTrk2Cbu4PzRRrlipGAd62wSQi6tkU2nRNtEDqzTCZTiNvVAWwSHZ3WkRERERERERERERERERERERERERERERERERERERERERERERERERERERERERERERERERERERERERERERERERERERERERERERERERERERERERERERERERERERERERERERERERERERERERERERERERERERERERERERERERERERERERERERERERERERERERERERERERERERERET0Q/8PZum/SgP97IAAAAAASUVORK5CYII=;" vertex="1" parent="1">
          <mxGeometry x="932" y="256.65999999999997" width="76" height="76" as="geometry" />
        </mxCell>
        <mxCell id="3ur9gsYHsS7Vl2ftzdm_-82" value="" style="shape=image;verticalLabelPosition=bottom;labelBackgroundColor=default;verticalAlign=top;aspect=fixed;imageAspect=0;image=data:image/png,iVBORw0KGgoAAAANSUhEUgAAAgAAAAIACAYAAAD0eNT6AAAABHNCSVQICAgIfAhkiAAAAAlwSFlzAAAN1wAADdcBQiibeAAAABl0RVh0U29mdHdhcmUAd3d3Lmlua3NjYXBlLm9yZ5vuPBoAACAASURBVHic7N13eB3XeS76d2Z2r8DGRgcB9k5JFFUI9d5sWXKR5G4kduzc5CQ58XHKSQ5PEiO+SW5yTm5yfJ3EiW3aTtztqNiWbKtYsiTIsiRSEsUqFpBEJ8rufeb+AUCgJJbdZq8p7+958FAkMTOfyM39vXutmbUkTdNARNb3h1997A6P1/G3LodjudPl8EmSJLokMpFSSVXzucJUoVD8RQqZj/z9B+/Iiq6JaiMxABBZ359+8/GHQgH/OyWZTZ9ql8sVUolE9t7/52M3/lh0LVQ9BgAii/vTbzz2z+Fw8FOi6yBrKRRKhem5VNf/HrjplOhaqDqy6AKISD9//O8/2RgM+D8pug6yHqdTcQa8jkdE10HVYwAgsjBFcv6erHDcn/Th9bi3iq6BqscAQGRhikPZLroGsi7Foch/8tWfbhNdB1WHAYDIwhRF7hJdA1mbJilXiq6BqsMAQEREVdMkjX3EpPgXR0REZEMMAERERDbEAEBERGRDDABEREQ2xABARERkQw7RBRCRfkolNV8olESXQRamQcuLroGqwwBAZGEnT0y+CoBrAZCe9oougKrDKQAiIiIbYgAgIiKyIQYAIiIiG5I0TRNdA9FZ9Q8M+gB0AujG/Fx2F4AgAFvtcKeqqiuWil1R6XFbNm/eEgwGI3rURAQA+w8ceHlmZmaukmNcDueo3xs4qFdNBlYEMAFg9LSvqaGdO1QRxfAmQDKM/oHBAIBbAdwFYBvmm32T0KIMJJvPVHxMoVDQoRKiJZls+sJKX5uyzMHn0xT7BwbHAQwD+AmAB4Z27nilERdmACCh+gcGOwDcCeBuADcCcIutiIiooRwAeha+rgTw2f6BwaMAHgRwP4BfDO3cocuzvJwCICH6BwZvAPDnAK6CzYbzq6GqKiZmxys+7qItFyES4QwA6WfXy7swOzdb0TE+jx9hf1iniixnBsCXAfzV0M4dM/U8MUcAqKH6BwYvAvDXmB/qJyKic4sA+AyAT/QPDP4NgH8Y2rmj8vnAM2AAoIboHxhcAWAQwAfBT/xERJVqAvBXAP5L/8DgnwP4Sq1TA7wTg3TVPzDoWEit+wF8CGz+tlMs5ZFITyOeOoVCMSe6HCKz6wbwrwBe7R8Y7K/lRBwBIN30DwxGAHwXwA2ia6HGiqemMJecQDqXQPEtTd8hO+H1hBDyR9Ec7BRUIZHpbQDwRP/A4KeGdu74ajUnYAAgXfQPDG4A8BCAVaJrocYplQoYmz6EueTkWb+nqBaQSE8jkZ5GLDWJ7tb1cCp8+IOoCm4AO/sHBjcD+KNK1xNgAKC66x8YvAPANwGERNdCjZPMzGJkan9Fw/zJ9CxeP/ErdEXXIBxo17G68yuW8sjkElBVc++e6FCc8LqDkGW+vdvIZwBs7B8Y/MDQzh3xcg/iK4Tqqn9g8NMA/ha8v8RWCsUsjk+8BlUtVnxsSS3ixNR+uJw+eN1BHao7O1UrYWLmKOKpKcvdn+ByeNAc6kJreBkg8dYbG7gDwHP9A4N3DO3ccaycA/gmTXXTPzD4UQD/C3xd2Yum4eTUgaqa/5vPsR+q1rgVUdPZGA6ffAHTsZOWa/4AkC9mMTFzBIfHdiFfqMtTY2R8GwA83D8wWNYiC3yjprpYuBv1i6LroMabSYwhlalsIZgzyeVTmJw5VntBZcgXszg29jJyNmiMmWwcx8Zeri2gkZmsB/DN/oHB8/Z3BgCqWf/AYA+A/wSX8bUfTcPE7NG6ne5U/IT+jUrTMDLZ2NEG0fLFLMZnjogugxrndsxPxZ4TAwDVZGG3vgcBiL2Di4TIF7Moleq44ZCmIZNL1O98ZxBLnUIqW9HmdZYwEx9FNpcSXQY1zqf7BwYHzvUNDABUq50AtoougsRIZ8u+4bhsegeAdM5+zX+RHYOPzf1L/8DgWbcRZwCgqvUPDN4D4B7RdZA4mXz9A0A6l6z7OU+XyeobMIxM73BFhuMC8JX+gcEzPvHHAEBVWXhBfU50HSSWHnfPF4r63piXK2Z1Pb+R6f1nS4a0FsDHz/QbDABUrd8AsEZ0ESSW2+mv+zk9rkDdz3k6r6v+NZuF3n+2ZFh/tnC/1pswAFDF+gcG/QD+THQdJJ7XU/+FezxunQOA274LVOrx90Wm0Ang99/6i1wJkKrxaTTgrn9VVZHNZ1Eo5lFSS7Z6bOutNE0TXcIZ6dFM9V4NMOhrwVTsOGDQP1O9yJICv7dZdBkAgGwug0IxL7oMYSRIkGUFDkWB2+mGy9mQJ6j/sH9g8F+Gdu44tfgLDABUkf6BwVYAf6DnNVRVRSw1h2zevnO1ZuFUXHA7vXVbUEeWFXh1Hqb2eUKIBDsxEx/V9TpG0x5ZaZhNl1RNhVq0b6A/XTKThCzJCPpD8LnfNkpfTyEAf4rTRgI4BUCV+iAA3T6iZXIZTM1NsvmbSFd0bd3Wmu9sWQNJ0v9tqT2yCi6nR/frGIXf04SWUJfoMugsVE1FLDmHmcSM3ptR/Xr/wKBz8ScMAFSpu/Q4qaqpmE3MYC45a+uhfjPye5vREqy9uQR9LWgOdtShovNTZAWrurahKdDWkOuJIgGIhpehr/MCbghkArl8FlNzU8jkdXtaIwTg+sWfcAqAytY/MNgM4Go9zh1LcsjfzNpbViKZmal6KkBRnPMjCQ2kKE70tG1E2N+GWGoSmVwSuWLG9PcGSJDgdvvgdYXQHOyEz2Pfmx7NSNVUzCVmoYQVuBwuPS5xF4CfAgwAVJl3QIfXTCaXYfM3OVlSsKLzIpycOoBkZqaiY33uELpb18PpEDM/HfRHEfRHASzMTZt80xxZdkBuwDQK6SuWnEM03Aqp/iM37wLw2wADAFWm7sP/JbWEeCpW79OSAA6HG8s7L8BMfBQTM4dROs9cpizJaG1ebqj96mVJhqzo8qmLqCLFUhGJdAIhf91HcHr6BwYvGdq54wUGACpL/8CgG8Bt9T5vLDnHOX+LiYS6EPBFkEhNIZ1LIJNLvLEfvVNxw+sJwesOIuSLwu3S9a5nIlNLZZPwuj1w1n8q4C4ADABUtisB1PX5rJJaQq5Q/6VkSTyXw4OW8DK0LPy8VCpAgwYHP10TVSSdTSMcqPu/m1sB7OBEEZVreb1PyHl/+1AUJ5s/URWyBV3eJ5cDfAyQylf3h4jtvBIYEVE5VFVFqVT3G1Oj/QODLgYAKlfdA0BJ5dw/EdH56PBeKQHoYACgcnXX+4Q6r3hFRGQJqqbLe2U3bwKkchlyHVGHQ8HKnjas7uuA12PdOWZZltDZEq74uGNTRSSz5l7YhoztPTdfCr+7ssc4U5kc5pK6rXYnnqZhdGoOh46N4dRsoh6n00MXAwCVy3AB4K4bL8Gn7rsJHrfz/N9scsViCXsPDld83GRiBsksn7Qg/XRGw4iGKgvfLc0hdHdGdarIWF49eAJ/868PYHRyVnQpb9XFKQAql+7b/5ZLkoC/+J178Hsfvd0WzZ+IzGvL2mX4t7/8FLZuXC66lLdqZwCgcimiC1j0zusuxtWXrBddBhFRWTxuJ/7oE++Cz2uM7ZgXOBgAyFQcDgWfev/NossgIqpIW0sY9962XXQZb8IAQKayalk7fBa+2Y+IrGvL2l7RJbwJAwCZyroVnaJLICKqitHevxgAyFT8Po/oEoiIqmKwewAYAIiIiOyIAYCIiMiGGACIiIhsiAGAiIjIhhgAiIiIbIgBgMjCpMr2aCGqmMzXmGkxABBZWMjLvRJIX0Ev95QzKwYAIgtrCjAAkH78HgecXFHetPg3R2RhbU1uBDz8hEb6WNXpF10C1YABgMjCFFnCRavC4DQt1Vs05MLydp/oMqgGDABEFhcJunDFxhb4PYbZ0ZlMbnm7D5eti4gug2rEsUEiG2gJuXDdBa0Ym8liLlVAIl2EqmmiyyITcTtlhP1ORENuNPPeEktgACCyCUWW0BP1oifqFV0KERkApwCITEBR+E+VrIOvZ2Pg3wKRCUiSBEXhHD5Zg9PBwWcjYAAgMgmPm/OuZA1uvpYNgQGAyCRCAT5yReanyDL8Po/oMggMAESmEQ75IXFxfzK5EF/HhsEAQGQSLpcTbdEm0WUQVU1RFHS2cf0Ao2AAIDKRtmgTvB636DKIqtLd2QKHgzezGgUDAJGJSJKEZd2tHEIl0wmH/GgKBUSXQadhACAyGY/bhe7OKEMAmYbHM/+aJWPhw5hEJhRpCsLnceP46CSy2bzocojOSJIktLY0ob21iYHVgDgCQGRSHo8La1Z0oy3axN3+yHA8bhdWL+9CR1szm79BcQSAyMQkSUJHWwTNTUHE4inEEylkcwWoqiq6NLIZCYDD4YDf70E46Eco6GPjNzgGACILcC88Irj4mKCqqiiWGAKoMSRJgsOhcCTKZBgAiCxIlmW4ZM7wEdHZ8R2CiIjIhhgAiIiIbIgBgIiIyIYYAIiIiGyIAYCIiMiGGACIiIhsiAGAiIjIhhgAiIiIbIgBgIiIyIYYAIiIiGyIAYCIiMiGGACIiIhsiAGAiIjIhhgAiIiIbIgBgIiIyIYYAIiIiGyIAYCIiMiGGACIiIhsiAGAiIjIhhgAiIiIbIgBgIiIyIYYAIiIiGyIAYCIiMiGGACIiIhsiAGAiIjIhhgAiIiIbIgBgIiIyIYYAIiIiGyIAYCIiMiGGACIiIhsyCG6ACJqEE2FnEmJroLMTJKgevyAJImuhOqAAYDIwpxjxxB66n64j+6Fe3gfpFxGdElkcqrXj1zfBuRWbkL8uveiGO0SXRJViQGAyIo0FeGffgORH3wBUiEvuhqyEDmTgnf/C/DufwGhx76LmXt/F/Hr3stRARNiACCyoPZ/+u/wv/CY6DLI4uRcGtGv/zXcw/sxNfA/RJdDFeJNgEQWE3z2R2z+1FDBp+6Hf9eTosugCjEAEFmIkphFy3/8regyyIaiX/0c5FxadBlUAQYAIgvxHNwFOZMUXQbZkBKfgfvIa6LLoAowABBZiHt4v+gSyMZcfP2ZCgMAkYW4Tr4uugSyMb7+zIUBgMhCis1toksgGyvx9WcqDABEFpLrWy+6BLIxvv7MhQGAyEJyq7aILoHsSpKRW7FJdBVUAQYAIgvJd69C4tp3iy6DbGju1g+j2NIhugyqAAMAkcVM3/f7XJ+dGirftRKz7/lN0WVQhRgAiCxG9fgw9unPI7dys+hSyAYy67dh/Pf/AZrDJboUqhD3AiCyoEJHL0b+5MtoeuTrCD32bThmJ0WXRBZTbOnE3G0fQfyGe7gRkEkxABBZlSxj7o6PYe6Oj0GJnYL76F445qZEV0WmJqEYaUNu+UaUQhHRxVCNGACIbKAUjiJ90TWiyyAiA+E9AERERDbEAEBERGRDDABEREQ2xABARERkQwwARERENsSnAIjIcPy7fg7P3l/BPbwPrpEjkIo50SXpRnX7kO9dh1zfeqQvuhbZNReKLolsggGAiAxDiU+jdefn4Nv9lOhSGkYpxODd+zy8e59H0yNfR/z6ezB9z+9Ac3tFl0YWxykAIjIEx9QIenbcZ6vm/zaahtDj30HPX3wYcjYluhqyOAYAIhJP09D65c9CScyJrsQQnOPDiHz7H0SXQRbHAEBEwoV+/n14D7wougxDCT35A3j3/Up0GWRhDABEJJz/+Z+JLsGQ/C8+LroEsjAGACISS1PhHt4vugpDch/bJ7oEsjAGACISyjlxgje8nYXrxCFA00SXQRbFAEBEQpWCEe4nfxalUDP/bEg3DABEJJTqD6LQ1iO6DEPK9a4XXQJZGAMAEQmXXXWB6BIMKbdys+gSyMIYAIhIuLm7foMr371FsaUD8RvvEV0GWRgDABEJV2jtwfQ9vyO6DEOZ+rX/CdXjF10GWRgDABEZQvz6ezB758cBWRFdilCq24epgf+BzMbLRJdCFscAQETGIEmYfff/hZE//TLyy9aIrqbxJBmZTdtxcvBbSFxzt+hqyAa4GyARGUpuxSac/ItvQknG4BreD9fIYUiFvOiydKN6FrYD7l3L+yCooRgAiMiQSoEwMpsuR2bT5aJLIbIkTgEQERHZEAMAERGRDTEAEBER2RADABERkQ0xABAREdkQAwAREZENMQAQERHZEAMAERGRDXEhIKI60TQNJVWFWlJRUjWoqopSSZ3/8Y1fX/zvhe9VVUiSBEWWIcsSZFmGLMtQlMX/nv9RWfh1WZbgdDqgyMzuRFQbBgCiChWLJWRzeeRyhfkf8/M/FoulhtXgcChwu5zzX+75H10LP5ckqWF1EJF5MQAQnUWhWEIul39Ts8/mCiiVGtfoz6ZYLKFYLCGVzr7t91xOx0IocMHtcsLndcPjdYOxgIhOxwBAtCCbzSORSiORzCCTzaFUUkWXVJV8oYh8oYgEMm/8miLL8Ps88Pu9CPg8DARExABA9lUqqW80/GQyjUIDh/AbraSqiCfTiCfTAOYDgc/nQcDvgd/nhZeBgMh2GADINjQAmUwWiWQGiWQa6UxOdEnClFQViWQaiYVAIC+MEAT8XjSF/XA6+NZAZHX8V06WViyVEE/MN7pkKmPaYX29qacFgrGJ6YUgEEA45OcTB0QWxQBAlpRMZTAzm0AskYKmaaLLMZ1kKoNkKoORsVMIBX1oDgcQDPj4hAGRhTAAkGWUSiXMzCUxMxtHLl8QXY4laJqGWDyFWDwFRZERDgXQHA7A7/OILo2IasQAQKaXSmcxPRtHLM5P+3oqlVTMzMYxMxuHy+lAUziAlkiI9wsQmRT/5ZIplUoqZucSmJ6LI5fjp/1GyxeKmDw1h6npGJrDAbRGm+B2OUWXRUQVYAAgU/G6nTgxMok5fto3BE3TMDOXwMxcAk2h+SDg9bhEl0VEZWAAIFNpDvowG0uKLoPOYC6exFw8iWDAh7ZoE+8TIDI4BgAinamqhnyhtLBCX+m0ryIKRRUORYbLqcDpVOB2KnA5HXA5FbicChTFfI/gLT5O6Pd50BZtQjDgE10SEZ0BAwBRDXL5Iqbn0piJLX3NxjPI5YsoLDT6Yg1rD8iytBAG5kNBKOBBJOxDJOxFS5MPkbAPAZ+7jv9H9ZNKZ3H0+Dg8Hhfao80Ih/yiSyKi0zAAEJVhLpHBqdnUfJOfS2M6lsFMLI10Jq/rdVVVQzZXRDZXBACcmk3hyInpN32Py6mgOexDS9i3EA58aGnyIdrshyyLf24/m81j+OQEAn4vujpa4HHzHgEiI2AAIDqDeCqH46OzGF74SqSMu2xwvlDCxKkEJk4l3vTrLqeCZR1N6OtuRl9XM9oiAUEVzkumMjh0ZATRSAjtrc2QucIgkVAMAEQA0pk8hsfm3mj6s/HM+Q8yuHyhhMMnpnF4YcTA63Gir7MZvV1N6OtqRiTc+Ll5TdMwNR3DXCyJzvYWNIXFhhIiO2MAINs6PjaLg8dO4fjoLKZmU6LL0V0mW8D+o5PYf3QSABD0u9HX1YyVy1qwpjcKh6Nxn8gLxRKOj0xiZi7BaQEiQRgASIh0NoViqdjw687E0thzaByvvT6BeDLb8OsbSSKVw55D49hzaBxupwPrVrZi8+oOLOtsalgNnBYgEocBgBqqUCwglppDodi41fsyuQL2HZ7AnkMTGJuKN+y6ZpIrFPHKgTG8cmAM4aAHm1Z3YNPq9oZME3BagEgMBgBqmFQ2iXgqAUD/FfxKqorDx6ex59A4Dp+Yhqpy1cByxRJZPLvrGJ7ddQxdbSFsXt2BDava4HHru9Tv4rRAPJFCd1crtyEm0hkDAOlO1VTMJeeQy+s/5J7K5PGrV0/g5QNjyHKPgJqNTsYxOhnHo88dQnurD6v6QggG9J+vd+xxoKU5CJeT+wtYTcDnxYquDkRCQdGl2B4DAOkqX8hhLjmHklrS9TrxZBbPvXIcrx4Yq2nhHTozVdUwNpHC2EQKmpKD5kxCkxmwqHohvx/XbN2C+266ljtKCsI/ddJNIp1AMpM4/zfWYCaWxtDuYew9PMFh/gaRSm5IJTc0JQ/NkYSm6LsYEllTPJXCD59+Di/tP4Tfet+7sLqnS3RJtsMAQHVXUkuYS84iX9CvMUxOJzG0exgHjk1xV0BBpJILUikCTS7Mjwgoxl0siYxr9NQ0/mrnN/G3v/tJTgs0GAMA1VU2n0UsOQdV02cY/tRsCr/cfeKNxW1IPEl1Qso1Q5OLC0HA3o9XUuVS2Sy+eP+P8Mcffb/oUmyFt9lSnWiIp2KYTczo0vxlWUZToBk/ffoQm79BSaoDcq4JcrYFksqb96gyuw8exsuHDosuw1YYAKhmmqZhJj6DVFaf1fT8Hj/amtrgdXt1OT/Vl6Q6IWdbIOdDgMa3GCrfgeMnRZdgK5wCoJqomoqZ+LQuC/s4HS6E/WE4Hfw0aUZS0Qel5IHqTEBzmH9vBdLf0ZFx0SXYCgMAVa2kljATn677kr6yJCPoC8Ln4f7xpqfJkPNhaEUvNFccmtz45Z/JPKZjXKmzkRgAqCqFYgEziRmodX6+3+f2IegPQZY4dGwlkuqClI1Cc6agOpNoxGqQZD7LOlpFl2ArDABUsXwhh5nETF0fv1NkBU2BZric3BXOyqSCH0rRA9UV4/oB9DYruzpFl2ArDABUkWw+g7nkXF2bv8flQTjQxE/9dqEpkHMRaM7kwmgAEaDIMi5cs0p0GbbCAEBlS2dTiKVidTufBAlBfwh+zvXbklQIQC65oLrnAInLN9vd3ddeiZ62qOgybIUBgMpS72V9FVlBczDCO/xtTlJdULLRhSkBriRoVyu7OvGe664SXYbtMABQWerZ/D0uD5oCTZA45E/A/JMCuWZOCdiQJAG3br8UH7jleigK3w8ajQGAGkaSJIR8IT7eR2fEKQF7cDoULGtvw4quDlx94RasX75MdEm2xQBADcEhfyqHpLoQ0Lpx21Vr0dvZVJdzNoUC6O7i3LJReJwufto3CAYA0p1TcSISikCWFdGlkAlksgU88NhevOPaDdi4qr3m82WzecRjKXS2t9ShOiLrYAwjXbmcLrSEW9j8qSKqquGhJ/bihT31WRt+ajqGqen6PcFCZAUMAKQbj8uDSLCFN/tR1R577hCeeuFIXc41NjGN2RhvMiRaxHdm0oXP7UNzMAJJkkSXQiY3tHsYj/xif10Wnzo5OoVEMl2HqojMjwGA6i7gDSAcqM8NXEQA8PKBMfzno3tQLNX2dICmaRg+OYF0hmsOEDEAUF2F/GEEfSHRZZAFHRo+he88/DJy+dp2FFRVDceOjyOXr/8W1kRmwqcAqG6aAs3wur2iyxBOdTqQbQ4iEwkh2xxC0euC6nKitPjldrzx36rTAalUgpIvLnwVIBcKUPJFyPkiHLk83HMJeKfj8MzE4UxnRf/vCXVifA7f+OEu3Hv7hfB7q984qlgq4ejwGFav6IbDwRtUyZ4YAKguwoEm2zV/TZGR6GpFuiMy3+wjIWQiIeRD+i105Mjm4ZmZDwPe6Rh8k7MInZiEkrPPznqTM0l85+GX8cF3boXbVf1bWL5QxPGRSazs4w50ZE8MAFSzoC8En9snugzdaZKEVGcL4n0diPV1IrGsDWqDPz0WPS4ku6JInrawjaRp8I9PIzQ8Pv91YhJyobZhcqObnEni+z97FffediEcNSwqk0xlMHlqDm1R3rNC9sMAQDXxe/wIeAOiy9BNIeDF9PrliC3vRLy3HSW38VYy1CQJyc4okp1RjG7fDElVERg9hfCxMbTsOwbvKWs+/35ibA4PPbEXd9+4qaanTSamZhHwe+HzuutYHZHxMQBQ1bxuL0L+sOgy6k51OjCzthenNq9EbEUnNJM9yqjJMhI9bUj0tOHkVRfCPz6D6GtHEH3tKJypjOjy6urgsSn85JmDuO2qdVWfQ9M0HD85gTUre7hELdkKAwBVxe10o8lKj/pJEuK97Zjasgoz6/pQqmFu2WhSHRGkOiI4fsM2hI+OIbrnCCIHj1tmmuDl/aPweZy45pKVVZ8jXyji5NgU+npqX3qYyCys8y5HDeN0ONEcjAAw1yfjM1GdDkxsXYuxSzfoevOeEWiShLmVXYiv7MIVYT+k8Wkc/s4TKI5OiS6tZkO7h+H3urBtU0/V54jFU5iejaOlmY+xkj0wAFBFHIpjYXlfczf/ktuF8W3rMHbZRhRtNPcrAxiIBHGZzw0Ee3Dpn3wYL5+YxIHv/Rz5wyOiy6vJo0OH4PU4a9pAaGx8Gn6fBx539Y8YEpkFAwCVTZZlREItkGXzzpMWvW6MXboB45esR8lmb/Jvav4LHJKEbb3t2Prp+7BnfAb77n8KmVfrs/a+CD96ch8CPhd6O5urOl7VNBw/OYnVK7shmzzkEp2Ped/JqeGaAs1QTLqrX8ntxPHrt2HXb70XI1dewOZ/ht+/oCOC+37zblz25x+He2VXQ+urF1XV8ODje5HKVL8uQjaXx+j4qTpWRWRMDABUloA3ALfTnEPlpzatwO5P3Y3R7ZssdXNfuc7X/N9qY2sY7/v0fVj1W++BZMLpkVQmjwcf31vT5kEzswnE4qk6VkVkPAwAdF79A4NXmXF9/0w0jL0fugWvv+tqFPz2WqVwUaXNf5FTknD1puV41199Ci3vuEKf4nR0fGwWz+w6VtM5Rsenoaq170BIZFQMAHRO/QODUQDfFF1HJUouB4Zv2IZXPn4n4r0dossRptrmf7pmpwN33rEdV37uk/Cs76tfcQ3w7K5hDI/OVn18oVjE5KnqjycyOgYAOqv+gUEJwNcAVP9sVYPNrerGy5+8G2OXb4Jm4psVa1WP5n+6NU0BvO+/vAc9H7u9LudrBE3T8NATtd0PMDUdQ567BpJF2fcdksrxhwBM8Y6vyRKOX3cx9t97I/JB6+9LcC71bv6LHJKEmy7bgMs/+wkoJlk7P5XJ46Enqr8fQNM0jI5P17kqImNgAKAz6h8YvBLAX4quoxz5oA97P3QrRvs3iy5FOL2a/+k2tIRw546PIXjVBbpdo56GR2fx7O7hqo+PJ9NIJNN1rIjIt7SkigAAIABJREFUGBgA6G36BwZbMD/vb/hb5udWdeOVj9+JRE+b6FKEa0TzX9TkUPDuD9yEFb/1bsBh/LeRZ146huNj1c/nj45P1/RUAZERGf9fLonw9wCWiS7iXDRZwvHr54f87bSS39k0svmffs1rN63AVYO/ATli7KdENE3Dj57cj0KxVNXxuXwBp6atuasi2RcDAL1J/8DgNQA+IrqOc1EdCg6893qMbueQPyCm+Z9udciPW/70o3AuN/YTF/FkFkM1TAVMnJqrOkAQGREDAL2hf2DQAeALous4l6LHhX0fuAVzq03zYIKuRDf/RR0eF975+/fBe9FqoXWcz/OvnMBMrLr5fFVVMTbBGwLJOhgA6HT/FcAm0UWcTT7ow2sfuQ2JnlbRpRiCUZr/orBDwV0fvxPhG7aJLuWsSqqKnz5zsOrj52JJpNLZOlZEJA4DAAEA+gcGewD8meg6zibTEsZrH70dGZM8fqY3ozX/RR5Zwl3vvRYd99wgupSzGh6dxb7Dk1UfPz45U8dqiMRhAKBFfw8gILqIM0l2RfHaR25DLuQXXYohGLX5L5IBOC9Zh4mta0WXclaP//J15AvVzeen0lmkOQpAFsAAQOgfGLwFwPtE13EmqY4I9n3gZt7pv8DozR8AHktm8N25FI7eejlmDLp8cDKdw9MvHq36+Ek+EUAWwABgc/0Dg24Anxddx5lkm4PYf99NKLmcoksxBDM1fwCAJOHQu65GbHmn2KLO4sW9JzE1k6zq2HgihVyOSwSTuTEA0B8CWCO6iLcq+L3Y9/6bUPB5RJdiCKZr/gs0RcbB916PZGdUUFVnp6paTTcETk3P1bEaosZjALCxhZ3+/lh0HW9Vcruw7/03IdcUFF2KIZi1+S8quRzYf9+NyLQYb7GgkxMxHDw2VdWxs7Ek1wUgUzP8Uq+kq98HYKidc1RFwYH3XY90W7PoUgzB7M1/UdHrxv7334xNX3sYroSx1tUf2j2Mtcvf/Gipqqo4NjGB0elpjE5PI5HOQMPblwJ2KAqcTqVRpdqCDBnd7VGs6u7Eut5lWNltzCkkK2AAsKn+gcEwgN8WXcdbvX7XVYj3tosuwxCs0vwX5UJ+7PvAzdj09UfgyOR0rqx846cSODoygxXdEQDA5NwcHhp6DhOz1e8dQLU5OjaOp3fvAQBcc9EWfOydt8LvMe6/A7PiFIB9/Q6AsOgiTjd2+SbMrDPmXeONZrXmvyjTEsbr77pap4qqN7Rrfong3YeP4MuP/ITN30Ce2v0qPvOP/4KRyeqmaujsGABsqH9g0I/5Vf8MI9HdiuPXbRVdhiFYtfkvmlvZhbHLNta5otqcGJ/DnsMj+OmvfgVVVUWXQ28xG0/g/3zvQZRK/LupJwYAe/oUgBbRRSwqet14/e5roMl8OVq9+S86cd1Ww93n8bOh/Siy+RvWsdFx/OeTT4suw1L4jmszC8/9f0Z0Hac7/I4rucof7NP8gfmbPQ/dfQ1Uh3FuoMtnZUgq15wwskef3yW6BEthALCfXwdgmNtqxy7fhNk13NnPTs1/UaYljOGbLq3b+epBKjCIGtlcMonpWFx0GZbBAGAjC9v9/pHoOhYlO6Oc94c9m/+iia1rMbtmWd3PWy2p5AFUPhxlZEdGxkSXYBkMAPbyQQDGuM1eknD0tu22n/e3c/NfdPgdVyAfMM5yFHKRowBG5nIyoNWLvd997ecTogtYNHHxWqQ6IqLLEIrNf17R68bM+67X9RqVkIoeAJLoMugsVnYZZgbT9BgAbKJ/YHAFgKtE1wEABZ8HJ66x99A/m/+SbqcDv71tDSK3Xq77tcojLYQAMpq25iYE/cYZLTI7BgD7+DAM8rHm+A3bUPS4RJchDJv/km6nA/+1NYSgLOPyWy4FFGO8JUklr+gS6AzuuqZfdAmWYox/bdQIHxFdAAAketowtWWV6DKEYfNfcnrzB4B2jwud9xhjKkAquQDNOI8oEnDhmlW48dKLRZdhKQwANtA/MNgPA2z5q8kSjhpmmLfx2PyXvLX5L9revxmy3xjD75wGMI7VPV34zfe8U3QZlsMAYA8fFV0AAExtWWW41d8ahc1/ydmaPwCEHQp6P3SL7jWUQ+Y0gHAOh4L7br4On/3kx9AcDIgux3L4PIXF9Q8MugDcJ7oOTZIwun2z6DKEYPNfcq7mv2j7llU40dqM0pTgDXlUB67fcgkyxRTi6RQquYXG7/XAwW2CqyLLMnpao1jZ3YlV3Z0I+BjE9MIAYH3vBCD8Y/f0huXIRkKiy2g4Nv8l5TR/APDIEtZ+9Fbs+1/f0r2m80klgZv6L6r4uOamIJZ1tepQEVH9cArA+gwx/D9y5RbRJTQcm/+Scpv/oktWdMG1qlvnqs5v7+EJqKpW8XGpdFaHaojqiwHAwvoHBiMA7hBdx8zaXmSiTaLLaCg2/yWVNn8AUCRg8wdv1rGq8mSyBRw5OV3xcfl8AYVCUYeKiOqHAcDabgQgfHuzkSsvEF1CQ7H5L6mm+S/a3BGBo138apFHTs5UdRxHAcjoGACs7QbRBcyt6rbVkr9s/ktqaf7A/J9l1x3b61tUFY6PVnczIgMAGR0DgLUJDwATW9eJLqFh2PyX1Nr8F23cvLJOFVVvei6NZDpX8XHJdEaHaojqhwHAovoHBnsArBVZQ8HnwdyqLpElNAyb/5J6NX8A6PC44L9Y6MsYAHB8dK7iY3K5Aoqlkg7VENUHA4B1Cf/0P71xuS22+2XzX1LP5r+o78ZtdTtXtY5VOw2Q4jQAGRfXAbAu4QHglAGGb/XG5r9Ej+YPAJt727HP7YKWy9f1vJXYc3gER2cPVnycIstQBGxwJMkyuqItWNXdiXV9PbhgdX3+LSbTGbx04BAOnxzD6ydHEU/V/3UlyTK6W1uwqrsL6/p6sGXVirpfg+YxAFiX0ACQaQkj2RkVWYLu2PyX6NX8AcAny2i55TKceujpup+7XFpJRiyZBSTzDOlPzsxi98HXAcxvpPOb734HmkPBqs/3wv6D+Lf7H8ZcMlmvEs9qcmYWuw7M175t/Rr8xt13oCnApYDrzfrjszbUPzC4GsAykTVY/dM/m/8SPZv/ojWXbdDt3OWSSubdwvrlQ4fxmX/8Fxw6MVLV8V/78c/wd//+3YY0/7d6cf8hfOYfv4ijo2MNv7bVMQBYE4f/dcTmv6QRzR8A1kSCcAheWlcqGffvuxypbA7/33cfQK5QqOi4F/YfxI+ffV6nqsqTTGfw+e8+iEKRiyvVEwOANQkNAKnOFuRCfpEl6IbNf0mjmj8w/+fu6d+k+3XORVLNOwKwaHxmFt/4yRNlf38yncG/3v9jHSsq38jUKXznsSdFl2EpDADWdIXIi8f6OkReXjds/ksa2fwB4IfxNF6Uyt+NTxeaDGjm3+HvqV2vQNPK29/g5dePIJbU//VUridfekV0CZbCAGAx/QODfgA9ImuI91ovALD5LxHR/H8YTyPZLX53PUk1/33TmVwOo6fKW9742Oi4ztVUJp5KY2q28jUZ6MwYAKxnDSrZuLzONFlCYlm7qMvrgs1/iajmD8wvLJVtrv4u9rrQzB8AAODIyGh532ewAAAAhw1Yk1kxAFiP0LV3U51RlFzWeJME2PxPJ7L5L0r0tDXk2mcjqeafAgAAn8dT1vd53cZ73fsMWJNZMQBYj9AAELPQ8D+b/xIjNH8ASPQIngawyAjAqp7O8r6vu7zvayQj1mRWDADWIzQAxC1yAyCb/xKjNH8ASHaLHgEwfwBoCYfKXlRnRZexpvM6WiLwe8sbvaDzYwCwHmEBQJMk8Z/Q6oDNf4mRmj8ApFubUHILfBxPkwFN8NMINXrfDVeX/b0XrF6JNcu6daymMu+7vvza6fwYAKxHWADINQWgOs39CYnNf4nRmv+ihOCnASQTTwNsXbca12+7qOzvl2UZv/W+d8HlEP//fNnG9bjqos2iy7AUBgAL6R8Y7AIgbMHsTEtY1KXrgs1/iVGbP2CA+wBMeiPgxhV9+M13v7Pi4zpbIvjd++5GwOfVoarybFm1Ap+8+w5h17cq8bGO6kno/H+2JSTy8jVh819i5OYPQPh6AJLmQHnL6BiDy+HA+2+5Hrf3XwqpysWULtmwDn+3rBv/dv/DeGF/5bsiVsvjdOKDt92Imy+7uOra6ewYAKxFaADIRMw5AsDmv8TozR8AkoL3BGj2N6Gviptdm5uCaFQPk6XF7YC7sLyrHc46DOE3BQL4zIfvQSyZwusnR3F4RJ/tgGVJRldrFKt6urC8ox1OhzlHXMyAAcBahO4AaMYRADb/JWZo/gBQcjlQ9LjgyOZ1qOr8/G4/brv04oqP27CmF06T3yMDAOGAH9vWr8G29WtEl0I14j0A1iJ0mTSzjQCw+S9pdPN/qMrmv6joFfd3li9UtyOdqppp4oDsgAHAWoTdAFj0uFDwm+f5XDb/JSKa/49qaP6A6ABQquo4VVXrXAlRbRgArEXYCEAuLCx7VIzNf4kZmz9gzgBQYgAgg2EAsBZhAaDkdoq6dEXY/JeYtfkD5gwAnAIgo2EAsBZxAcBl/ADA5r/EzM0fAAoCA0CppFbVzDkFQEbDAGAtDABnwea/xOzNHxA7AgBUdyMgRwDIaBgArEVYAFANHADY/JdYofkDRggAlU8DcASAjIYBwFqE3YlXchvz+WY2/yVWaf6AOQMAbwIko2EAsBZOAZyGzX+JlZo/ABR8Yh85rW4EgFMAZCwMABbRPzDoBCCs0xktALD5L7Fa8weMMAJQzT0AHAEgY2EAsA6h74iqYpz1utn8l1ix+QMQvu10qVT5p3lN4wgAGQsDgHWkAXGblClVLo9ab2z+S6za/AFAFvx6czorD7xyg/4eiMrFV6RFDO3coQLQv6uchZIviLr0G9j8l1i5+QPiX2+uqgIAt7MlY2EAsJakqAuL/kTG5r/E6s0fAJScGQMA327JWPiKtJaEqAuL/ETG5r/EDs0fMOcIgMIAQAbDV6S1CAsAcl7MCACb/xK7NH8AUAS93ha5qrgJkVMAZDQMANZiqxEANv8ldmr+gDlHADgFQEbDV6S1CAwAjf1Exua/xG7NHwBkgQGgmuYPcASAjIcBwFqEBQBHJtuwa7H5L7Fj8wcAZyYn7NrVBwC+3ZKx8BVpLcKeAvDMJoAGLHTC5r/Ers0fADwzcWHXrmYNAIABgIyHr0hrEXcTYLEEt87Ngc1/iZ2bPwB4p8UFgGpuAAQAhVMAZDAMANYyJ/LinpmYbudm819i9+Yvl0pwx4QNdsHjqi4AcASAjIavSGs5LPLiXp2GZdn8l9i9+QOAu0HTTWfTFPJWfIwEQFH4dkvGwlektRwQeXGPDsOybP5L2PzniRz+B4BI2FfxMU6XE5LEKQAyFrFbalG9CQ0A9R4BYPNf0ujm/2A8jR8bsPkDgFfHqaZytFQRANxVThsQ6YkjABYytHNHEsCoqOvX8x4ANv8lbP5vpsdIUyWqGQFwuZw6VEJUGwYA6xE2CuCOpeBM1b4eAJv/Ejb/t/OPzwi7tixLCAc9FR/nZgAgA2IAsB6h0wCh4fGajmfzX8Lm/3bOdBa+qVlh128Oeata0Y8BgIyIE1PWIzQAhIfHML1xeVXHsvkvYfM/s1oDZq08HgXDE5MVH6c5NDirXD/AbmRJRldrC0L+yqdaqDJ8RVqPKUcA2PyXsPmfXfiY2ABwcnoc//HYIaE12EVrcxjrepfhvpuuQ2tzWHQ5lsQAYD1iHwWcTcAVTyEf8pd9DJv/Ejb/cwsNjwm9viaJ3YbYTqZmY5iajeHF/Qfxkdtvxg2XXCS6JMvhPQDWcwyAuJ1SAIQrGAVg81/C5n9urnhqfs8JkeSS2OvbUCaXxxfv/xF+/OwvRZdiOQwAFjO0c4cKYJ/IGsqdBmDzX8Lmf36VBEu9cARAnG/+9OcYnZoWXYalMABY089FXjx8dOy8S7Wy+S9h8y9P+Kjg4X+5AEiq0BrsrFAs4ss/fER0GZbCAGBNj4u8uCuZRuj4xFl/n81/CZt/eeRCEc2HTgguIi/2+oQDwydQKjGE1QsDgDU9BUDoZGXrnjPvS8Tmv4TNv3yRgyeg5AtCa9AUBgDRCsUShifO/uGCKsMAYEFDO3fEALwosobI/uOQi2/OIGz+S9j8KxPdc0R0CdA4AmAIY1PiVoK0GgYA6xI6DaDkC2g+uDRky+a/pNHN/wGTN39nKoPwUWFbXABYnP8XtwUxLelqbRFdgmUwAFiX0AAAAK2vzX9qY/NfIqL5P2zi5g8A0deOQjrPTaW64/C/ITgdDvS2t4kuwzIYAKzraQBC37XCR0bgTmfZ/Bew+Ven9dUz30/SSJosdGkNWrBxRS8UhW2rXvgnaVFDO3dkADwnsgZJ1XBbJsvmDzb/avkmZ+GbFLf5zzwNmiL2BkQC3E4nfu2dt4kuw1IYAKxN+DTAzI+HUDLo1Cmbv/F1Pr9XdAkLzd+gL2Ib+dBtN6CjpVl0GZbCAGBtj4kuoHByCi+frHz3NL2x+Rufey6B6Gu8+9/u/B4Pfvt9d+GWyy8RXYrlcDMgaxsCMA6gQ2QRB37wJLb+3j2ofBd1fbD5m0P30B5IqgE+eStZ0RXYjiQBndEWrOtdhntuvAaRUFB0SZbEAGBhQzt3lPoHBr8B4NMi68gdPIHXJmaxuV388B2bvzm44ilD3PzXHg3ivbdsRyKThlbBkwgetxs9XVEdK7MuWZbQFW2B123ce4esggHA+r4GwQEAAPY+8Ats/uS7hNbA5m8eXc+9BskAS75uXt2BoM+LoM9b0XHtrc1obxUfeInOhfcAWNzQzh0vA3hFdB3pl1/HQYFbubL5m4czlUHby4dElwFZlrBxVXXPnIdD/jpXQ1R/DAD28DXRBQDAyz94Usi91Gz+5tL13GtvW0ZahBU9Efi8roqP87hd8LgrP46o0RgA7OEbELw5EACkXjqIl86xS6Ae2PzNxTsdQ8cL+0WXAWB++L8aTeFAnSsh0gcDgA0M7dwxBuBR0XUAwL4v/RBptTFzu5Zt/jFrNn8AWPGTX0Jq0OvjXNwuB1b3VXcTHwMAmQUDgH0YYhqgeCqGZ36p/+Iulm7+CWs2/+jeowgNj4suAwCwfmUbHFUsOevzeuBy8t5qMgcGAPu4H4C4u/BOM/LNRzGa0W9tdTZ/81HyBfQ99oLoMt5Q7fB/Mz/9k4kwqtrE0M4d6f6Bwe8B+DXRtaCkYugHT+K9H7ql7qdm8zennl+8DGcyI7oMAIDf50S6mMDBk5XlZQlARs3h6MSYPoVVUosko6u1BR2RZkhS/ZfgyheLODY6jniq/v/WJElGd1sUHRE+Rqk3BgB7+TyMEAAAJJ7dg13XbMXWZa11Oyebvzn5pmbR8cI+0WW8IVGcwfeeOiG6jLrwe9xY07sMH7zlevR21LaNrqZpePT5XXjshZdwfGIKqs73avi9Hqzt7cGHb70B3W31e5+gJVIlq1uR+fUPDP4YwO2i6wAAJeDFbZ/9BFrdzprPxeZvTlJJxeavPQz/+LToUuZJKkreKVht8x+HQ8F7r78ad13dD7mK1+7UXAz//IMf4rUjx+pf3Hk4HQruvek6vOPKyyHrMJrRaDd8bLDiY5oCzfC6K1uMqgx/w3sA7OdzogtYVEpm8MTXHkGxxhDK5m9efY+/YJzmD0B1pGG15g8AxWIJ3/7Zz/Hdx56q+NhsLofPfunfhTR/ACgUS/iPRx7DA08+K+T6VsYAYDNDO3c8A+BJ0XUsSu8+hCefr/65bzZ/84ocOG6YZ/4BAJIGzWHtP/MHfjGE10+OVnTM1x9+DFOzczpVVL7vPfEUjo01dh0Rq2MAsKe/FF3A6U58/WEcmI5XfBybv3m5Y0ms/LGxPtFpjjQgiV+DQE+qquIrD/2k7O8/OjqGx17YpWNF5SuVVOz80U9Fl2EpDAA2NLRzx6MAnhddxxs04Ff/53uIV7D8K5u/eUmqijX3PwVHNi+6lNNoUB36v56M4OjoGLL58v7sDwyf1Lmayhw6cRIFAywTbRUMAPZlqFGA4tQcHv3Gz8q6H4DN39x6n3gJgdFTost4E82Rsfyn/0WqpuHoaHkLLh0p8/sapVRSMTzOaYB6YQCwrx/CALsEni7+y7145OFfnvMWLDZ/c2t95TA6n9d/JchKqU57fPpfND49W9b3Tc6U932NNDE9I7oEy2AAsKmhnTs0GOiJgEWnfvQsnnj+zM+Es/mbW/Ohk1j5sLHm/YHFT//2GlbuaS/vufru1ur2Q9BTT1tt6xnQEgYAe/seAOOswLLg+FcfxnOvj7zp16za/O+PpWzR/IMnJ7Hm/ichqcZ7xE51JkWX0FCKImN5R3tZ37uiq1PnairjdjqxrN14ocSsGABsbGjnDhXA74iu40wO/L/fwZ6J+eFHKzf/RxLGWP5WT77JWaz77uOQDXjzluZM2e7T/6YVy+F0KOV976o+KFVsiqSXLatWVLWQEZ0Z/yRtbmjnjscAfFN0HW+laRpe/Jv/wH8eGWXzNzH3XBIbvv2owe74XyCVbPfp3+N04hPvuq3s7+9sieDd116lY0Xl87rd+LU7bxVdhqUwABAA/DcAlT+IrzMtl8fsP3wXTa/r+ygSm78+XMk0NnzrZ4bZ5OetVFcCVlz171w+fPvNaKtwk533XHclVnV36VRR+X7tnbegJRwSXYalMAAQhnbuGAPwP0XXcSZysYR1338C0T1HdDk/m78+PDNxbPraI/DMGmIH6rfRlBw0JSu6jIYJ+X349Affi5su21rxsbIsY8fHP4SbL79Yl50Fz6cpEMAffPheXLP1goZf2+q4GyAt+jyAAQAXCa7jbSRVw+qHnoYzncXYZRvrdl42f334x2ew/tuPwpk2aoPVoLoMN+BVd06Hgr6Odqzr7cFd116JkN9X9bk8Lhc+fuft2L5pAx57YRcOj4xiYlq/5YGdDgeWd7ZjXV8P7r7mSgR8dd8Ih8DdAOk0/QOD2wE8i/mtzQ1ppH8LTlxX+aeYt2Lz10doeBzrvvcElHxBdClndfGmLly8sbq722VFxoreTkPdGHcmiiyhtalJ1zqT6Qxiqfo/wdKI2kUy0m6AHAGgNwzt3PFc/8DglwB8QnQtZ9M99CqcmSyO3LYdqHI4ks1fH5EDw1j9wNOQS8a9q7455MUNl62purl0d0TREuE8NAAEfF5+Mjc5a0YsqsUfAzDO/qxn0Lb7ENb+51NVNRo2f320v3Sg6r+TRrr5irVVN3+P24UImz9ZCAMAvcnQzh3TAP5AdB3nEzkwjI1f/0lFN5mx+defXChi9UNPY8VPfgkYfDpx/co2rOiJVH18d2fUuHNjRFVgAKC3Gdq54ysAvi26jvMJjJ3Cli8/hNZXDp/3e9n86883NYstX/mhbk9o1FMo4MFtV62r+vimUAB+n6eOFRGJxwBAZ/NJAOfvrIIp+SJW/eiZc24vy+Zff227D2Hzzh/DO238u+llWcJdN2yC21XdLU+yLKGzvfqRAyKjYgCgMxrauSMO4F4AOdG1lKNl3zFs+dJDCJ6cfNOvs/nXl5IvYPUDv8DKh4cMubTvmVx76Sp0tVU/d98WbYbTyfulyXoYAOishnbueAnAZ0TXUS53PIWN//4TLHtqNyRVY/Ovs6YjI7jgSz9EdO9R0aWUbVVvCy7bsqzq410uJ1pbwnWsiMg4GADonIZ27vg8gB+IrqNckqah+5lXsPHfH8F9Phebfx244yms/f7Psf7bj8E9Z8yV/c4k5HfjHdduqOkcXe0tQla/I2oEBgAqx8dLqjmGexcFR6Yw9CdfxI8ffwmzhaKu17Jq85dKKrqG9uDCLz6AyMHjosupiCxLuPOGTfC6nVWfIxjwIRSsfvU8IqNjAKDzGtq5Y242MVPtujvCaKqKye//HA/+93/G4y8eQFpV634Nqzb/8LExXPClB9H785cg6xyg9HD1thXoaa9+6F5RZHR3ct95sjbe2UJlufnKDcgXgNcOnBJdSsW0TB7Hv/wjjDQHseqjt+GyNT1w1CHNWLH5B0em0P3MK2g6PCK6lKqt7Ilg+4V9NZ2jp7MVLt74RxbHVzid1xceeHDnsq4mAEA8kcOJUfPMA5+uNJvAwX/4Lo72tmPTR27FhV3VL+xiteYfOj6O7mdeRfjYmOhSatLS5MOd19e2YVRLcwjhkL9OFREZFwMAndMXHnhwZyyV+tjizy/a1IZ8QcXEVEpkWTUpHJ/A7s99DQe3rMK6u67Cxo4InBWMCFip+TcdGUX3M6+87fFJMwr53bj39ovgqWHe3+N2obOjpY5VERkXAwCd1T898MBXY6n0R0//NUmScMkFHXj2xRHMzhl1u9fypF89jF2vHsYr4QDabt+O9VvXoC9w7s1NrND8lXwBkf3H0f7SAQTGzDelcyZetxP33n4RQn531eeQJQm9PW2QzXazC1GVGADojP7pgQe+OveW5r9IUSRcvrUTzzw/gkTqzKvvmUkplsTYtx7F2LcehXvdMvTecjk2r+5G2KG86fvM3PwlTUP46Ciie44gcvCEKW/sOxunQ8H7br0ALU213bHf1RGFx+2qU1VExscAQG/zhTN88n8rl1PB9m1dePr5k8hkrdNMcgdO4NCBEzikyGi69mKsumozNrQ144fxtCmbv29yFq2vHkb0taNwpsxX//nIsoS7b9pc00p/ANAU8iPSHKxTVUTmwABAb1JO81/k9Tiw/eIuPPOrEeQL5lon4LxKKuYefwEvPv4CXgz5MdseQVdPGxI9rUh1tEB9y+iAUThTWYSGxxEeHkP42LipFu6pxjuu2YCVNezwBwAupwPdXa11qojIPBgA6A1fuP/Br8XS6Y9Uckww4MLlWzvx7IsjKJWMvR1s1eIpNMdTaD50AgCgKTJSHS1IdLci0dOKRHcbCue5d0AvjmweoeMTCC00fO+pOSF1iHDj9tXYuLq9pnNIkoTennYoDVoyhAj3AAAau0lEQVQxkshIGAAIwGLzT1XU/Bc1N3lwyQUdeH73ODSD7wlfD1JJRWBkCoGRKXQ+P/9ruXDgjTCQjYRQ9Lrf+CpVuQvdGzQN7lgK3pkYPNNxeGfi8E7H4JmJw5VI1/4/ZELbL+zDJZurX+N/UUdbM3ze6m8cJDIzBgDClx555P+utvkvam/147KtnXjh5THrjgScgzuWhDuWRPS1t2+UoyrKmwJB0etGwbfw3x4X5JIKJVeAkp//kvMFKPni/M9zebhjKdPsvNcIV128AldevLzm8zSHA2htaaq9ICKTYgCwufuffvrXWwKBP87n85hL1vZsf3vUhysu6cYvXxqz3j0BNZBLJbiSabiS9vy0Xi+SJOHmK9Zg64bums8VDHjRw3l/sjlOfNnY/U8//esA/g2A1BmJIOirfR67OezBlZd1w+thtqT6URQZd92wqS7N3+d1o6+ng7v8ke0xANjU6c1/8de6W1rgddc+Hxr0u3DVZT0IBvhMNdXO7XTg3tsuxLoVtX9id7ucWN7bAVlm8ydiALChMzV/YH6IdVlrFG5X9UupLvJ6HLjq0h5Emjw1n4vsy+914YN3bkVvZ+1z9U6HghV9nXAoxnyEk6jRGABs5mzNf5Eiy1gWbYXTUfsQvtMpo/+SbrS3cmMVqlxzyIuPvGsb2iKBms+lyDJW9HZyhz+i0zAA2Mj5mv8ip0PBstZoXZ6NVmQJl13UgWVdta3URvbSEQ3iw3dejHCw9hEkSZLQt6wdHg+npIhOxwBgE+U2/0VupxPL2lrrsjGKJEnYurkNW9a3gvdd0flsWduJD75zK3ze+jTs3u42BPxiFmoiMjIGABuotPkv8rpc6G6Noh5dWwKQyWYwNTeFUomPCNLbOR0K3nHtBtxxzXo467TUcndHFOEQp6CIzoQBwOKqbf6LAh4PulsiNYUASZLw2qFx/OLFgygUC5iKTSGbN/dWwlRf0SY/Pnr3Nmxe01G3c3a0RdAS4dQT0dnwjhgLq7X5Lwr5fJBlGSNTp6BWuNSvJEl47eAYfvHCwTd+TdNUzCZm4Pf4EfSHINVWHpnc5jUduOXKtXX71C8B6O5qRaSJu/sRnQsDgEXVq/kvCng86G1vw4nJKZRUtaxjztT8T5fKppAv5tEciEDho1m243QouPmKtdiytn6f+iVJQl9PG0JBDvsTnQ+nACyo3s1/kdflQl97W1mPCEqShL3naP6LlqYErLdXPZ1dS5MPH71rW12bv6LIWNnXyeZPVCaOAFiMXs1/kdvpxPL2NhyfnEKuUDjj9yw2/6fO0/wXzU8JzMLnziHoD0GWmEutSpIkbNvUjWsuWVm3IX9gaZEfj5uP+hGViwHAQvRu/oscioK+9jacmDqFTC73pt+rtPmfLp1LI5vPIugPwef21atcMoie9jBuuXItWuuwsM/p3C4nVvRxkR+iSvFfjEU0qvkvUmQZfW2tOHlqGsnM/PD9+eb8y6FqKmLJOaSzaYT9YTgdtS9LTGL5vC5cf9mqut7hv3RuN5b3dnB5X6IqMABYQKOb/6LFvQPGZmYRS6Vqbv6nKxTzOBWbmn9SwBeExGkB05EkCVs3dOGaS1bC7ar/W00w4EVfDzf2IaoWA4DJiWr+p2sLh/HEc/vx/KtH6n7uVDaFTD6DkC8Mr5uruZlFV1sIt1yxFu1RfR7Fa24KoqczKnRLXyUxC/exfZDTSWE1WJHmdCK/bC0KrbVv/UznxgBgYkZo/qWSiq/c/wvsef2kbtdQVRVzyVmkcyms7lmG2TifGDAqv9eFqy9ZiQvXdepyflmW0N0RRbPAZ/x9rz6Llm/+HZzjx4XVYAelQBhz7/h1xG75AMARQF0wAJiUXZr/6fKFPG6/dh1y2RKe3T2Msal4Q65L5xfyu3HZBb24cF0XHA593qw9bhf6etrhdou7L6TlW/8b4Z9+Q9j17URJxtDy7b+H/6UnMPbfPg/Nxa3F640BwITs2PxPt7ovitV9URwbmcGzu4dxYmyu4TXQvKaQF9sv7MPmNe112T3ybCLNQXR1ROuyOVW1/C/9nM1fAM+h3Yh8/wuY/sCnRZdiOQwAJmP35n+65d0RLO+O4OR4DEO7j+HIyRmh9dhJtNmP/gv7sGFVm67z8LIso6criqZQfR8drJimIfr1vxZbg42FH/0WEtfejXzXStGlWAoDgImw+Z9ZT0cY99x2IcZPJTC0exgHj02JLsmyOqJB9F/Uh7XLW3W/ltfjRl9PG1wu8Y+COseHocROiS7DvjQVnoO7GADqjAHAJNj8z68jGsS7b9qMU7Mp7No3gn2HJ5HJnXm1QiqfoshY3duCC9d1YUVPpCHXbImE0NXeIvQu/9O5j+4VXYLtuY++Blz3XtFlWAoDgAmw+Vcm2uzHzVesxY3b1+DwiWnsOTSOw8eny97EiOZ1t4exeU0H1q9og8fdmLcKRZHR09WKsMHW81dSvM9ENDkZE12C5TAAGNwXHnjwyz63e6Ap4Bf5USj/lft/4apH85ckCT63D+lcGlqFWwtXSpYlrOmLYk1fFNlcAfuOTGLPoXGMTvLpgbMJBz3YvLoDm9Z0oDnU2HUXIs1BdLZxZ0iiRmEAqNKRmVEZwFUAti18XQxgFsCLC1/Prox0HarlGl944MEvx1KpX4ulUgCApoCQT0V5APfsef3kA7WeSJIkREItcDlc8HsDmJqb1D0ELPK4ndi6oRtbN3RjNpbBntfH8drr44glsg25vpG5XQ6sX9mGzas70NMRbvj1fV43ujqi8HndDb82kZ0xAFThyMzoegBfBtB/ht++YuFH9cjM/9/encdGWt9nAH/eY8ZzvHN6vF6PYTcsR2DZhYRjiWEJkAQaqWKBhlRqm0pu2apV0zZteqC2TJXESivUNFJTqUgNkGnSRm2SQnaTIpVWIRDYCcuVlGsDzcIu7Hgvz/i25+4f9mvG3rE9x/u+v/d4PpLlY+2fvxLIzzPv8Xvzfw/gvh3J9Hynv0MPf/3z8UIBQANxzdKrocsAPnnn3r0H//D+f+1poebwBwBFVqDICqq1qgFjdiYRC+LGqy/AjVdfgFMTsziWL+J4voh3Tk6iXKlZPo/VZFnCUCqK7cMJbE/HMbwlBkWxfqMVVVGwdTCJpMBNfYi8jAWgA0cLeQXAHwP4PIDNdqWQAfwRgNuPFvL37Eimn2r396wNf914oQgAVpWAlfDvdaG14W8ng/0aBvs17Nl9Pur1BsbPTuN4fhLH8kWcODWFas0d1w1s6dewPZ3A9nQC52+Nw+8Te5i9PxHF1i1JIcWDiJawALTpaCHvB/BtAPs6/NGLADxxtJDfvyOZ/tpm37xe+OssKgGeCP+1ZFnC8JYYhrfEMPKB7ajW6sifnsKx/CSOj0/ibHEOiw64q0BVZSSjIQwPxrA9ncC2dBxBgbvnNQsFAxge6kcwwMP9RKKxALShh/DXyQAePFrIY6MSsFn468YLRUCSEA+bck2AJ8O/FVWRsW0ogW1DiZWvLSxWMDE1j8LUPAqTy++n5lGcXkC9bs31DLqoFkAyFkIyFlx6Hw+hPxZCVLPflqmqqmBoS1LoHv5EtBoLwCYMCH/dhiWg3fDXjU8s7XpncAlg+G8iGPDhvEAM5w2uvliuXm9gamZxpQyUKlVUKjWUKzWUKlWUKzWUyzWUK1VUqrX3Pq/WoCoy/D6l6U1deu9f/lhVVj6PhgNIxkNIRIPwqfa/Wt6nqhhIxZCMR/nYXiKbYQHYgIHhr2tZAjoNf934RAFoGHZ3AMO/B7IsIRELIhHjI4sBoM/vw0AqjkRMs81mPkS0GgvAOkwIf51eAho7kulst+GvW7o7oOcS4Jjwt+q2QepOMODHQCqBeNReG/kQ0blYAFowMfx1MoCHHn/p+Xum5ub29rpYjyXAMeEPAOMT07j5ussxUZzG9Iz5mwlRe8KhALak4ohoIdGjEFGbWADWsCD8dfKF29J7C9MzeOvEyZ4X63KfAEeFv04LB6GFg6hWayhOzmBicgblsv2vznejqBbCQCqOcMh+Fx4S0cZYAJpYGP4AAEkCrt31fgAwqAR0dIugI8O/maoqGEjFMZCKY3ZugUcFLOL3+5CIaYjHNPTZ4El9RNQdFoBlVoe/Ti8BDTTw9olTPa83XiiiASCxcQlwfPiv1XxUoDA5g0JxGuWK9bsMupWqKIjFwkjENISCfLVP5AYsABAX/jpJAvbsuhQADCkBJ5ePBKxTAlwX/s1UVcGWVBxbUnHMzC6gUJzG9CyPCnRDliVEtTDicQ2RcJBX8xO5jOcLgOjw15lRAqQGEI+sKgGuDv+1IloQES2Ier2BufkFzMwuYGZ2HiVeL7AuCYCmBRGPaYhFwpBlbtVL5FaeLgB2CX+d0SVgvLh8TcBSCfBU+DeTZQkRLbR8hXo/ypUqZmbnMTO7gNm5BdTr7tjvv1uBPj/CoQC0cBDhcAAqH8dL5AmeLQB2C3+dGSWgIaGa0DRPhn8rfp+K/kQU/YkoGo0G5hdKK4VgYbEkejzTBfr8CIcD0EJBhEMBqA7YUZCIjOfJAmDX8NcZWQIkSUKpVLn/zo8z/FuRJAnhUADhUABbtwDVag0zcwtYWCihVC5jsVRBxeEXE64KfL7CJ6JlnisAdg9/nRElQJIkxEPhL/7OHbff1/s87gv/VlRVQSKmIRF779qJWr2OUqmCxVIZpdJSKSiVyra6y0CRZfT1+eD3+9Dn96Gvb/m938fz+ETUkqcKgFPCX9dLCTAy/AF4IvzXo8gyQsE+hIKrH2Fbr9dXysBiqYJKtYp6rY5afelN/7heb/R0F4Iiy5BlCbIsQ1Zk+FUV/qaA7/P7eBifiDrmmQLgtPDXrZSABvB2vr0SYHT4A/Bs+G9EXqcYtFJvNJoKQR212vL7egOyJK0E/KqwX/6YiMgMnigATg1/nSQBe3YvHwnYpASYEf7UO1mSIKsKVPCVOhHZg+tPDjo9/HV6CXhfenCD72H4ExFRe1xdANwS/rqNSgDDn4iIOuHaAuC28NfpJWB7Uwlg+BMRUadceQ2AW8NfJ0nAdcvXBBwfP83wJyKijrmuALg9/HV6CRhMxA989MqrGP5ERNQRV50C8Er46yQJuOD8rbcfLeQ/JXoWIiJyFtcUAK+FfxMZwD8fLeR/TfQgRETkHK4oAB4Of50M4OssAURE1C7HFwCG/woeCSAiorY5ugAw/M+hgCWAyHD1QFj0CJ7X4H8Dwzm2ABw8fEibnpv/Phj+a+kl4FrRgxC5RWn7ZaJH8LzS+y4VPYLrOLIAHDx8SDs1Mfnmk8/9762z8wuix7EjBcDXlo+QEFGPKuddiHogJHoMT1u86ErRI7iO4wqAHv5ni1Nb5xdLeOLwT8ES0NLlAP5K9BBEbtCQFRTu/n3RY3jW3LUfQ+mCy0WP4TqOKgDN4a9/jSVgQ/ceLeTToocgcoPpW+7G/BV7RY/hOdX+IZz91L2ix3AlxxSAVuGvYwlYlwrgOtFDELmCJOHkZ76MiV/5LBr+gOhpPGHmprvw7hf+DbVIQvQoruSIrYA3Cn+dXgJu2XMltFDQyvHs7moAj4oegsgVJBlTt/4qpj98F/qOHUHf269DXpgVPZWrNFQfyudfgtIFOxn8JrN9AWgn/HUsAS1dI3oAIrdp9AWxeMkHsXjJB0WPQtQ1W58C6CT8dTwdcA5N9ABERGQ/ti0A3YS/jiVglRdFD0BERPZjywLQS/jrWAJWvCB6ACIish/bFQAjwl/HEgCABYCIiFqwVQE4Wsj7FxZLLxoR/jqPl4Dv7UimXxE9BBER2Y9tCoD+YJ8PXHrhxf3xqKFre7QEFAH8tughiIjInmxRAJqf6udTVdx0zW6wBPTsMzuS6XHRQxARkT0JLwCtHum7VAKuYAno3gM7kulviB6CiIjsS2gBaBX+Op+qsAR05wEAnxY9BBER2ZuwArBR+OtYAjr2AIBP70imG6IHISIiexNSANoJfx1LQNsY/kRE1DbLC0An4a9jCdgUw5+IiDpiaQE4ePiQVq3WHkEH4a9jCVgXw5+IiDpmWQHQd/h7+qVXfrFWq3e1BkvAORj+RETUFUsKQPP2vqcmJvGjF18GS0DPGP5ERNQ10wtAq739WQJ6xvAnIqKemFoANnqwD0tA1xj+RETUM9MKQDtP9WMJ6BjDn4iIDGFKAejkkb4sAW1j+BMRkWEMLwCdhL+OJWBTDH8iIjKUoQWgm/DXsQSsi+FPRESGM6wA9BL+OpaAczD8iYjIFIYUACPCX2dECbjZHSWA4U9ERKbpuQAYGf66XkuA6vwSwPAnIiJT9VQAzAh/nYdLAMOfiIhM13UBMDP8dR4sAQx/IiKyRFcFwIrw13moBDD8iYjIMh0XACvDX2dUCUjZtwQw/ImIyFIdFQAR4a8zogTcZM8SwPAnIiLLtV0ARIa/zoUlgOFPRERCtFUA7BD+OheVAIY/EREJs2kBsFP461xQAhj+REQk1IYFwI7hr3NwCWD4ExGRcOsWADuHv86BJYDhT0REttCyADgh/HUOKgEMfyIiso1zCoCTwl9nWAlIxAydSy8BM/MLWTD8iYjIRlYVACeGv86QEnD1bsNLQCwSfu1Y/tQ9DH8iIrKTVQXgTGHqVSeGv85uJWBoIPlaMhbZvW/P9d0NREREZJKVAvDvT/3wK6cLk9tEDmMEu5QAhj8REdmZDADf/fEzu949deb3RA9jFGOuCei+BAwNJF9n+BMRkZ3JADAxOf1YuVKVRA9jpJ5LgNJdCRhKJY8kY5FdDH8iIrIz+eDhQ2phauZ80YOYweoSMJRKHknGI5cz/ImIyO7kWq1+W7VWEz2HaawqAUOp5M8Y/kRE5BRyuVL9uOghzGZ2CVgO/50Mf/M1GrybkoicyW5/vuRqrXqZ6CGsYFYJ2JpKvsHwt867JwuiRyAi6sqJUxOiR1hF9qnqy6KHsIrRJWBrKvFGfzxyGcPfOj97Ky96BCKirhyx2d8v2aeq/yl6CCsZVQIu3jb8XH88yvC32JnCNH5y5JjoMYiIOvY/z9jr9basKPITPlWx2ZkJcxlQAh6+audF1zH8xfjbBw9iYbEsegwiorY99uRLOPzyz0WP0awh79tzfb0/HntT9CRW66EEPAxgvwf39p8RPYBu/Mwk7v3SNzF+pih6FCKiTX3viRfxD//yX6LHWGtGBYBkLPKxyZnZtxZLZUX0RFbSS8CNV+2GorR8MvJaXg1/AMgDeL/oIXSvvPkO9t/3T/jEbXtw2YXn4aJtgwgF+0SPRUSERqOB8dNFvHHsJH747Kt44dW3RI/USl7Sb6v69tNPZv7veP4LggcSYrA/3k4J8HL4Y2R07AcAbjFyzTOTp1GtVY1ckojIdeKRBIL+oNHL/sJK4n1y701j6YF+e12hYJE2Tgc8BA+H/zLDL1+VJFftPk1EZAoZpvytzK96yZuIaVdtTSU8dz0AsGEJeAjAb3k8/AHghNELKrKnzjgREXVFNudv5YlVBWDfnuur/fHoTpaAlRLA8H+P4UcAWACIiDanKIb/rVzMZTPFc056swQslYBqrZYFw7+Z4QWgzx8wekkiIlfxq37IUlsXqXciDyw/Dngtr5cARVFeP/LWO/cw/Fd5wegF+3ym/I9NROQaAXNeKL0ArFMAAO+WgPRA/+uJqLaLm/yslstmjgJ4xdhVJUTCUWOXJCJyCVVREQqEzVj6ALBBAQC8VwLSA/2vJ2IM/w0cMHrBUF+IpwKIiFqIaXEz7paqAngM2KQAAN4pAQz/thheAAAgHo7xVAARUZNwUINf9Zux9FO5bKYItFEAAPeXAIZ/256HCbcDyrKCmBYHzLnXlYjIUXyqD5FgxKzlv6t/0PbLLreWAIZ/+3LZTAPAQTPWDvgDSMVSUBWfGcsTETmCFtTQH02ZuVHayt/wjo67uq0EpAf6X2P4d+w7Zi3sU31IxVPQgppZv4KIyJZURUUqlkIkFDUz/J/LZTMrz1Pv+MSrW0rAcvjvZvh3JpfN/ADAj8xaX4KESCiKVGwAoUCYmwURkav5fX5EwzGkYgPwmXPOv9nnmj9ZeRhQpw4ePqROTE6/dvJs8WIjprISw783I6NjIwAOWfX7avUa6vUa6vU6uDEDETmdJElQZAWKrFj5TJQnc9nMzavm6LYAAM4sAQx/Y4yMjj0C4C7RcxARUVs+lMtmnm3+Qk/3XjntdADD31B/AaAmeggiItrUf6wNf6DHAgA4pwQw/I2Vy2aOAHhY9BxERLShKpZesJ3DkN1X7F4CGP6m+RyASdFDEBHRuv4xl8280eofDNt+za4lgOFvnlw2kwfwy+CpACIiO3oawJ+u94+G7r9qtxLA8DdfLpv5bwCfFT0HERGtcgzAL+WymfJ639DTXQDrscPdAQx/a42Mjn0VwH7RcxAREeYA3JDLZn660TeZ8gQW0UcCGP5C/C5M3CCIiIja0gDw65uFP2BSAQDElQCGvxi5bKYC4BMAfi56FiIiD/vLXDbzaDvfaOozWK0uAQx/sXLZzBkAI+CRACIiq5UB7M9lM3/T7g+Y/hB2q0rA0EDyVYa/eMsl4KMAHhQ9CxGRR5wG8JFcNvNQJz9kykWArZh5YeDQQPLVZCxyBcPfXkZGx/4AwJcB8Ik+RETmeAnAnbls5ninP2hZAQDMKQEMf3sbGR27FcC3AMRFz0JE5DLfAvAbuWxmvpsftrQAAMaWAIa/M4yMjqWxtGvgb4JHA4iIevUGgD/PZTOP9LKI5QUAMKYEMPydZ2R07FIAfw0+RZCIqBunAHwewFdz2Uy118WEFABgqQQUp2efz5+euLLTnx0eTB2OR8IjDH9nGhkdGwFwP4AbRc9CROQAswD+DsCXctnMrFGLCisAuu88/dSfvXv67BcXFkvqZt8bCvRVhgdTf3L3DR/+ihWzkblGRsc+AuBuAPsADAseh4jITmpY2sv/AIBv5rKZU0b/AuEFAAAOPHtoaHJ65vHC1OzOxXL5nFsTA33+WjIWeSUR0W7bd931p0XMSOYZGR2TAFwD4I7lt11iJyIiEmIOwONYCv3v57KZCTN/mS0KQLMDP35mZ7lavbNarV3pU5Wf+FT10Ts+dMMR0XORdUZGx3YAuBpAuultuOnjiLjpiIi6VsPSefx8i7djAJ7OZTOLVg3z/7ccb3iUMyTXAAAAAElFTkSuQmCC;" vertex="1" parent="1">
          <mxGeometry x="924.5" y="379.77" width="72" height="72" as="geometry" />
        </mxCell>
        <mxCell id="3ur9gsYHsS7Vl2ftzdm_-83" value="" style="shape=image;verticalLabelPosition=bottom;labelBackgroundColor=default;verticalAlign=top;aspect=fixed;imageAspect=0;image=data:image/png,iVBORw0KGgoAAAANSUhEUgAAAgAAAAIACAYAAAD0eNT6AAAACXBIWXMAAB2HAAAdhwGP5fFlAAAAGXRFWHRTb2Z0d2FyZQB3d3cuaW5rc2NhcGUub3Jnm+48GgAAIABJREFUeJzs3Xd8VfX9x/FXcrNDCBD23nvIBhkCCuKsori11dZZd7VWW1HrHq171Lotbq0TFcUByFL23nsTAgSyx++Pr/QHISHne+8599ybvJ+PRx4teL/nfHJJ7ud7vuPzBREREREREREREREREREREREREREREREREREREREREREREREREREREREREREREREREREREREREREREREREREREREREREREREREREREREREREREREREREREREREREREREREREREREREREREREREREREREREREREREREREREREREREREREREREREREREREREREREREREREREREREREREREREREREREREREREREREREREREREREREREREREREREREREREREREREREREREREREREREREREREREREREREREREREREREREREREREREREREREREREREREREREREREREREREREREREREREREREREREREREREREREREREREREREREREREREREREREREREREREREREREREREREREREREREREREREREREREREREREREREREREREREREREREREREREREREREREREREREREREREREREREREREREREREREREREREREREREREREREREREREREREREREREREREREREREREREREREREREREREREREREREREREREREREREREREREREREREREfFTwO8AypEI1AIaAclALJDva0QiIiLORUUei/Hx3p2BIb/+b4dfv5oCcRW8fjewClgGLAd+Bn4CcjyPVERE5EjKYw4lAWOBt4CtQKkLX/nAj8AdQIvwfSsiIlINeZXHJmPyWMuwfSdh0ht4AcjCnTeroq9i4Afgd5jhFxERETeEK4+VUEXy2CDgM8w35OUbVt7XNuA2IMXz71JERKqqwSiPWekIfEP436zyvrYDl+HvWgcREYkuHYFv8T+HRU0eSwbuBvLw/w0r+/Uz0Nez71xERKoC5bEgdAYW4v8bdLSvQsw/bKw3b4GIiESxzsAi/M9VUZXHLgEO4P8b4/TrG6CBJ++EiIhEI+UxS7HAc/j/RgTztRpo5/5bIiIiUSQAPI//OSmYrzX4lMcSgHcsg420r13AALffGBERiQoJwLv4n4uiKo8lAl+7/E349bUPONbdt0dERCJcIjAR/3OQr3nMdltBAPPkf3YwNytP3ZQUBrVoQbf69WmXkUGz9HRSExJIioujtLSUvXl5ZOXlsSozk2W7djFj0yaW7NhBSWmpWyHsBoYCi926oIiIRKwA5sn/LLcumFKrFi179qRBu7ZkNG9OesOGJCSnEJeYAKWl5GXvJ3ffPjI3bmDn2nVsXLCAHWvWUFpS4lYIWZiSxFZ5zLYD8DxwlWWbIzSuWZNzu3bl7M6d6dKggXUQmTk5fLVqFW8vWMBPGza40RnYhClctCHUC4mISER7Abgy1IvUrF+fbieeSNeRJ9CgTRuIsctkOXv2svKnn5j/5ZesnzfPjc6AdR6zifhqzKK/oHVr0IBbBg3i9I4dibV8syqyevduHp82jXcWLqQwtDdwNubNi7gTm0RExBXXAM+GcoGG7dox+JJL6DR8GDGx7uzG271xI1Pf/A8LvvqKkqKiUC5llcecZuFjgOmYgxCsNaxRg/tOOIGzu3TxrJTR2qws/jxxIhNXrQrlMk8D17sUkoiIRI6ewDSCzGM1MjIYee21dBs10vpp36mszZv56p+Ps3L69FAu8wxwnZMXOvkuagBzCHK7wfnduvHIiSdSMzE85xr8d+lSbpgwgb15ecFeYgzwXxdDEhERf4WUx7qPHs1JN99EYo0a7kZVgSWTvuPzhx8mb//+YC/hKI856QA8Atxqe/ekuDj+MXo0F/XoYds0ZOv27OGSDz9k/rZtwTTfiqkDvc/dqERExCePArfYNopLSODkW/7EMaee6kFIR5e1ZQsf/PVvbF2+PJjmjvJYoJKLdAFec/C6w6QmJPD22LH8pmNHm2auqZWUxLndujF/2zbWZGXZNk/D1IP+2v3IREQkzLoAr2KZxxKSkzn34YfpNHy4N1FVIjktje4njmLbihXs3rTJtrmjPFbZG/Ie0MbmrjUTE5lw8cUMaNbMppnr4gMBzuzUicU7drAyM9O2eR/gE8wpTCIiEr3eB1rbNEisUYPfPvMMzXt09ygkZwLx8XQeMYIdq1eRucF6k1qleexoHYARwF02d0uKi+P9886jb5MmNs08E4iN5ZQOHZi2YQMb91mN6McC9TEdIBERiU7HA+NsGgTi4zn3oYd8T/4HxQYCdBw6lPXz5rF3u9UzaaV57Gh7GP5qcyeAJ04+mUHNm9s281RyXBzjx46lac2atk3PxJwOJSIi0ck6j51622207hdZp+7GJSZy7kMPkt7A+vyfo+axijoAAzAjAI5d1KMH53frZtMkbOokJ/PKmWcSb7dnMxa43aOQRETEWwMBqwn8HqecTI+TT/IonNAkp6cz5u/3EBsXZ9PsqHmsooxoVSWpYY0aPDhypE2TsOvftCl/7N/fttk5QIYH4YiIiLes8liNjAxG33CDV7G4olm3bgw87zzbZhXmsfI6AKlY1kh+eNSosO3zD8VfhgyheXq6TZMEYKxH4YiIiDdSMXvhHRt9441h2+cfiqGXXUqtRo1smlSYx8rrAIzBbCFwpHfjxpzRqZNNML5Jjo/nL0OH2ja72ItYRETEM2dhkccad+pE5+OtZr19E5+UxHGXXWbbrNw8Vl4H4Eybq/5p0CDbQHx1TteutqMAAwGr7paIiPjKKo8N/u0lXsXhiW4njrIdBSg3j5XtAMQCxzm9YqvatTm5fXubIHwXHxvLFX2tVnjGYLkgUkREfGOVx2o3bkzHIUM8DMd9sXFx9D3baqa+3DxWtgPQE6jj9Irndevm2eE+Xjq3a1fi7HYEDPMoFBERcVdPoLbTF3c/abRnh/t4qfuJJxIbsCpuOKzsX5TNglYT5Gd36WLz8ohRPzWVwS1a2DQZ5lEoIiLiLqs81jXCd7BVJLVOHVr26mXTZFjZvyjbAXCc0ZvWrEnbOo4HCyLOsJYtbV7eGlNXWUREIpvjPFazQX0yIqx4nY1WfXrbvPyIPFa2ooDjCf2hdgk04ljGHwusAAo8CQZygOXAu8AHQKlH95HwiAWOAfoCPYAWmJKcdYADQB6wDVgPzAVmAkuBEj+C9UES0AtTcKwT0AyoCyRiypNnAjsxvxMLgSnARl8iFTe1B64C+gMNPbxPY6cvbNnLKoFGnJa9reKPxRyHvODgX5TtADg+vq9r/fo2N444XerXJxATQ3Gp41zb1Mt4gK6YrSvfYVaw6jji6DMIuAw4BbCt2bkF+Bh4C/jJ5bgiQTzm53oscBJmn7aNxcCHmFPd1rkamYTDVcATmE5exGjYtq3fIYSkQdu2xMTGUlri+NmhPYd0AA6dAkgA6jm9SruM6C6QlxQXR1O77YDhMgL4FPOBKZEvBpPUFgJTMR0A64LdmKeWa369xi/Aub9eO9qlYkqRrsOMcJ2NffIHM6w7DliNOeHsGJfiE+9dCDxHhCV/gIwW0Tv8DxCXkEB6Q6uPm8OO6T20A+C4aAJAs8hMnlYs6wGE03HAY34HIZUaBszGnLbV1cXr9gbewUwNDHDxuuH2O2Al8AAWw7KViAVOB+Zg3iOr1bwSdscALxKhnVnLvfQRqVZDq+/hsDwfdAcgGkr/ViYtsr+H64GL/A5CytUSc8b495gtR17pixkReAAzQhctGgFfYIbrvfqEjcGMkiwF/k5wowrirTqYaZsUvwOpSGJK9P/YJKZavb0VdgCsiiCnxEf/CHWNhIj/TP0XGuqMJCnA3Zikc3aY7hnADKF/j1lIGOmOwYxcnBym+yUDd2IW6V7B0Y84l/CJBcZjVp5HrPjkJL9DCFlCijsdgEKbqxQ6X3QQsQqKi/0OoTIpwEdYFGcST8RgRmNWAHdhVrGH27HANCJ7yPtUTIzNKnuhBxpjOsxTMSMn4q+/A6P9DqIyJZGfAypVXFhk8/LDdrId2gHItrnKgQKvdsSFz/7o+B5aYVaG68nGH70x29DeBJr4HEsb4EcisxMwEjMt4ne9jIGYEYj3gOhe4RW9zgDu8DsIJwpycvwOIWSW38NheT7oDsCuKvDGZUbP93AicK/fQVQzjYHXgJ8x2/siRQvMLpFImrzsAfwXf0ZGynNwZ8Yi4C9E4OrzKqwD8DoRuuivrJw9e/0OIWQ5e/bYvLzCDsABLArdrN692+amESnKvofbMT1r8VYi5r1eDvyWyPwg6w685HcQv6qDSf6R1CE5KA14EFiC5elwEpQ0zJRlTb8DcSpzw3q/QwhZ5karGlmHJb1DOwAlmD22jqzIzLS5acTZmp3Nvvx8v8OwEYPpWXfwO5Aq7DRMsngAy0WxPjgPuMDvIIAnMdNUkaw1JjF9h+k8iftiMLs+OvsdiI1d66O7A5C9axf5Bw7YNFl16B/KVgJcgSnNWamZmzbZ3DTiBBH/nwE3x4u6YLb62aiJedrqj+WUjRxVN0yVMtePfa6VFs/ALhn06lCL5MQAifGxbMnMY8nafcxakkVWdkjrUJ4EvsGUzfXDaELcqtqmSSo929eia+ua1EyNJyevmN37CpixeDdzlu8hr8DVRVrDMXUb/o3ZORDdTzGR5c+YSqa2FgDPuhzL1TjcPbVp0SKXbx1eG+cvqPxFh1t26B/KdgCWO73Kz5s2kVtURHJc2UtEh8l2Pb9sTGEet2v0p2OGmW10wixIO9ODeKqbDMxq5Ssx2+1cM6h7Bjee246TBzQgNrb8WYT8whImTNvGcx+tZuqCoHJRXeBpzGhAuKVjCrxYiwvEcPHo5vzu5Bb061zxBpf9uUW8NmE9z3ywmvXbXFuvE4dJEOdhtnQ+j+UOKDnC8cD9QbTLAsZgMfLsUBscdgA2LlxEYV4e8UmRsnzFzto5s21eng1sPfQvyn7o1QLOcXKl4tJSejVuTPsoLAlcUlrKzV99RbbzKYCfMMPvbvsaUxfdtlhKR8yBMlNdj6h6iAOuxQwLD8XFHRadW6bx2t/6ctdlnWjfrAYxRzlnPC4QQ6eWaVw8ugWtG6cybdFucvKsn3i7Yn6prT4JQhSL2ZnS37Zhn461+fCBAVx2akua1Dv6hoGE+Fj6da7DlWe0ok56Aj8vzSKvwLXtx8mY372zMcOibieh6qI5ZhTKdsqsBLNQc5brEVnksdKSEhp36kRdu+PhI0JpSQkT/vEPmymAaZTJY2U/+L7H4kSydxYudPrSiDJ1/Xo277M6a+c7j0LJxQybBfP4dz9RsM82Ao0C5mOGz2u7ddHaaQn88/ruzHxpBCN6Oz5SA4CYGLhgVDMmPzeUVo2CWkv3LKYqXjgEME/N1ovqzjyuMZOeHkL3tnYluOPjYrn2rDYsenMkl5/eikAFIypB6gR8BXyGOSlNnEvCVPqrG0Tbu4AJ7obzP1Z5bOFXX3sUhrfWzZnDvu07bJockcfKdgAyMYeaOPL1ypVs37/fJoCI8Ma8ebZNvOoAgDkk5XzA9tEvKiptRZB2mO1zX+PiQqW4QAxXndGaxeNP4OozWxMXCD45tWqUyqSnh9CioXXl1DjgbcyQtpclOutj3sMrbBueNawJb47rS0Jc8IMtGekJPHVTD6b/ezjDetp1shw4FbNt8FHM9IZU7lmgTxDtPsUstPWKVR5b8dNP7I/CRe1zP/vctskReay8ec9WONz3XFxaSmxMDMNbR08OWpuVxc1ffUWJ82OAdwM34+1Z7Wsw8/nDLdslYw6keQPNY1akJqaGwhu4vEJ5RO96vHtvfy4e3ZzkRHeWEKSlxNG7Yy3GT9xIid0KjxjMz8JvMFMCK3FvjUgqZt78PcyefyutGqXy8cMDSUpw5z1qUDuRi05sTrc2NZm9bA979rv2ox/AVFy8FNgDzEPrbCpyLfDXINqtwJSJznM3nCO0xmEeKy0pISY2htb9+nkcknt2b9rEF48+Cs7zWBZwE2XyWHmPK90xQ6SOpCYkMO+aa6ifGonbgI90zWefMX6B1crJFzAffl6LwVRSC2Yl7Xh0cFB5Tsc8pTR186KtG6fy0NVdOW2wdyeJ/f3VpTz4huM1ueVZh3nSmgGs5fAOYiyHP+UWceSuklTM2eEjMHPltYIJIhAbw6SnhtC/izfVrPMKinn6/dU8Mn4F+3OtSqI6MRX4AxaLo6uJgcAP2B9QtR9zuuVitwMqRw9MB86RhORkrvvgfVJruzYr6KlP7ruP+RO+tGnyL+Cqsn9Z0XjlXCwOobmge3eeP+00m2B8MWfLFo5/7TWbp38wTwTTPQqprDRMGVNHWzHLuBb3t9NEq0TM6vjL3bxoWkoct13UgWvPbkNivLeVmQuLShh89Y8sWBXdlcr+dH477ruii+f32ZqZx50vLuatbzZaPBQ5kgdcg9njLtAAs+DUtix2KWbnxXuuR1SxeViMWPU4+SR+87e/eRiOOzYvWcIrV1xJqd15PIMwiwAPU9GYXDIWC8wWbd/Osc2b06JWUA8JYZFfXMx5779vu2ZhJaaUaLgUAN8Cl2BfvnQkple+weWYok09YCLm6d8VsTExXDS6Oe/d259R/RqENM/vVCA2hv5d6vDGhA0UW84FRIourWry+p19w/J+paXEcfqQxpzYvwGL12azeWeuW5eOw0yr1MH8XEXnP4Y74jGLJbsF0fYRzMLbcErGlFF3ZPuq1TQ/pge1Gzf2MKTQFBcW8s6fb7Nds7AKuK28/1BRB2AJZrjA8cEek9as4dyuXSP2iN07vv2WL1essG5GeLdXgVnAsgyzqtvmkzOAGap9h+pbJKgRZqFLT7cu2L9LHd65px9XntGaGinhrXnRoE4SdWsl8OWM7WG9rxtqpcXzycPH0rBOePdXN66bzO9ObkGbJqn8vDSL7BzXpgX6Y85h+Jzq2wl4CrN1z9YkzLqKcL9v1nls9cyZdD/xRNsjdsPm6yefZMXUn2yb3QH8Ut5/qKgDkM//LzBz5EBhIQu2b+esLl0IxEbWwXUfLlnCXZMm2TbbBPwe+9X5bliGOQrY9hCaGpj5uTfxJ24/pWNOynNloV+Tesk8dVMPHv1jdxpXsl/dS7071KaktJSp86NnlXJSQoCPHxpIrw7+jAjGxEC3Nun84fRWxMTEMHvZHoqKXck9x2CGwK2XX1cBFwIPBdFuA+Yp3I/tYvmYz9HjnDYozM1l28qVdBs5kpgIy2OLvvmGSc89b9tsM3AZFeSDoy3LXYCZ+3I8FL1+zx7WZWVxaocORy2AEk6T163jtx9+SJH9xOCdlDNnEkbfYRbMtLVs1wyzv91qhUiUC2BKJA8M9ULJiQFuuaA9b47rS6/2tYiEH+Ohx9Qjc28BvyzL8juUSiUlBHhjXB9O6Fvf71BIiItlWK96nD+yGZt35bJsvSsDY30wK6pnunGxKNED+Bj7LaZ5mKnkVZW90EPWeWzPli3s3ryFjkOHRkweW/vLL3zwtztt5/0BxmEK2ZXraB2AXMzq4JE2d1uycydb9u1jVNu2xPr85k1et47z33+f3CLrYcBlmNW/fj5Fl2IKZZyDfcGafpiet3XBgyj1V1xY8HfywIZ89MBAzhjaOKT96m6LiYHRAxpQKy2e737Z6fYiN9dkpCfw3wcHRkTyP1StGvGcNawJx/Wsy/xVe9m+O+RDwEZiigdtCT26iFcHM4QfzD/qlcAX7oZjLag8tmP1arJ37qT9oEG+dwLWzp7Nu3+5nSL7w+uWU8kodmXfWTxmR4D1Mt5T2rfn5TPOIDney7okFftoyRKu+vRT8ouDyuEnYH7oI8ExmB6c7aRUHjCECuZ+qpBjMOVEg/5B6942nceu7caQHsEUNAuvL6Zt46pH57JrT2SdZNmnY23+c1ffYIoYhVVxSSmvTVjP3S8vDfU9XAz0xgwzV1WxmOmOk4Jo+yxmZ1IkCDqPdRgyhDH33O3bWQGLv53Ex/feS3FhULUuRmIWlVfISddmKGZ1uXU3qFO9erw2Zgwd64bvg7WguJi7vvuO52fNCnbFydtExjGrh7oIM69vawPmQ2qXu+FElEkEeYpf7bQE7vhtB64+s7Xb5WU9tSe7kL+9uJhXvljn+2hASmKAO37bkRvPbRtV7+H+3CKeeHcVj721gvzCoGt8/Qn4p4thRZoHCW4X1AzMvHtIR126LOg8Vr91a86+717qtmzpdkwVKi4sZNLzzzPj3fdsiv0c6h1MhdmjclKaaz3BLUhjV04O4xcsICEQoFfjxgQ8HkqZs2ULF3zwAZ8vD7puxwbMlh/X9hC5ZAFm8VFfy3bpmA7AeKrmyuVTCaIaWUwM/HFMG969rz9Dj6nr+1SVraTEACcf25DjetZjW2Yea7danQfuipTEAJed2pI3xvVl9IAGUfceJsTHMvSYuowZ1oRl67JZF9xpg30xJyJ6XdXOD7/B1NKw/YfdjhlB3eN6RKEJOo8dyMpi3oQJxCUk0KRzZ88XB25ZupT3/nI7y378MdhLbMBsg640jzn9x43H9J6ODTaizvXqceewYZzUvr19F6wSG/fu5dGffuLNefNsi/wcqhDTaw1X0R9b8Zin3SFBtH0QsxWkqpmM5fvRKCOJl27vbX1gTyRbsHovL368ls+nbWP7bm9zUdfWNRlzXBMuP70ldWvZlqqITCUlpTz+7irueWUphUXWowG3Yfa4VyUdMIscbc9EKMQk/8muR+SOkPNY/TZtGHHVlbQ/9ljcXiG8d9s2prz2OnM//zyYxX4HFWJ27zlawG7zHTTDzCeHtMKnS/36XN2vH2d07EhaYvAfIKXAzE2beGPuXN5btIjC4N+wg24GHg/1Ih5riKlLYFupohRTV+B91yPyT09gjk2DpvWTmfTUEJo3iOx56mCVlJQye/kevv15B0vW7WPFhv0s35Ad9BB3eo14OrZIo1OLNLq3TeekAQ1p2ahqvncAn03dygV3z7LdMrgec/58Vdl2WwOT/IPZTnsd8Iy74biuOfAzIeaxhu3a0f+cc+g0fFhoNQNKS9m4aBFzP/2MBV9/TYn9gvWyrKalbLswvTA9qDTLdkdIjotjVLt2DGvZkiEtWtCmTp1KhxH35uUxfeNGJq9fz4QVK1ib5dq2qCcwByVEg2iowx0OjwK3OH1xrbR4fnz2ONo3sz22vGrIyS+moMB0BFKTA8SX2eVwIK+Ywl87CinJgYjaBRFOr3+5nqsemWvbbDjmdzLaxWBK9Z4dRNtoOo+kN+bI4JDzWHxSEu0GHUvrPn1o0bMXGc2aVjoykL9/P+vnz2fd7NmsmPoTuzdtCjWMg54EbrRpEMwYxvGYrR2ujv8lx8XRJiOD5unp1EhIICU+nuKSErILCtixfz+rs7K8Onr4bcwPrpen/bnteoIrq7kCs0UwugvMG6swT16OPHdLTy49pYWH4UhVcc7fZvLZT1ttmjwF3OBROOH0V+C+INrNxwyrB7WQwiee5LH4pCQymjUjvWFDElJSiE9KorSkmPwDORzIyiJzwwavjh4OKo8FO4lxCqanGO3jge8AvyWyVqs69SrwuyDafQqcQXQvCmwNrHb64n6d6/DDM0MjoqiPRL6NO3Lpccm35OY7HtVfistHTfvgBExtA9szm3djFkOucT0i71X7PBbsON8XmGGvaN5e9gymvGU0Jn8wRxQHc07B6cDtLscSblYV/64Z01rJXxxrVj+Z0+2Oeu6IfbGuSNIC8wRpm/xLME+d0Zj8QXks6A4AmOIrwzAn5kWTIszc8XVE17B/WXnAWQT3w3svwRX3iBSOj/ismRLHaXYf5iJcNLq5zctjgK4eheK1JOBDIJhiLX8j+kuOz8Ls/orGPHYrIeaxUFf6HKyG9VaI1wmXTZge3z/8DsQl6zHFHmxXIMdiFu04nkOPMI4n8/t1rkNKou2DjVR3g7tn2BY2itYFJs9hPsNtfUJwhwNFoiWY9+BtvwNxaBOm+NljoV7IjaW+2ZghiMuJvOIPh/oAUzZ2qt+BuOxb4K4g2tUGPiI6578cb4Ps1Crkhb5SDSUlBGjVONWmSROvYvHQ9Zhjem0tx8w5R/M6orKyMRVgryCyF0l/gNkCPcWNi7m51+clzFzYm0TWD8ZqzGKPsUD0nKlq5wHMD4at7sC/XY4lHByfz9u8fjT2byQSNK5rVf892qoiDcRspbW1HxhDZCfJUPybyM9jrq1ZcHuz73bgEsycyvcuXzuYWG7FzM1N8DkWr5ViznxeEkTbCzDzSNEkzukLQ6jzLtVcgd3PjuOfyQjQEPPAYFtLpBQzYhDM50w02UY1yWNeVfuYgpmjGIRZaRnOT+H1mKGtVpg5kqpYp7s82QTfM/8H5rCMaOG4IMT+3JAra0k1Zfmzk+1VHC6Lx2x9s60mCqakeDAjjdHq0Dw2gfDmsQ2Y2hKe5jGvy31NwxzY0hxTocir8+lzMWVuTwfaYg6xiLQDfcIh2Lm5gx8K0TKPucPpC+evrKojleKlnPxilm+wKjy226tYXPYkwZ0n8i0wzuVYosU0zPB7OPNYG0yBKU/zmB+7oztielXDMUMswZzKUoCpA//dr1/TqJ4JvyLBHuO5hujY09se88tYqVpp8Wz++GRio+ioWvHflPm7GHWj1XrhOUR+JyCB4Eb61gF9qLprqIJRJfJYJHwq1sW8mR0ww1I1gFpATUxpyf2Y4bVdmPKvy4G1mH2QUr4AZn/uSL8DiQRv/70/ZwxRLQBx7tRbpzHpF8cDTVVZLmYI3PqAhGomKvNYJHQAxBsZmNMbW/och+8a1Elk3YfRXPdIwunL6dsYc8cMv8OIFJdgVsRLFVQ9j/yqHjIxlQKr/dTI9t35vPz5Or/DkChx1aN62P3VMyj5V2nqAFRtc4Cr/A4iEjzynxV+hyBRYMbi3ezIyvc7jEgwFbjZ7yDEW+qiw8GaAAAgAElEQVQAVH1vAM/6HYTfNmzPYfayLL/DkAj39PuOD5msyrYA5wCFfgci3lIHoHq4CZjsdxB+e+mzdX6HIBGspKSU7+fs9DsMvxUC5wFb/Q5EvKcOQPVQiOnRb/Y7ED99OnUrRcWRVN1TIsn0RbvJyo7W08FdcwMu1ZmXyKcOQPWxHTiXajyst3tfAT/OrfZPeFKBj6ds8TsEv70GPO93EBI+6gBULz9hFgVW28dgDfFKRSbPde2MlWg0BbjG7yAkvNQBqH5ewUwHbPc7ED8sXL3P7xAkAhUWlbBsfbSU83dVKeYz4WS0ZbjaiaYTrMQ9HwCfAScCnYDa/oYTsmFAfycvXLhaZwPIkVZs3E9BkdVZL+9iSuRGqwJgI/A15uAZqYbUAai+8oFPf/2Kdr8BPnbywq2ZeeQVFJOUEPA4JIkm67bm2Ly8FLgC0HCSRDVNAUhVsNzmxQdyi72KQ6JUbr7Vz8Q2lPylClAHQKoCqw/jA3k6R0oOl5Nn1QGwOidYJFKpAyBVgdVUlmoBSFklpVY/E4lexSESTuoASFXQxObF9Wrp81sOV7+21c9EQ/TZKVWAfoilKujj9IWpSQHSUrT2VQ7XKCPJ5uUJQDePQhEJG3UApCoY6fSFzRqkeBmHRKkm9ZJtm4zyIg6RcFIHQKJdI+Akpy/u2ynaSx6IF+rXTqRlI6vO4e88CkUkbNQBkGh3BxaLAI/tluFhKBLNLH82OgOnexSKSFioAyDRrCOmIItjg7urAyDlG9Kjrm2Th4F4D0IRCQt1ACSaPYtZkOVI/y51aNu0hofhSDQ7Y2hjkhOtKkR2BG72KBwRz6kDINHqQmCETYPfntTCo1CkKqhVI57TBjeybTYOaOl+NCLeUwdAolE68JhVgxrxnDXcqlyAVEOXnmLdSUwBHvcgFBHPqQMg0eguTDEWx/58YXtqav+/VGJYz3oMPcZ6LcAZaFugRKEYvwMQsdQSWIZFOdbGdZNY+J+RpNjN70o1tWDVXgZe8YNteeAFQE/A6kxhET9pBECizX1Y1mK//8ouSv7iWPe26ZxzfFPrZsBFHoQj4hmNAEg06QHMwaLjOrh7BhOfGEKMftLFwvbdefT47ST27i+0abYZaA/keBOViLv0sSjRIgb4DhjmtEFCXCwzXxpOxxZpngV1NEvXZ7No9V5WbNzP1l157Msporgk+JMIE+NjSUuJo0XDFNo1rUGfTrVta9h7ZvHafXz4w2bWbD5AoeVpiyUlpWzakUvm3gIKi0tITYqjcd0katd0vMPzf9KS4+jfpQ5jRzShRnJoaz6e+XA1tz6z0LbZOODekG4sEibqAEi0uBh4w6bBLRe0597LO3sUzpFKSkqZMj+Tt77ZwNczd7B9d57n9+zQPI1TBzXkglHN6dwy/B2dwqISbntuEf/6eK3tnLmn6tdO5JU7enN8n/pBX6O4pJRjr/yBBav22jTLBXph1qmIRDR1ACQadAWmA46r+NSvncii/4wMy8l/BUUlvP3NRh57ayWrNu33/H4VGXpMXW67qAMjetcL2z2veWwur36xPmz3s5EYH8vXjw+mf5c6QV/jx7m7GH3zVNtmy4ABgFXPQSTc1AGQSNcJmAhYrcp68sYeXPGbVt5EdIgp83dxw+PzWbo+2/N7OXVcz7o8eWMPOjT3dkRg+qJMRlw3xdN7hKpb65rMfGlESGtAxtw+gy9nbLNtNhsYDewK/s4i3tIuAIlkY4GfsEz+7ZrWCKagi5X8whJuenIBo26cGlHJH8xT68ArfuDlz9d5ep/xX2/09PpuWLhmn+0Q/hHuvaIzgVjrHkRvYAbQL6Sbi3hIHQCJRH2Bz4H3AOvze++/sgvxcd79aG/fncfwayfzwsdrPLtHqHLzi7n2H/P4w4OzKSzyZmt6pHV8KrJ47b6Q2ndpVTPYDmUbTAf234D3w1EillQaTfySDtQCUjFJvhHmaelkoEuwFz2xf4Ng6rk7tm5rDqfc8hNrthzw7B5uGj9xIzv3FPD23/u5XgshiKdiX8THhR7n3y/vzH8nbyFzb4Ft0zjgD8DvgcmYnSxzMFMDu4EDQBbaOig+iLTf4ATMQq9av/5vDuYXZD8QHY8bUp46mIN7RmCGRttj/o1dlZQQYParI2jdONXtSwOwa08+I66bwkofF/oF66QBDXnvvv7EBdz7lb/12YU888Fq167nlflvnED7ZqGfAvn6l+u56pG5LkRUri3AcmAa8D0wBbDubUhEiJo85lcHIIDZKjMU6Ax0+PXraEW484FVmF+SFcBM4EdM71kiTwxwEubp5xQsju0N1mPXdeOPY9p4cu38whKGXzuZuSv2eHL9cLjqjNY8fkN31663eO0++v/h+5BqG3htSI+6THxisCvXKi2FC+6exceTt7hyvUpkAu8A/wKsixFIWER9HgtnByANOAs4EzgOMwQcqhJgLvA18B9gqQvXlNCdhSmI4l62qcTFo5vz4m29PLv+jU/M51+frPXs+uHy6l97c94JzVy73v2vL+O+1yJzy3t6jXgmP3ecK0//B+3PLWL4tZNZtCa0dQUWSoHPML9P88N1U6mQV3lsHvAVMB5Y4sI1HQlHB2AIcAUwBnN0ppd+Bl4HXsMMuUh4tQWeA0aG86YDutThy38OIinBm3r/U+bv4sSbphJBdW6CVistngVvnEC9WlbHKRzVMx+s5p5XlrI/t8i1a4aqR7t0XrmjjyfFkdZuPcCI66awLdP7Qk+HKAKeBe4kwoaRq4mhwOVUsTzmZQdgMHA3cLyH96jILswvy5NoiiBczgZewp0esWNDetTlgwcGeHbUb0FRCf1+/z3LNwT/mVs7LYHeHWrRoE4i9eskEczauYKiEnbszmfjjlxmL8sivzD4lf2XnNScf/3Z3dGS3fsKmDB9G6s3H3C062Dlpv18OmWro2snJwa4ZkxrR69NS4ljQJcMhvTIINbDRYrrt+Vw8p98WQy6AjgX88Qo3qvSecyL35BjMEEf68G1be3BDJ09BxT7HEtVFQP8A7gp3Dc+bXAj3rizj2dP/hDawq+TBzbkurFtGNy9rquL77JzivhqxjYeGb8iqKHoQGwMc1473tWhcVufTNnCeeNmOXptRnoCmz4+2eOI7G3emcvpf57GknVhfyDPAy4A/hvuG1cjPTF5bKDfgeBhHnNzs3RNTE/lFyIj+YNZhfkUZkilv8+xVEUBTH3+sCb/xPhYHryqK+/+vb+nyb+kpJR/vLXSul2jjCS++udgPnxgAMN61nM1+YN5yh07oikz/j2cJ27sQWK83a9xcUkp/3h7hasxVUdN6iUz5YVh/P7UluG+dRLwPmaBrbgrHZPHfiYykj8cnscGuHlhtzoAfTB7W6/HJIVI0xNTS/4hIjO+aBQDPE+Yz0Dv3jadyc8dx43ntvX8iN8p8zOtt/x1b5PO1BeGcVzPoy0EdkcgNoYrf9OKL/85iFpp8VZtP/huM/tyImfOPlqlJAZ45k/H8N69/WlaPzmctw5gdgicG86bVnHRkMem4WIeC7UDEAPcgKl25c3+K/fEALcB3wKNfY6lKrgDsygmLNo3q8Gb4/oy/V/D6N42PMsM3vpmg9XrG2Yk8d+HBtK4bniP6B3YNYO37u5nNdKQk1/MJ+HZzlYtnDa4EQvfPIFHrulGRrrnO14PisWMwEXKiGu0OjSPOVts4p+DeWwSLuSxUDoAAeBF4AnCsMfbRcMw0xRh26JWBQ0D7vH6JsmJAc4e3oQPHxjAnNeO5+zhTTxd2HWo0lKYOGuHVZtX/9o77Mn/oOG96vGXiztYtfl65naPoqmekhICXDe2DcveHsVLt5ujiMNQLTEBUy8gw+sbVVEBTKnmaMtjx2HyWI9QLhLs0ulE4C3Mloho1Aj4ATgdsD7rs5qrgXnqcHWIrGZKHLVrJtCheRq9O9aid4faDDmmrmer+yuzfEO21TavkwY0ZFjP8B3DW54bz23HS5+tcxz35Hm7KC3F86mU6qZGchwXjmrGhaOasS0zj58WZjJrSRazl2exYVsOWdmFbm+ZbAY8A5zv5kWrgaqQx74nhDwWzKdrCvAlZl9kNKuNKSB0KuZNFGfGYT5wgtKuaQ1OG9yIwT0yaFIvmQa1E8lIT3R9oVyoFq62O0HuurH+z4ClJgX4/aktuf91Z4V5du7JZ2tmnm+jFtVBw4wkzhrWhLOGNTns7wuKSsjcW8CWnbls2J7L1zO388X0bezakx/src7DbMOdFGLI1UUKpvDOEL8DCdHBPHYa5pwJK7YdgDjgXVxM/rUaNaJlr140aNuGjBYtSG/QkITkJBJTUykuLKQgN5f9u3eze8NGdq1fz4YFC9i8ZAklRa70oFOAjzFD2p4V+a5CmmHmyqz16lCL+6/s4vtTslPLNzhf/JdeI57B3SNjBPa0QY0cdwAAVm7crw6ADxLiYmmUkUSjjCR6d6zNmcc1pqi4lFe/WMf9ry9n++6gigw9ijlrowqUrPJUHOakUdeSf8tGKQw9pi7dWqfTvnkNmjVIITUpQM2UeAqKStifW8SOrHxWbtzP8g3ZTFu4m1+WZbl1UmcKZkvocMwiRsdsOgAxmB7mqTY3KE9G82Z0Hz2arqNGUbvx0dcxpAK1mzShWbdu//u7wtxcVk6fzoKvvmLVjJmhdgZqYkY0BgGRf7KJv27Fcp4sEBvDfVd04YZzvF+17yab4f/eHWp5evywje5t00lODJCb72y78NbMXI8jEqfiAjFcfnorzjuhGZc/NIdPplgv0uyJOU3zC/ejqzJigJcx55OEpH2zGlwwqhnnHN+UVo2OfgBZ/dqJtG6cyoAudf73dwfyivl6xjbe+mYjE2ftCLUzUBOYgClctMppI5sOwI3Aby2DOkyz7t0ZdNFFtB90bEgTj/HJyXQeMYLOI0ZwYPduZrzzLrM++IDCvKBLczbAjAT0R8dyViQNuMymQVJCgLfu6ctJAxp6FJJ3si3maBvXDev2r6OKiYGGdZJYu9VZhbpsbQWMOGkpcbx9Tz/++uJiHn/Hug7F9agDcDQ3AZeEcoGBXTP40/ntOHlgw5AealKTAowZ1oQxw5qwIyufp95fxfMfrSHHYee9HA0wIwGO85jTx5a+mL2HQUmrV4+z77uXS194nvaDB7m66ii1Th2Ov+Zqrnv/PbqPHh3KpbpiVoJK+c7CDMg49vgN3aMy+QPkFTj/JbTdg++1Ohbb0JyOFEh4xcTA/Vd0CebgphOAph6EVBX0BR4MtnHjukmMv6sv3z09hFOODS35l1W/diL3XdGFxeNHcsGokA7rsspjTjoANTHzJUFtkegzZgzXvvsOnUeMCKa5YzUyMjhj3J2c/4/HSKkV9FHzl2MW08iRxtq8+KozWvO7k1t4FUtEibSpDZtwqsIBR1VVTAw8d8sxdGhudaBRLHCGRyFFs3RCyGNX/qYVC/8zkjFlFnO6rWFGEi/f3pv/PjSQusEf2OU4jznpANwLtLSNID45ibPvu5eTb/kT8UnhW2TUbuBArnz9NZp1D3qb/5OYlZXy/+KwWDCTXiOeOy/t6GE4ItVDcmKAe6/obNvMj4NrIl1QeSw1KcD4u/ryxI09SEkMX3HA0f0bMPPfwxnYNejFxY7yWGUdgG7ANbZ3TkpL46InnvD8qb8iafXqccnTT9F5+PBgmtcH7nc5pGjXC7MGwJE/jmlDnZrRVFNDJHKdNqgRvTpYjWpG+xZtt3UDrrZtVCstns8fG+T5U39FGtdN4st/DuLM44Iq+Ocoj1XWAXgBy62CyenpXPrC84et2vdDID6es+79O11OCKozfCVmO40YVo8gZ4/w5xdGpKoqW0egEnUwC8LE+BeWeaxOzQQmPTX0sFX7fkiMj+XNcX05e3hQn6mV5rGjdQBGY1ljOj4pifMeeZh6rVrZNPNMTGwsZ44bR5v+1gcBxmIK3ojR3ukLWzdOpVMLqzlLEanEyQOtF9Pa1YWuuk7C8lS/lMQAHz4wgM4tI+NzLBAbwyt39GZk3/q2TSvNY0frANxhe7fT/nKb70/+ZcXGxTH2/vvIaG69svI0zNC3gOPqPR2V/EVc165ZDdtzBaKj4pb3rPPYc7f29P3Jv6z4uFjG392Pdk1r2DY9ah6rqAMwBMsqSX3GjKHrqFE2TcImISWFMXffQyDeartWDPBnj0KKNo5/6hplqKqciNsCsTHUq221Klw9cbMWYrBNgyt/04pzj4/MXZRpKXG8fmcfEuOtio4dNY9VdKUrbe6Q3qABI/9ovVYwrBp17MCgi62Prh+DetIAjrN6zRqRtSdepKqobfe7FTnVqfxjlcea1U/m/qu6ehWLK3q2r8Wfznc8I3tQhXmsvA5AGpb7SEfffDPxyZH/8zb4kkuo3cRqMUU8qgtgJcK2xItUGZb1Jqr7r6J1HvvnDT1ITQrfVr9g3XphO1o3tqrJVmEeK68DcDYWFd+adu1KhyFWoyy+iUtIYNgf/mDb7GIvYhEREc+MxRyS40i/znU49djoqFqalBAIps5KuXmsvA6AVa9p6KWX2gbiq64jT6BOU6s5nr6otKaISDSxymN3XBJdmybGjmhKmyZWowDl5rGyHYAAcJzTK2Y0b07bAdZb7HwVExtLv7Fn2zbzp6KRiIjYCmBRDKld0xqM6hddZRMCsTFcPaa1bbMj8ljZDkBvTM1kR7qPHh15hdAd6DpyJLFxVnUhgiopKCIiYWeVxy48sVk0pjHOHdHU9hjyI/JY2dZWW/+6jhpp8/KIkVKrFq16WxX6czwqIiIivrLKY2NHROcMb91aiQzrWdemyRF5rGwHoIvTK9Vq3IjajYOqURwRWvXpY/PyllgsKBEREd84zmPNG6TYrqiPKMN7We1Sb0mZPFZ2HNzxBsOWPaO7SJ7lCEAMsBWoroenW5efqk5e/GQtb361we8w/ic7p8jvEMR/jwL3+R2ETxwXQRrWy+oJOuIMs+sAxGBy/LyDf1G2A+B4b0GDdm1tbhxx6rdpTUxsLKUlJU6b1PQyHole+QUl5Bc4/jkSCYcUNGpZqW6tHS8ViEidW9UkEBtDcUmp0yaHdQAOnQJIBBwfPpzRrLnTl0akQHw8tRpGx75PEZGCQnUy3dauWXQPbibGx9KioVU/77AFD4d2AKxqR6c3jK5tE+WpCt9DpDmQVzVmSbKyC/0OISwKi5RUosXOPQV+h1DlNLdLnhGpWQOrKryH5fmgOwCJKdG7cOKgxNTo7v1ForVbDvgdgiu27srzO4SwWFNF/r2quqLiUq3t8EBastV28IhUM8XqjIgKOwB2xYWTo//Ut4SUyD+/INrs3V81npxz86vGSEZldu+rGv9eVV3m3nxKSh3P84pDqcmRX/u/MjVSrDoxhz31HtoBsBpfKimK/t5ocWH0fw+RJsHuqMqIFReIwsogQUhKqBr/XlVdahV4Uo1EhUXR36nKt1sbkn/oHw797c+2ukpOjs3LI1L+AQ1/uq1JvaoxqlKnZoLfIYRFy0bRPwdaHdRIjlNnzQNVYVol+4DVKN5heT7oDkDOnj02L49IOXuj/3uINI3rRv/UEEDjelXj+6hM7bTq0dGpCjLS9W/ltl178it/UYSzXBxaYQfgAGWGB44mc8NGm5tGntLS6P8exDOB2OoxBSDRIz3VarGXOLBi436/QwhJaSms3mz1Pew+9A+HdgBKgVVOr7Jr/Xqbm0acfTt3UlAFpjFERCQ4yzdYDXxHnM07c22nMVYe+oeyK0tW4LCO8sYFC2xuGnGCiP9yYK8HoUSDWzHnSUs5ThrYgItGRU5hrHEvLWH1Zq1vqeZeBr72Owif3AL0c/LC6Yt2V/6iCDZtYaZtk2WH/qFsB2AZDm1esoTC3Fzik6Nz0dfa2XNsXr4XeMmjUKLBBagDUKG2TWswZlgTv8P4n8ffXYWZ0ZNqbA7wvt9B+KQnDjsAPy/N4kBeMalJ0bkd8Md5u2xevg/YduhflF1W+rPTKxUXFrJq5kybm0eM0pISVk6bZtMkOr9REZHqx3EeKywqYeLM7V7G4pmSklK+mrGt8hf+vyPyWNkOwPdYnHi34MuvbG4eMdb88gvZO3faNPneq1hERMRVPwKON8e/NTFyTvK0MWn2TrbYVSw9Io+V7QDs4ZCTgiqzcvp09u3YYRNARJj76We2Tb7zIg4REXHdbizy2NezdrBpR66H4Xjj1S/W2TY5Io+VV1nC8cKRkqIipr/1tm0Qvtq1fj1Lf/jBpslOYLY30YiIiAcc57HCohKeeNfxBriIsGx9Np9M3mrTZBfl5LHyOgD/sbnqnE8/tR1O99XkV16ltMSqdOI7WEyLiIiI78bbvPjVL9bZDqf76oE3ltueDfEOcMR+wfI6AEuBX5xetTAvj4lPP20TiG82zJ/Pom+/tW32phexiIiIZxZjMXKbk1/Mn59d6GE47vlpQSYffL/Jtlm5eayi4tKv2Vx58beTWDl9um1AYVWUn8/nDz9iSic5twSLFaVVmOMRkAK7gylExCHLQ1+iv8h96F6zefGHP2zmqwjfEZCbX8y1/5xnmcZYCswq7z9U1AF4FTP37dgn994X0VMBXz7+OLvWrbNt9qgHoUQjx7Umt2ZGzzCaSDTZZve7Fd0l7txhnccuf2hORE8F3PzUApatt/6nrTCPVdQByAGesLlDzp49fHDnOIoKrA4mCIt5n38ezMr/dVjOI1Vh+5y+MJJ/eUSiVVZ2AQfyrJYiVdeqpYc6ADxl02DXnnwuuudncvMjb9nXaxPW89oE6xL86znKur6jnS/5LGZboGMbFyzgo3F32S6y89TKadPM0L+9hwCrcxarsLVOXzh7WRb7qsARmyKR5LvZ1qOra7yIIwo9g2Uem74ok9/e+wvFJXbj7F6aMH0b1/3T8c7GQx01jx2tA7AXGGd7t2WTJ/PR3fdQXOh/7lw5bRof/O1OSoqte3MLMLW0xVju9IUFUVxZSyRSff6TVcW3ItQBOGgPcJdto89+2srv7vuFgiL/H2YnTN/Gxff8TFGxdYdkIZWUsD9aBwDgOWCu7V0Xf/stb996K/n7/Ttqcd7nn/PubX+hMM96SLoU+CNaRHOoXzDviyNPvb/KdpGKiFRgy648Pp2yxabJPCDy5mL98ywWhYEO+uD7zZz5l+nsPeDfw+xrE9Zz7p0zybGfknCUxyrrABQDVxPEPvg1s37mxUsvY+syxw+PrijKz+ezhx7i0wceDObJH8zK0anuRhX1dgCLnL7456VZfP6TVZEKEanAuH8vtk0Ak7yKJUoVA9dgUR74oO9m7+TYK35g7gqrWYSQ5eYXc/Wjc7n60bnBPPkDvA5MqexFlXUAwBwgcG8wEWRt3swrV17Jjy+/HJbFgevmzOXFSy8LZsHfQauAG10MqSr5wubFNz21wHbVsoiU8dnUrbz9jfWe7wlexBLlpgP3BdNwzZYDDL92Mve+uoy8Au8XB06et4tjr/whmAV/B60GbnDyQicdADBvXFD18IsLC/nx5Vd4/sKLWDRxoicLBHetX89Hd93NG9ddF8xWv4PygXOxWPFezVgVRNq8M5dz7pwZkatpRaLBwjX7uOyB2bYV39bh4Mmvmvo78EMwDfMLS3jgjWX0vvQ73p20yZMFgsvWZ3PJvb8w+uapwWz1OygfOAeHecxpB6AYuBCw7ooelLV5Mx/dfQ/Pnn8Bs95/n5w9oQ2plJaUsHrmTD74699M5+Kbb2yL/JR1PeYMbSnfEsDqDOWfl2Zxwg1TtDVQxNLEWdsZecMU9udaL0V6GYv1OtVMMXABsDnYC6zZcoDf3fcLPS75lmc/Ws2uPfmhBVRSyjc/7+CCu2fR+9LveP+7TaGun7oBizwWZ3HhbcBoYDJQxzKo/9m9cSNfPf4EE59+htZ9+tCqT29a9upN/TatCcTHH7Xtvu072LhwAWt/mc3KadPI3rUr2DDKuh940a2LVWEPAlbzK3OW72HQVT/w4FVdOGdEU2JjYzwKTST67cku5OHxy3n6/dXBPGXuwyx4k4pt5f/zWO1gL7J68wFueXohtz+/mOG96jG8Vz2O61mXzq1qkhh/9OfqTTtymb4okx/m7mLC9G1uTpU+APzLpoFNBwBMfeXTgG+AFMu2hykpKmLVjBmsmjEDgJjYWGo1akSthg1JTE0lLimJkqIi8vfvJ2ffXjI3bKQgJyeUW1bkJeBOLy5cBX2BKSnZz6bRtsw8Lr1/Nk+8t4rLT2/FKQMb0jAjyZsIRaJMaSnMW7mHT6Zs5cVP1pKVHfR6qceBLBdDq6oWAacDE4HkUC5UWFTCxFnbmTjLbH0OxMbQomEKzRukkJYaR0pigMLiUvbtLyRzXwGrNu0n25s6KS8Df7NtZNsBADMMfCrwMVAziPblKi0pIWvzZrI2Bz06E4yXgKvQkJlTB7eWzMT59NH/zF+5l2v/MY/rY2Jo2zSVRnWTaFIvmTppCdRKi6d2WgIdmtegT6fapKcefTRIJJqs3nyAOcuz2Lgjl6zsQrL2FbBjTz7bd+ezdssBdoY4lIwp1vWwC6FWF1P5/zyW5tZFi0tKWbPlAGu2HHDrkk68DFxJEHksmA4AwPfAIMyZy42DvIbfHgZuR8nf1i+YMtE3B3uBktJSVmzcz4qN5deJiI2JoX3zGozsV5+LRjWne9v0YG8l4ovc/GImTN/Gu5M2MXV+ZihP9U6UYBJArpc3qYK+w+Sxr4jePPYUZudaUHks2A4AmGGUocB/gW4hXCfc8jEL/jTnH7zbgcFYTgU4VVJayrL12Sxbn83T76+mS6uaXD+2LRee2IyA1hBIBNuamccj/1nBWxM3hLMk9kOYaVmxtxA4DpPHuvoci418zII/qzn/sqyHcctYjUkCVgcu+Gg95h9byT80BcBZwMZw3Gzx2n1c+cgcel/6HR9PtqqIJhIWe/YXcse/FtPlwm944eM14Uz+nxJEyXY5zCqgL9GVx4YRYvKH0LUEEbsAACAASURBVDsAAHmYnsj5mIpxkagUU+GvO2b+WkK3CTgRcG0rRmWWb8jm/LtmccHds9iT7f9ZEyIAU+bvot/vv+Pxd1aGu+7FFOA8gqjUKkc4mMcuwPII4TAqxVT46wHMcOOCbnQADnoH6IDpRUXSD+RyYBRwKSry47alwBBgQzhv+t8ft9D3D98xbWFmOG8rcpjSUrj75aWMvuknNu4I+/T7F5jtbJr3d9fbQHsiN4/9DhePeg5lDUB59mB6UW9gTmA6FfBr0nY9Zm7sJXSwj5eWAccC7/36v2GxaUcup946jfF39+WkAQ3DdVs5iuKSUnZm5ZProFzqjiznq96LS0pZu9XZquqM9ERqprj9sXak4pJSrn50Lm9+Fda+L5inwKeBP6HPNa9EWh57GJPHXB/29Oo3ZTZmn2UP4A7gTCBc+7qWAo8C/8GDN0zKtRmztuJe4Ba8+7k6TG5+MefeOYtX/9qbs4Y1CcctpRybd+Zy32vL+O+PWzw5OW1PdiGdL3C+xq1jizSuGdOa35/a0pPCU4VFJVz891/4xO6EPjfswBzO9lG4b1xN+Z3HHsOUYPcsj7k5BVCe+Zj6+g0w21R+wpttd1mYhX1DgC7Aqyj5h1sRZndAL+DHcN20sKiES++fzdQFmg7ww/yVexlwhTm4xM9jUw+1bH021z8+n/PumhXsSWpHddtzi8Kd/AsxR7N3RMnfD37lsVfwOI953QE46OA3NhhoDvwWs5hhDcG9kfuAbzG9sgFAfcw/zNQgryfuWYhZoToCU2nL/dOfyigsKuGCu2b5MQ9breXkFzP2bzNCrofulc+mbuX+15e5es3Xv1zP8/9d4+o1j+IA8AJmTvqPqMqf37zMYwPxIY+FZai2jE2YuZU3fv1zCuYHvD3QDKjx61dNzF7H/ZhFD5mY7RrLMfWcJbJ9/+tXM8xBUidhOmsJXtxs5558zhs3kx+fPY64gGoFhMPrE9ZHfKfryfdWcdN57VxZF7BsfTY3PD7fhaiOajfmxLqPMXvTy6+WJX6rEnnMjw5AWTnAvF+/pOrZiFmM+RDml6QbZrdIS0wJzpqYw6WaYObagj5jYs7yPbzw8RquPatNiCGLE5N+idRdv/8vN7+YaQszGd2/QcjXuunJBeQXhjygtQ0zpLwL8wS479f/vwazoHYZYRg1E9dFZR6LhA6AVB85mDoMFdViiANOAH4PjCGIKap7X1nK2cOahHzYkE3FwUirThiwGAGxeW1ZNiv5/bR9d+inrX3w/WZ+mBv09vDdmDn88ZgELxIRwrUGQMSJIkxd7rFAH8wqXCv7cor464uLQw6kcYbzQ8Ka1AvpQDHXNbLo/DQNIfYGtRODbhtODeuE1hnMzS/m9hcWBdO0FLOfvDXmxFElf4ko6gBIpJqLqStgXe7ynW82MX9laLUyRvar7+h1MTEwsq+z14bLqH7OhrsT42M5rmfdoO8z0uF9/JSaFGBQ94yQrvHcR2vYZL/WIQdzdPoNuFi4RcRN6gBIJCvA7Ht+wqZRSWlpyKMAo/o1YECXOpW+7tzjm9GhuWunibriglHNaNu0RqWvu25sW2qnBb8m8+LRzWnZKOglG2Fx8/ntqJEc/Ezn7n0FPPrWCttm+ZhFr18EfWORMFAHQCJdKabq2QSbRpN+2cHEWduDvmlMDIy/ux/tm1WcSAd2zeCpm3oEfQ+vJMbH8t59/Wlct+Kh79MGNWLcpR1Duk9yYoD37hsQ8noLr5w9vAm3XdQhpGs8+MZy9u633op9LTA5pBuLhEHA7wBEHCgFJgF/ABxnm5+XZnHZqS2JCwTXz01LiePCE5sTEwPrth4g+9cT3to0SeXPF3bgyZt6kJIYmb9C9WolcsGoZuQVlLB264H/HVLTtXVNxl3Wifuv6BL0+3KoBrUTOf+EpuTmF7N2a064D8MpV/e26dx7eRfuuqxzSJUAF6/dx9WPzaOkxGpL9iTM+ewiES+yli+LHN31wJM2De66rBN/uTi0p8CD9mQXEgjEkBaGWvNuy9xbQHJSwPMOy649+WTnBleiPr+ghJy8ImqlJRATxCdTDDE0qJNIsgvfY2kpHH/9FKYvsqowWYzZyhr6KlSRMFAHQKJJPLAEaOu0QXJigDmvHh/xc9USWV7/cj1XPTLXttnLmFEqkagQmeOXIuUrwRRSGeu0QVFxKdsy8xijw4LEoX05RYz960xy8qymM3KAs4Bsb6IScZ8WAUq0+QCYZtPgox83M2Pxbo/CkarmsbdWsNP+fIN/Yk7FFIka6gBItCkFbsXisIzSUhj37yXeRSRVxuaduTzzwWrbZlsxR5CLRBV1ACQaTcMc+ezYlPm7WLBK9Vjk6F74eG0wOxluxtT0F4kq6gBItPoz5hAVx974coNHoUhVUFxSyjvfbrRt9iPwrgfhiHhOHQCJVpmYc7Qde/vbjRQU6aA1Kd+3P++wLflbgDm/PSxnt4u4TR0AiWYvY3H85u59BfyyNMvDcCSafTXDunLkE5hz3UWikjoAEs1KMKesOTZtoVVhF6lGptkV/ckCHvQoFJGwUAdAot0EwPHk/rSF2g4oR9qXU8TiNVbr+MYDezwKRyQs1AGQaFcCfOL0xSs2qk6LHGnVxv0U29X8f9+rWETCRR0AqQqmOn3h1l15XsYhUWrbbqufiwLgZ49CEQkbdQCkKnBcuSUnv5i9B6yPd5Uqbvtuq8p/WwCr7QIikUgdAKkKrFZvWdZ4l2rAsviP5v6lSlAHQKqCJJsXpyTpDCw5nOXPRKJXcYiEkzoAUhVYHfWX4sJ58VK1pNp1AJqio9SlCojzOwDxXQrR/0TT3+kL01PjiY9Tv1cOV6+21a9AGtAbi7UnEWoPqmJYrakDUD2lAbcDF2OeZqqNzq1q+h2CRKBurdNtm1SFXQD5wDfAfcBMn2MRH+hRqPppBszFdACqVfIH6NpaHQA5UkZ6Ag0zrJaSVAWJwKmY0zWv9DkW8YE6ANVLDeBLoI3fgfilV4dafocgEapvx9p+h+CXWOB54HS/A5HwUgeg+ojBHJ7Txe9A/BKIjeGUYxv6HYZEqNMGN/I7BD/FAG8A7f0ORMJHHYDq4xbgHL+D8NOx3TKoVyva1zuKV04b1Ii4QLX+SEwHPsKMFEo1UK1/2quR44EH/A7Cb+eeUO2WPIiFWmnxdG9T7deIdAFeQdscqwVtiK76mgMTMSv/q62khACv39mnuj/hSSWKikv4auZ2v8PwWxfgAGZxoFRh+jSs2pKAD4F6fgfit1OObUhSgvq7cnSXnNSCQEAPv8CDmJFDqcLUAajangX6+B2E3wKxMTx10zF+hyFRIDkxwMWjm/sdRiQIAO8ALfwORLwTSV3dWKDWr181ME+vxcBezHDUHnQCl42rMFt7qr0/nNaKp2/u4XcYEiWKS0ppdsaXZGUX+B1KJJgNDAZ0jrYzUZXH/OoAJAMDgaFAZ8zWkw4c/VCXUmAjsBxYAcwCvgM2eRppdBoI/AAk+ByH7wKxMaz9cLRW/4uV8RM38ocHZ/sdRqR4FbjM7yAiUNTnsXB2AOoB5wNnAgOwPMHtKFYCXwP/QeUsARoCv2B5QM6vfo/pOES6fwBnOHlh97bpzPz3cI/Dkapma2Yerc/+yqbJn4CPPQrHLYnAJ0C7INpeg0YUwfs8Nh6Y4dI1K+X1WQAxwP+1d+fxUVV3H8c/ExISlgRZBQkCVgRBcBcRF6wbWq1WpVZc21q1lrq2Vevapz51Xx5t3bWKdasbyuoGyr7JIhQIkJCEJQQSSMieTCbPH4c8T4hZ5ty5d+ZO+L5fr/yhr7kzJ8Nkfuee8zu/33nA9cC5QJIHrzFo788EzKzqTeAlYJcHr+V3iZh9OyfB/wnM8Z940CncB44a1s3LcUgb1ad7CgP6dCQ7r9zmsiyvxuOin2JulGzPO/4PsBqY4/qI/K8+jt0AjKUNxTGvkgATgAswyxtTMB86L960xgZjzrvnYD6wB0XhNf3kSeA0B9fNwvQGiBc9wn3gfljfXVxyYDerz053r8bhsnXANdh3AUwC/s3+9Z3aOI5dQBuLY15MAE7GNJv5jNhloHcGbsYsq9zD/rEXPh7zO9vaDFwGBN0djqfC3rrqkKyjf+JMSnurr8d4aqs7CbPiZ6s38CH7x/fpKcAK/BXHXE9kcnMC0BOTLDIbGOHi80aiI6bV5fe07TOtI4BXHFxXBVwC7HR3OJ4LOz27oqrWy3FIG1ZRFbJ5eLx90O7G7DnbGgU87vJY/KQ+jn0LDI/xWOo1jGNnuvnEbk0ATsPMlq7FX0cL6w3G9L3+H9re7LUrpn53RwfXTiA++5oXhPvAtTklXo5D2rAMu89OvE2iazGrhpscXHsz8Et3h+MLY/B3HDsMU9XVtTgW6QSgHfAA8DX+3xsKYD64s4EBsR2KaxIwWaNO2vu+BLzq7nCiZnO4D1y5odjLcUgblZ1XTnFZjc0l8XgceRdwMc7OpT8PHOvucGKmHfAg8BXxE8fm4EIci2QC0B54B/PGxdNG60hMcYtRsR6IC/4Lc7rC1iLgFpfHEk0ZYT8wt4TvN2oSIHb+PdM6nq/3YhxRsAKT3W6rvsx42Am5PpWMiWMPEF9x7ARciGNOJwCdgcnEb3vZbpgtgbGxHkgEfgr82cF1+cClmP3/eGVV72Hi9FyvxiFtUChUx1szrD4zxZjs+nj1FvCig+v6A+8SX4Gzof0+jjmZAKRhjo2d7fRFfaITpijGT2I9EAcOAyZiv08VxGT8x+NyZUPLgLAPaL82JZsNW0o9HI60Ja9Mzmaj3edlAWCVMehD9cvKts7ErETGm/o4dlasBxKh+jh2vpOLbQNIMjAN+LGTF/vBiwdg2MA0TjuqJ8MOSeOwfp1J79WBLp2SSO2USHllLeWVQXYWVbNxSykZuSUsWL2Led8XUlrh2qm1csyHIF5aX3bGVIoa5uDa24Bn3B1OzHyMqcYVljFH92TqEyeRkODH3B7xi20FlRzzy68pLrXa/78Rk1MT73pjlpVt98HrMHfRH7o+Im8kA9MBV0qEBoDDe/bklAEDGNarF4O6dyc9LY205GRSk5OpqKmhrLqagvJyMnftYn1hIQs3b2b+5s2UVbvWb8JRHLP5NkwA3scsH0fk6MMO4Ipz+jHu9HR6dbU/2lgTDDFr2U7e+WIzn83Nc+Oo1y7Muc81kT6RxwKYf4NxDq59F5P121ZcgSn/HLbrLxzIM7ccSaCNzwGKSmpYl1vC2uwSsvPK2F1SQyi07zH11E6JtNs7GaqqCVFRaf6GSiuCJLYLcEDn9hyQmkTfnh04+rAuDBuYRlJi224eurukmrNvncvqrD02l9UA/TBba23BSZg7Y9ss81JMfpXfv0MTMAWNLon0iUb07s344cO5eOhQDuzc2fr6mlCIbzdt4r1Vq5iSkUFFMOKb2l2YvgT/CfcCm6/Ce4G/2o6ooVFHdOe+Xw7h9GPca09fWFzNC59k8Y+PMykqsZq1N7YRk9Vq9dcfZXdh+nTb+h7zh13m7nBiKgVTKauXzUU3XXwIj/z2iDYXzFZn7WHKvDymzt/OsowiQnXu1qVJTkrgxCO6ccmYvvzs1IPo0caaK20rqOSy+xaxdN1u20vfB37hwZBi6RacrRRmYCYBfs66vY8ItyxOTE/n1pNO4txBTloqNK2wvJyXly7lxSVLKKqMqPGiVRwLdwJwKuaon6PeAYemd+bpW0Zw5nFW39VWikpqeOiNdbzwSVYkX35+/mM+A1O4wzbhZjdwPJDp+ohi7y/A/bYXHTukK2/ccyyHptvP2v2krg4+X5zPU+9uYM7KsEsjRKxdQoBLTu/LnVcOZuiA1Ki9rlcmz83jxseXs2uPo+XYUUSxeUsU/RNzHt7Wp5itOT9WRjwV03nPUdLiIV278sTYsZxxyCHujqqBospKHp49m5eXLo0kjv0bk+vVqnAmAN0wd5DWDWYCAbj9F4O4/1eH0z5Kd1xzVhZw7UNL2VbgeBb1a/zXFOdgzN6c7ZGbEKZ+9TTXR+QPB2BmvNZ12FPat+P3437En644jM4dvO6J5b7v1u1mwlMrWbGhKGZjSAgEuHjMQTz2u+H0icOeCxu3lHLXC6uZOn+706eYjDmN0xalAHNxdtb/zzhbqfRSd0wcsz7nHwBuPvFE7h0zhvbtonPgYW5uLr+ZNIltJY4LmYUVx8KZALyE6eZnpUvnJN649zjGjjzQ9tKIFRZXc81DS/l66Q4nl+8GhgCOLvZACiY710k96vuJcNsmDvweeNbpxX26p/DX64cx/qx+cZEbUFZZy4OvruGFT7KoDfnjJuuA1CSemDCCK87uF+uhhGVPeZBH3srgHx9mUh10nLxfDRxJfB//a01/TGtxJzce52MS7fziZeA3thelJSfz6kUXcc6hh3owpJYVlpfz60mTmLXJSbHG8OJYa9OZ4zEVn6y+Gg/slsK0J0YzekRsGmR1TGnHz89IZ9vOSlbaF4HpgKkH/an7I3PkJZwdVZwM/A5/LsW5aSnmVEp/JxeXVgT5bG4eny/K54hD0ujbs4O7o3PR1p0VnPeHeUyel4fLW/wRqawO8dncPLK2lXHuqN7/l1zoN6FQHW9Oz+Xn9y7i66U7Ip1APQB84tLQ/KoY09jtCuyOjNe3z/0AE4hizVEc69WpE5+OH8/ogw/2ZlSt6JiUxKXDhpFXUsL3+dY5pmHFsZYmAIG9F1st/ffunsLM505hSP/Y7g0mJAQ4b1RvtjqbBByJqbkc6/PyEzBdoGxtwFQIjCibJE7UAd9gWpw6XofeVlDJm9NzyNpWxvGHdyO1o7+2BZavL2Ls7fPI3OrfPM7VWXtYsLqQ80f3IaW9v2rDzF9VyGX3L+a1ydmUVUZ8amgu5m4y3s/+hyML0zfA9uh3B0xt/YmYkxKxEsB09LNa+j+wc2dmXH01h/d0L2HdiYRAgLGDBrFtzx4nk4BW41hLf6UXArfbvFpax0SmPjGaw32SGBQIBDh3VG/+s6mEjFyrvZQAkI7lMTOXjcJZla1SzHnQsOvltwFFmJWAy4mwKtmqzD28NnkTdcBxQ7qS2C72pwVWZ+3hnNvmUlDs2plhz+RsL2fmdzu57Mx02ifF/r3bvKOCCU+u4O4XV7O90JX58CZMEbT9qcvUXEzdkaGW1/XG1Kv/2O0BWbgIU/8kbKnJyUwaPz7mwb9eIBDgnEGDWLNzJ+sLrJJ9W41jLX1Z/hNzvjW8VwrAWw8cz6lH+as0dMLeScDkuXm2X6CHYpLntnkzshYdiGlM0dXyujrgaswd8f5mE5CNScqKKPLUBOv4ZnkB73+9hfSeHWK6mrV5RwVjb5tLQZH/g3+97YWVrNpYzKWnp8es8FJ5VS2P/ms91/51qZMVwOZsxwT/HLeeMI7MwNwU2kbFEUAhsNj1EYVnIhar2AHg9Z/9jFMHDPBsQE7UrwRMzcigoDzsIqjQShxrbgJwBpZLz7dedig3XeykKZ332icmcPKRPXhrRi7BWqt9v56Yo4HRlITZv3fSi/pxTKvI/dX3mO2PC3Gh1XVRaQ0ffbOVOSsLOHJQFw7sFt1M96qaEGNvm+vrZf/mbNxaxp7SIGdHOQm4rg4+nLWFcfcuYur87dTY/b23ZAtmGTzsRlRtTDXmKPhV2G+1nQV8S/QnTmdiaqeEbcLIkfz2hBM8Gk5kktq1Y3T//ryzciXBkNXuUw+aiWPNTQAewaLU7I/6duKdB0/wxXJpc3p1TSYQCPDNMqu23YcCr2CW1aPlWZxV+puJ6dG9P+xLtmQ1ZgXkXEzZ5IjlbC/n9ckmP2DUEd3pFKVjg395fS2TZsdiAcodS9ftZuSwbhxyUKeovN6KDUVc9V9LePaDTPaUuVYqHMz20jmY/fD9WSGwFnPG3GZppx0mKfBdort1YhXHDunalYmXXEJign/jWM9OnQgEAnybnW1z2SCaiWNN/SMeAORhMcub/PhJnhb5cUt1MMTI62axLsfqM3gH8JRHQ2rMurztXrmYY4JWs5s2rh/wGi43++jSOYl7rxnCDRcN9LSa4NJ1uzl9wmzbFavGyjHtXjewb/fHVH5Y1KuCfZNG0zDHiIYTQV5F/94dWfLajz1NqszfVckDr67lrRm5bldArMX87d+LuQMW42Es76z3WohJDIxGJ1LrOPbx5Zd7WuTHLdW1tZz86qtk2OUD3A483fh/NjUBuB6LxhanH9OTaU+OthlITH3y7TbGP2i1HbUCONqj4TR0JKaRQ0fL6yoxFa6WuD6i+BfA5EQ8hmXJ4NYMPjiVR286gnM8WOIuq6xl9A3f2Cau1qvDZP4+h1myjTTzrQem/8dtmC6U1q45tz8v/sn9P6HqYIi/f5jJo29lsKfc1Tt+MB0nb8Dc/cu+EoCpOGtD+zzmeLLXbsCixfEp/fsz5corPRyOuz5du5arP7bKrVwOHNP4fzZ1C3OhzbP+6UpH3wkxc+EpfRg2MM3mkqMwmaxe6obJlLUN/mCOCir4N60OeBMTuJ7CxeNIGbklXHTXAn521wLWb3Z3h+jWZ1Y6Df7rMfvUYzFf0G6kvRdgvkiHYiYB1gkJb07P4ZNv3d3KmDJ/O8dc+zX3vPQft4N/PuaI3/Eo+DcnhFmtdLIlchPwK3eH0ySrOPaH0fFzEwtwwZAhDLU7pXA0TcSxxhOARExXvLAMHZDKmKP9cVQiXAkJAa6/cKDtZa60jWxGAmbZ38na0wuYZW5pWTFmK2c4LpdFnrEon+N+NZM7n19NcVlk84u6Onjg1TX86/NcR0PBBK1vIhpE82oxDWJOxkF9jOse/o4vFkfeMG9Ndgnn/3E+4+5Z6HZyZDXwBDAYeBXl0rRmF3AxZpvJ1j9wVtk0XImYz2lYhvTowZiB1jEhphICAa471rpK8w/iWOMJwPGY/cGwXHlObCokRWrcj/uSbHdG2csJwH9jEtZsLcTyfKuQgamqeB4ulnCtCYZ49oONDL/yK16bku2owlx5VS03Pr6Mx95e72QIX2HueKLRyXIF5u/BqlR2eVUt4+5ZxBvTchxVMdxdUs0dz33PyOtmOi3x3ZIpwBHAH/F3Jzu/WYmDMvGYffmPsD9SGC6rOHb5iBEeDcNbFw8dSrJdb4JWJwBh3/0DXPrjdJuH+0bX1PacYZe0eKpHQ7kQuNPBdfmYfdloJNO0RdMx55NvwxQRcsXOoiomPLmCk274hs/m5BEKYyIQCtUxafY2jrr6KyZOd3Tnn4v5LEQzSW0j5qSK1V1ydTDEbx9fzrl3zGV1VnhzleKyGp5+bwNHXPkVz3+cFWlSZGNrMdslF2ASJcXe25g7elsHA+/hsMNsK6zi2MVDbesb+UPXDh043S5p8QdxrPH04TeYPe9WHZrembuuGmzz4r6yY1cVXy4J+06iC/Ak7n7JDsbs09qeqQ1iit2scnEs+6MQZhXldUzG+9G4UDsAIH9XFR/O2sr7X29hd0kNwdo6Ujsm0iE5kUAA8gorWbpuN29Oy+WGx5bx+tQcp8fW6oCfA2vcGLelHEym9SjrC7eX88pnm/hicT6V1WYOkdopieSkBCqra8krrOLLxTt4cdImbnx0GdMW5lNRFXH53oZ2Y7LYf43Jm5DIfAmchn0/joFAMmYFy01hx7GBXbty5ylW8wVf2VFaytdZYadi/CCONZ59hZ3R57eKf7ZOO9pq/AFgK2Yf1C0dcFa7/g5MUQ1xx07gRkwBpacx571dkbm1jIfe8LRZ3MuYL99YuRdz9+yoVdqStbtZsjaqvWJCmDvWP+Cfbp9tQQ3wC0zL8j6W1/4JZ9sILQl7+f+U/o56iPmGZcXCACbGL6v/H40nAGHf0ltm0vvOkAGpJLYL2Cwp+uEXfpsIWt9Ki+qXgy/FVFQcENPRtC4bs2cdS+WYL+8vibAHQxTMBG5FK2deycNsC83CVDMNVwD7kueuGdbL//VrWjK4Rw8SExJsKgPuMwFouOSZgjmOFt6zHOxKkbWYaZ+YQP/eTk7dxYzThBux8yFwOObu1q81eCuA8fijIc0szHvlV1mYbPUzUPD32jziLDF5UPfYtKx3S/t27Ti4SxebS/bpithwAmAV0f3cNz1c/XrFzQQgkiM3Yq8SczpjMPAWZq/dL2oxZ7AXxHogDTxKbDtnNqUUuBtTv+CTGI9lf/IPTAOeuNA3zQ8Lu5FJt5sA7PMLN5wAWLU8S/NZv3QnUjvFxe8QSdENicxWTCXBk4hdN7OGQpgqan4LaHWYPhT/jvVAMO9RffGnR9BJmVi4EVN5zvfS2reP9RAilpacbPPwfW70G04ArDp2dEqJi+DZos5RauoSofsxRV4kdhYCJwLXEJv20GBWfy7Fokx3lAUxE9UXYjiGBZh/p2sxe9ISGxWYFcvCWA+kNR3bwASgU5JNysW+N/oNJwBWM+WqGleP5cREZbXvf4dPgb/FehACmLvciZhtgYdxp8xuuLIxTVT8duffWBBT6vUmTBCIlq3AlcBoVBbbL7KBy3H35JTrqoKu95CIuspaq7d4n++thhMAq4LmJe4334i6EndbhrotA7P87Kf9ZzF/J3/GtBm16sbhQAj4O6aEcTwFthcwjUcWevw6FcBDmEnZ2+hvxW++xN8JopTVuNYeJGZKqqzu3fepwNVwAmCVUbyzKP631nYW+/Z3KMEsoUWjtKs4kwVcgqk65sVZ/BmYO9rfYzk594l1mNyJK4BNLj93Daa/+RDgPvx7WkNMgqjXE2XHdpTF/0enoNwqN3yf75KGE4AyLJY1N2yO7zeurg4yt/jyd6jEnKeNRXU3sTcXOBsT7N4jsmC0B5NNfxymP4TXd9BeqwPewSTkjcM0Koqkyc52TGLfYMyRWEe1kyWq6jC5M/NiPZCmbCz0fZpCi+qw/h0KGv5Hwyy4Okw97OHhPMs6Z+1KfWPLzgpKK3y1BVAHzMaco42LDFrZx4K9Px0xzYbOwiyDD8eUO21KOaa+sX4QaAAACUJJREFUw3Lgc+ALoptbEC1BTH2FD4HemFLWpwAjgR/RfAnmImA1MAfz/szb+1wSX0oxfw/3Ab/FlJD2hfUFBa0/yMe2FBdTbreNsU/Pi8Zp8OsJcwKwYFV8z5zmrrT+hx+Hi41jGqnCNFhR5nL8K+f/gx2Yqmh9MF96XTF3wEWYevR5+DxJygPbMSWMX9773+2BdMx7U38SaRcmg1x/D21HBSZ35i+Y2gxeVuC5nzAbAi3YvNnDYXhvXq71Itg+tckbTwDCLly+dN1uSsqDpMZpPYBvl1tNAIr4/y90ERs1mKVqLVc3rRrVuNifVOH9CucYwpwALMvLo7S6ms5xehxwTk6OzcOLaNQDo/HSW9jFToK1dcxYuN3mxX0jWFvHjEX5NpfE+16siMj+Ivw4FgoxY0N8doIOhkJ8sXGjzSU/iGONJwDfYrEk+c4X8bl88uWSfPJ3WW21zvJqLCIi4iqrOPbeqvhsEfFVZqbtKYYfxLHGE4BiTEvH8AawdAc52+OvPP0/p1gtm4DpJCYiIv5XTIOOd62ZtWkTOUVepXd5580VK2wv+UEcayr7Nuyys8HaOp56L76WT1Zn7WHKfKvconyUlS8iEk/Cj2OhEM8s8FNvrdb9Z8cOpq9fb3NJk3GsqQnAv7CoqDVxei65+fGzCvDQG+uos6sX9i77X6a2iEg8s+pO+fbKleQWF3s1Ftc9PHu2bdnLJuNYUxOADVgkvVVW1/KH5+JjD+XrpTv4dI51L5e4aW0pIiKAOdIedhyrqq3lri++8HA47pmZlcXkjAzby5qMY80V4HjD5pknz8tzElijqrQiyC3PrLS97Hu0/C8iEo/esHnw1PXr+Wxd2CfhY6K0uprbZ1g3h202jjU3AZiIZdvTGx5bTnaef7cCbnlmJZlbrau0PubFWERExHNvYllMasLUqb5OCLxjxgw27d5te1mzcay5CUAl8LTNKxSX1nDFXxb7rbwuAM9/nOXkyOJG4H0PhiMiIt6zj2OVlVzz8ceUVVd7NCTnXlyyxMmRxY2YHiVNam4CAPAijRoHtGZZRhHjH1hMdTCSfh/u+uTbbfzx745yFB5GdcdFROLZi5iy0mFbnpfHVR99RHWtf3K/J61dy91fOmo6+jAtJLG3a+HCakzpwAtsXi1rWxmrMou54OQ+JCW2NL/w3kffbOVXf/uOYK11m/DvgAmov7iISDxzFMc27d7N6vx8fjJ4MEkJsY1jn6xdy/WffkowZH1j3Woca2kCALACGItp1hG2DZtLmb2ikPNH96FjSmsv4Y2/f5TJ755Y4ST4h4CLgS3uj0pERKJsOQ7i2MZdu5ibk8N5hx1Gx6Qkb0bWihcWL+bmadOcBP+w4lggjCc6GlNb2brrT9+eHZh433GcNNzLxk/72lMeZMKTK/hgpuP4/SKmZaWIiLQNxwCLcBDHDkpL4/WLLmJUv37uj6oZpdXV3Dx1Kh+tWeP0KcKKY+Hcnm/HdHA6y3YEJeVB3vliM8WlQU4c1o3kJG+XUqYt2M64excy33mr4rWYtr9WDZZFRMTX8jDbAWfaXlhSVcV7q1ZRUlXFyPR02rfzdlV7xoYN/OKDDyJpVbyGMONYOCsA9Y+bApzndEQH9Ujh7quHcNXYg12fCCxfX8RDb6xj2oKIuhOWAyOB1e6MSkREfCQBE8fOdfoEB6WlcefJJzN+xAjXJwIr8vJ4eM6cSLsTWsWxcCcAAD0wWwEDHQzq/xzUI4XrLxzI5Wf14+ADOzp+nqqaENMXbOf1Kdl8uWRH6xe0rA64Bngr0icSERHf6onZCogsjqWlcd0xx3DZ8OGkp6U5fp6q2lo+37CBN1es4KvMzEiGBA7imM0EAGAQMBfoZXndDyQEApwwtCtnHNeLU4/qwYgfdeGA1OYTLWqCITK3ljF/VSHfLC/gyyX5FJW4tlL/Z8xxCRERadvcjWN9+zJm4EBOHTCAI3r1oktKSrOPrwmFyNq1i4VbtjA7O5uvMjMpqrRqTd8S6zhmOwEAOBbTVzjVwbUt6nFAMv16daBrahKdOyZSUVlLSXmQwuJqNuWVOcnoD8ezwC1ePLGIiPiSZ3GsZ6dOpKel0SUlhdTkZCpqaiirrmZnWRk5RUXU2Gf0hyOqcexETHGFujj/eYaWiyGJiEjbNArFMccOB3IiHHisfkLAg66/IyIiEk8UxyLQD5NQEes3wuanFLjCizdDRETijuJYBBIxs5BaYv+mtPazFhjuybsgIiLxKhF4BHNXHes4FZdx7Hwgl9i/OU39BDFJEs7PHYqISFt3AbCZ2Mes5uLYc/g4jnXErAZUEfs3q/7nO+AED39nERFpO/wax0Z6+Du7agjwNmbGEqs3bA1mj0RZ/iIiYutw/BHHriRO49ihwCtAGdF7wxYBlxKnb5iIiPhKLOLYYkw9/zYRx1KBa4GZeJMsmAP8DTNjExERcZvXcSwXU8lvaJR+H0eVACPVFRgDnA6cBgwGki2fYytmhjRz74/jnokiIiKW2kQci8UEoLF2wADgMMx5zFSgM9ABcySjGNgDFAHr9/6UxGKgIiIiTVAcExEREREREREREREREREREREREREREREREREREREREREREREREREREREREREREREREREREREREREREREREREREREREREREREREREREREREREREREREREREREREREREREREREREREREREREREREREREREREREREREREREREREREREREREREREREREREREREREREREREREREREREREREREREREREREREREREREREREREREREREREREREREREREREREREREREREREREREREREREREREREREREREREREREREREREREREREREREREREREREREREREREREREREREREREREREREREREREREREREREREREREREREREREREREREREREREREREREREREREREREREREREREREREREREREREREREREREREREREREREREREREREREREREREREREREREREREREREREREREREREREREREREREREREREREREREREREREREREREREREREREREREREREREREREREREREREREREREREREREREREREREREREREREREREREREREREREREREREREREREZHW/S8FQC5wfijG2gAAAABJRU5ErkJggg==;" vertex="1" parent="1">
          <mxGeometry x="917.5" y="496" width="86" height="86" as="geometry" />
        </mxCell>
        <mxCell id="3ur9gsYHsS7Vl2ftzdm_-84" value="BI &amp;amp; Reporting" style="text;html=1;align=center;verticalAlign=middle;whiteSpace=wrap;rounded=0;" vertex="1" parent="1">
          <mxGeometry x="924.5" y="329.77" width="88" height="30" as="geometry" />
        </mxCell>
        <mxCell id="3ur9gsYHsS7Vl2ftzdm_-85" value="Ad-hoc SQL Queries" style="text;html=1;align=center;verticalAlign=middle;whiteSpace=wrap;rounded=0;" vertex="1" parent="1">
          <mxGeometry x="906.5" y="452" width="117" height="30" as="geometry" />
        </mxCell>
        <mxCell id="3ur9gsYHsS7Vl2ftzdm_-86" value="Machine Learning" style="text;html=1;align=center;verticalAlign=middle;whiteSpace=wrap;rounded=0;" vertex="1" parent="1">
          <mxGeometry x="910" y="570" width="120" height="30" as="geometry" />
        </mxCell>
        <mxCell id="3ur9gsYHsS7Vl2ftzdm_-87" value="" style="shape=flexArrow;endArrow=classic;html=1;rounded=0;entryX=0;entryY=0.5;entryDx=0;entryDy=0;fillColor=#b1ddf0;strokeColor=#10739e;" edge="1" parent="1">
          <mxGeometry width="50" height="50" relative="1" as="geometry">
            <mxPoint x="836.5" y="358.77" as="sourcePoint" />
            <mxPoint x="906.5" y="358.77" as="targetPoint" />
            <Array as="points">
              <mxPoint x="866.5" y="358.77" />
            </Array>
          </mxGeometry>
        </mxCell>
        <mxCell id="3ur9gsYHsS7Vl2ftzdm_-89" value="" style="shape=flexArrow;endArrow=classic;html=1;rounded=0;entryX=0;entryY=0.5;entryDx=0;entryDy=0;fillColor=#b1ddf0;strokeColor=#10739e;" edge="1" parent="1">
          <mxGeometry width="50" height="50" relative="1" as="geometry">
            <mxPoint x="241.25" y="357.15999999999997" as="sourcePoint" />
            <mxPoint x="311.25" y="357.15999999999997" as="targetPoint" />
            <Array as="points">
              <mxPoint x="271.25" y="357.15999999999997" />
            </Array>
          </mxGeometry>
        </mxCell>
        <mxCell id="3ur9gsYHsS7Vl2ftzdm_-90" value="" style="shape=flexArrow;endArrow=classic;html=1;rounded=0;entryX=0;entryY=0.5;entryDx=0;entryDy=0;fillColor=#b1ddf0;strokeColor=#10739e;" edge="1" parent="1">
          <mxGeometry width="50" height="50" relative="1" as="geometry">
            <mxPoint x="625" y="358.77" as="sourcePoint" />
            <mxPoint x="695" y="358.77" as="targetPoint" />
            <Array as="points">
              <mxPoint x="655" y="358.77" />
            </Array>
          </mxGeometry>
        </mxCell>
        <mxCell id="3ur9gsYHsS7Vl2ftzdm_-91" value="" style="shape=flexArrow;endArrow=classic;html=1;rounded=0;entryX=0;entryY=0.5;entryDx=0;entryDy=0;fillColor=#b1ddf0;strokeColor=#10739e;" edge="1" parent="1">
          <mxGeometry width="50" height="50" relative="1" as="geometry">
            <mxPoint x="430" y="358.77" as="sourcePoint" />
            <mxPoint x="500" y="358.77" as="targetPoint" />
            <Array as="points">
              <mxPoint x="460" y="358.77" />
            </Array>
          </mxGeometry>
        </mxCell>
        <mxCell id="3ur9gsYHsS7Vl2ftzdm_-92" value="" style="shape=image;verticalLabelPosition=bottom;labelBackgroundColor=default;verticalAlign=top;aspect=fixed;imageAspect=0;image=data:image/png,iVBORw0KGgoAAAANSUhEUgAAAgAAAAIACAYAAAD0eNT6AAAABHNCSVQICAgIfAhkiAAAAAlwSFlzAAAOxAAADsQBlSsOGwAAABl0RVh0U29mdHdhcmUAd3d3Lmlua3NjYXBlLm9yZ5vuPBoAACAASURBVHic7N15YFTV2Qbw5zl3JgnIFggJq+wgRFBkTcgyQAg7shh3bV2pba12tf2qLa1dbGs3bbXWutQVCYKAskMCJOybQgANi4iKohRBhSwz9/3+mCUzk5mQhISwvL+W5M6de889d9rMee9ZAaWUUkoppZRSSimllFJKKaWUUkoppZRSSimllFJKKaWUUkoppZRSSimllFJKKaWUUkoppZRSSimllFJKKaWUUkoppZRSSimllFJKKaWUUkoppZRSSimllFJKKaWUUkoppZRSSimllFJKKaWUUkoppZRSSimllFJKKaWUUkoppZRSSimllFJKKaWUUkoppZRSSimllFJKKaWUUkoppZRSSimllFJKKaWUUkoppZRSSimllFJKKaWUUkoppZRSSimllFJKKaWUUkoppZRSSimllFJKKaWUUkoppZRSSimllFJKKaWUUkopdZ44dOhQo08//fSeL774Ir6h86KUqszR0BlQSl1YPv744wSPyB0WeZ9tS9vS0tKvALzY0PlSSoXSAEApVSfef//9LqR1v8fjuZM0jQUAKRDhFGgAoNQ5hw2dAaXU+a24uPgqy3LebwxuIOkgDWgIQ4I0MIanALRu06bN1w2dV6VUBa0BUErVmIiwuLh4JMn7SDNBYEPEAPA+9UMIIUAIRNjIGI4GMKdhc62UCqYBgFKq2oqKimJIXv/ee+/9BGAy6KtGFEAoIAiRiEHAFGgAoNQ5RZsAlFKnVVxc3KykpOQ2GvMjQ9OBpK+aP7S6P9q2MTx+9GhSYnIyyxr6XpRSXloDoJSKauvWrZ0sy7r/5KlTdxqaJsFP+oFtIfwd/oKf+sNqAJq3bv1ZFoCFDX1PSikvDQCUUpVs2LC9p8Ph+RnAm2yB0wAQCECCkYIAX9U/KIDNTWJkISm/gJD+IMC25WZoAKDUOUObAJRSARs3bkwW4QPG8AYaOgwNQqr7w7aNCVT37zJkLoBXunXr9h4AHDp0qJBkKiuOPWlZVpvWrVt/2cC3qZSC1gAopQCsX7++n23jR7YtN5KwBBVP+kC0p37ssm3mGmPP7Nm9154Iyc4UQSq8x0KEjW3bngLghbN7d0qpSLQGQKmLWH5+YYpx4EFDjjUkaYyv4x4RcdvwS8uYl0XkX5dffvnbVaV94MCBNg6H40PSWEEdApe2aZM0+mzdn1IqOg0AlLoIrVq1qq8IH6JhToRC3ttzP6i63xjugTHPG+Df/fr1O1bd6xw6dGg5yZFBowJsh8NxaUJCwkf1eX9KqdPTJgClLiIrV65MFsGvPbZMIf0d9+kbyy/ebQEAgZAlBsgl8a8rr7xybS0v+aoIRnovBAhoPB7PdQD+Ulf3pJSqHa0BUOoisHDhim6WQ2YY8kYaGuN74id9VfOh20cMzd8B+6khQ4YcPZPr7vnss6aXlJR8RJqmQc0AO9u0SepbV/emlKodDQCUuoAtXLiwg9D6sUVMpzGxwQV+hKr/9w2tv8XEOJ4eOHDgybrKwwcfHPqHMfxO6ORAHJaUlFTbWgWlVB3QJgClLkALFy5s5rbxf7bgPgOJ81bte8fxe4fre6v7AcBADgL4dXlZ+QvDhw9313VeROwnRKxvk96ZgbyTBmE6AA0AlGpAWgOg1AVk1qxZVmxso7tA/MrQJHo79EWdsvcwLfPbxISEp5OTk+t1it5Dhw6tJM3woDyciouLbd+iRYtqdyhUStUt09AZUErVjdmz3xjtcMS8bYv9JASJAoF3ej7fLH4iEO/2KYj9cHl5WY/hmZn/rO/C3+efvl6A8OWoUVlZ2S1n4bpKqSi0BkCp89zs2bOTRfgoDcf4n/SjPPULwZmWxZ+OGjXqg7OZRxGxPvzww3eMMX2CaiCKkpKSLj+b+VBKVdAAQKnz1HPPzW3RqFHZb2nM3aRxmLCCP2z7PcvwW2PGjMlrqPweOnRoKmle9+fTt0pgemJiYkFD5Umpi5k2ASh1HnrllVduiI0r3S3AtyFwAAIRfxV7SNV/GQQPN24Ud0VDFv4A0KFDh7mAbJKKZgCI4P6GzJNSFzOtAVDqPPLsyy93ddryTxozxvcEXdVTv3/7sGVYIMYUOsiC7OzsraR3up+z7YMPPs62LFkS1AzgAdArKSlpX0PkR6mLmQYASp0HnnrqKWdcXOMfg3iQNI2iTdlbRRAQvH3EMtwo5CaHMZvLy8s3jx49+sjZupePPvpoMcnRQasEPpaYmHjf2bq+UspLAwClznHPPPNMGo31L5LJp3/qNzDkcRo2P11AEDwk0DL8AOTbNKbIIneQ3HX8+PHd48aNK63r+zl48GBXh8O5g4aNfXn4KibG2TE+Pv6Lur6WUio6DQCUOkf95S+zGjVt+uUjNLyXNAx56q/6Sf9tiOMm45R0IxxtLDOSZNPTTP8bPkcAaIybNAcNsRfG2mdR9hpj9oo4PgLKD+/fv//Itdde66nNvX388cffA/h3/7UA64GkpIQ/1vFHqJSqggYASp2DnnzyP/2NZb9EWn181eQh1f1B22WkiakcEOCFaVOnfgMAnnpqs7Nt2yOplsXRJEbTmP4kGT0IiDpVsDf9im2b5BEafkqYj4zBEdL6iDSfGiNHHA7HlyJyCsAJkl+KxJ1yOt1fXXrppScA2IcPH55Lmqt9QcCHrVu37kqyvGE/eaUuHhoAKHUOmTVrlnX06LEfg/gVaWIqP/UHCuPFhviNMSYWNEtJY4Ufa2junzLl6r+HX2PJkiWJts1sY5nRhhhOY9pXXStQ9VLBrGLbn+cIsxCWkqbcGDbxDwm0LPPNhISE/zbE567UxUgDAKXOEX/965OdY2LkBdCkV/HU/xksfuu2W2+d4z/v1Vdf+yWIGRGaBDykdc2UKRPfqOq6eXl5nT0epFmWGUYijcb0IStWDDxdrUAdBQQgTXHr1gm96R0ZoJSqZxoAKHUO+NvfHrvVWNbjJJsFCslKQYDZTNhTb7/99kPB586YMcP06NVnqWUwMkIQcBIww6dMmbixunlZs2ZNvIik0pg0Q6bRmIGkiatcyFermSB6EBAhIDDG3JKQkPBS3X/CSqlwGgAo1YBmzHgurnnzE/+iMd/wFogROul5C/PCRnGx426++eYTkdJ55ZVXkmg5NhuyQ4Qg4KjDYVwTJkzYWZs8Lly4MDY+Pn6gMY5UEgNo2J803Y23Z2LVBX7kJ/2qagX2JCQkXK61AErVPw0AlGogf/7znzsC1us0HBTxqbhie1eM0xp22223VTlMbubMmYNAs9rQxEUYLfCJw2Eyx48f/15d5L2goKBpXFyTK4xBf2PxCkOTTPIyGraoRdU/gqcHJnFj69atX62LfCqlotMAQKkG8Oijj2bYMLMMmRT9qd+A5JeG0n/69OnVminvtddeuxk0L0YZ93/I4bCGjxs3rt5m3duzZ087j8fT2xjTm2QPkp2MsS4lzaU0aFXNgGBXQkKrviTt+sqnUkoDAKXOukce+eN3aMxfjTFO+trQ/UFApWYAmjvuuefuZ2uS/mu5uX8i+KMocwR87LDMqHHjxu2qr/uL5uOPP25cXl7eGUBLAPGWZcWLmHhjcJsxvCKsL8D1rVq1eu1s51Gpi4kGAEqdJY899ljsVydP/ZPgHabyk36k7fXfvmd6ak3n7Z8xY4bp3bvvy8bC9VGCgGOGGDt+/PgN9XWv1bF37yeJsXHuJww5LbwZwLLM/pYtW/YmWdaQeVTqQqarASp1FghAZ/G7NzU+/sVYAN6V++BdtC94O7BOngA25Ue1WbRnxowZNun5BkQWSeRVAuMFXLJo0aKRdXJztXDw4MGcmJiynRBMC1oZMLBKoG1L16NHj97dUPlT6mKgNQBKnUVLXcMGfhV3ycPHOnfud6xTl3bijI1c9W9M4b3f/XbamVxr4cKFsSdPnsqlMROjTBtcboh7xo4d+0xd3d/pFBcXd7Acjj8bmmsj9AWwSWMq+gLwM5LdW7VqFXHkg1LqzGgAoNRZNisnx2r+0YGfgvj5V4lt5ItLuzb+sl172DFxFQUi+LllWQVCbjIwKxMSmm+qzbz7Tz31lDMhIfEZGt4Sde0A8JENG9b9fMaMGfXW6a64uLgZyAcMeT9pGkcYEviuiH29w+H4L2n6BfUF+G3Lli0frK98KXUx0wBAqQayNPXKKw2sl0QkWUiUtGqNL9u2x9dt26O0VSJgTHBA8Jmx8JzT4Xjq9ttv31/Ta70+d97PDPEb7wx/EUcILLQsc2tWVtbRurzHzZs3O5s2bXo3yF8amtYRnvqFtP7TuHHcj1q1anXi8OHDg40xa0lavn4BJ0WkZ0JCwkd1mS+llAYASjWohWO7xzpPNP8NBT9AUJ8ccTpxqlUCShKSUNI6EaWt28DTqDGMoU2a1x0Wf3Lbbbe9X5Nrvf7GG1kWzPM0bB9l3v+DlmWuHTlyZLVnDYwmLy/PkZiYeB2N+YWh6RlpoiDC7DAG3+/UqdOK4HM/+eTI32hwn6noEPhsfHz8HWeaJ6VUKA0AlDoHLE/tnyIwL5DoHvpHycAfqbtxY5S2ao3SpLYoTWxbWp6Y+Gipbf9u+vTpJ8PTmzVrViMALW2HI94p0lLEtDQOxlPYwxjzAxrGhtUA+AOCMkP8X0FBwV9r0yRQVFTUxO227zCG36dhp4r0QyYHOkjiF126dHkp0lj/I0eONBHBFhr29AUBHssyg1u0aLG1pvlRSkWnAYBS54hlAwY0Z5w8Q3AaEFT0B/2VBv/BitOBsviEUnfz+EOlbdq5y9t2MO6WLZvQWC0NWTEbYNjUvNH6AoRNyFPocFi3ZWZmFlcn7+t37EiKddv3kriHhi2jTA/8maH1O8B+skePHqVVpXfkyJErAawjTZxveOCG+Pj4VJ0cSKm6owGAUueYlWmD7obI4yBi/Psq/aEyuG6ggsQ4Ud4qEe7WiShPbAtPYht4WiWAxopc4AeaASIFBOYkgIeaNWvy+MCBA8srXUuEmzZtyqBl3WHAHJJxURYFescy5vHGjRu/3LFjx1PV/RyOHDnyHZL/CCxvbMxdLVq0+E/1P0mlVFU0AFDqHLQybcAQgK8B6BTyR0ocJWgBaBGyO8JfMn0/JS4O5YlJ8LRuA7fvN1olAA4HIvUFCOsXAJJ7LMv8OD09/U0AKCgoaGeM4xvG4m2k6RFllUAPyXmA9Xjfvr3za/s5HPn881wDXOMLAj63LOuyZs2a1WlHRaUuVhoAKHWOWpyS0jLWKn8ZwBjvXypB4GMSORmrN61fm5qa4HaUd6ewj1B6ARgMYAiBWF8VQUD4H7pYFuyE1vAktoGd2BZ2YltImzZgo8ZRAwJjzDLSlJAYS2MckZcCtjaT8iqA16688soz7rl/9OjRZrbIRkP2Ig1g+O+WLVpMP9N0lVIaACh1TpuVk2MlfHLgTwb8ftDuMgi+7yrY9ET48WtTUhqVOz0pMBhBwTUEeoUcENKtILy7IWC3aAFpnQS7dRLQOgmS2AZIbAPGxFRVQ3DYGD5pWdbM/v37V6vPQE0cPXq0jwg2GMMmJG1jzNDmzZtvquvrKHWx0QBAqfNAftqg20A8CSDWX90vxH+afGV/e+CWLZXa5/1Wpw+9CvTcQMNbACRFLPijfAv4dwstIL4FkNQWSEwCEtsBSW1hktqATqdvBj/ON4bPiMiSSP0FztTRo0dzAL5mDElya/PmzYeQdNf1dZS6mGgAoNR5YnX6wGFCzgGQ6N9HcGlMKXOGbthQ5XS5hZmDU4QsRNDffPR+A76tKpoQAACGQKvWMEltgaS2YJt2sNq0PWYlJs6CM/alK6+8sqDaN1cNR48efZQ0PzSGAPDzFi1a/K4u01fqYqMBgFLnkTVpg7rahksIdAfg+wuWHR6accPzN3xY1bkFrqHPA/KNKgt+Vm4WiHRw5f1BoYNlga0TYeJbHbPf3/cUSk5us0X2tIpp+W6PRYuqHP5XFRFxHDt2bBlJF40ptYwZ0LRp06LapqfUxU4DAKXOM4WpqYlup/stAgOBwB/xQVs4KnP1hqht8AWjhrWj270XQCP/PgIg5AGbPAwiETbbkWwNIImQtvDWNiSCkSoMGLpVxbeJ7y0PnDGfOrr1aGHatCl3tO0oVtv24mzb4YQjvsWXpCk1hscBuC3LOg5jygzwtX+hJN9iSYkkJ/s6H25q1rRpqjYFKFU7GgAodR5akt3vksaljXIBGRvYSXwKYnR63sa3o51XOHzwnwH+IPSJn4+mrlz342jnFOUkx5w81riDG1ZXwnQl7K4CdoWNdjRoC6Br+DmR5i0Ifyf4GDa+BFbrRDjadYSzfUc4k5LgaH8pnO07wLKs4AmK4J8XwLeK4s+aNWv2SLS8K6Wi0wBAqfNUUXJyzP8SGv8X5PWBzn2C/xH2mGGrNkXsJV+YnZrIcvsgiDj/PgIfDc1YfylnoFaz7BVmpyY6RfrCZjJoXw5wAIi+AJzRCvyIIvQ5YEwsnO3aw9m2vTcwaN8Rse07IqZdR1ixMSBZSvKqpk2b7qpN3pW6mGkAoNR5bFZOjtXus4P/BXiTfx+JL2wgKz1vw5ZI56wdPvR5EN8IeQKnjBi6YkNeXeVrbUpKI0dT9KeNwaTJEIgLQHzFBUN+VUOlI8XRrPkXjpatjjKu0e6S3TvnENxpx5XsGrhgS6W1EZRSlWkAoNR5blZOjtX+8w+eg+CWoL/o/9FjslJXr9sWfnzhyNRBRuyKFf8IUPD00JXr766vPMoMmK1r0/oDMkIgEwGkArBCj4pSW1CzbykbwAEBdhrBLhjugGBXbLNju5Nzi8pqmX2lLkgaACh1AZAZMOtWDX1WIN8AAn/YR41BxtAVGypVj68bMXQDiMFBfQGONY0/0eZsFZJbx6a39njsSQQeJtAWQZmuiRqc4gZYDKKItr1TgCIbsvPLsti9w/PztROhuihpAKDUBUJmwKxdNeQlAjcEjdX7wLaslLRlhR8HH7shK+VWEflvaMM7Jw9dvnbe2cjrltEp3UHzTwiyox1T7S+n2nyLSWCrDMBuQHaR3CFAEeF5p//i9e/XIlWlzisaACh1ASnKSY45frTZAkCyAd8wP8p2xCBz6KKKyYLyXK64RlbpYQAtgobwvThk+bpb6zN/eS5XXLM4908h8gAQ0hERAMoFfJ6QuwL7iVkCfkLYcQI0BYwTkBYg4iFoJWArAzStaT6kilc+/wNkm4DbjHCb7XFv2xff8b1rc3M9Nb2WUucqDQCUusDkuVxN4kzJCngXB/JWBpBLHcfKJgRPG7xhZOpLoNwUdOrRg/EdkuqrkNsyJmU0xPwjMIlRMHKtZdvT/1cWs7d5XLlvyWCC4G39F695vqp0Nw8Y4ERC4wRj2e1hox3BDgK0NUAnAbqB6AZBUk3zK5W3vgbwjtiyDcRmC9x4RUrh7tqOnlCqoWkAoNQFaLNrQEK5ca4BcVlgTn/wv0NXrLuNvhJtfVbqNEJmA0Hz/lsmY8iSwjV1mZeN41xtnJ7yvwtwbWBnRaa+APCz/imF//YXpNvGpB0H0Mz3/m/7Lyl48EzzUORyNSmNdXcj0RMGyRAkA0gG0AMCR03SkqCfAE4AskmEG0hscJa7N/RdseHTM82vUmeDBgBKXaDWulK6G0s2AGwZ2Gnw8NBl634BAG9n97uk1L7kM/hnBiRB4I+Dlq19oK7ysHV06jSA/wKRULGXIAARvua2rPsHL8z/JPicbWPSiwHp7p3WgK9dtWjN9XWVn3BFOckx7hMtL7cNBpAygIIBAvQDEBMo4iO2EFSQ8IMEBwGsF2C9wKze36zN29p0oM5FGgAodQFblzU0i8JFBByBsfeU2wYvW/88AGzMSp0HyiR/oQxg96Bla/uc6XU3Zw1obqy4x0D4+hQw6KEfh0CZftWiwkWRzt0+Jq0QRKrv5ZYrFxUMPNP81ERRTnJM+ZfxgwG4aJApglQAjYGgYr6KoCAkIPD+OgFBAcjVFM8az9GyTVWt4KjU2aIBgFIXuI0jU78nlL/7XxMosY2dNnTphi0bRg27k5Cng78IjJEeA5as21vb620bk+YSyPMEO4W9JQSedbvjfjhw+fLj0c7fPjZtLoDJvpfHr1xU0KK2eakLRTnJMWVftRwEiItAJrxzGFwCnD4giBAMAMBJIdbDltUE8o6XxazVoYiqIWgAoNRFYENWyjMEbgfgmzGYB63ymIF0lLS2aQLzBPhW/PnewKVrH6/pNfJcrrjmjdy/oeD7AEzIm8RhCm+7cvGaJadLZ/vYjKdICUxK5BEkXrVozWc1zU992TxggNPRutEPQTwMhPYfkMCPyiS0mSB48wQgK0EudtjW0iuWrj5Q55lWKoIadX5RSp2frEZl99olMUMAJAOEATrZzrKX3m/RcXyXLz46BiI+6GlgBIAaBQBbRqd0N3TPhuCKwE7/VATEW7bwtv6Lq1mI0z4S/GzisEx3AOdEALBtQprL8vCXArjCinQAoasihgcD/kYQAQBW1AoQaAZwsggmu+nB5tHD3jPCxR6RJYwrydepjVV90RoApS4Sm7JTLxfBRgYtByyUH1vACAErVhUEv9jfvF1CdTuubRubPhkizwNo7j098MVSRuIn/RYWPMbTdqWrsGNc2vcEDGqykFv7Lix4sbrn14cdE9Jcts1fAciIeIC3tN8skIMAp0V+O9JplZoHwg8roWClB5hjWWb+uVQTos5/5vSHKKUuBIOWrt1pwB/4X5OAAX8L0tchjd7/EC26nPhwwOnSkxkw28ek/R4ic0A0J71p+gr/TyEYecXCgr/XpPAHAJs84p3ByPvPNqZbTc6vSzsnpF3xzvj0RWIzj0BGULYCBLIMgqwrFhUMAs0J/5M+wZ8L8SsIFhM4xvATEfjEQxINOyxOiHGG+I/tsQ9vHjUsb3N26r0bszM61ttNq4uGNgEodREZuKzwX5tGp46lYJJvV4wIJwRXXQMAxRoBYGPlFLzezs6+ZPv6ky+CmBKhGnGL5TFT+i5dfahWmbR5hEYCGaJEmDionm0b4+rssORhEftGAkbCb1IgBOaB8psr3ioIrLpogCFCb8FuyLlXvLVmt/dw8J0xw3rCcDCBdAEyRNDLf16geSC0acC/6T2GsAC4BHQZuP++OTt1EyBzScw+k06b6uKlAYBSFxnL5j02JRNAc3if+ENqAn3TB48E8Eik87dPSGnv8Zycb4Crwt8z5FtfXeLOSc0tOFXrDBpzBEGT60mkmQPrSfHYIc1KrLgHIfZ9AGICQUhQbgRYTNgP9V1YuDn43M1ZWc2B0sv8r8tt+dy/TUCwuPBdAO8CeBEAisa52pSjPENsZkAwAkTvaIGABCVE7wEU70yPg0Xw+03ZqetIvhDj4Gv93io4VpefibpwaR8ApS5CW7LT7gbkqcpV0oGNr+3PSuLDx6tvH5fWk4JlAlwaeh5ByqyyT0/dfKZj3N+ekppolTuCZ9M7evmbqxOinlAHZAbMzk0Z3yTxOyB02uCK9nvJN8Z6KHlBfkGkNN4Zn5YF4TLfS0/fwWtiajJN8NZxqZ2MzTEiHANipHftg9A+AiFtKVJ5EiIBSiBcYGi/cKIsdrEOL1RV0QBAqYuQANyanZoHMhMIKfh9vwhjMPSKhQUb/G9tH5vRH7AXA0isOJy+x1s8994lbe6qixnvZuXkWH1OfVqGoD5Kttgt6+vJdsf4jFRDPiaQaP0e9gjtH/ddUPBmlelMyJghIr/0vpJP+71V0Ka2eSrKSY5xf9UqzRbPGAHHANI3YhAAQMJ6GAa9/BQir3jEfn7oig3v1DYv6sKlAYBSF6lNY4b1MoIdBJwAAmPYKoIB+XH/RYWPAsC28RmptO2F8PX0D3RcA0Dh3D1NknLqcrrbogkZRwC09r8WcvDlC1Ztqqv0AeCd8WnxDsv6gwjuREgtf6AwPQrIjFOHTz5VnVqNHePT8wC6AICw11z+VkHkEQO18PZYVwcbZWNFOAaCLADNTlsbEBoprBXyMXO0ZI7OQqj8dBSAUhepQYsL3yXxL3+3cwYX/gAAkw4AW8cNG+gv/L1V/RWFvwBrv2pSflOdz3VPHkFgWAGBOu4HsHtixo0OY+2G4C6GPwiRbiH+VuYw3ZPfXPOP6hSYB1yuOJBDK/aY3XWZ3ysW5X/Yf9Hap69aXDitqWmWKMJJRvASAO8Sz4GbqLiVsFEHqRSZabeMfX9jduqDhdmpiVAXPe0EqNRFzHY6f23Kym8hGTLdrrfMlbSto9OusISLBdI8+KkfAAxQ7IiNmXRl7prad/iL7giAZP/lyLoJAHZPdnUWkadEkA0g8MAcdFvrxcN7Ll+4antN0j3V2B5MIC4oMNpV9Rm112PRolIACwAsyHO54lrElo0W8FohJhJoKlLRbZDwzr8cdJ/tRPCwE/LgpqyU12yax4csC+3MqC4eWgOg1EVs4IL8z2nw28COwAM3AKClMVgNoFXwU7/vwbJMKDf0nrviaH3ki+CRsH4JZxQACMA9k1zfgi3vUJAdGM9fMbD/mJD39B6waljywvwaFf4A4DEYEbLDsN4CgGDD8/NL+i9ZO++qJYU3lTazk0BOJTgT4Nf+YyoN8fT+jBXiVoq9aUNWytp1o4ZOkvCaEHXB0xoApS5yTdDs8a/w5f0k2oe/R7JZyOvAhvyiX9D497pGI0ck9Om81gHArnEjOu1x2P8BkBWpjCNkthuO7/adv+JTzK/dNQwxJrSTnuOsd7pLzV13CsBcAHPX5qQ0ch7neANcL8BEAjFhNQEQEKCAghQjnLcxK2XbBsGvB69YN6+mkzep85NGfEopbB+T/n1Q/uJ/HV7dH/JFQazuO2jN8JoMcaupPZNcDwrk4Yqry5He81clVXlSxHSG3w7afwVCAxmfz0F+57I38madSV7fnehKcEM+RaBGVfYmL1jd40zSrEubXa4EiSm/hWLfKWSfytMOS1AnQgAib5P49aDl6+dqIHBh0wBAKYW3s7MvEevk+wASohb+sp74SQAAIABJREFUFU0ANsB1AiywLPN68vz8Op+FbvfVrukQ/AuoaJKwyho177Fo0YnqnL8vJ6u5u9TzpFBuiPQ+BW8KnNMvm7/s4zPNa9Ek180UeREIlJbPJS9YdfuZplsftmSnDbBh3w3BjQCaAP5hg+FjCAARFJH448H4Di/XeSdPdU7QPgBKKVyxdOnXAB8/feFPADQAhhF4RGz7vZ0TMjbsHJ/xwK4JGXX21GsgRyoGAHiVO0qr1Qzw7tWZ6eVl5e+AckPw3P3ef3ICgpt7zc+fWBeFvzevGBPaP4Jr6yLd+jBgacGWQUvXTi9txHYgpsM/3TPDxxAAJJJF8N+ORz/cvnZkypizn1tV37QGQCkFACgandLSbTk+AhAXVuUfeYhZGG9nM+4AOceGZ07f+Wtq3Q6+Z9LwYaAEZtzz9mbndVVV10tOjvVe+dGHAHkQgBXhkI0GvLHHGyv31TZf4YpykmOs0oRPBWjhf3q2hL17LcjfU1fXqG9bRg7p5zGOuwGZDhEHUKkmwIuy0Db8YerSdefNvamqaQCglArYPj79JSO4CUBIr/+qCn+G/gg+ei8Ec8Qyc/rMy9tYk/bkXRMyeliWeS/k0sKf95qX97tIxxfnpLeWcutlgKMivC0A/nQi8cSDA/9dt5Pg7Jo0fDwhb1ZcBh9fNn9Vh/Oh7bzI5WrytaM8m5QJACYI0LpSfwAgfJKhcht8wlNq/Sq9QNccON/pKAClVICx8TSImyIW/pVmzAk89Ye+rnjRHcRPjNg/2TMp88PdNHMp9txesYmreZo25dhGMUfc5e6QFGkijwQonjIyRcrtWQA6RMjI5xTe1OONlUurul5tWZRrBP6nZIKChedy4b8xO6OjgXuCgJNOocxFIC7KyICQBYgggQ2ngdzHGPfN60cO+eUpT6OndL2B85fWACilAgTgjgnpuyHoFTIvYFjhX9E3IELhz7DX4QGE4DMA80nOMWVxK3wT21Ty3uThJQBig3K3pucb+SHT6743dcS9EHmUQEyEJLZY5LSuc1YejHy3Z6YoJyfGKvvsEwDx/n02ZGqfeavm1sf1amtTVlpXY9nXgMyBYGD4tMHBSwkEjQQIfY2gpgDvioj+N3cZ2PcOWblxZb3dgKo3WgOglAogIDuA/wIMVLVHrvKP+tRfueAPT4NoDeAOQO6wY08d3zM58y0DM6eJp8midgsWnAw68jMAHYIii0ANQFFOTkyM5/MnIHJHlFt5ztFcvt3l+byS6Hd7ZqzSz8eQiA8qJEuNuJfX1/VqYsvolO6kdQ0o18CWAQCD2vIR8oQfND1A2MM+dgE4CiA94nHeHX1smOXrRgz9D2PlR0MXbajWKA11btAaAKVUiLfHDOtlLGsPEFZwC58npRXIEQAuAU7/1B+9s2DYcd4Xp0BZTMEcB/BmObmCwFXBOTj5tbNp4+anGtPtfF18BVNYmmUU3Ndt7sp/1eima+HdycPfAORqf6loA8t7z8uP1AfhrNiRndHRY9k3CuQ6CPv790tQo37lJ/qQxYPKQK4mZIHY5s3SxvJZzEn7bQG6hJ4TSDUkQVtwiIZ3p65Yt7iu703VDw0AlFKV7BifsYtE7+B9BG9PfnPVc0U5yTE4lZhOY4+GYAyIvt73K34CVXUWjHQ0woOIMgBuAI1D9gpvoZGHAXSulGnimNBM7TF7eX41b7PWdk1Nb+uwHR9IoBZVQBv39JyfX++BR7DNWVnNHc6SaRTcLEQmfEO7g1cCDJ7sp+J1YNdnABYJZIHH8iwNfoLfNCrlSRF8K+icVQAGiaBxVc0HAnm+zC79/vD87V/U7d2quqZNAEqpSoyRuSIMBAAEAIM2AJCcW1QGFK0AsALAT4qnujqUl9ujQTOGQBaI0IWFQjZOW/D7xQCMAcKbD+SFyocCAPYZI+O75i5/t/p3WXtOj3WrEI6KanGWi8jss3HtzQMGOJ2JjcaQuFlQOgmgdxGioFKfrHgZVq0PADtJvEmxFxQ377Ah0iQ/m7KHjRKR6UFtBe+edMeOcTrLWzpFfiXAbYBYkZoPCH4zlrHZa0YM/Vb6yvUL6udTUHVBawCUUpUUjUsbIsasB4La/IV/T34z//6qzstzuRzt4jFUbIwBMIaQ/iB9E46xOgW/97gqvpkqvUUUumPsyb1ezf+8qrzVFZkxwxS/vXoPID2CHnvf6jkvb0J9XvftMcN6GYfjDoH9DQgSIz/RB1XpV7xZBjDfFnuBoefN/ovXv1/VddaPHdLMcls7AFzqmyVQYOgavHTtav8xG4cPS7aN/QdAxkfrROgLOl6KNe7vDly+5Xjt71zVF60BUEpVcuSkY0vrJvZXBJoESmN6awCq4hsSVuD79+DeKdmJbinLBjjWAKMAtPalVaOCP1Lg4OMWyDxnqbkEwFkJAPZuWz2eRnoAvo5wAEh5tT6utTYnpVHTkphrALkTNtIhwghP9L5MABT6g4CThCwS4RyPJ+6tgcuXV7sAttzmLwAuDdr1dHDhDwCD8wqLAExYP3LIcAgfA3B5aJYIQiCCm0s9jtS1I1JuSF25bmONPwBVr7QGQCkVUdGE9GWgyfK/JmRVnwWrXbVNT2bMMO+9s2YAYY8hMAaCIQCsaAV/eAfD4HcifXEJsNVQZrlt++Uec/I/rG0+T6d4yoh8AJlBS+t9XWZJm+Tc/K/q6hq7r87oKx5Mt4GbAG+TSminu9BOeL5fx4V4Ex57jttZsnjggi0nUUObR6eOF8EC74QAAICPHeUxyf3z86O2528eMMBZ3tz5AwC/ANC4Ui2AV7kI/m9Y/oY/n8vzJFxsNABQSkVUNDHzFwB+BQSe7PYkL1jVu+qzqu/g+LT4sjjnKNhmNCHXgGjmvxZCNrwvon5ZVe5saAskj4JnTppWryfn5pbVVZ73TR05SCAbgaBe9MQzPebk3Xmmaee5XI7EZjIFIt8BmAnfRSKPxQ+EACcofENsvGY1Pbrc2z+jdraOTW9tezw7ACT5ryPCaYOXF86pzvkbsgd3sd3mHwKMC85sWKfDt8TtvEVnETw3aACglIqoaGLGCIArggrko33mr0qo6+vsnTrimwCepr9JMmT+oehVA9X88vqEwNOwHU92nrPk8BllFMDeqcNnArzO/1oEMOTgbnNWbKptmkXjXG3okLsATIegPRA+FW+lIOAkgDdBzmzyFRd1yc+vk7kOtoweNk9EJvmvT+HcgcsKp9Y0nbUjUnIAeRxAUuQARvbZFqdmrNhQ67UiVN3QAEApFVHx2PTW5Q5zBID/m6K8z/xVkWbcq7V900b8VAS/Y1hZX6ngr1mhH3KcrwAqEeBZ2PLH2s4MWDxteLIRvg3ACirUtnafs3JAbdJ7d2LmIBu4H8Q18M1kWEWHujIAS0jMRJyZX5fNDQCwJTvtbkCeCiqujxthn6uWFdZqxcTV6emtHTHup2HbV0epwfhaRO5KX7WxXvpOqOrRAEApFdXuiZmfCpDo77QXd4KN6uKJU2bMMPveWf03AvcCCKn3J+ARQS6J6yN3FqzAqoYLRFYO4D+2Q37V9dUVn9bkxH3TRswFMNl7A4HC+u7uc1c+Xd00BGDxpOHjbMiP4R23X3lyHd+Bvl+bQL7gEMzstaB+RjlsG5XRwzaebQAuqWjW4D0DlxSe8ZwG61xD7xTKXwVoAl/SweMUbMrv0/M2/Vz7BTQMDQCUUlHtmpiZB8Ll/6JwWrFJ3ecuPXImaRaPHRtrGpe+CEEOgKCnewJAOcCbxcgNRnyFbYVyAM5aFPqRfAnBH6WJ+9Euz58+oDkwbfgQgVknAINK5/+VWHan6jyNF48dG+uJK7mJYv8Qwj7hpV3wrHwCHBIbL9kiL/Z9a/Xumt5YTeS5XI5mseUFAIYE8kEpGJCyNpMzYNfFNda6UroL7RcBDA1cA4A/4KEtr8d9bd86cEvNOy2qM2MaOgNKqXParopNQsTd9EwS25eT1ZxxJYshyAERmBzIV/iXkswxYq2xBCFj6gm6LUt6O8h+BO8HsBBAqT+JSv8Y9q/yMU1BPIyvHe+8n5M94rQZp/mdL9mK5gnKP05X+BePHdvs3cnDfyaxJQeM4BnA9IlSq1EC8GWKjOx91arOyW+u+r/6LvwBoEWsewZ9hT8AECiFyF11VfgDQGr+ur1l0ihdBI8i5Enf+ykIOe1UE2tVwbBh7erqmqp6tAZAKRXVrokZD5B8xPuKsAz693wjf3tt0tozaVQ7h8OziEC/sCp/ACgxlKmdZ69cdOCakT8DELQYEQHglc65y28KTq/4prHNYt1l40RwI8CxqOm8JsHT4BPPlzud9/d4eVGlxWz25wyfRDHzwua+P1ke4+kUbfKhopzRLWPcZfcB+J4ALSrPxe+tC7chu0g+7XHGvpCcu+R/Ncr/Gdo6Oi0LkCUATGA2P/KhqxYX/Ka+rrl2xOAc2+az8DUJhK1TcNBDz5jh+Vv21Nf1VSgNAJRSUe2e6PomKM/5vyosmMye81euPs1plRyY5rrMI2YxgU4RCv+vhebqbrOXrRCA708bWQyiW1BVv9i2XNn19RVRe40fyHG1cdB5qwDfQegkNhFI5QZn7479Arm5c+6Kdf7dH0+c2Lg09uQuAJ0Ch3mryR/vOnvl98KTKc5Jbw238wcEviOQQG1JWOe+U6CdC/DpXnPzC6rOa/3YMXJIUrnTuR2QNv4ymODG46WOYb7JnOrN6pFD+hgP5gDoFWE+g6M0Znx63voN9ZkH5aVNAEqpqAwk0FGOBDwGcTVNo3jKyBSPmAL6ClFfav7C/0uIjOs2e9kKAPjgmlEjwgp/AFhYVeEPAF1y8z/pOGvZHzseKe8G8gYQOyvV+4dc2/+fwC6A6Epw9fvXZv3Iv7s87tRDCMq3r8WiFDb+HJzi+1PT2+6bMvzPxuM8QOKnIJpGeL7aR8EPYiDtes1d9Y2GKvxlBozbGfMCUTGzI4GTHsqt9V34A0DGig27HI0wGIL5Ed5uJba9oiBz4Nj6zofSAEApVQU35ZPggszAY9Xk/OJpIyaSshxAKwDhw/m+oDC765yKGgUb9p3hnfwIPFLd6zE/333pa0tndrRbXAnhHRR8GN4vIDQgqBQIOCj40/vXZL1yMCd7gAA/qJQfwb/8Qwk/nDKy1f5pI//ooXMvyB/At0wyfNcDKBQsp81JPa7M7NljXt5fu7wRfVa9s2Hb+rSfAJIdslPkp4MWF56VhZQAYOiiDSeGDd8whZC/R3j7ElvMvPzMwTlnKz8XK20CUEpFtWdiRheh2Q94CzQxmNh7bv6b1Tl337Tht4vwKcC7al5Yb/+jtrFHd8/N2+I//sMpI1u5HfwIQKx/H4GCTrnL02ub/48nTmxsNyq9TygPAGge/n7E6XUr9rklqF+BeLuvn3Azprun9ERJbGzc98XGDwA0l6A6bG91Or4WyEtCPN7j9byi2ua/rm0bn5EKj70KvvsS70yGy/ovKhzdUEPxVmcO/j6BRxHUF8G3sJEbwDczV296uSHydTHQGgClVFQURxmAivWAPKzWd8Z7k0c8KML/oFLHPALAEQAjggt/ACg3vBWhhT+kBk//kbRbsOBkh1lLf++wHT0oqLRcb3BgguC6AO8vR/ATEkkI8A8nym6Ji4nbL4JfIRBUBI78lJD/c5SWdew+J+9b51Lh/874tHhj26+CQf+bCL+w4L69IcfhZ6za+FcA1wMIH47pAPDf/MxBt539XF0cNABQSkVlOR3lwa9Ju8omAMnJsYqnjnjCGDyM4PK1olw9bGy6IrXp0yAwn76v8H+nU+7yhWd6DwDQNnfRZx1mLcsBzU0kQnrb+5sHKl5Hn3bQgPeI4M8CJITd1wFQvhNjnerSbU7e7zu9dW7NdS8AbRvPSlgHSRr57hWLNtTbwknVlb5qYy7JUQDCm0csCv6Tlz74jNdaUJVpAKCUiupk2cmQAMCmifqdUTx2bOxe9+evQHBP5CPkkMBkdp67vNL49oPXjhoGoA9QUe4a8pG6fjLtOHPJK07afUgzv1L5zgib4WP2ifjQc2QnyG8cPOrp2W123hMdc9edqsv81pW3x6Z/F75ZDIPuZ27/RYXnTPV6Wv6GAhF7BICjYZ+7MZSn8tIH3dxgmbtAaQCglIoqxpKQXuG07YjfGQfHp8Uz7tQyANdGTkkOWMaZ2e31ZcWR37ZDn/AM9neUFrNqkeXTEof1FQVHwNAVB8KbA6KpGJwoj3TJXdmv6+zlL5yN3vO1tX1sRn8CfwrbfbisvOyuBslQFTJXb95mUbIAhM+vYAg8tzJ94LSGyNeFSgMApVRUtsM0CSkLxVRabrZ4qqtDaYxzjYDROusVi9uZ2Tl36YFIb+7LyWouYEjgQOGfmJvrqX3OIzt04+jBnnJsE4o34IgUBJxmu6JDBH988JoRv9589wBnXeezruyZNKwpKTMR1LcC3i52dw5ZsfFoQ+WrKsPyN20XsUbA21ckmMOAr6xMHzy+IfJ1IdIAQCkVFSWmaWjhJ6XBL4snDk8W4VoCyYFDQh+ed1soz+w+b+mhaNcwwI0AGgOBgvYTT+Py588w6yEkJ8f6+PrsBy2RAgA9wqr1Q4XXAkSvDLAEfLDl/1oU7Js2qkedZbYOlXjMkwB6huwk/t1/cWGd9K2oL5mr1+0wHkQKAmIMJHdFxqDUhsjXhUYDAKVUdGKHzP0vpqKn9rtTXGliYQ2AjlHOfgficHWes+ZwVZcgEFr9T/6tOgv0VNcnt2R3OWx9uQrEwwI4qyjQ99fyEoMJe+u+a7Km1vL8evHOuIzpFNwUtvs950nHjyKecI5JK9xURLHHAgifnrmRJbJgVcZVvRsiXxcSDQCUUlWQkADA4asBeHeyazKFS4GwTnF+xJZy4YjTrRx4MGf4AABXBe06XuZ0PHlmea5w+MbRt9oebgdlWFXZAHgzwDPpcNiEIrP3Tx35a5kxo8G/V3eMGzYQlSfZKRHa1yXnn371wnNFxpotW4VmMoCQmicBWoptFq9ISWnfQFm7IDT4/1GVUucwj7QNe13y3hTXtwDOBtAo8klcb3nsrN5zV5y2jdkW686Qfv7kE5EW5KmpgzeOj//ohtGvieC/EDQLGUxQsekG+ZcYT/nlEJkMSLczvCyF8tC+navnFt80ttkZplVrRaNTWgpMLkLb/SGCH/ZfuLZWCzk1JNeqDXkUuQlASJ8QAS61rPKFBcOGndEKlRczDQCUUtEZdgoun21YPxbBkwCs0FnbAla73SXZ1Znu9pNbsi8B5Mag+fdOeSw70tSwNXL4xtHDnVL+NiHXenMmvp8VBLKJsAd3eHXJD0uN4zYQ1wS9GdggZC6k0tj0KlEwyTpVmr9/0sikM72XmpIZMB6H4wUAnUMzxdz+iwueONv5qSsZaza/TsG3w/cL0K+Mpa/Oysmp0RTVyksDAKVUVCLoFPLwTLmhipH5q8ocMv6y+YVfViftkpP2dQAqnpRFnu366opPo59Rtc13D3B+dGP2DFtkuQAd/YV+yPS+gq9t8KftPS1S2s9cvu2D60cNBPin4EMC28SLl85aMfVU6alLQf4UwDFfPkMvHOHzEKC/OOx1e3Nc3Wt7P7Wxc1PazwCE95LfX14Wc84N+aupzIJN/xbiDxHeGt/q8PuR9qvT0ABAKRWVEYmytG5oqUfIIkdzGZOcW/32ZaHcEfTSDVp/jnrwaRzOGdunzfFWG2HjlxAYBJf+FVHAXNvj7tVx5pI/MDfXc2CyqwUFs+CrKg9dFwAb7UbuuwHgsvmFX3aatewPHqCLCP4gQGAoZGitQsWG95LsAo9ZtXeK6/La3ldNFI3NGAHwV2G7Sw3s6wYuX378bOShvrlWb/o/AJXWoiDkh3nDBt4R4RRVBQ0AlFJRCXnadnGCb5Q5Wk+uSc/94mnDkwWoGMolMjPaPAFV5g/gR9dlfddjeTaDuDJSuS/AB4Bc3X7m0qkdc1d+5D/PEet4DkCX4MR8d/QJxTM1/H665S4/3mX28p/aYi4X4K2IuamsncDkFU8bnhzpzbqyfcKI9raFVwUIVIX7gpD7+i4s3Fyf1z6bCNgny8xNFNkFhH7iNvDEyrQBQxooa+clDQCUUhG9nZ19CSBVVmELMOt44vFrk3NzK00QVBVDK3jon7g9Vo2rcA/kuNp8eN2ot2zwcRFp5K2aD6n09wD4a4ynLLn9zGUha89/dF3WfQAnw39GRUlSZhv3NH+gEEm315cVd529YoLQvhqCw/40ELIRIgE2lu+bMrJnxHfP0OYBA5yWuF+DIDF4vwDPXblw9VP1cc2GNG7DhhMeG5NAVHQy9X7uMSJ4ZeGQIQ3WAfN8owGAUiqimJjSfvA9UQY3ewdVlb/Y05lw48B/bymvfHZ0B77piqPILYHOg8Sb3ecu3VmTND7IGTXJMs53AIwNzpeI/59sNsLBHWYu/UFiWLPEoeuzhwj4h7B7ASCwie90nrlybXXy0DU3b36Mjb4imBlc8oc0C1RcoI0H9oo9EzO6oI7FJTV+BMCwwJW9v7Y0P2lV6jR3PisYNqzp6vQhfVZkDMg2lkknsCHCYV3jHO7ztrPj2RZ9Sgyl1EVt16TMewg84f+aCF0xD//p2d81nTNm2DVNd9+0ETcQfMWfkIEM6zy7eoXuJ7dkX1JeZv9FhHcHZ6Yia/IlwIc62C3+EWkq4UM5o1vC2FsFoZ0bAYENPNF51vLv1PR+AGD/NSNyxMbTAJpHCQD8wcZe8UhKrwX54XPd18rOienTxGYuAPpHO8DGUQc9A/osXHuwLq5xthSmpiZKjKerx7a7UdDVNuhKQXsA7UXQEUBTwHeXIbEOgkaieH/akJRRhVvXn907OP84Tn+IUuoi1d/7SxBSxAL/7DUv/17Oy6/txDl3BVIUrO78evUK/w+uGzmopNR+iUBP7xA9BjLk+/J/wzid93Z4eVHE5W0F4CHaz0PQKXivr9Fg1ectjt1fy/tB19krc/fmuLaJx8wmcAUQsfAHgO60OLd47NisHosWlUZOrXp2j0vr6RY+i8BHCQDwkOaGPgvXnJOFf55rQEKMMX1sMZdR0AOCrkLpBkFXG+6mIgB9kSbDR1vUAIWpADQAOA0NAJRSkQnSJOjpWgSAkb9c9saqH9V2md69Oa7usOHyFryERXnktNnIybEO8osHbFtmEPAuvFPxvAsCh0Dce+lry+dVlc6ha7N+CGBixZk+xMFY25lT06aMcN1z8/ceyklJKfE0+icFt0X7iARIQ8ypZwS4pbaf4+aJAxp7xOR6JznypQqANh/ou2jVstrdQd1Z5xraWSxeRkgf2LhMRC4Toje8/SGClluIdvs1/lj+B8qnFPkIMBvtUnmmtnm/mGgTgFKqkqJxrja05GMwuOafAsoaA7MCBvN6zc17u6bpFk8Z8XtD/NS39u72rq+vuKqqQvDA9a7O9DheBJAWvN+XJw+M/OPUqZKHTjf3wAfXj0wXmysR/NDjvepJsZHW+fXl22p6L1UpnjL8+wAeBWCC+xkE9xSg4MGe8/J/W5v0d07MeB6Cb1Q8JAsEfLbfW6vP6lC4tSkpjawmJtn2eK40QD+hXAFBPwFbVGQtNOAK7U8SuTo/LEj7VAT7QNlLG/ttykcU86kN+4hlzMdfX3LsyLhFe8+oNuVipQGAUqqSnRMzbzBAoJ2e/g1U9AUQyC4L5qnyGHm2OuP/N989wNni8+YfAGhDAGJ4Q/fZK2ZGO37/tJE3k/gHgOYMbegHgK2EubtT7tItp7vu/htGJllubgXQLni/t7+g3NAld8Vrp0ujNvZOdk22DV+C4JLQQk78//VAZNRl81fl1STdnRMy7wLk3yEFqcgq65L/ZSfnFtVoNEZNrB87pBlsxwDLYw8UylUivAJATxH/0ENBxGCnegHAJwLsEshegvtg2/soZq/b8fW+4flF583aBecbDQCUUpXsmpT5bwi8s8eFlL2VOwQa4JhNPhLbQh6rai6AvVNHTAEwx/+ym9Xqskgd9Q5MdrWwHdaTBrg+/D0CXwn4UGfGPx7p3HCSk2MdxLFlAIZXepP4TedZyx86XRpnYs8010Dj4VsAEsMKf79PPOXon7ww/5PqpLdrYvpVtrAQQFzQ0/8+R0zMkOqsvVBdmycOaCwlzv4CDiQ4EIJBQvSAiPHdBYJuByE/qw4A/ic2dsJIkUB2ClAUa7hzyIqNdZZ3VX3aB0ApVYkIRgEVvcsq+gKEdggEABuIp8gfyr7A3e9OcX2z19z8gihp3lUROPDRSAV48TVZLhF5geKdyjcs+Jjvdpjvdp+59FB17+MDHPsNIhX+kLmd+qT/Elhe3aRq5bLX8zfvmTQ8gwbLEHnZ5DbGIS/LjBmjTjei4p3xafEinI2Qwh/HAU4808J/+7i0nm63pBBIESAFpZLs7aLhfV+CuhmGPM2Hb1fsKAewQ4CtJIqMzZ3lnvKijDVbqlwaWp1dWgOglAqxa2L6VQKzBQjurBX8q3ItQGAvxRaYGb3eyPtNcNv+vpysS223Zz8AizCHpSSmS3Av+KKcnJg4+fxhCH8EwDDoq0mAjywj93bOXTm3JvdxcNqIiULOk8rfc++cpGdYTaYtPlO7J7s6G2AZBN0jV4fLD3vPX/WXaOcLwKIJGfMATAwqaMshHN93Yc06/W2eOKCx8cQOhNukguIt8IHW3qf5oF4K4XM/VK69gHg/3FIBdgD2FtjYCmBL04SvdtRnc4SqGxoAKKVCFI3P+A2In/tL+OoGAaHHmZc+/sK+bXh+vhsA3p06YoYR+SUACPCTnnPzAgvwvDclq7eh/TL9ww4r0vQQ/GdZecmD1V1gyO/gtKyuNrEZkPjQd+QzOOzBXWbmv1+T9OrCrqnpbY3HWgngMiD4iVkA4JTYckWfN1cXRzq3aGLGT0XweyBQMAsgt/Z9a81Lp7vu5qys5pZVmgYjGRRk2JABEO9oitPMWYCQY7wHlNjEOxRugW1v9RhuiTlWtnNZthT1AAAgAElEQVTgljMbQaEahgYASqkQOydk7ALQ21u48xSALwnfNLOn6Q8QHAQI+EovZ8KtAFBc/vl+EJcS+MLjKbv0svmFXwrAvVOH30PwUQCNgtMgsE3A6d3mrNhU0/wf+KYrDl9bhRBc5d/nK8TKAGR1nb1iTU3TrCt7Jo1qR5avEqB7hAK3oPeAVZmcgZCmgJ3jM4eTskwAy/9UTvKBy99c9cdI19g80ZVguT1pBsgU2JkC9oOvo17wk3zFa/+uiE//e21gHYn1tGXdV+7YHf6gTp3/NABQSgUUXZ3eRzwsAvxV+lzYZ8CqiTu3uq6yYF8N4T0gWlUVBFScC0DwCGhWE7LQd+Bve85d+eD+SSOT3MZ+lsQ4hI41/ErIX3541PNYbQua/dNG/Btg5eVvBXd2nbOiwceHF03MutTQvQqQzkCltvPv9FmwKjCV7Z5Jw9q5bWsrgKTAccRjfd9cfZ//mOKxQ5qdNLEuCEYC9ggRJCPou/20w+4Cx9hfE9wskLUiZr3lMOuuWrTms7q6b3Xu0QBAKRWwc0LG74H/Z++846sssv//+cxz00MggAhIETEIhE7oLQlNAoiKZHVd2ypiQf26NnR/62arZXft4OJaUdc1iCggRXqvIi0UQVBQaVIEQtp95vz+uCXPvUmAJDcJhHn7ekFm7jwz57lqzpkzZ87BOH+HYFybL5b4C/Vsv6ZXDVtcD5B4gvAloTmjESAAdwNoTuC0Ylgz0e5uouRNv1fB/wCnK0uNbT553t6yyr/n+tTbhXwnuF+Al5tPmV/mTH+h5puhva+wLWuJAJcBcCrlo8rlatFq6vwjC5OTXZfE6gUA+gD+8/bJJ6ILbos7Hd5dIP1F0F8gSfAFdJfuHP9bCFZCuEqLvcLs7i8+jAFgMBgAAAuTk111Y/ReEg18fRrs2W7G4pXBY7el9W4hLusTAm09PWfxBAAg+DZE8kGO8TT9Y34UwUMtPls4pTzy7x7Zv51AVgKIDvroy71H9NDzTbltG9G3rQiXQFALKNyRU2R86xlLxm4e3vefFDwC+BW5DWC5QLoAiDqrGz/gQ2gR2SSQxUqsRQr2ivZfrjhUcW9nuBAwBoDBYAAAbBnWb7iITAP8ijw7d392fEkBXuuGd46OYey7AEZ5es5gBAAA5QSg4hx9mpAJyIv6fcKsWSfKI/u3owbUhK3XAkgI+ugbV15+96ZfLDtWnvkriqyh/fpQYY74YiA8d+bdAP4E4M8ISokvQVo/0I3vbMEGsEELFlvEIiosa3eefgeGqsMYAAaDAQCwaWifzwiO8LWVwheJ05cMO9Mz6+7uHBZzIHaaAFcH3Rk4ozcA4AaAY676bMGa8sotAL8dmfoJBNcHfXRcWdL9iskLd5R3jYok65p+oyDIDM6YBwS68EvMtOcZ6BZiPSGLta0W56n8pd1nrS6XUWWo/phEQAaDAeuv6dUQNoZ6SvR4tLQt+OhszyW98VXBxkGDbgiLyFsgRFcWOrI9Z9YOI8CrvLIVkPHjL/JSyqKFIXHJf3t9/99By/VB2xlbKDeer8p/36geUSdzIwYL5HoIhpdB+RdAsI6UxQIsjgiT5aW9KmkwGAPAYDDAVWA9CIrLV2WPYLYVpc5YXc9HWGRBMgSNissYWHhtzTdafjlx6amXUz7/KiTKf+d1/XuI6Gf8S/ogH02YsnBOKNYIFeuGd46Okdj+Qow6kYtrAakBoEiufG+Xs+VT/rshnAel5xXkRX6ZNG/eL5UjuaG6YgwAg+EiZ+OgQTHCnNH+bK8eI+Czs2XK+/ra5Frhtjwnou8GAtMGe9qB3gBPDgE2jD0Qey2AyeWVe/c1/S91Q0/2lwj2IsB7LT5d8FJ55w8Fm4b2jne51HBqDhMgTYiYINf9mZT/zwQWasg8l+g5rWeu+L4yZDZcPBgDwGC42HHl3gWgtldHe4wA0R+e6ZHNQ/sMpa3/A0ED3/Y+4HkAQtgU3gXK7wC0hXhMApIPoJwGwMLkZFeBZX9E4WVBCnRZQVjdu8szd3nJSkuub7lwrYaMBJAMDZegyJm956/AR3MhWC7AXFEyt13npRuCkwIZDKHEBAEaDBcxC5OTXbWj3d8AbObrI/BN265LWxWnfNYNGFAzIjLvRYJ3OMYHR/iBgAjlrsRpS97OGtGntRK1Fv7reYTS7HDVjIUbyyr3jhHJz4Ac5/wFJsD3FsO6Xjn1y0q/3rY1LbUpLH0dKCMB9ASgnNq9pF0/ic0iMpfamptjnVySNP2r05UmtOGix3gADIaLmPhI+0YRNAME9O3kBS8Vp/w3D+87CHb+mxA2RtHgPm/OH7834P8Spy15GwASP1+6Neuafi8TeBLwjLOVjAFwX1lk3n5NyjWgPBF4652nQIyoTOW/7br+LaDt6yEyErA7izP8wUsxu/5jAs4BZJYqkLmt5yw11fEMVYYxAAyGi5TMUaMsnNr//3xtEQHJo7CjJjnHrRveOTpMYp4RLQ/QayUUDe7zHgGIAMLfJ36x+BXnHMpy/Uvc7rEAanhjBK4V4H4W8YKfma3XpzaFrd8WCfA5iBB3tpxado/CuZI1PCWRkGGkHg7b3QsITMRTzI8AZDcEMyhqukQfXtLGVMkznCeYIwCD4SJl/dW97iT5ZsAvAeKvHWYu+4OvuWFovxQl+m0AlxdXDdD3o68l4DNtZyx+qrj1tl7T93UI7/E/ZqmkVp8t/Opc5d2TnByZWxMr/FUDfQj+0HLaor+e6zylQQB+c21qFxF9vYiMBHClt98/IGg8AORDsIRKZtgFrhltZy34tiJkMxjKi/EAGAwXIVmjEsPzT/IPvrzw3p38Sbflehnw3gwIy3mWou/3O/YLg/sAR74Af255Ja+2nb6kWOUPALZWHyvKPYDXYHDbwwCcswGQVwOvQtBRvBN4V//4qmmL/nauc5wLMmqUtS3vSC+KPXIHcZ1ouzEQ7M4PegY4BOALgfrCxfwvW043d/IN5z/GADAYLkJyT8SPVkRTX1sEoMLLSdMX/bzh6t69NU+/S43mzgh/wBHl788X4O0VeafN9KUP4Qy0SVq0ZOtX/Q4BqCcARHE4PClvz8q24cm3C+Uuf4fHCtlwSmr8trTHCMWx7u7OYTH7Y1JAjtyed2gEgUuFJe/0vV1fC+UL0prRuuPCtSZi33ChYY4ADIaLjHUDOtdUVuQ3IOr5a/IIjouWRFh8RBH/B0D5xtPp40fQLw3Pw5nboxv8On3yZPtsa28Z1m8yITd4nqWEu/WlCWcpObv9mj7tNNQq+PLle5Y9DMWurT5b9N3Z37h49iQnR+bF6UEaHAlgOIB4/4fFKHy6XLbr0gY78n/c+4rbrb5oP2vRD2Vd22A4HzAeAIPhIoOuyD9CUM8btec9AlAraGEBgKuKpvD1+PhZjDdABDMKDub8Jv2rsyt/z8N6uZAeA0CEeQqdAJSYsW/7Nb1qaFGZcCh/AAUQpreaVnrlnzUqORa5Oo3kyBxIGoSxZxrPqGip0bUna/Toi9hOXS0VGXkpyYmlXddgOB8xBoDBcBGxblCPlhCMDUjaQ0Cg0+jY2xdm7oOjTwK8AULMj8u2RjUroVpgcSjheu30JvDMBoAW10QBrgrqfqT1jEWLznXNTUN7x7uohhMcKbkyCGBkCcF7AAArJlZqdOvNGj37IrZjFzIsINFgbRGJJJl7rusbDOcrxgAwGC4iBOpFX+rcwvrz3s/o0fqFafsDAgS9XV5vANQq12l1bbNFi0qlCJXL3mXblt+4ELJjSWOzhvcdIyI3eYT0eh+ISW2mLX71bOtsu65/HSkoGApylACDBAg/U6CAVSMOsUndEdcrGbGdupCusJKGEsClAExaXsMFjzEADIaLhLUDe11DyNUidF6iLxAgrNAb4D0SOKM3QL7WEWpI4qwz1woojqumLd+/ZWjfbIg3J75Ip+LGZaUldxDRhfn8PdnzVkW6Y0pM87t5RN/GSvM6ACO1290LpFV0VGE5PVeteNTo0RdxPfshum0H0CpmePE0gDEADNUAYwAYDBcBy67pVYO58pqn5a33J4CAT5NyswBtgGBvgMMQ8F31I7YK1OBOny06XhY5CMgmyC4C7T0mBa/YOaRbXIKjdv3OId3i8pTOBBDpeHB/GO2RCTNm5Tnny7om+Uqx9UgQ18NGF/GXIioeV+06HqXfqx9iEtuDSp1peEk0LMtDBsP5hjEADIaLgIgc/XeBJ4WvL5RPgFW7azb8x5UnforyGQBFC/oE+AO+FbcM7DR32Rmj9s8GBbuEaO8zKXLDwi8HsMn3ea6KmABBguORAi38VZsvlv8EAFnDeyWKtoYBGC5a9zrbXSZXnUtQo3tv1OiVjOhWiaCy/AGNZaRBeR42GM4XjAFgMFRz1gzq0RNCT959b7leAjmieHv65Mn2moE9p1rk047NPgBnkKBAgH1E2IBOcxf9VF55BPg2IG1ugb4MXgNg49De9wnk5qBsg/cqYc6WYX2fgeB6rdHCOVlxuC6phxq9klGjRx9EJbQESI/S99c7kHM1AvIBhAf1GQPAUC0wBoDBUI3ZOWRIxDH38f8IoAKC+0Se6vLlih0A0HXuig3rBvXYA1HNAhLse4dTcNAiBrafXfY7904E8mNg5UDVCAA2Du/TiTZeAAqzDQI4KcAfSLtpoLIvqrxVjTjE9uiD2N6p3p2+AklnzkLP+mdW/ocArAGwDMA8ABEAlgeNMQaAoVpgDACDoRpzrODY/wPY2rOL9+6rBQuTeq98BfMcA8mpEPmdJzCP/sh/AkeFalD72Ut3hE4q/hjU0WjdgAE1YedlChDhPIIAUINADX+X04oBwIhIxHTtidheyYhu1wl0hXlkL6xsCNJ/sFF4xFHIjwAWAVgCYAnJ7c4PRSQKgBuBvytNDIChWmAMAIOhmrImtUdP8ZXgLazZe9ii+k2RtLW2mgqlf+dpCLw3BU7a1EO6zF6+CaFE9I+FSYQJgI3CIvLehKC5V8oiOPU+XWGIat8J0b36ISapO1REpMO9H6zsg1S+yH6QywDMI7mcZNaZRCWZIyLb4Y2R8FKn1O9sMJyHGAPAYKiGLOvVq4ZQvw/AAgrz/Yjwjk7zlhc5x+/ce9mKdSt6HSCkvqdHTtsiw7t+uXJNqGVTtvWjbXnsD/H8kw6NWMARbhi0TRcA4Vdehdg+KYjp0ReqRhwIBuQoKLK992z/d8Pjwl/mdrvnRkVF7SmDyOsRaADUKsMcBsN5hzEADIZqiCtSXhHgCjjS+grwUrd5K74o9oEMCAbqrwUcAiJfUUZ2/XLl4oqQza3c9QHl1NX+dLziuKcPAK669RDdOxkxvVMR1qAh6Avm8wYn+nf7ha5+AZApIlNFZElMTMz+EIi8AcCtjrYxAAzVAmMAGAzVjBWpPa4D9O2eFr3KkV/Fxv8yrrjxq/p3u3Stst4gMASALZq3dJ63YnYoZdo4qG8zsXQ6BLcL0NKfV8CHI9EQw8IR2TEJ0b2SEdkhyXttr3BokXP9wDZFcAOJBiQb5+TkTCnjrt/JzqC2MQAM1QJTDdBgqEYsT+3ZVEGvB1HbEWd/XNvo0nPRyl3B49cM6J4OcAKAOiA1gNu6zl3xQShk2TiobzOt7BtF8CsQ7Qs/YdFfPFSISGyLqF4piOrSHSo83BupT++u31eMiELyOxLNCj9HoWeA3qiCwrYQWKqUeicsLOwTkqXOXigirQBsDeqOJZld2rkMhvMJYwAYDNWEmUOGRMTnHVsKoIu/k3ATktZ9/uq5zrFLh/aOD8+zxwO4yTMMIpT7us1d9e/yyLB+YK+GopAO4EYA3QrFCMLboeLrILpPKqJ7p8Cqd6n/XL9QmRdpf1u7dvyVx48f7yzkrQq8kUS9EpR/QJvkSQDvhIWF/ZPkvnN9JxGJBJANR4lkAI3IIrcZDIYLCmMAGAzVhBUpPV4D5X7A4U4Xub/7wtUTnONW9e82EFBvE2jkHyjyRLf5q54vy7qSAbVuZfdUwrobgmvhqy1Qwm8XpRTCWiYiqt9ARHTqCuWySlL2RdpKcXJ8fHy6f22RsJMnTw6BUndTMISE8hsAwd4B+H/OJ/mhZVl/PFdDQET2Amjs6GpzthsEBsP5jjEADIZqwLKU7ukK8jEAZ/m+13ouWPWAr7GiR48oK0b+KILHACjf//4Uyei2YNWfSrvm+oG9GmrILSDuAXB50RGOfH4ErEvrI7Jbb0T0ToGrdl2/a79Q2Qe3izUGxtWuXfu54uTJyclp6na771JK3QmwQaDyL9YYyCH5olLqOZInipvTh4isBNDd0dWbZHCCIIPhgsIEARoMFzhL+3dtQS3/KczcJxDh3HxEPuwbszKlezdQJmmNFs56AABfLo3ylwyodcu6p4LW3TbkOgCuwNzBAVUDwbAwhLXrjMi+qYho1QZQyhEBUFiUyJd3WARfE+wYeJ2vcFIRWV+SbFFRUd8D+IOI/Dk7O/smpazHASQWHzToeQTAU1rrW0VkNMkzBT4eC2qbQEDDBY/xABgMFzDrBnSumeN2rVREK0f39nzJ65GyaMPxrFGJ4b8cjc2A8HF6cwL4IGVit/mr72WJGfWd6/RuomnfBcFvQVzmncHxZyBW42aI6NMPkV16QcXEFLvTdwT5HVWKH9q2/XajRo02HDhw8DiJmsUEAWrLsurWqlUrWBkXi4jwdF7eUCUyjmSvs8QJCMk3ATxcXHCfiHwI4NeOrhtJfnwuchgM5yvGA2AwXKBkjhpl5R7e+xGBViJ+V/t+bemhKfM2HF/Rt0fbX37WkwB0gEPLexX2B936rL6P88+s/Nf079lFE4/YsEdCPL8v6H/Cs6g/q190NCKSeiCidzKsJpd7lGzJewytgZUKnETigwYNGpwu/Eh+BFizmJx+W89V+QMepQ5gBoAZubm5AwD8AyIdirlT6PtaRgPoJiIjSH4XNF3wusEFggyGCw5jABgMFygNDn3/vBBDfPtwERxVWg3eX7fJ98tT+LjA/jPACMBzLOAZRggwNU9H3lEkHbAXyYBatbj7MCo+oiF9i2TTdYylAFbjpghPGYDwTt2hIiIK9avTte919VNhr4h+17b1O82aNfuuhFf7SYDWhXl9PAl9FbCiLN8TAERGRs4Tkc4FBQW3APgLgMbBRYG87XYAVonItSRXOaY4HjRlRFllMRjOF4wBYDBcgCzr2/U2AX7nL+8rchrkCFJOXnb4+/kC9mNxSlvL3F+iat+UNmuWO3jOmUOGRNTKPf6rVUtlHBVaOX0GfvvB94flQli7jgjvlQxXq0S/a7/Yc30wXwFfkpjUuHHjqSSLrB3EyYBzf3jsAIGUK+iOnjwH74nI5Pz8/KeVUo/Clyo50Bi4FMA8EUkjuaSE6YwHwHDBYwwAg+ECY1lyt95a5A1HgZwcoYwA2doWPQtgLAA4Nv0+lkTUcF+bNn1WnnO+Vf27Xaqh7mfesXtB1PVn6fMH9RXu+VkzHmG9+iG8VzJUzVqeMcUoa297s5BvRYSFfdCoUaMjpXhF52z+v7TWZfYABExOngYwLj8//zOl1JsiSCymOnAMgOkiMojkahT9XWkMAMMFjzEADIYLiKW9u7bQWqaCCPeq5RyCY0TwMEXSxLvrdobniQAiWEO3a1jS9NX+s/alA7pcoTSf1FpuASUiKEbA7wAQAFbzBIT1TUVYu86gywWSnr290KGuBRSeoMJHSvHtK664okyFhLQGlfK6/v1H9PJDvXr1imQyLA/h4eGrRKSzbdsvAbynmCFxAKaJSBKAsODHQymLwVAVGAPAYLhAWNKn4yWaMgNAXXo0fR7IjwXyAoC6AAqVdqAhsDncJWndFi8/CQDLBnRuQtv1CGwZAzDCs2sPiBHw/OhywerQBWHJA2E1buKIlfM7+n2iiUCWUfBmbI3YTxo2bOgI6Cs9pCif38ERBLioPHOWvBbzANzrdrtXkXxdRKIY6A6oB+ATeAoCOTExAIYLHmMAGAwXAAuTE2NFu2YCSAD8VfNOUHC702EO+I/ePX3EjjALA7vNX3NkeWrPplrs38ON2wUICwiA8z0rAtapC1evZLi69YKKifVuwX3BBgGxffupMElEv92qZatvQvi68YVHCT5PgCwK4fxFcLlc74nIRhGZBaB+0MddAWctAwDGA2CoBhgDwGA4z8kcNcrige8+FCAJCDjTv0S8B/YEg0/OAWCfUq7BeQUF4Uv7dXtZa/fdBCKdRwPO+Xh5c4T1TYXVrqO3Ap9vF16o/AFogSyg4I3TOac/S0pKKgj1+wpQzxFH4DFORBaGep1gSG4QkX4A5gNoFPRx8I4/+EjAYLjgMAaAwXAeIwAXH9zzBsBr/H1Fg/u85+8A4Nuly09QuEXb9uOKvBOQCJ8ed8YIMDwCKqk7XL2ToS6t7wjzd0jgPOcXPbZtm7avV9wbAxDULXRjEAT21bv00t0VuqYXkt94jYAFAJqeYaj53Wm44DH/ERsM5zELeyU9R43f+lzhAapZgo0Az58UaIDboTFHIJ48AIGDgJo1YfVMhtWjNxgdU7jbLzmi33fu/3RWVtbHiYmJRyvifbOyssIBxDuS/wBSMef/JUFyt4gMAbAKnkDA4rArUSSDoUIwBoDBcJ6yoE+XpyHyGACfH9y7GXcmr/H8HWQIKEBSAz0C3nH1G8DqmQyV1A0Mc6FIrr2gNsl1AJIcdkB9rfFPAL8N/RsDcXFxTX0uB58BQlXx7v9gSG4TkVsBTEXx2Y7PlsvAYDjvUWcfYjAYKpv5PTs/AJE/AUGJ+sWTtEaCMvh6r/ohaKhnnAjY9ApYt46G66FxYLeegMsKuOYH/+X/gPbanJyc/gIccH4O4vasrKz+IXxdP5ZlXeGXwfuH1npRRax1Nkh+DuCdEj42HgDDBY8xAAyG84z5vTrfBeJl8WhwAD5l7sCTGe/MhoBlgR27QD34BNSYB8FWbSB0RtYBAmSXoPw1ibHdu3c/IZC/BC1OEUxct25ddMhe2ovW+opC5Q8A+L5+/fp7Qr3O2RCR1iIyBcAdJQwxHgDDBY85AjAYziPm9066CSL/hi+Uz5dWFwh05QOOq37i7fMq9/BwoHNXoHcKWLuOf+7C63sCEMsBNZ5gS4g8XbT8Lt/p0KHDGgCwCwr+o8Ii/g9AgiP5T/PIyOjXAdwW0i9AqSud9wxJVanufxG5XGudISK/IWmdYajxABgueIwHwGA4T5jfo/Mo0TJJxFm217HPF2evo+ltSGQE0KMP+PCTwLDrwfjafneAd+xp0fKm1qpj9+7de8fGRk8R0aOd03jHHwP0k75+z1U//ZQ4PAUAAMqtWVnb7g7V+3uWlzYOaSrN/S8il7rd7le01jvgMWrOpPwB4wEwVAOMB8BgOA/4skfnUUL8F97/J4sG9/mMAAbc1BMAiIkFu/YEevUFIqMgLFKEdxfB17XtfqdPnz7+srYnT578Faka+OYpDAKUJzt16nzYOUH79u0/2bhp0+cARhSOBwB5eevWretat269PgRfAyho76wAiApOACQitfLz8x9zu90PkYwJrhDoGwagAIHJf4wHwHDBYwwAg6GK+bJHx5sIeV/gcTkHX/UDSjAE4mtD+qQAnZIAV1iw0tcQzKLC+F69es7xVsILgOTDnhkDkv0s7NSp0xvFyemyrHtsW/cWoI5jfKQIJ2/atCmpXbt2x4p77lzZvfvgpYD7Ur9Mgt0NGzb8vjxzloSIRObl5T2Qn58/jmRtb19weWAhOR1ABoB/w5MR0IfxABgueIwBYDBUIXO7d0oXYBIAy++up7OUj4cAQ6BWPKRPCqRTV0+gH+lMCnCUwNuKeL1Pn94lJs9ZsWJNfxHp6E8g6LECTgMymqQU90xiYuKBjRu3jCXlI2dyIFCucLnCP9+3b9/gxo0b55T1u7Asdztn3AMVFpV1rpIQEZWbm/ub3Ny8v5BoUtgfeJUSwAySGSS/8j4XnPEwDwbDBY4xAAyGKmJO9043C/EeACswuK8EQ+CSerD7pgBtOoKKgM/V7wnaWy/C8RERYR/17NnzHJSw/qO/nI9f+/H3SUmdvz3TU+3bt/nf5s2bRwC40bO0LyhQ+pw8mf2RiIwkWSb3OGm3Fyh/8iEJcfrfU6dODcrJyXkeYHs6Mhx5Xt/fnmnbKiM8nGuDHs8Pap8IpWwGQ1VgDACDoQqY3b1TOoB3RWAVOdNHoCGg612qpWc/Je07glRgYUGePAg+Edjj+/cfsPJc116+fHUqKX3gW8NjaKxMSur0yrk8r7W+SymrpUA6MNATMGL79u2vAyhTYCDJdoUtgdahOf/Pzs7uKCLPkRxYUsIjEcwBkBEWFraqhGmCDYCToZDNYKhKjAFgMFQys7p6zvwBWIXBboFp+AWA1K2Xp5MHREirREWlvOfTAgH3KXAiIW8OGND/YGnXJ+WPQYrwtFL8bXFxAsXRvn377K1bt15ri6yF4BLA77gHwNHbtu042bJli0dLOkooCQHaOzbmOxs1avRDaZ4P5tixY00ty/qL1vpmksoTVxDk6xeZoyzrz2FhYStKOb3xABgueIwBYDBUInO6dbxBAM9VP3/CW8BpCKBmzZM6eUAN3bZjBBR9gWkiWhYK1PjISNe0lJSUMgWhLVu2LEUgfemo6yvEY0lJSdtLM0/r1q2/37Rp6w1UMleAcEccAUj87ptvvokVkXvP1ajIysoKh6Cl40xjUenerJDjx4/HA3iKVGMBRPo/cHr9RWaIWH+Njg5fc47TBv+uNAaA4YLHGAAGQyUxu1vHkRr4iL7/73zX6n2GQGTUcXfKgBjdqWsNUvnS+J8kMMl2q/HDhg3cVp71RYTLVqx81nnuL8DM7l26lKm6X7t2rZds3rz5JlJ9DKHLWTQIwrt37NgZu3DhwtvOxViJiYlJBBDu8yWI5pLSyrNnz57I+Pj4sQCeAhgfqPEBUjTAz0TkrzExMV+Xcvrg35XmCMBwwWMMAIOhEpjVpf31Io9+PvsAACAASURBVPIRSFfAOT8AcbkOu5MH0U7qWpeW5XWlyzYC490FBZNGjBgREmWzdMWKXymwq0P5H1KQ35bWVe+kbdu2n27ZsuVWkO8DsByZAkHi1w0vu+ySrKysG89ePVB1DLgBQH2uO3OIiDp27NivAfxVRJoCRFCQnyYlUwR/i42N3VLGVzUeAEO1o7gqVwaDIYTM6tL+eiH/ByDMH9dPAFRH3F26/Wz3G3AVwlwgCYIgOX3YsLQR5VHMwcycOTOiRlytbYQ0Iz3HCiSu6dGjx/RQzL9ly7bbqOQtkpb3HbxGAEFwF4kRCQkJW0t6fu/eva8BuN9zs4FHGzW6rO65vP+RI0cGAngeQAfPmr7vECDpBvkRgb/HxcWV6ogjGBHZAKC9oyuaZJmvPBoM5wMmFbDBUIFM79r+OoFH+QP+BLe5iI79R84jT8a6UwdfJa7grLP67VAqfwCIqVFjLCDN/CuAE0Ol/AGgTZtW7xG4AYLTgD9dke+FrwSwcteuXb8q6XkR6ViY7phrz/b+hw4d6nDo0KE5WsuXItLB/6jnjwIAb4lIy5pxcbeWV/l7iXf8XGCUv6E6YAwAg6GC+KJr+2FK+D8BwgoL92Cem2yX88DDH8JyRQRU8/NU+MvPycmZF0o5lixZcgnB3zvqAuzIjol6JJRrAEDr1q0/A6Q/gMO+heD9QYA4Efxv165dk3bu3BnnfE5ELAHa+8aTUqL7/8CBA80OHjz4vgBfARzkqF8I0cgD5HUACbVq1bqrVq1aZ8xpUEqcBkC5Mh4aDOcLxgAwGCqAmZ3apUIwGZBwABDgqBaMSVu9YdDw1Rt2ilg1i1H+AGRTenr6qdBKw+cgEu9dpoCQWwa3b58d2jU8tG7depXWdk8INvv6ggoZ3UKlNu3evfsaX8f333/fAoIY32g3sDp43kOHDtXfv//AqwC2C/AbSMDvrhwIXgF089q1a98XHx8f0vTBIhImIrGOrgOhnN9gqCqMAWAwhJgvOrfrphU/E0GkAALK+1pbVw1bu+ENX0VfEanpf8CpIcldoZRl8eLFPUXkdv8KxJ969eoVnOUupCQmJu7Kzj7VncS7wRUEva/aVASf7969Z9r333/fGkAn36cCIMKy/B6APXv21Prhh5/+5nbbuwAZCyDc4Vk4BeCftm03q1u3zkN169b9sYJeKR6B8VKlzr1gMJyPmFsABkMI+aJz27aanEmgBgQ7lZZ70tZvWhA8TpQOC7iLD6+G0QiZAZCZmWmJYDzpz667bP+PPz4bqvnPRFJS0mkAd2z/5pslELwMoEZhsiAPAhluaz2U4D5Hbp49DRo0OPzTTz9F27b9AJV6goD/Sp/3PU6J6FdtW7/QsGHDnyvhdeKD2sYDYKgWGA+AwRAipnfokKChvoQgSsA/qV+y2xan/L348+U7jwJEEDL3dd169e4H0MHbPCHavjU9Pb1Sy9i2bNHiHa3tdiLak9ffERfg/UsBaFpY5VDW7927917btneBfBZSqHwFyIbwea3tZvXr13+qkpQ/YAwAQzXFeAAMhhDwWZc2jUXruYBsJ3Dv8HWbzxZ5bnvy5Th2xQKIkpCUmZ0/f35TCv7q9y4QD/Tr229PKOYuLa1atfpORPrv2rXrHgB/B6SW776/L/NfYZvXARjpLQfs+/w0wH8r8rn69S89VNny27ZdWynlLBdsjgAM1QLjATAYysmn7drVU7b6gMTTw7/anDr8q7Mqf1iAu/ggQATfCSw1njL2aiKAGp4VmNmvT59J5Z23PJCUhISE1y1LtRRgkvOeYGCQoChHOweQl/LDwpo3bNjwkfr161e68vfSUEScbeMBMFQLjAfAYCgHmZ0711SSfzMZPnL4uq/O2SXtdvOosvw60L/dVcJyG+ULFiy6jcRg7wb6B0vhnvLOGSq01kLPNboCAOFBO32fJyBfgImAfrZx4yY/VaW8ACBko6CMacYAMFQLjAFgMJSDmgUF7sGbNr9Y2ucsSx+UYoIAReSS8sizcOHC+lrLC+LJhqe1jdv6JPep8nvrWVlZsVZ4+P1a5CmCcZ6SxoFBgQ7ClIKcOHGyss74zwhFGgdUEDQGgKGaYI4ADIZyMHjTpjLdp7dt2+/ODjgKgFxVHnlsW78h3qA1Cl/o379fSUGIlcK6deuit2/f/oTL5fqeIs9C4E0C5Pd+nPT94HD9U0QerBEXt3Tv3r3NK13oojTy/eA9CihXmWKD4XzBGAAGQxWQnp6eQ+Dn4DgAAC3KOufcuXNHAxjubW7Mycn+f+UQsVxs3769xrZt28bFxMTuAfisALUd5/wiwGyIpJF41qH8C7yf+9pdSa7/4YcfbqmKd/AhIo28fwPAEZK/VKU8BkOoMAaAwVBFaEFhZTpvEKAArRcuXFjqo7n58+c3B/iCV8fmEnJzWlpaXsiEPUc2bdoUn5WV9bRt6+9E8AyAeo5kQCdJvGbbdquEK68ccuWVV84SkU6+nb8IniIxToA8h10UJ8CkH3748ct9+/YlVPb7AADJRo4YwCq5SWEwVATGADAYqghCPAZAYNmbuGPHTvYqzTyZmZmWbev3BIj1zvdEampqVojEPCc2btxYb/PmrL9Rqe9E8CcAtT2iCCD4EZAnXC6rcUJCwgMtW7bcAXhuKwjQ038aIGpR06ZNn1NkEsCvHccEADBQKbVp//79f9y5c2dEZb2XiMQJEOevOSCyu7LWNhgqGmMAGAxnQEQoIhVSNlsEW4IuwwECWBbTSjNPzZrx4wTo5Z10Tv/+Ka+GVNAzsGnTppYbNmyaSKrvBfIUAH+hH4FsIXCH1vYVLVu2fL558+YBrvM9e/a0BdDA2zy+d++3GwCgSZMmWw4fPthNRP4sKDwWABCpRTJiYmK37t+//1YRKfeVybORn5/fGIFXAI0BYKg2GAPAYCiBSZMmxQCeO+wVMb+IvRQIDgIERPQ152p0zJkzp69AMrzNn23bfUdFyetkw4YNKV9v2DBda9lK4m4BIuF39XMRiaGtW7Vq16pVq3cTExPzi5vDrfXgwt2/np2SkuJPgpSUlFTQtGnTPxJIArAKCCiZcAWA9w4cPLhl//5D6SJSYb/HLMtqEtRljgAM1QZjABgMxTBhwltXARWn/AEgPT19q4gU3nMvjANoOW3atMFne37OnDn1tOAjeK/zEnLP1Vdfvb+i5N25c2fE+vXrb/nqq6/Xa5EFEAyD9xo/IDaEkwHp0qZN65TWrVvPPOt3pzHK84MAwPTihjRu3HhTo0aX9dLkWIgv+M4fJNiSlI8PHTq04cChQ3fu27cvKiQv6hRRa78BICLQWhsPgKHaYPIAGAwOMjMzraNHj6aS7uW33nrn6QpfkFwAT3nbgLTAIupxALNLeiwjI0Nprd8HVUPvA58MHDRoSkWIuHr16mZKWWN++eXEb0FeQgog9NXHOw3R75DqhXbt2pyzcty1a9eVIugCAALkEPiipLEkNYDxe/funepyuV4W4AZn8iCAbSl4MyIi4rnDhw+/5XK5JoSqJLCINCEJEYAEXC6XMQAM1QbjATAYvLzzzjuRh48evaF27doLxowZU/HKHwChpwdVzPU2dMrnn39eYjBg165dnxRwkHf8EctSY0Mpl4io1atXD1u9eu0XpNoF4AkAlxTKh8MAM9zugqYdOnQY265du1IpRtuWWzxTCUTj0+D4gOJo0qTJTw0bNhwlmqmAbPQH5hUOqQPgcbdtf/vzz0fmHzlyZPSJEyfqlEauYEg2caziBrCvPPMZDOcTFRLcZDBcaLz44ou1wsMj73C51GtjxowpqKx1MzMzo5Ry7QdRkyQIegrOECC5Iz8vt2N6enqO85mZM2f2E3A+ScvjMeAtQ4YM+iAU8qxevbqZbcstSvEOkJd7RPHJRJD4FqJeAOx3vSV/S83ChQtdl13W6DsQl5GEIgc0b958fmnmEBFr//79d1GpvxC8xCOeV0ZPFkRfu4BQ85TCpyIyLz4+/rvSrJOfn78YQF9vEaAdYWFhLUvzvMFwPmMMAMNFz6uvvtpQKddDtl3w9IMPPljpd+c/+WTKmyDv9BkAXuUPr3J85Zprhj/kGztnzpx6Bbb9NcGG9OTTnZGWdvXwM81/NlatWhVXoPUNCuo2QvrQszgClb9aqyj/2L1796flLSm8Y8eO60h+Cs/7fde8efPmXjd/qdmz51it6Oj8JwGMBRkdpPyDjQEQ3EVinlJqvsvlWhMVFbX3TPPn5eXtIXm599/HFJfLdUOZXtpgOA8xMQCGi5rXXnuthUD9C9A3VYXyBwCt+a6ycGdx5YE15IHPP5+xdsSIYR9kZGSoggL3ByAbegoH4BSg7y3LmuvWrQvLzc0dIMJbCtz2tSSjAA2QcByvayrMsIkXe3TpvChErwsAj/qKAAn4blmVPwA0axZ/HMAThw8ffklr+b0Ao0lnkSH/2/iKLl0J8EoRuaegwI2TJ0/+THK9UuprrblJKdkjIt/FxMTsFxErPz//Mt9aIrKlGBEMhgsW4wEwXLS88NpriS7hVEUZNnbs2G+qUpZPPpmyHGRP384/wBOgWKCAMYC6DMRfCo8KZFxaWtpz57rG9OnromPisq9WwutIDCUZD/96jl0yeQyCtyyLE7p16xbSa2/bt29PBTnf61nQtu1q3qpVs+9CNf/+/fsvtywrg1Q3k3T5d/8OT8A5tnNJ7CXZwve5Ukx3uVyTQyWrwVDVGA+A4aLkX6+91sLSMpeUe8aOfaBKlb8H61lATwNQWBrQh0aYEG+DoukvHSjfnDp16qxVCBcuXFhXaw5RSq4TnhpMYbTvs8Kdvvh2/psV+Fp4mOuDsp7vnw0Bfu/blJOYFkrlDwANGjT4DsDt+/cfywgLs38H8E4Bop1fp2f5wi+5hHYkwBbOz21bGw+AoVphPACGi44XX3zxcirXUpLTH3pw7H1VLQ/gyTg45dOpGwi2cwQBBgcF+s+0lWJaWlrarOB55s2bV0dr3RdQyVRMIdmG3u0tHbt9RztHEVO0Vm/27dtzcUW+47Zt23qCXO57J6XYMyEhYWVFrnnixIm6BQUFY0neT7JuCXEBQe1CT4A3+A8k88LCwmJJus+8osFw4WA8AIaLimcmTIiXfPcXBMK0XfBUVcvjg6R8+umnD4tgvsARBwDPVbmANjE9LS1t1vTp06OVimhN6o602IFAb9vWbUgq/3DfBXYEtgl8JZC3tNv9Ud+UlOOV8Y5C+nf/Ilhc0cofAOLi4n4GkCEizxw7dux6gneD0s//pRQbJ+CQufDr22GUv6G6YTwAhouGjIyM8LiateeQSIbCbx5+8MEPq1qmYD759NOPCaYXdyPA0f6GZA2CDTzH0wzwDpTcxs8APwKst1JT+2yszPfaunVrd4Ar6AEk0q666qoiHozK4MSJE1dprX9LqhtIXHGOcQH/DQ8Pv7kq5DUYKgqTCMhw0RAbV+tlQJIFsuL/Hnjgv1UtT3G4lHoUYG5QeYCARPgAWkDQIKCKgPfzom3ZD8EEiO7/88+H66emJj9Y2crfU1AJL8J/uUA2tmjRosQshxVNXFzcjlq1aj1Rs2Zcc6VUBwB/EmA9IP4dfnCKISHN+b+h2mGOAAwXBf944YU7CNwDAND4Z2UUzDlXMjMzrwSsVCr2d9s6hWCkJyjP6/r3uc3hzH7rOBgo0uZ3AvmMxJTly5avyMjIKPM1u1CwdevWXwPs7hFVQMHz58v3HxsbuxHARniOCWJyc3OTNDCOIlc7j07EttdXmZAGQwVhDABDteef//xna4ia4PGgy7eXNWo4rSrlef/9KQ2scHd/BaSCKhVgU/j1oe9o+ixxAHCe38kPArVSQRYocv6gQQN2VsZ7nAvr1q2LFsGzLDRgtrZs2fLjqpYrmGPHjtXKzs6+XSl1DwRXBcYBiERERKytOukMhorBGACGas3EiRPDTpzKft9zrQuwoV4ubya70vLhhx/Gi6hkWkilsD/obuWJO6MnGU5Q8p9StL8npHdaWtoPlfk+pSEiIuJxAI08LYFo9RTJSv3+z8Tx48eTlFL3krwRQLTW4t34+4oyASR2kTxalXIaDBWBMQAM1ZpfTmY/SaATKBChDV3wUUWvOXHixOiIiJjeSqE/yFQt6EiKBU1vEb1Cn35hUT2U0D6jMdBUCwcDeKui36ksbN68uTHAxwC/6395YmLLz6taLhEJO3HixEgRPEyia2E/QMeNAF9bBGuqSlaDoSIxBoCh2vL88883h8iT8JVzBdY8+uijP4d6nYkTJ4a5XFHdaCGVkP4kuxMS7lHVwcq+xPZRIVYC0ohg+yLJgIpPawsQz8+ZM2f64MGDD4X6vULAeADRHuVPgBhXlcIcO3aslojcffz48bEgGxc9Uik+ORBJ4/43VEuMAWCotgjUSwQiRcR7lQshuXaWkZGhGjVq1F6EqVTsT6g+oI71b99L3Nn7lb0IZQeAlSCXK8jKUaNu2LZo0SLryJGjux3DziUIsHZBgX4BwG9C8W6hYtOmTb8WwXAUfg/TEhMTl1WFLIcOHbpSKddDWuvbScYG1wkIsq02CfCTMwhQa208AIZqiTEADNWSvz//fC8Aw5yZXEgpswEwYcJbV1mWO5VUqUKmaGEd+jfjPrd8ifvI0xSsJblcNFe67fCVt912/ZHgNT7+5JNhCmzMgDkBABsFyCMc7moUGhgkbp45c+aXaWlpk8r6fqFk48aN9UT4MnxGjyibCpWedOngwYM9lVKPAbwG0CpQ2Qco/3yB/hTg+Bo1aizLzs4e75imICoqakNly24wVAbGADBUSxT45yA1ap84cWLTuT7/yiv/aWRZdiqI/opMBe1GAv9RQqEC8dsXAdv0fRBZLsRKiqxo3LjxhpSUlLNmkaPIfQCLVgQU/B6wtlhh9noIahcXFwDw9S+++OLroUOHbj73b6liEMEroNT1XkmEQP6dmNgmq3LWFh48eHAYycdB9nae6xdTIfAHAhMtS70ZGxt7wDFNu8L5uJlkTmXIbjBUNiYToKHa8cwz/+pIpdcDATnd9zz26O+uKOmZ1157rY7WTAGYqhRSQVzlPf/1HR8guO3JzMcCkl8rYqUIV2jtWjF69G9KHZX/v//9r4VSru3wJMpzZv5bNvL66/oAwOeffz5UwOn+bHpFM/99A+guaWlpJ8r41ZWbr7/++lpSTYX3+yF50LbdLTt27Fih6YazsrLCa9eufRPAx0gkFmbyc+T597QFkAVKqQm1atWaFpzeV0SYnZ19jGRNgFCKr0dFRZ0X9SIMhlBjPACGagfpvl+ksJALAIiWXc4x48ePj83P130ApFJJf7ct7Uko/331ksPzf4bISoArbSXLabvXjRkzJgSV81wP+GvyOYIERdHvOh8xYsQXn02b9v8A/K2EZEAtQE7OzMwcnp6enl9+mUrH+vXrLwE4wbnJJvFYRSr/w4cP18jLyxtNqodF0Chgtw/AcQzzC8FJInpC3bp1t5c03/Hjx5uGhYXV9D0lgqUVJbvBUNUYD4ChWvHCCy9E5eYVHCIZ66zmBvIti9YkQPcHmUqyG8mwYqrjOdua5DZCVgqt5RRr5X333bkj1DJ/9NFHDZVyfQsiMrACIGfeMPK6ocHjP/98+lskfwuHpyDQE6AyV69ecVNlZgAUEa5fv2E6FYeycPe/uF27tikVkfVv9+7dl7pc4Q8qhXtBxp+hwt9mISdQ5IN69eqdOtu8J0+eHAnyE8/XSZBsFB0d/WOo5TcYzgeMB8BQrcjNLRgMItbfUVj97k6BvrOIxSsC8Sl94BQgazS4XAlWFhTkrnz44YcrvFIeaT0pkMigzH82RT9Z3PgDBxrcU7/h/iYEBxSOd1rzOr1r955HAdxbcVIH8tVXGx6kwlCHt6RARN8fauW/b9++K7WWR0jeTkqkgMXdjswHZSqpJtSrV29JaeYXke6+oksisjMmJsYof0O1xRgAhuqFQpqzkE5QytzghLrfCblCASsVZfnRo0c2Z2RkVGrJ1w8+mNJIYN8VnPxHgW/ccMMNxQYtjhmTVDBnzpxr8woK5kDQq2hQIEDIPbPnzJFVK1eOrWhPwNq1azuC8pxnffquML7YsUOHkAX+ffvtt0mWZT1u2/p6kpb/36XjbqSAPypgostlvXnJJZfsL9tK7O77r4bk4lDJbzCcjxgDwFC9EPbx13Lz3v/3ki8a66GwUoHL3QXWyieeeOCnKpPTCy33OACRgcmBeCw/P/zpMz03ePDg7JkzZ6bZtswD0AVAMcmCeG/Pnj3rZGZm3lJRMQFZWVmxp3Ny/gcgAoXn/ttPnz6dEYr5d+/ePQjA4yD7O29cOJS/ALJQU01o1KDB58FBfaVBRMJOnjzZuTAToBgDwFCtMTEAhmrDs88+W1MLj8F3U89xrg/hgCeeeGR+FYsYwPvvZ15pufQWkhHeGwUgAUX14KhRI189lzlmzJgRL+Bsgl2DbgQ44gIwNzcneuSIEb1Phvod1q5d9x7IWx1n5m5tqd5J7duvLuucCxcudF12WZNRloXHAXZw3CjwnvEDBE+QnKS1PeHyyy/fFop3+eWXX7qSXO2LI7CUahIdHb0vFHMbDOcjqqoFMBhChZtMQDFGrYhAKR1XBSKdEVr2S/DtnAF4PRdbjx79+d/nOsewYcOOhYe5Ukn5MvCwXRwnIRwYFZWzbt68ea3LLbSDtWvXjhXgVjhWEsHzZVX+O3fujNixY8etjRo1yiLlvyLo4Jzbu8IOAuO0tps2adL4gVApfwAQkYGAd0WR3Ub5G6o7xgAwVBuUjSZFOsV3HKBqVrY8Z+K///3vcAL+CH+vuhZN3D9mzJiC0sw1ePDg7Ojo6BEEPvNOFqg2RSBACy1Y+eWCBdeEQHysWbOmnxa84FxMgM1xcbF/Lu1cO3bsqLtjx44/aq1/APmeCFr4ZvR8KygAkAlI8uWXX96yadOmzzVr1qwigjMHepc15/+GiwJjABiqE0WUvE8RCnWtSpalRN55551ILXgJQKCyFrx906hRi8oyZ0pKSm529qkbCLzq3PsHbaDjaOvP5s+f/0xmZmZ4WdYBgOXLlzcVwWQAYQ7lXyDavi0hISHvXOfZtm3b5du2bXtFa/lOBBkC1A0S/ScCGZalml5xRbNfNWvWrMKU8qFDh2JJ9hCvxQFgUUWtZTCcLxgDwFBtIBHlbIs4XdOMr3SBSsAVHv4EgCsKlb8AwEGl8Hh55k1PT7fT0oY8COFYAG7f9jnwhAHUgnG169RZtWDBgsTSrrFu3bpo5XJNFeASv3fFs8pTXbp0+fpc5tiyZUv7LVlZH2otO0XwAIAYCXRbLAIk/Zfjxy9v3rz5ny6//PIyRvSfOxEREf1EEO47ACA5t6LXNBiqGmMAGKoNGiwxIx9FJ1SmLCUxadKkNtB4Mkj5g5D/S09PPxqKNYYOvXq8aAwn5Xig8ncaA+wognXzFiz4XWZmpnUu84oICwrcb0PQEU7jCvi8S+fO/zrb81u2bEnZtGnLLAG+huDX8N5C8ir/kwBfV4ptWrRISElISJiclJRUqqOQ8qC1HuT7WUQ2xMTEVLjRYTBUNcYAMFQbFPhLcf0iAg2WercbajIzM8NBTgIQ4VT+EMy88cYb/xfKtYYOvXq21joJwEbfIsUECUYS/FfdS+qtWrBgQeezzbly5crnBfhVQNAfsCc/IvyOkhL+ZGZmWl9v2jRq06ZNa7SWBSCuRkCSZdkGkbEul9WoZcsW9yUkJFRK0aBgSA70G2Pk7KqQwWCobIwBYKg2aC3fF+317bBxVUZGRpXmvTidm/s0wI6BvTxOyj0VsV5aWtq3kRHh3Ql5KzgoEIHtJKXUmgWLlkyaN29eneLmWr58+X0CPuoZ7+/OE22P6tOu3bHg8du3b6/x1YYNdye0aLGVWjJF0MVv9Ag0wBkkBrZu1SqxdevW4xMSEqqsgNGRI0caiUgrR1eZy0YbDBcSJhGQodrgcslOW0PDYdgWJo9BRHhs7JUASiwEU5FMmjSpm4BPODL1wZv8Z+xNv76pwq6bpaSk5AK4a/aXX64C8CIEsYVVi+H/grRAkXKLyxU2eNGiJRki9n98JYyXL19+o4CvOsd7c+U91L1796+c661evbGZy6UfyD6dcyeJOO+lfS9yAKL+Y2v3xA4dOpxPKXYd7n/8EhdXY1VVCmMwVBYmEZChWvH3Z57bCEc9dwCOZEC4e9y4x/5T2TKNz8yMjcnJ/YpgC1+yH2/Rnsm/+c1N6ZUlx+zZs69UynofZPfiiwg5iukobqfIOACnqKyZJMODPn+hR7duj/jmXrt2bS9APUziWpIWHPORXEZivMvl+jQxMbHSqxSejWPHjn0CYKQn/S+m1KpV64aqlslgqAyMB8BQvRBZDLJd0W4BiGEAKtUAEBG+O2nS2xC2CNz5ywFlSaXWmb/66qt3LVy4sE9Bgf0UgD+A4gosJ+zwDGi0BPkZSBuA5XSlgJjcvWvXxzZu3BiTk5N/MxXuFUGHgFK8ItlU/FBra3znzm2LrWlwPnDgwIEYERniM1gAmPN/w0WD8QAYqhV/+9tzKVRYENzv3Ylm5+Zk183IyMitLHneevfdR5Twn4XlhuHNYs9ht95688zKkiOY+fPnd9WC90m2KKkksn+372yDy0h5kLTuIHEryJqO8r8AuYOQ1wG8m5SUVGxQ5vnEkSNHbgA52ecN0Vo3rlOnzg9VLZfBUBmYIEBDtSIhodkSQEo6X46JjI1NqSxZ3n777X4Eng2Imff8/VJVKn8A6N+//xptuzsJ+O+AhAkAnPf7g9viOdf/CpAHBKjpDeqzSXwGyKCkzp1aJSUlvXwhKH8A0MANviuSADYb5W+4mDAGgKFakZ6ebhOcWOIAW26tDDnee++9ywT8GNp3zOa/jbA2MjJiXGXIcDYGDx6cPbB/yr0k/lGcsi+uTZF28NYcBGBD5FnLUld06dLlui5duswt6Trg+ci+ffuiLGft9QAAIABJREFUKBjqeNvPqlIeg6GyMQaAodrhcqmJAE4F93s3utc///zz9Sty/UmTJsW43fZUCC4Nuu9/HJBfVVRp3tIwd+7cmnPnzh87b978LVq8GQgL0/p6fzizMQARC1CdAVRawp5QEhUVNRhArKNralXJYjBUBcYAMFQ7HnvssUMQvubsc3i5wwXq0YpaOzMz08rLd39UeO/dJwCgKaNvvfXWPRW19rkwe/bsTnPmzH1DhD8C8qoAiT75gtIG/+zvBorLHeD7YaDb1htWr179axG5oGKKRHCDIx/jd/Hx8eeUythgqC4YA8BQLcnPD3sOwIHiPhORe1944YXLKmLdY7+cfBkiwwPO/QUQ4Su/ve22TypizbMxY8aM+FmzZt03a9actaD6CsRoQGKKyQz4PcFnFdFORMYXN1eQD8DXrgfww7Vr1y1YvXp9+4p6j1Cyc+fOCECGAf7s/2b3b7joMNcADdWSjIyHjz/zzHOPCvBB4CcCgNEFBfoFAL8K5ZpvvPHmo4Dc779a571Up4GldkFOhXkdiiMzM9OKjq4xQCncDvBaASJ9t/iCrvQdhujJVOq/KSnJK3xn+IsWLX4jOFlQ0RxGCL5CmExlf7127dqpSqk/de7c+by9/lerVq2BAGp6riwCVGIMAMNFxwXlsjMYSsvfn3nuvwBuAnzX2ByJgRSue+LRR0MS+PX6G2/cqMAPASr/dT9Psp0ftXZ3Hj169MFQrHM2pk2blkhaN4O4hWSjosl+CBKnQPUZLP43XKm5vox/PpYuXRrvtvVhklbAdUCoMUqJAHwaZKMzXhckBcQCinpt9+6d09PT0+3KeP9z5eDBgx8qpX7tSf7Dg3Xq1L6MnpwHBsNFgzEADNWajIyM2PCI6LWAtAQKlb/XGDjistjxkUceKVcq3gkTJ16rwEyCYUH3/fNEmDx69B0Vmlp26tSpl5OuG0ncRKJdkLL3Ked8ArMBfuR2508bPnx4iZUTFyxYnE6Fj4OU+/fRUZEJSUlJBQsXLowMD4+6H5BxSrFusPIvNBj87f0ApwBqcseObZeR1BX5fZyNQ4cOxQI4ADCGJJTif+rUqXN3VcpkMFQFxgAwVHv+9rd/tKHSqwFEO5Q/SEKRG7V293niiSdOlmXuCRPeGEIlnxEMD1L+EKXuvvvOOyok8+CUKVMaKOUaqSE3KbIHQXoUL5zKPw/EPMKaYln4/Oqrrz6ncsMLFi6eTWBwoOdA7uvbt+/rznGrVq2KE5EHQeteQhoGKP/A5ECOttoPYIpS+OTIkSPLg70PlcHBgwdvBvmBz0CyLCutdu3apgCQ4aLDGACGi4Jnnnn+JoF8QFIBQZ4AwfzTp2OvycgYU+KuuDhee+3f/ZWFGQQjg5U/yVdGj77zoVC+Q2ZmZhNa1vUKHAmwJwhVmLnPr/xzQM5WUFMiI8NmDBw4sFQJeb5cvDjBpWWHZyrfTp4/ZmefbJ6WlpZX3DPr1q0LKyjQ1yslY0HVu2TlX6R9iuRyKC6G1ovz8vLWJiUlVfiVwoMHD84EOMR7TPNL3bp165Gs8quZBkNlYwwAw0XD/2fvzOPjqsr///mcO0laSumWZu69MwmhtGwBBAoIyL5TpOwFQdkUEFkU0J+7IuIXFAQUkF3cEKiAILRWQMsuCgURu9BSCO3MvXe6l7a0Teae5/fHJOkkTTJ3kpks5bxfr8CcO88955npzDzPOec5z3P99T+7CMRdaDFurQa7xRy9EIZNJ37rW9+KZDB/+atfHWRB/ZXEsJZ95Px9/+kjR24zuRT73lOnTt1RhCeBciqp9s7N8/Nm+rnx1oKcpiiPDRkyZPoxxxyzrqfj/f0f/7iZ4JXt9/V58SGHHHRPlPtff/31PQFcBPB0kGOKcAZAch2If0L4hmXxTcuy3hw/fvz7pUwuFARBDcA0yRgJQKnf1FRXn1+q/g2GwYRxAAyfKH5y/c+uVMTNHbcCWszqu6RMvvrqq+d318ftt991FKj/TDLP+Lc5E+80bRx64BVXfL5H9e0feOCBIVVVVYdCqUkEJxHcHu2di1bjv4qKT1Gsx1avHv63888/rNf1DWbOnLm11rKI5Ki8ff05IvpTxS7Vv/HGGxUi6khSn0mqk0Bu08HYt1QKLtherRTfAvgfIWYrYHYsFpu73XbbrerJa/R9/zJS3db6fopYx8TjY57pSV8Gw2DHOACGTxzX//TG7xK4DtgsKBAk10Lhyq9feeV9nd17222/OgnEwySqcsa43dJ/JhtTn77sS1/6sBh9HnzwwW1DkeMUrONBHE62xCogb5aca6eEnEaLTyCb/UepMwo+++zfr1GKP8wP6gOsEw477KCne9PvzJkzh2yzzeijSH0cyWNJbhfR+HfXThOcS3IOiTkA5mWzQ+ZMmOAs7U4X3w9eJbF/S2GjTE3NWBP9b/jEYhwAwyeS66//2UVUvCO3FNxhJYCEgM8hxq9+/Yor5rTec+ttt31eQT1AItaJ8f9YKRx+8cUX/6vQ2NfMnBkbt3jxZ7RWk6gwicSunRh7gAwJ/BsKT1vk9ClTpvynXO/HzJkz7TDUC0Bu3Tq+UvjHoYceekSpx3r77bd31MBxCjya5Gc6rg60D2Qs3G4LVsy1l5OYQ3IuyblKqTkA3nVd98NMJrO91noBW28S/tK2a0oap2EwDCaMA2D4xHLDDTcdA4WpCtgGecY/t5JPkGym4u8ltK63LH0kyDtIqrznW41/llQnX3LJRV3OlO+7777xtKzDCHUUiaMAjsyPG8iLI8gwF7k/AwhnnHXWWcv64r145pnn7qLixXlxBU1aqz2PPPLgOYXv7jlTp061GhoadtMaBymFAwF+BkQiorEvpr2W5EoSta3PA7KfbdsFHTaDYUvFOACGTzQ33HDzblR6GsnadkGB7ff1Q5KKLSftOj4vUBde9pWL220Z3HvvvUlAHQ7ycACHkazrMLtvNf4fE3wJCs+KUs+e87nPvVPKoLcoPPfcc7uI4G20rIa0rIf85IgjDvteX+rRyrvvvpvIZmVvEvtQYR+Ce5Mc3Qvj31l7YTxeM6Gv32uDYSBhHADDJ54bb7yxRqB+S/JYAB2Nf7dtgtdceuklP7rzzjtrSB4mVIcR6nASE1qXtTss7a8D+S8CL4nFF9euWvXKFVdc0enxur5g6tSp1ogRo16i4v6bZtpYOHTokN0OOOCA9f2lV0fmzp1br5TaA1B7KMU9Se4Boq6nzgAgP3Yc5wf9+6oMhv7FOAAGAwAR4c9+fstVCvg/kpWbxwUAnRj/+SBnkDycRANbLH3e8wC5TJGvCuVFaPWK1k2zLr744gFTPveZZ565SsCf5xl/AdTRRx552HP9rVshFi9ePLqpqWlP0toDCntQsBfJXToz/h22WSAiu7iuO7e/X4PB0J8YB8BgyOOmm26aCGU9BMGE/KDATvb9O2t/RPIdkLMomKWUzLrwwgvnDNRl5ueee25cNtT/JTmsxfiDVHcceeThl/W3bsWwYMGCbWKx2JkAv0Zy5+5n/wDJNx3HmdjfehsM/Y1xAAyGDvz0pz8dHotVXAeqS9lSEKeLIMG2tpC3XXrJxV8dqMa+IzNnzoxt2LhxJqkO3PSa8J5ovUdvEgn1JQsWLGhQSl0G8gtsyesfaSsAuMp13Vv6VXmDYQBgHACDoQtuvvnmfUF1N8A9osQFgOpZhfD8Sy65JN2/mhdm+owZNxD8Zt7SfyiWOviYI454tb916w4RsebPXzhZKVxG4vBuZvprlFIzBDi9w/NNikw6Tvf5AgyGTwKqvxUwGAYqV1111b8/Wr1qH5D/D8DHgEDaze/btwl9lED9984775nSx6oWxbRpM06E4P8BACT3HxFcN5CN/7x583ac++6718+fv+BDUh4HcHiL6i0IBAgh/Bsgn6+oqLC11n/q8DxE42lj/A2GHGYFwGCIwE23376tFeqfEPxc7khgl3EALW15KmZZl3+pyKyA5WbGjBnjQ43XSYxs3RMX8h9rVq86uhS1C0rJwoULRzQ1NZ0B8FwQBzBv5aVDZsD/CfG7yljswbq6Oq/1/sbGRQ8pxTPzgwAB9dlk0pnWf6/KYBg4GAfAYCiCX/ziFxOF1s8UWpafuw8KXEelfgSdvXUgRP4/+eSTw2OxipdB7t5q/EEGFTFrjyOPPDLT3/oBuWOJO++88xFQ6hwFnkJyaBeZAJco8iER+d2ECRPe7NjPBx98MEQptYRUw/O2BrxEwt2WZJ+XIDYYBiLGATAYesAvf/mr40H5KcmG9nEBmx85Izkbor510UUX9Cqnfm944403KvxgyVMkjtmUjAhZRRx97LHHzuwvvYBcQOKYMWMOBdTpJE4BUb3J2G9yqEhuVIpPkfzd6tWrZ3RXOnjRokWTRfBkflyAUvxpIpH4Vt+9MoNhYGMcAIOhh1xzzTVqzJixpwv5HUXuXjB5EPCCZfGbF1xwQZ+nn33qqafvB3lBnvGHorrquOOO6Zdo+JkzZ8ZGjhx5GJQ6nYKTSVZ3srQPECGELyqFR5qbm6fuvvvuK6P0/8EHH/5WKZyTFyQoSnHnRCLxbrlfm8EwWDAOgMHQS0SEd9xx92RSvgdy7w7JgjpuDYgQT8BSP7nwvPNm9YV+f/nLX34Aqh/lRfwDVL87ftKx5/bF+K28/PLLw6uqtjpaKR5P4oT8mX57469Cki9B4U8Sho/ttttuRW1PzJ49u3LYsGEByFFtKwmQV+rq6g4s00szGAYlxgEwGErIHXfcdSyV+iYph3YfJAgQ+BtgXX/BBee8UC59nnjiqUupcFuujEGr8ce/h2211SGHHXbYhnKN28qrr84aX1GhPytQxxNycFuWxZbcA5uMP0NFvCSi/hSL8fGGhoagp2M2NjYeL8DTHc7+f7Guru7XpXpdBsOWgHEADIYycNddd31KQ12uyLNJDOnWGQD+BfCONWtWTS1lXYAnnvjLxSDu3GT8CSgshtb7n3DCCWXJVfD2228PW7du3UG0rKMoOJ7kjh328fP39TWpXgL4p8pK67HeGP18GhsbfyfAF/Jm/2uGDh3q1tTUrC1F/wbDloJxAAyGMnL33XdXQ6mLIPgKqRJdBAm2tpcS+DUpd59zzjkf9Gbcxx9/8gIq3Js7sti2778KEjtw8uRjZ5fm1eWCCzds2LCfCI9QioeD3I9kRevsvhPjrxXxEoA/hWH42L777lsSo9/K4sWLhzZnswHBbdry/pN31tfVfaWU4xgMWwLGATAY+oC77767gox9FgpfJHgsSavV+G9aDWhrC8mXAP4+m9346Pnnn7+qmLEef/yJ80Hc18H4byTkmMmTJ/dqu2Hq7NmVNUuXTlRKHQjwcJAHERi2ydhvWtrPa68h+QyJ6WEYTttvv/3KduRw4cKFp5DqsfzMgJZSu9fW1r5TrjENhsGKcQAMhj7mzt/+NhEL5TxCzlfg9h2Mf0dnYAOpppH6sVgsNn3KlCmru+v78cefuFIgPyfbFv4BQivic5MnT55arK7PPvvsCKXUAYD6DC0eRME+ubP5XRr71vYCRTVNhNO22WarFxsaGpp6+n4Vw8KF708leXre8b+X6+u3PagvxjYYBhvGATAY+gkR4a9//btDqXAuyZMIjCjgDDRBcSYgf5aKihlnn3rqh/l9Pf74n68D+J2OiXNE4cqTJ0++tZA+11xzjdp33wN3isX0vqTaB+CBJHZF3kpCm2Hd3Pg3K+JFETVNKtS0gz796fnlfO86Y968ecMrKioDkltteg/w+fr6+gf7WheDYTBgHACDYQDwwAMPDFFKHQdYnwPls0TeLLtd0GA74/6ukM9S4RklPJ7kxZtlzQNuPvnkE6/ubMynnnqqTqmKfUjsS6X2JWQiyOHMM/CbdOiszQyJ6YCaXllpPbPffvt91Hfv2OYsXLjwEoC/ypv9L8lmm+smTJhQssBKg2FLwjgABsMA4/777x8ei1WdSMUpJI4iOaQzB6DN2HfRJvHI22//56wf/vCH8vTTT48XkT1B7klae0KwJxVqur4fmxl/kutBvkLw76T8/ZBDDplFUvfz29XGe+8tfKdlxaI1n8AN22237bf7Wy+DYaBiHACDYQAzderUrTduzB5D8iQqHM+W5DYFtgoA4mOCv6fiLgT3ADG8g3OQt5TfZTsk+AaZM/hKqVf7IndAT5g/f/7BSlkv5GUS1EpxfH19fa9OUxgMWzLGATAYBgkzZ86MBUFwiFCdSMjxpBoXxRmIaOxBsiln8OVFki9ls9mXJ02a1K/L+lFZsOC9R0BMad36IDFt3Lhxn+1vvQyGgYxxAAyGQcqDDz46oaJCHyO5Y4WHEhzWllI3Pw6g2zaWArxfLD7z8UfbvDZlygHr+/t1FcucOXOcWEXFh7n8A62xD3LC9ttv32/FlwyGwYBxAAyGLYDp06dXrVu37kDSOobE4SD3IGgVihNoaWep+D8K3iAxSyn1xqpVq/47ZcqUPjm611vmz59/Lcjv583+F44bN26HgRSfYDAMRIwDYDBsgUydOnVry6rcj8SRSvFAQO0LSkUEZ6C1nSUxH8QskLMoMqu5ufn1SZMmDaiI+g8++GBkU3PzBwRH5uX9/+r48eN/2c+qGQwDHuMAGAyfAJ5++ulRYRgeJOQBCmp/EHuT3KrIOIENBOcCeNeyOAfAPJLz1q1bN7+/HIN58+ZdR6rvtjouIFaH2WztTjvttKZVZvTo0dsMraw8puO9ITDbsqxKZLPJdCbTtl0wfvz4qvVr104OgeeDIFjaV6/FYOhrjANgMHwCmTlzZuzjjz/eQ4T7k9gPuRz+44oMGmw9HhiC+ABUcxVkLmC9S+o5zUOGvHfY3nsvK9drmDdvngvwXZJbt8U2QN0yYcL2V+XLxePxGou8Cjm1zwfkzyJcRUueFa0mE3JpKBgfBEEjALhufDKFTyjw0MW+/2K59DcY+hvjABgMBgDA9OnTtyG5O2lNhMJEBU4EsFOXmQC7zheQXwRoI8A0FXySHoQ+qTxYeN8CfBHx9t5778ae7NfPnTfvDwTPzgtsDCGyww477PB+V/cknPhblsapizKZ9wHAdZxfELK7CKZ5QXATACQd548C2V6B3zAOgGFLJtbfChgMhoFBy5G/l1v+AORqAQCyJ8hdIXo3gdqVQAOAERBB66Y7ALS2BS0zi9yDKhDjAIxDqzgFFEByyXow6823Nsx6880UwaUklwNcoRRWiHAFqZYrJWtIfqyUWk1yndZ6vVKqFoKz8geCyF+6M/5dIYJHSZ4F4CbXdbcS0SNBfAjp8VtpMAwKjANgMBi65KijjloN4PmWvzaeffbZuoqKigaAu4KYAJEdQO4ogJ2zyZ06A120ZQiE40GMFwCkQIRtzoK0yGstbSsQ+b6H5MQAomC9g05RsgzCdbU1NduHCPeB8CkQh/WoL4NhEGEcAEOvSCaTQ1U2O07IpAAUrVexomJ+KpVa0d+6GcrHUUcdtQjAIgB/zb/+2muvbdPc3DxBYO0AYAIV6gmpF+G2IGoJVHTlHOQQQNhlWyBgJ20B3txxxx16vFxP6qmhUqcQ2CcrclkMNA6AYYsnlnTsNzpeFIGXDoLJvek4YdsPkxjf/ipvSfn+ZpW5XCf+uALrciKYmfKCb/RmbEP5mQhUBI59g4TZL4fEVmhdL1WEhFk4jlPv+/6H+fc0NDRUzp49e1CcLTf0jJaCQLNa/toxdepUq76+3hWRegDbgoxDdBJkHGBCBHECSRDDgK6NfWdtUn7RK8VVxeNKss9AZHEmk1mScO1edWcwDAZiAkzc7CoxsTYe33VxJvO/nnRaF4+PC4kpsnmQYbwzeYINAuwAACKyqCdjGvoUBq79OARdpVpd4/t+279jMpkcCp395qqVy2sAfKVvVDQMNKZMmRICWNzy91JXcq+++urQYcOGjQkta4wVhmNIVmvIGEU1EsIRIhgO6K0U1TCAIwGRbDZ8OIoOhJqrK6xNRxZFllO4NuWlViQce44Q03NyWCIiA7LugcFQKrrcAtAWpwDokQMQKpwBc8JgiyVh26d2ZvwJfCTA1hD8Dy1LAol4/LMSZn+BXBDYA32tq2HwccABB6wHkGr5Kykp3z8rv+0FwbWtj9N+cE6bnBdcVuqxDYaBRtcxAILTAfygR70KzzTmf8tFyJPZLkRabq2oGvqjxsbGVQCscaNGbd32lMJdABLFjpG07X01eTKgd6TQErIRDJ/2vCXPASY+22AwGHpLRwdgDYDhLY93Ssbju6UymXeK6dC27V1A7N7SbBfe0xVCfT7ArQBAKVlSzHiGvoeQCXnNRWk/83UAYUs7fH/lytU97bu+vn5k88YN92sIQfmNiLqLlgqJ7I6irTNdx/6egOd0jC8wGAwGQ3G0dwAEz5M4RIBtAEAsng6gKAcgpnCGtM7PBK+B2L/QPZ635NVixjD0O61OIgSYi03Gv1eMHj16m+aNG/5G8GdQ2qO2dgMQl2zWr9D6jcalmQsT8fh+JP7iOM5k4wQYDAZDz1EdWhsEeLKtndsGKAoRnNn6mEoiBeYYBhlERdtDwcpSdTu0qvJ2grelfP8xaHWaUK7R0MdB8fvNMeuDhG2fm85kXhOlL7Egv4eJMzEYDIYes3kMgJapUPxCS2unZLJm91RqyX+jdOa67l4QvUOuxQUa+g2W9zfaSsbju0CpHUBdpYF1KsT7qUxmDno4K43H49tVKLWnpv6osln/r3Hp0qDQPbZtj7VEdhMLY6kZKnKJVmp2Op1e3hMdgNaTFNxZlGwDWOtFZLlSak5v+gQQS9r2XlqJDWCY0lwVko2+789DD/fVSZZkP762pmZ7AepTvv+HvMuzPD9zCgAkXftnAvwYwG89b8mrCdt+r9Zxjl7s+38rxfgGg8HwSWMzB2BkdfUzq1YsXwlgFABIyNMBRHIAFPSZbdaA0Wf/Cdt+DsR2Lc1n0n5wSXfyjuNsa1G+IYIzBKhuTRZCAKKAhGOvBOQ3Quv/PM/rtBhJwnFeAcTO6c3zF/v+y0nb/oUQlwjEohDNMUsnHPtxS8s3W3OHtzIRqAhs+2wQlwPYE2wxhQQ0BNBhmHDt1wXyC8/LPIIIBnbcqFEjNg6tuhqC80KgFkDunDN0zo3SoU469lta8OtRY8bcF/VMfTJZs7uE/AbAEwUYnuszl19FQZBwbR8ijzSHcsOSJUsynb9f9jygbeZf23pdICckHHtha5uC5zXwJonWgiybjn4SpyUc+5C2phUem0otXQAAYUwdpyB/6vpVyAqAza0tRT4SihwPwDgABoPB0ANUxwuzZ89uouDPm64w6jYARTCltaGFD0XWgqgFcvnCBdJproBWXNe+TEHmiuBSANVdiI0CeCVFz3Ec56DORaRu05jYyrXtW4W4DICVJ6QAnJa1rIr8O13X3TFw7NdAPABgL3S+FG1BsB+FDyUc5+Vtq6ud7l5XnW03bBxS9Q4E30eege2AEmAiiTtWrVj+juM423bXJ4BYwolfJ6F6E+Dnkbd33w6BA/BrFZZ6z3Xjn+uir+2Atpzu+e/H1m3XgXFC2CRH5V3LdzKH58uqrFXZ9sKAbSFqQYcxd3Zt+4aEE79LwCsguKL1iSat5xOoL/D6DQaDwdAFmzkAAEByal5zx2SyZvfO5PJx3Zr9AbQYJL7t+/7cUiiYT8KJf4eC2wAMbbtI+AJ5EJBbATwKIH8GO1ZB/pqMx3frrl8BDmbO+G8O8Zrnee+26ZBI7EDRLyNn+FvJAngekLsFci8grwDIq24mB2QrYv/qymCPGzVqRJhLQJJn+LkAwGMiuC3XL/4GYH3ebTso4NmGhoZKdA4TTvwBgN9Fe6emEZA/UHA7cu9XfsrerSl8MOE4X+ukvw8AvA/gfRDNedfXtl0H3qcgEJGVedeyebJr8mV1LGxbwdDCrGi92YqUAoYR/Bw0vpYOgmmt1ysqdEwo2Y7yBoPBYIhGp3kAFvv+3xOOvQwtM2wJOQWFtgG0ajv7T0r02X9EkrZ9aMsecCsbILgq7Qf3IG+/Px6PD4tZ/BEEV7dcGiaKvwGwN7pahqd8HQICWEHiNg15S4mKA/pUEdW2GjJ69OhtqMMZkr/yQDwtUJd6ntcug2EikdgBOrwHQOuSd62C/Gn8+PEHvffeexvzZTdUVX2VQF1LUxP8csr37+2oZjwer4kp9WdADshdkQmrV6w4D8A9HWVd2/4+gM/nXVoKwVfSQfBovlxDQ0Pl6pXLrxTgxy0zewJyUyIRfyedzvy9VS7tBzu1vTbXfg/A9rmXz6c6Jldp4Q4ASDjxFMBcHgDBo+kguKATWYAyHwq7AXg67+rcVBBcnnCc/5FybzKZfCWVSqUBAGFsdwDvdtaVwWAwGArT6QoAgCwgj21qFtwGsMC2EwOS1XikBLq1QxM3YpO+muDJ6SC4Ex2C/TKZzLq0F3wdkLvzLu9V6zhHd9m5oEKAQIV635QXXON5mSdTvn9Pys8ck/b9u1rFhlZWflXQFqsAgg+lveCkjsYfANLp9PyRo8ccjfbFUvbZsG7NlzvKkjxlkyp8uDPj3/LaloQiJwGbIu815OSOcttWVzskvpV3aaVQHdzR+AO5LZ+UF/xUoKZg06qFBa3uRPuVg7KSzerpAKagE6c07fv3CrEUOvvt1mtCOd8Sebyv9DMYDIYtja4cAEAjfxtgh0Si5lNdiSbi8UMItFTP4D+DIGgskX4AgFrb3oe5GXwLcm/K92d0e5OKXYe8ZXgNvZmhbIfgusVLlizs6un6+vohoFyVd2nxhubmi9HNaYPZs2c3hYJzkbfMLuDV2MzISdvSP6G7rWceBMFSEA8B8h8Aj0Hwz44yYWXsSuRvk4Bf9TxvXnf9ep73BIk783SakLDt7t+zEpILPlTTk679vU6e1hS5TQRf3La62mmJU/h4cRC83lf6GQwGw5ZGlw5AOpN5QYBNR+B016sAovLO/lOX/Oy/ppyY36bOLS/tnpjuAAAgAElEQVR3RzqdTgG4lYLbRXApdfd56CvD8LHunm9ev/6AXOGRVuTOZcuWrSmkRxAES0n8Ou9SbSIe37uD2NJND3lubW21212faS+4NO1n9kz7wWn5uczbNBMcl9dMpX3/j4X0BICsxk3Ic5qE7DMHAADSvv9D0dgz6do/Wr+x6UdNzWFbQGLKz9xOK5bIxmInUfPy9RuavtSXuhkMBsOWRtcrAECoiILbABOBCoKntt4Ta9bdHOXqIcL92h4CQdT0xGk/uDoVBJd7QfCrVCbzr25E3y943t/ioflNpfFUFB0AIBT+Jb8tFg9uJ0D8I69Vq7Oxd1zbvqHlBEPX9Ro6IR6P1wBoyBttOiLmRGhZuXl7k1r6kK6ly0I2HQSnAMDQqqoXKyzrKteNn+i68RNc275SdHYaiN2zIketWLHioz7WzWAwGLYounMAEArz9/J3SCQSe3SUCWz7aACjcy3OjJI4p2gId9NDFpWaOBKCDwqKiIzLa65fnMlEPuWQzWbfym9TZPv8tsrqnxPIN2ijSXxTQV5MOPaShGs/krDt8+rHji1YpLwiF6OQdyxRvdWlcCdQkCfPRH19/ZBi7i8BYcoLfgiljlDkQgXuSXAfKFlJFTst7QeXZDKZdX2sk8FgMGxxdDu79H3/lYQTT7dFcWt9OoD/tBMizmh9KNQlj/5voabtkUhvMuF1DqOks+WYTY9lBYrINLh06dK1CcdeB2DY5n0Bi5csWei6NadR1MNoc6baGAXBFBBTmmOWuI49i+BDKtb88OLFy7zN1WzfN4Giiitpckl+pb8wXDsawObjlJmWjIcP9vW4BoPB8Emh2xUA5PaD85f0220DJJPJoQRa9+c3xmJVf0bpUWhvFNd3JdgLCvZJwYi8Vk9moB/nPd6q45Oet+TZimzYAMgt6NpoMxcMKT/X2dj7Ccf5CTo4cVrJNu1uAIrSlSL5ekKEm+lqMBgMhsFPIQcAaHekTya02wYIw0mtlQMJzli0aFHJCsO00wDYkNce2pVgWSHX5rV6YhTzs/B93JlA49KlQdrPXGX7QVKojgFwswCzu+ivCpDvJBz7/nZqhsjXE9K26hAN5jL7bWpTOtXVYDAYDIObgg5AOhc819h2IbcNAAAQStvyvy5D9H8bxKq2h5SOS+R9AyXfuRmDIs7Ijxs1agSAvL106bQ+QSuzgGbP855J+8HVnh/sKlR1pFwI4DG0d4YA4Jxax2kLKhTLaueECTA2qp4AIER+nIG2rK1XdClsMBgMhkFL4RUAQMj8bQA5FQBc190KgkktF9eFYfSo+KIRtJ3PF+GuUW9LOs6xCce+07XtbyRs+7Tx48dX9UKL/KxzQ+tse6cuJTvQVFW1Z35byG7P+nfE87zFKS9zX9oPThOqWrBdtjxoStsxzDAMF6BdxkPdbuyCEPnyXmNjY0eHw2AwGAxbAFEcgI6nAXass+0Gaj0JLcvLBP9SzshsCl7d1ICbSCR2iHjraQC+TOJnULjvvffeay54Rxco4Sv5ba3w2aj3CnFCftsSvtb6uM62G1zb/nrSce5LOvaLyWSy2y0Oz/OWVa3f+Hnk59iXTUVxMpnMEgDzN93BSYi4WhGPx7eD5B8hRHdHJw0Gg8EwiInkAPi+PwuC91rbIXAK1KaAQF2+6H8AAMlp7S5IeFGhe5LJ5FDBpgRCFJmJdgV6iiMkX0J+Rj/BJfF4vOD+eiKRGAPg3LxLy7YZPbrNAcgq2Y3EjQL5ogAHSXPzEYX6fH/lytXISwdMcFX+8yTy8w7Uum58CiJgkVci/zMh7VcaegY31T1Q7eMLDAaDwdB/RHIAAAB5FQJJnAnB8S3NlaNGVZe1Jvti338RyD+fjiuStr1vd/dIGH4feUV7RHhfb3TwPO9jgHflXdo2ZvF2dF4KuJWY6Oy9yMUMtGpy9+zZs5s2ta3nkLevL4o/7KbCHwDAdeNHIm9vX1PaHc3UULflV+yj8Je1NTXtcg90pNZxjiFxad6ljCg1tcsbotMWRCiCbks9GwwGg6HviOwA0ArbtgEE2AUty/8CPtbeoJUHCq5E69l7QYUoPJOw7dM6yjU0NFS6tv0DQPKL4TyfDoLpvdWhoqrqRnBTPAIE5yUce2pnCXpc161zHfspol063febsvqGfDnP85YJ+IfWNoG9V61Y/sS21dVOZzok4/FPU5if2ncdabU7CeB53mLR+EnepWodUy8lbXsSNsdybftSDXkSeZ8HoXwt5/T0DrZbqcABCds+13XdujrbbnBd1xwxNBgMhn4icprZVGrJfxOOPQ9Au+A3qjJG/+ePHwQvJF37uyLIGVDBCBB/yukkL4hwFRXiq5YvP5p5mQMh8ELgfHRVCrgIGhsbV7muezoR/iOvLsBpzTHrswnXfg6C+YBQwJ0p+nAA+TP5ZUrLiUuXLl3bsV8q9S2E4aS8jIfHZStija5jzyTxPwJaBDaBXQSYmHerELwylUua0w4vCH6cdJw927ZBBI4Q05KOPUeAF0Wwmgo2RI4EkOig0f95XlCSf1cNvkXIQS3NGIjfUDRCAioXR/LX7u43GAwGQ3koKs88iUdE8MNNF+Cn05nnS61UV6S84KcJ2/4IxK3YZFx3ArgTiZyJb78gP1eTpwa+31gqHTzPe8t13f0p+gkAO7ZcHgJpDQpkZ3sCr9MKz1rsL31v86dyWe9c1z2comcAbQF9lQSOgeCYVs+lgweznpRvpryg09LBAHTK909NOM7PAbkCLe9My+rNLm3vV3tt1wH8en4J5N4iwF0ELkK7Y5Btz+0C4wAYDAZDv6CQW6Jt/es2kr/lNECbPIE/oJuUuEqrbL68iHR6pExyefBb++xWh3QQ3Glp2RnEb0Gs7lRI4AHyHaHa2/f9TnP2C9AaSLcSKC7Zjed580aOHrO7CC4D8L8uxATEvyA4N+0HB6RSnRv/vD7fzWrZtcXBauxGdBkED1hadk15mdsKqBqmff9rQrW3QP6MLhIQAVgCyK1CtXMk4y+b3jtd4N/L9/25FBwCyCvo6MOQtZ3fZTAYDIZy010A24BnIlARxOMTxbJshbAaopYrkfmLgmAOSrDkH5VEIpFUWjcIMFYAKmDJxjD8T67Gfc9wXbeOWu9GJSM0MIQhlohlpT3P+y+KqEOQT319/ZCmpo/3UmLFQT0GolZA6wWpTGZOT/sscvyRGzZscJVSYWVl5Ycmx4DBYDAYDAaDwWAwGAwGg8FgMBgMBoPBYDAYDAaDwWAwGAwGg8FgMBgMBoPBYDAYDAaDwWAwGAwGg8FgMBgMBoPBYDAYDAaDwWD4ZFDyVMATgYpMMlnDbNYFOVqLbJM3lijyo5A6ZIi1IflRGIaLOquQN4ixHMdJWlrb2sJwAEOpOQQASGY19RpS1mlteb7vLwag+1ddw0CmoaGhcuXKlXGGYYJKjRSR4Wj5LgGAKLUaCLXS/Egr9RGARaUo42wwGLZ8eusAqEQisTu0PhSUA0SwC4kdIKgorhtZBTBFcKEAr1PklWaR1zOZTLeFZvob13WrgXB/itoPwL6AjANRW8TrbwLwgUDmEOplJfLS4iB4C0C2fFoXTzKZHKqam51CcmMzmcWzgOa+0GkLJZa07b00cAiJ/QDsCmAciqzaCWA5wBQgC0XwGpT6Z2Vl5Rum9oLBYMinRw5AIh7fT8izCJyaV8O+1GQBzoTIPXYQPDlQDEsyOXa8hGoKoKYA8qmSD0CshsbjAH6fDoIXMABWCJK2fagQMwvJCdVOnue92xc6bUEwaduHaMpZBE8GUF2mcZogmAHgnnQQzEAfFH8yGAwDm2IcAOW68SkUXgVgn3Ip1CmEn/aCcjkaUYi5bvx0Cr8GYN8+HHcRITdrWvf257KucQDKQsx14+e2fKZ27duh+Xba9/fo2zENBsNAI9LSouvGj6TgRgj750dDEO+PYScCFb5rX0zB1RDU94MKdQLeStHfTtj2jXYQ/HKgrIQYeo7ruidR9A0Q7NgvClBq+mVcg8EwoOjWARg9evQ2Q6qqfk6RL6IMAYMDmaRtH5IhfkXBLv2tC4A4iJsCxz4voeXCdCbzWn8rZCge27bHWgp3QPTp/a2LwWAwqK6esG17l6FVVW8Q8iV8goz/2LFjt0649gNCzBQMCOOfz65QfCXh2jeh+MAwQz+SjMc/bVHegsAYf4PBMCDo1AFI2PZhFvEaIBP6WqH+xHXdnSpj1r8hOA8D1+lREFydcO1nbNse29/KGAqTdJxTRPEFgIn+1sVgMBha2cwBqHWcg0E8BWB4icYQAAP+nL/rxk+k6H8D2Lm/dYmE4DCLeN113Z36WxVD17hu/EShPAygqkRdagAD+niswWAYHLRbRnYcZ1sNeRzAsKJ7EnhCTofIW1Dqv5XNze+tA9bmJflRdXV1I7Bx46isZY2wRGo0sLMADQpygOQMb7/Mul03fgaFf0DvltU3AHhNBP+CkgWWqAVihatUM9dKZbiBTdaQMCbDGapRWsn2FLU9RPYFsT+ArXo45rYQPdNxnMN935/bC90NZSAZj+8mwj8CxebFAAA0gvgrhf+B1m83iTTGYrE1eadBYolEYoSVzY7IWtZIau0IsDMVdoXGZ0CML+FLMRgMWyD5Bk8pyiMQjCnifi3gw0rk3lQQvIjuz6zrRYsWrQSwMu/a31ofxOPxGsvCCRSeCuBoAFYRevSYpOOcLSK/7eF4GyF4guRvYlVVzxeRaOX51gcTgYogET8Yws9DcCqKXHkhYBMy07btw4MgmFPMvYbyUV9fP6R544ZHUZxzlxXIA9T4dTqT+Rdasv11JZtOp5cDWJ53bVrrg0QikZQwnEyF0yA4FAN3S8tgMPQTbT8KSce5SCB3F3Hv80J1led5b5VaKdd166D1V0hcCmBrADrtByV3CJK2fZzktjuK7ftjCm7XSt3oed6yUukzevTobYZWVV0OyFUARhd5+4ehYJ8gCJaWSp9WTB6A4knY9vdBXBv5BsFTotQ3yvH+JRKJHSQMLyNxIYAhAyCvhsFgGAAQAMaPH1/18bq1jQTsiHf9PO0F30SZs4m5rlsNrX9AhS+nvaCylH07jrOzovwTghFF3vpYrDl7+YfLlvml1Cef+vr6kU0bN95IFHf8ksBLI0aPOXL27NlNpdTHOADFUVdXNypsblqEnPNaCA3I99J+5gZ0P+PvNYlEIgkJr4PGUekgMAGJBsMnHAUA69etmxLZ+EO+m/aCr6MPUol6nrfMC4IrtHD/UvZbV1c3Son8pUjjv4aUs9N+cFo5jT8ANDY2rvJ8/0KhOhbtl3i7RYCDVq9cfnMZVTNEINvU9EVEM/4QykVpP3M9ymz8ASCdTqfSXnCeJieXeyyDwTDwaT0F8IUowoQ80zJT6VN8359Vyv7CbNMtRQZJLaalD0x5mT+WUo9CeJ73DK1wPwCRZ9Ui+Irrxo8so1qGAjDi9wmQP3he5v7yarM5pf4+GQyGwYmKx+PDADk4gqxoWldgABSn6Q1J2z4OgnOLuGV+rDn76VRqyX/LplQ3pFJL38tqORjAvIi3kMJ7q6urS3WM01AEiUQiCWK3CKJNYa6uhsFgMPQLqlKpiYh0RlleHez7u2PHjt1aiHuKuGWRUB1V7iX/QmQymSVQ1lEAPox4S31VhfWjcupk6IIw3B/R4jaeLkfApsFgMERF6ciJb9Rfy6tK+amMxb4GIBlRfG0oOM7zvEXl1Ckq6XQ6pcDTAGyMdge/4rpuXVmVMmyGRPw+kTLov08Gg2FwowBEMxIii8urSnmpq6sbBeiro8oL5UsD7Vz9Yt9/Q4ivRxSvUlr/sKwKGTZDkZG+TxQ1qL9PBoNh8KNEJNJesSIz5VamnITNzV8HODKKrEDu9bzMI+XWqSd4XnAHBP+MIivEOfF4fLty62TYhDDa90krNai/TwaDYfCjyGhpSrVIseflBwz19fVDAPlyRPFMrKLqm2VVqHeIKHUZoh3DjMWUurDcChk2ISKRvk8Mw0H7fTIYDFsGMQFXMcIRZFKcPtCnLGSb1p8CMFpmPcH/a0lZPGDxPO/NhG0/CuKMwtJyQUNDwzWlTg5k6BwKV0UJAdRq8H6fektDQ0PlmuXLJ2hyRwHqAD1UhCNIaSa5FsKVmuEHYcj3MpnMB/2tb28ZO3bs1kqpsUqp0SKyvqIiu8qytl5RROpwQyfU1NTEK5XaWSsZp8CxAgwTjUpSPgLUBogsVuQHTVrPzWQyg72AVqx+7NhqbVljmskhFVqvRFXVyt7aqhhElkfMNXcogF/0ZrD+QsAvRhR9Nx0ED5ZVmRKhyRsVJIIDgPiq5csnA3i03DoZACoslwgpfZjLz/9wufUZKNTWVrthc+wskkevWrH8MyC22pT7iCBz/8+9dwKKQkwBCcfOAHiF4OMbs9kn84qLlQXXdeuo9ae7kyGwNhUE3QZxuq67l4K+AILDBNgld1UAAjobg85uyCZs+3WI/F86k3l68/vjJ1KzYPbTrMj0vjZu8Xi8JkYeUkhOaf3m4iVLFpZwaCtp20cL5SSQR0CwvQCgbJrCtn6O2t5rCGKK2YRjvwXwOWr9UCqTeaeEOnVK0rYnSYGieqLUa57ndRkLNHbs2K0rLOtcEpMAHNTcUidGQRAqAs1NSNi2B8o/0n6my9wjyeTY8dBqkghqhHifjD3ZUkcEMQKRotwFPLK6unr4smXL1kSRHygkEokkdHhYNGn+BH2Q4bAU+L4/y3XsFwkUzuFAORHGAegjZFG0U4A8fiJQMQtoLrtK/UgiUbM/QvVtncUkElYPEh7GAZwikFMqY9Y613HuB3lTdz+cvUGJHCTEH7qTEXABgE4dANd1d6TWd0D0EQVeaQzE/iA+DWAzB4DCL4A4tZC+FVSfB9CnkxaLvATENQXERFdUlKRUeXV19fCqioorAPmyAEmAxX6MYgD2AWQfUfy269hvKPD6lO8/gXLltSFuB9Bt/BW1PgNAZ59jK+naXxfBNwGMKjCOC/BsdJF8LOE435MQYmn9UKypafmGoUPHQcJrXTf+jOdlnlSMxV6J9oqw9ZDKWNQI9AEDtZ6EaL/IS23fH1QzMgVG/OLzOPRRdcVPOhpW1O9TMrDtL5VVmX6kLh4fl3Dtp6DVqyBOQGk+f8MIuYKi5yds+/sNDQ0lrQ/SW1w3fgFFvwniiF53puU3UcSEcmavxyoSkmdHEHshnU7P7+VQynXty6oqYu8Dch2iH+HuFgJ7C+SxhGP/M5ms2b0UfZaKbaurnYRjPy+CG1DI+Bcg6cavoMgsoQ5CxYc2Dq2aAZGvDN1q66sUuFfStvdVqVQqDeD9KB2K4OqB9oYVRh8XTU4eHHSzMct6FECUvf0xruuWtJ6CoXM8z3ubwEeRhIkf2bZdX16N+hy6tn1pqPhfCD5bpjGGgLh21Ypl/xoo71/SiX+VwvtQXPnnLklnMjMECAoKCo7OHXHuG5K2vS8gEwrJkXJvb8api8fHJR37eQpuA1Ddm766YV/R6o2E43ytTP0XRW1ttZutiD0P4MDe9tXQ0FApwp1TQfBXao4U4vdpL9ifIsPXr117wohRY34ilC8qACDxWMR+h0monnJdt7a3CvYFDQ0NlQJGyosvtH5fbn1KTSqVWgEi0oyTIgX37AwlIRTgiYiyYxXxdCKRGFNWjfqI+vr6Ia7j/IG55c9u9z9LA/ewiNcT8fh+5R+raxKO8wUBb0ERlTsjkFUFtiJaqMxmN55cwnG7RUeb/S+PVQ59vKdjJBLxI0LF1wU4qKd9REZQAcgtSdu+H/24ShqPx4dJNvYsgB1K0d/KlSsbhPJ6a1tp1CZt+1CQtbCs/86ePbuJwiYFAM2h3InoeyF1EP1vx3HK/4/TSz5asWJ3RKnKRvie571Vfo1Kj2g8H0kOemKZVTG0QMEdkWWBBurw9USi5lPl1KncjBs1akTzhg3/IOSsPh66GhZn1DrO3n08LgAgmRw7AZBfobTGHwDAUH4bRU5JlNNAJSHGSIHH8vuennBI2PY50JwBINqprRIhxAUJ174Pmwrk9SkV5C83BYv2HkvrGEW1rWgLuadQbhHqX7ZuzWhAFABkMpkPBPJk1M4J2Iry94TjfG8iouUR6A8E2DOi6N/QB+VYy4FFPh9FjmC//EB+EkkFwb8BvhpVXoDtoNWrSTd+OfrpB6g3VFdXD99YVfVXED3dZtoAIAWgZxH+ghEaMi2RSJRkj7iooUPr14hY+rlYFmcy/wPweiE5AQ+3bXtsOXTIJ+k4RyIXlNktobBHy/9JxzkbxK+RC9rrCUtbtk16FsgtOC/h2tf0cOwek7Tt44S4oJR9NonMAdA26RPKX4TWZII/yeXFAUEZ0vZjE2pcDeDjyCPklk5+HNj2G7W2vU8plS8VQonmAEScRQ9E1jc3v4VozkttX/xIGHIIeTmAbBG3bCXCXyYc5yXbtks2E+gDYlWx2J+LNP4fAnILBYdWVA0ZlfaDoWk/qE37wXBasa2EameAV0Lwd0R3zGsg4Z/6ckLiuvETUYL92u4QQZRVgJhFFjwx0GtdoCMs/8srPUmhnrTt4wTyG0RdhieaAUwneFEo2M72g8q0H9R4fuCk/aAiFNRAywkA7ooUS9GmPr6btO1JxerfC5QAN5S609zRUL0mkaj5lAAbFGSD53mLIXi2ecOGMxOOc5ESPqHybvhAiOIryBG7a+KfruPcWz92rF3SV9FbNPaIIsaYHpTL/wDQciwz0lHOWIFjKYbS4XnemwB+WfydcoBFvJVw4jf3ZXBXT0na9i1FRL0vgeAraT8Yn/YzV6WC4IXGxsZV+QKpVGq953nz0r5/azoIjlSCTxN4KVLvgv182+6rgC5C+JOuVcFsED+GlhM0uDe17A6lD4BgCiA/Afh2lEFULPYQIhUAi5QTpMfkysbzpMJqFD/7d113R6H8ERFn/gL5M1XYkPaD41O+f28QBI0dArglCIKl6Uzm6bQfXAKq7UXwQwBR8iUoodzTV+XUk278TBBdBdZ/DMHDQvkSlD5AadlNg3sL5SghLif4ELpZNbP9zLXQvEQpWTliVPXvAKCiasi3AdSSuioVBNM77lvFXMd+msAxPXw9awHeQMu6OZVKre9hHyUj4dgBCi9ZbbT9YPigOwGQR8KxpwEo6LUSPC3l+1EDPttI2vahQswsJCdUOw32ktGlJJlMDpUw+wKAnq6QrSDk2rif+dVA/Hy6bvwMCqMdnSWmVa3fePb7K1eu7slYCde+FoLvRxBdB2XtlE6nUz0ZJ+k4ZwukQPAdF0DkYhD/2PwpLBTIlZ6XeRoFVi9aciQk00Hwp27lXHsqBKcXUF2rWLZ28eJlXgG5HpF042eJFDp2LKuEVsLzvMgryePHj6/6eN3aWQQaIoivEcrZnpd5Kmr/+SQSiR2gw2cAbBtB/Oa0H0QuHteRpGO/L4UmXIIzQH4VkAM6PKMp+FUWuLZQyfCxY8duXVVhfSPlBV0Wfks6zrECOQqgBcpHlsYji4JgNrD5fmN2yIaNZwD4d7eKd83WgFwnYfMC17a/0p/ndFvGjrLk/f5A/HEtCuLDKGIStfKjoSSkUqn1FdlwMoB5PexitIC3Bq49N2Hb52AA5XKwbXsshbdFkaXg9rQXnNhT4w8AaS/4ASRSJcxhovU3ejpOEVzU8QIhT2RD+VSLgSq4dZFOL/lnIeMPANT4TQR9lGStQk5CjxEpHP1P8sFijD8ArF+35vsRjX8KSh/UU+MPAOl0ej6UdSByiZwKcUlNTU3BeIfeQIWGzYw/sVqojksFweWFjD8ALF26dG13xh8AUr4/I+0HV6d9/2tpL/hBq/EHOgk4en/lytVVGzYe3bL/1kOYIHHHqhXL5yfd+Jf6I1Bw+fLlLiIFVDFddmXKjOhoe1yDuZ7DYKVx6dKgIhsehgjBXF0i2B7EbxOOPdt145/DAAgUtIibEMnBlntSQXA5SpBhMx0EPwcxtZAcIV9yXbdcZ8cBSALEKe2uAH9L+ZnTy5GWNxUEf4Og4MxehGXZBojH4zUAji44PnVRy/+5WBdGKby2UqiOTKeXRNo26Y50Op0S8syWGILuGFphWV/t7XjdIYLLO1xqUsLJnuc9U85x8+n0h+T9lStXp4PgGOa+5L2Jjt9WhPcGrj034ThfQB/OYJRS0SKCKYPeAVBkJAegUG5qQ3loXLo0qKgacjAFv+5lVztS+MeEY7+ddJyTUYajZ1FIxuO7Afh8BNHnbT9zWSnHFqhLARQqpbyVQljO44hbAWhb3SQwp2XltJigz2IIiQg5AYj9HMeJsrxdFJbFKSi8P//vYg20olwXod+sUJ9Ryq1Fz/PeJHB9QUHKeSivzWoX4yPElxf7/otlHG8zuptJhCkv+AYEZ6Knx3NaEWwPyO8Sjv1OwrZPRx/8cFHrqOVWl5VVkT5ARFZEEtQYWmZVDF3Q2Ni4IRUEXwT4ZUQK6uqWXQXyeNKxX+/jiOUcCtei0CoEsbo51GeWenvN87xlgBQMrtTCLoujlJhsVnB6b7Y3ohCSv4kgRopMKfXYBCIs/xeX+a/WcfZmlKBCyA2et+TZYvqOwsbm8MaCGTsFTm3u6GNf8DvPCx7oo7HaKLiUmA6CqRrcFcD0Eoy3M4ipCSf+ZiIeL1eaUAAAySGRBEX6PVixt4iSqAalJGlKDT0n7ft3a3BPAC/3ti8BJgoxLeHEX07a9qG9164wtm3XCzi5oKDw2iVLlhSaqfeI5lDuR4EU2AQm1tZWu+UYv904grt6cuytWHzfnwviXwX1IUpaGyCZHDsegm6rIwJYs7FZF1VHRUMuR+GJYCqrS39EDsjtnYMomP1VUwp/1nvPOlqx7/TBOJsRaS/R9/0P035wvFA+h8LLbxHgHlB8KuHY0+LxeLmOpkWc7aotoCa3RHoNQhlQxVM+qfi+PzftBwcTvBiQVYXvKAQ/I8TMhG0/tG11dVnjPCzyQhT63RC8N3L06FicoLsAABseSURBVNvLpcOSJUsyEMwoIEbJVhxeLh1yyCqxrGvKO0b+cJFWAfbKZScsDTprnYWChloeKqZMczKZHA0UPNUAgN8pZ6lj6gg5FqQEhZ0KDSH4WUtNnj6nqGAiz8s8bFVU7gziVxGCKKIwKab4v4QT/3bJTwxQR1oBEMrgPgEAQGkVpSAQKIwkZ+gTJOX798Saw10A/A6lKEtKnJmtjM11bftSlC1QsHCqXwHunj17dlk/a6IK18DQ0IVLZfcCkg+21lXvCyqqqh5GLmtit0gYK1kwIFl4+V9BFXf2XzefgsITtKUjR49+pKh+i2RxELyFwsnvdmwJgiwXWQ3cWcb+u6XoH4lFixatTHvBpVThLhA8jN6n0N0K4P+tXrH8rUQiESlxTyRERXpt1Kgq2Zj9hFY6mvOkCv94GPqWD5ct89N+cC617AFiWq87FIwgcXvCsV8r5UwQaAv+q+9WiGjOal32wlpKR1kO527l1EFDPVTO/jvS2Ni4ChKl0FRpkgK1ZHgtVJzmrcW+/0Yx/YrmCRGk/lBuJxK5oM03CwlZVpeJekrBs1GO+5WLHs8SUqml76WD4HNCtTchvT62IMAu0OGrrhsvSU5kAaLt7UeNFRjQRI536G3wmaFMpDKZd9Je8FkNHlxMHYFu2Ee09XrScU4pLBoRi4UDDgXPlmvvPx9VWfnfCLrsivIFHDd6nleKf6eiUNGCAXets+0oZ+u7JVLlP0FRs/+GhoZKEAUD64RWlEqIvYco+DmiqF3LqECfOpEd6fUyoed5b6b8zDEUHIbeBzYNpfD+hG3/OplM9ipinZHrGuhBHxlPHc0BoLAE+82GcuL7/ktp3/9MSx7z3qWoFowQyKMJ174JPS+w0oYWKRQMBhJ9coxp0aJFq1A4t8DWruuWpdQyBf9APxQQW+z7zyFXOKlbQtXrCoExQAoFFK6r2rjxj8V0umLFit1QIBiZwEee5/2nmH57CiOdAtMlP1rZioo19yLfTgnGL1VHqSB4Pu0HBwnVQQBe6FVnxPkSZp8ZO3Zsz6tsRYzuF6iyZnvqIyIlPZGI+QIM/U9LHvO9hHIUIixTdgMhuNp14lN7m5CLYMGUxqGUZPUiCgJgZSEhFYblCYpU0icGqhNCgFG2WHqVByFS5T/B1GKPP6pIabHlNZQiJiYCIiz4GQJZrtMkS8qVujkqvZ4VdMTzvJcBHJqw7eNBXAtgrx52dWBlhfWk67onFJtesoVI5/sJSfSg74GFghNlLkJgSfmVMZQSz8s8B2Af142fTuEPAezck34Inhw49kPwgzPRg4Q19fX1I5s3biiYXEsBE5OO0yMdi0UifOi1hTiAd0o9NkX1OitdTxHytxT5dvdC2N513b1ailIVP0aEYE9YxWX+AwCKNEihMwVQTDrOZqmWy4EgQsVYQVmCAIl+cyLbKLkD0Eo6CKYBmO667okUfQOAHYvuRHC4Qvhn5ArdFJVKNBaGi5pjEZI4EX1eQ7zUiNBhhB9DEelXb9PQY7TnZR4B8GjCcc4C5Dr0rK7Dqa7j/Nbz/QhlXduTzX5cF23BUG7p83Xx7ilL7ouQLPvZ/67wPO/dhOO82kkRmXYorc9AD1aPXNfdCqJPLiD2v3R6yT+L7TtaPRI5SoCjiu27jJQlg6oA/fYZaqXcOcXF87wnbD/YLXfmufisewIenbDtopMkNC5dmkGEIzMQ1LuuO6gT5BASKdo7ls32tCiNYWAQpn3/97RiO5H4FoA1xXZAyFk9mV1JMwdlIamo8TFFIp7nFV46LiNE4TPskksKVHQQpEJ4EoBut1+LzfyXd2PZ9tPLhpTnpFik7Ycy0ydFRWYBzSnfvyerpUEg96LY/R3iB8l4vGAAUgcEwKIIcpalda8jZvuZwvoTqz9ctszvA10MZSaVSq1PecFPhaqh5ShuUQjkZtd1i1uRI0cXO86AgCzHj/fHKEFxo95QuWHDIyh80qkuUfzvJgQstPy/Aaqih1H6Mvg+R0RZToqR7D4VcR/Qp1XFMpnMEs/P/P/27jxKrqrOA/j396q7k5BOIJjueksldKDJAA2ICmhAJIIcFkEckcXxREVxnaOODs44LkfHQXEcFT3jYUYRhNFxBHFw2BdlCTjIEc54kChLiJ10vaXSTRZ7SdKp937zRzUxge5693UtXZ3+fs6Bw+n+vXdvNfWq7nv33t/vA6I4FwYLePbSpjm5BllHswKjeToVSZ8HalETmd9MFgH+odF9oeYKgmCgshVX/wpAloxpCwXJ1ZkaE5mdT8k0bcZ5GiQlh3wTbNi6dbtC/zs1MONuANu2u5Ba+U9vLhaLZvVHXm7W77qqFxVtaP0IEzNSVrQYRXdZcXICNH0P5h6KY1w3nykvsyZmJVhVtcEpQxsnbm9fZRSokpo4hWanICj9l+SSkyB43vggxWlePv+6DM3wg/tFSabBVuMIrjeIuhAZPuct4CJo9d0imTP/7YvvownSAu+jGasrPrB58/M7xsdPEeAJ02NEJdNaAMu0BnslMcWM11ifDhU1y1Wtmpo6lWavYnHzk+VYTwJgXjZVpPpKcpqcSEuscwyC0v1IneYUr2Dbp5ieU6zUMs/PDIThw6bno9Y2o196W7Zs+VNud/k8mBcYOtF13SNMz78rjh+HWenVV7hud5a7odah6Vm1AAC5XOYVuzS7lEqlzZKLz4Pp4kDBuZ7nmSbKmfVVM/dDCaCpOQHUcBpgWXf3YamV/yqZ/2oZADEdeQtp2DZAUxuHhkLXzb9fVG41ibcQnwHAaDX74ODgiOvYDwhwVlqsqLUGQNNTe9bC87zjkMRpuboBxZO+76dmD6PZr1gcfK7g5j+pKiaPaS3E8ekAbkqNVN1psgKnnGhnIyu40b4kl1yvce4zqLY+SnEBgI8hJf9DYllplf/G40rhqhrozvSlXPIVPww/W1s7ZKIlHnsHQek2CB4wiVVIygKVfYnCaGAB4OKenp7ZVRcgidcYxVn4nwb3hFpIMShdBzFLfiNidj2ppUaLduelZY+juioWB9cDqZURu123+42pJ0ur/Ke4pfbCNelb30TVrq0NMtUSAwAAQGJYElFxVKbz5nK3wWzb4ZLdu3a9J9O5Z9BErYS0+ToAgMK6pcHdodaSKPA9k0BVNbqecokYJZEq5/jh3Wwqen1ajKW5qtMAyxzneKQka1NLv5+tZy8nSE9GpgK+h5qkZQYA7fPn3wezL+pMaRknHn3fbRIr0L+rNV96syTl8nth8rdQPBkEQW1FZWjWsaz4HrNAs+tJ29qMBgCW5vjh3WTj4/FNSNkGqtC39fX1TVk2PEFS/e5f8HwQlGouXKNiNJDke6hJWmYA0N/fvw1miXs6s2buU9F/N4oDVkS2fVmWc8+E3t7eeSL4lEmsWtnKddL+YeLRcPrCPcM858ViMQQwkn666dUqoOkbGhoaBpCWE2DJtqGhqaZ7cgqpXvlP9VrUo/qh6nMGUSsBGORxp1q1zABgglFyiY6OjilHspMJgtKdADYaBQu+nM/nG1L8oV52jI5+CoBJSs2Rjo75zamrTa1GATW5nkyvpQSCp1KjRGfnbprZLkmfBpgqKZDruqdLtbtuwe72cvKDafdtb4lR7pfOQqF7tmdnnRVabQBgVP63v78/9U7kJWKBfMUwdkm7ZX0r4/mbZll392GAGuVDEMXVE09WaC4SMbmezK8l1fTMmorVvb29DcmdTlPzS6UHAfRXixHIWybWDu37c63++F9Vb+8fHKxLKXHN5YyysyZl68x6tEfVtdQAoOoo9M+GMY1ypsUwvA7AsyaxCn1Hs8pRZtHb2zsvyVk/hlk2rdEy8PVG94laU6FQWADFgamBap6SWwUPGoR1jo0NZ9qpQ3WRiFTfoqfAYsTx2Xv/bGI6tWrlP8tsS6mRIAgGTDJWioW31atNmlrLDAB6urpsBRYbhJrMIU2mDMXnTYMV+u1pFCBqqB1jI98EcKJZtF5V+5Ydmq1Ux9PzQwBQwXrTcyaJ/BIGC3UF0nKD57nAivUGpMzTq+hLpgHitwBYVOWQjcUoMltQakpxn0HM6wqF7mPr2i69TMsMAHa3tb3VJE4h0y5p60fRTwV6r2H4fLXkjuW23RJzUZ7jfBaKjxiGb1TJXdnQDlFL09gyup4EalwkqjKglF+nN45zPK/7labnpfrYVCptALC2apDi7L2naARS9U5bFdcha/XWFKK4zSROy1bmMvCUjVVw7S/atp1tb31DJEZ72i3goRoa0URy7xcYV/N6RQzcO9ODAM/JfwbQK0zjVfTjQRCMNbJPNDnPtb/uOM5M1zxvE8E7TAJVMl9PJpngLMTWNzCNWvRUI00tELRo1+jo6on/boPqGVViY8nlrqtLv/ZSjKJ7FUhfUyC4yHXdk+vdPv2ZpQmOyAke82z7w5ihJwKebb8bEJP/0VpW4zv4SQVBsAmQy40PELixhV+5bt4s534d9fb2zivY9rWAfNn4IMUPgqDEzH8zRXG8BX2i4ObT0qo2jOvan0RKUpcJu3bu3G2UgfNFufb2mwCkDy4Fp7uVz5SmqrbXfS4Yj+ObkbKwU1XPBQDHcVYBctCUgYK7GpRCvGwJUmsYABDR5Lquri6jxeF1JLMlH0ytXvzC74TgatexH3Mcx7hyVD0st+0+CL5hGP5QFEX9tbZZDMNrILjB+ADFgaJyl+faX2rWG6OQzx+zY3TkYRW8N8NhT5dVP9qwTpGpV6jKf3qOfb/ruq9uZsOe171KFF80Clb8fMuWLZlq22/atGkroN81iRXBVQXbXp3l/LUoOM47t20Z+tdmtdeKBgcHRyC4uVqMCs4FgJxo1ZsahTYsh4jkyt+CWWGglR253I/RpLwAhyxd6riOfWep0NXTjPZm2j53/AIcb0HXFhx7bcG2z3np7+vN87pXxYK1AMwqkqlhumAD7R3zPwTBYxkOaYPi85FjP1aw7VPr1Y+XKhQKB7uOc6Xm5AkAJ2Q4dGusuICFWFrKatHkCc+x75z4ImzoE4GC45yFxLoPhjXXBdO7nqy2+Osw+/DuUMFtXj5/2nTaMeU4ziEFJ3+LQn8ElfSdD/s5SVKnAXoKhYIHlSrrNNSfyJ/SEAMDQwEEZtMLgvM8x/5Jg5/uWAXHeX+5ve13JsXj9heTfsErcIoK7vAcu99z8v+UpQSvie7u7rzn2lcjsdYCONjkGAUe96Pop/XqQ39//04rV34bUvbOTuJVKnjQdey7Xbf7DNRpkLSsu/sw13Gu1LjcL9BPQzM9adhlQd4aRdHv69EXqruzVfCA5zjPeI7z2Xw+v6KeJ3ddd7nn2P+h0DsALDQ87K5iFE1rPc3AwFCQYVqqEzm527Xty1HnGwrXdZe6jnOlBf29QowWPc4FxShaC2BD1aA4PkZVq61t+gGmsd06C4X1BQBDhuFv37blhUcqeVDqq2Db57iO/ZhCvwfTm9H9RFo54GWAfE40+Zxn2+shehsS3B+LPJZ1i5nrugdYqmcDuECh50HNkv5MKEuiH0U9UlHuZWBgKLBt+425yv7mTAu3BDgTap3pOfZGUdyYWMkvgLZfmS6+6+3tnTc2NnaCaHwKRM5PFK+V6b28XSp68UAQVV/92wyafMtzbbNa9HUiVtsnisWi38w2p08PB3BFmyVXuI69DorbLZEHrfb2xyqP1s0dumTJgeMLOt6sKhdAk3MAZKlkOapifSJT11/ioIMP/trWLS9cIkD6AllFuwj+xXPsd6gknw6Czb9ADdey53nHQeMPQJM1MEweNseoKm4QwT9OFZConiiCQ6f6daxybYP6tkcQBEOebf9thunYE5Kc9TvPyX8TVttVvu+/MN22u7q6Oue1W5eoyocVePVcXa0qnm3/BDJ5isgUGwA8LYoNsNSHWlsAjKlqmwILLQudAJZCtVdh9QF6KKY9j6Of8cNSw7a15fP5FW2WPAhgeU0nEuyG4o9QPAOBr4rtIjIsoh1IMD8ROVigLoBDJ/6p9ZHWCCx9q+/XXqSjmoJtr1bDcs3NlkCOCsPQeCtbo3mO/SCArFNECsh6qD4NkQ0qGlgq2yDJSAKZB2ChBSxU1TxEDp+oiNmDad5Rq+j7gqBU8+ru5bbdFwt+jexfwk8B8hMVuTMIgt8h5U6zUCgcjDg+EapvVMF5qFZvQHGjH0XV89pXa8tx3qnQlPTZ8pwfhkZ5FmaKbds9uUrCnaneI0MAlk72CwXuCcKoaY/BPSf/Q0CMdoHtZQzAzwTy80RkbRAEaU8ScoV8/ii1rJOgeg4EbwIwZU0ZycUri8XB6eacQcGxNyhQ/Umf4mI/im6abhv1kPYEoJpDARyqAqDyr8pPpTLRqXvG93v9bhoEcm0xjL5aQz9TlUqlPy5btnRVUm67BcaJdiZReWy/EoKVACBS+aEqJv4udX2AsUHFenvgs9LffkAAPRyCwwGFKKBQQGXPogHdE1ZzU1cGQVSXrV2bomidZ9uXQnAjsg1Gjgb0ClG9wnPsMSjWA9gI0e0AxiDSUXlCqA6AHo3LXqXr9ej13BBFUb/n2g9CMdX6i0m//AHAQv0y/5mQXPsHNC4fBSDLgtkDAKxR6BpRhefYmxToF0FJVbcJoFBZDAuLVNEjwAoFDqiMtRv0QmahWgYADVf58g8/iDo/+p/MwMBQ0NPTc+ruXTu/B2BNo9urieLW9vnz3808/5SFQr4ahGFdk6v4UXRzwc1/UFW+i+k9kTgAgmMBHLvnk3mfmweatgQ3QKYcAEyllA/DWxux928qxWJxh23bZ+Us/BKKY6Z5muUCLK98v0+8bybuPfkumlrLZALcR+VR+uXFMLwMQNysZvv7+3f6YfQuKN4Dw8qEzaRAJKLv9KPofH75UwY7VPDeIAz/oREnLwal70PxPgDjjTg/TU9Z9Weo1E4xporrnwB2N6hLU4qiaLAc65sy7syiGlliGa/CbBL9rcJ6rR9FprkB6s6Pohvay3EfUH0/bRONiOJr83fuOqIYlH48052hqlrqehLgYVi544Igqk851yn4UXQ9rGQ1FEEj20nxSAx8aQbbbymlUmlUFFl2TqnVFn+/YR1KUSqVNi84oPNUQeMXIFYxCsgni8XB6rso9hNWMYg+KpA1Cqyb4b5shOJSPywdHwQzP6/dPzgY+WF0IRJdpcDdM9SNEqBfVrFWFKPo7zds3bp9hvpBhvwwugSKj5hUPGuwp6G4sBhGp/q+b1QFs1a+v/nR9vnz+yYSBdU1f3xVivUCWeOH0Ru4FXZfscj1xsGCB4rFQePiUI2wfv36XcUwvAyKc5F9i3YtygK5VsU60g/Dq9DEJ88zyQKgxTD8URBGRyeQN4jiOwA2Nan9BIpfQnGhHUaH+1F0PVrsD++XSr8OwuhsUbxWFNdlqCMwXcMAfqai59thtMwPS58zWOFKraPsR9G/+UG0UsU6U6HXGOU9r1PbUNwGxbl+GPX5UXQzmrB+Zm/9/f3b/LD0IVi510BwExo3EFAIHlDRS/woOrIYhj9Ck1/rbBCG4SMTiyxTNTLzX1Z+FN2hYvUJ9G8ADDSwqc2q+OdyoiuLYXhZEASNbKvlTLk+wnGcI3OSnKyQ10NxLCpbb7LsNZ6cIoDgUYHcMx7Ht27evLlU8zmbqFAoLEiS3eeLytkAVqPWrYN/tgmJXnrQ0qWPrFu3rqXmUpfbdl9s4Qsz3Y/JzJI8AFYhn+9LRE6ByMkiegwUf4Hat4ECwCaB/EqBuySXu6NYLLbU2hXbtnvaLL1EVS4CcBxqW5O1FcCjqrgTlnVrIz6sXdd9vSD5WLUYVQmDMPx4vdtuFM9x1kD0vGoxolKev3DhpevXr9/VrH6Z6uvr69i6degsqHWxiL4ZilqyPSYQrFOVB8RKbvX90kNoQMKjgmt/R4HuqkGSXOX7mx+td9tZZLkYc4VC14okaT9aND5SgRUCWQLFEhEcpMCSibiyAMMKDEMRKTBoiT4PWM/EwB/CMNzYiBcyU/L5/Io2kdeIhcMS1cMAWS7AEkDmAboIlQRDhvkP5Eq/zqu0qWW1ua7bK0lyNIAjReQQhS6B4CAolgB7PuTGBRhVwXZViQQYVNXnYCXP5nLJukpWvtlh+fLlS+Lx8ZMg8ipRXaEWVohisUIWA1q5RgSjAEaRYFCAQRV9HirPqmU9FQTBM+Bd/lyXKxS6+zTOrQJ0pUJXCMSDYAH0xSyYEgv0Tyr4k6hECg0BeVZUnx4bH/+/rPUv9mfcIdFgnuOsAfQGGP+t5fN+GBqX/iUiIpqOplRYmsuGR0aeXLxo4Tggpxsectqizs6x4ZGR/21ox4iIaE7jAKAJhkdGH1m8qHMxgFUm8SI4Y1Fn54LhkZFfNLhrREQ0R3EA0CTDIyP3LV7ceQgqC6FSieD1ixd35oeHR+4C5z2JiKjOOABoopXDI3cOL+o8QYBew0NOOHDRwld2zF9w59jYWEvtDCAiotmNiwCbLJ/PL2yzcA8gJ5seI8Dv1cr9ZbMSuhAR0f6vNWsB7MdKpdLoeDk5S4CHTY9R4ChJ4t94jvMhcNBGRER1wC+TGdLV1dXZ0Za7Hdlrxz9kQS4fCMPHG9EvIiKaGzgAmEGV6QC5HZWMgpkocI8k+p0FixbdlzF7l3iedzinE4iI5jYOAGaY67oHSJLcCoFpnoB9CbYDuFeAJ0Tlt0gSP87ltre1tY1YO3bM293RsRhx7Kmlh1pqrQL0NAWG/DA6sb6vhIiIZhMOAFpAX19fx7YtL1wD4F1NavI3HAAQEc1tXATYAtatWzfuh9G7JypfNa+MKhERzVkcALSQYlj6NhQXA9gx030hIqL9GwcALcaPopstyBsAeW6m+0JERPsvDgBa0EAYPj5eLr8agqvBKQEiImoADgBa1ODg4IgfRH+dQE6E4HawHgAREdURBwAtLgzDJ/wgOs9K9FgAPwTXBxARUR1wADBLDJRKT/lh9K5yol1QXATFjQA2Zz6RIFTF/fXvIRERzSbMAzDLFQoFT8vl4wAcAdGDVOVAC1ioFnZBZZuIbofKVqgWY5F1YRhunOk+ExERERERERERERERERERERERERERERERERERERERERERERERERERERERERERERERERERERERERERERERERERERERERERERERERERERERERERERERERERERERERERERERERERERERERERERERERERERERERERERERERERERERERERERERERERERERERERERERERERERERERERERERERERERERERERERERERERERERERERERERERERERHtn/4fuDOZNXVuSWYAAAAASUVORK5CYII=;" vertex="1" parent="1">
          <mxGeometry x="280" y="120" width="90" height="90" as="geometry" />
        </mxCell>
      </root>
    </mxGraphModel>
  </diagram>
</mxfile>
